<svg width="254" height="182" viewBox="0 0 254 182" fill="none" xmlns="http://www.w3.org/2000/svg">
<g clip-path="url(#clip0_1120_26069)">
<path d="M254 0H0V182H254V0Z" fill="white"/>
<path d="M117.637 15.2354H16.2814C15.1573 15.2354 14.2461 16.1571 14.2461 17.2942V116.941C14.2461 118.078 15.1573 119 16.2814 119H117.637C118.761 119 119.672 118.078 119.672 116.941V17.2942C119.672 16.1571 118.761 15.2354 117.637 15.2354Z" stroke="#1A1B22" stroke-width="2"/>
<path d="M235.276 65.0586H133.92C132.796 65.0586 131.885 65.9804 131.885 67.1174V165.117C131.885 166.254 132.796 167.176 133.92 167.176H235.276C236.4 167.176 237.311 166.254 237.311 165.117V67.1174C237.311 65.9804 236.4 65.0586 235.276 65.0586Z" fill="#1A1B22" stroke="#1A1B22" stroke-width="2"/>
<path d="M156.572 132.176H162.076L165.039 123.772H182.66L185.676 132.176H191.497L177.051 93.3677H170.807L156.572 132.176ZM173.77 98.8812L180.967 119.115H166.679L173.77 98.8812ZM213.093 120.132C213.093 126.931 208.807 129.018 204.309 129.018C200.869 129.018 198.805 127.198 198.805 124.468C198.805 120.507 204.362 119.169 213.093 118.312V120.132ZM203.25 132.872C208.33 132.872 211.241 131.213 212.987 128.215C213.04 129.928 213.199 131.106 213.358 132.176H218.226C217.644 129.446 217.432 126.181 217.485 121.31L217.538 114.672C217.591 106.536 214.098 102.789 206.214 102.789C200.71 102.789 195.207 106.268 194.784 112.478H199.758C199.97 108.891 202.245 106.75 206.267 106.75C209.865 106.75 212.723 108.463 212.723 113.762V114.458C201.081 115.743 193.461 117.777 193.461 124.575C193.461 129.875 197.906 132.872 203.25 132.872Z" fill="white"/>
<path d="M26.2031 82.3528H38.1623L41.549 75.8757H53.614L54.3548 82.3528H66.1023L60.1756 43.5439H48.0577L26.2031 82.3528ZM51.5502 56.7657L52.7144 67.5251H45.8881L51.5502 56.7657ZM89.6111 63.7781C75.1649 65.2234 68.762 68.5422 68.762 75.0192C68.762 79.5157 72.2016 83.0486 77.8107 83.0486C81.8324 83.0486 85.1132 81.8175 87.4945 78.6057L86.7007 82.3528H96.4374C96.5961 79.1945 97.6545 74.2163 98.3424 70.7904L99.242 66.401C99.5595 65.0092 99.7182 63.7245 99.7182 62.5469C99.7182 55.0528 93.8445 52.5369 86.5949 52.5369C77.0699 52.5369 72.1486 57.7828 71.302 63.1892H80.4036C81.0386 60.4592 82.9436 59.2816 85.6424 59.2816C87.812 59.2816 89.8228 60.031 89.8228 62.2257V62.6004C89.8228 62.7075 89.8228 62.8145 89.7699 62.9751L89.6111 63.7781ZM88.3941 70.3086C87.3886 74.7516 85.272 75.8757 82.5203 75.8757C80.6682 75.8757 79.8216 74.8586 79.8216 73.4134C79.8216 71.1116 81.9382 69.9339 88.6057 69.2381L88.3941 70.3086Z" fill="#1A1B22"/>
<path d="M131.478 29.853C131.141 29.853 130.867 30.1296 130.867 30.4707C130.867 30.8118 131.141 31.0883 131.478 31.0883V29.853ZM160.81 30.9075C161.048 30.6662 161.048 30.2751 160.81 30.0339L156.925 26.1033C156.686 25.8621 156.299 25.8621 156.061 26.1033C155.823 26.3445 155.823 26.7355 156.061 26.9767L159.515 30.4707L156.061 33.9646C155.823 34.2059 155.823 34.5969 156.061 34.8381C156.299 35.0793 156.686 35.0793 156.925 34.8381L160.81 30.9075ZM131.478 31.0883H160.378V29.853H131.478V31.0883Z" fill="#1A1B22"/>
<path d="M122.115 157.912C122.452 157.912 122.725 157.635 122.725 157.294C122.725 156.953 122.452 156.677 122.115 156.677V157.912ZM92.7821 156.857C92.544 157.099 92.544 157.49 92.7821 157.731L96.6678 161.662C96.9064 161.903 97.2931 161.903 97.5316 161.662C97.7697 161.421 97.7697 161.029 97.5316 160.788L94.0773 157.294L97.5316 153.801C97.7697 153.559 97.7697 153.168 97.5316 152.927C97.2931 152.686 96.9064 152.686 96.6678 152.927L92.7821 156.857ZM122.115 156.677H93.214V157.912H122.115V156.677Z" fill="#1A1B22"/>
<path d="M169.13 30.4707C169.13 30.1296 168.857 29.853 168.52 29.853C168.183 29.853 167.909 30.1296 167.909 30.4707H169.13ZM168.088 60.1429C168.326 60.3837 168.713 60.3837 168.952 60.1429L172.837 56.2121C173.075 55.9709 173.075 55.5797 172.837 55.3384C172.599 55.0975 172.212 55.0975 171.973 55.3384L168.52 58.8326L165.066 55.3384C164.827 55.0975 164.441 55.0975 164.202 55.3384C163.964 55.5797 163.964 55.9709 164.202 56.2121L168.088 60.1429ZM167.909 30.4707V59.706H169.13V30.4707H167.909Z" fill="#1A1B22"/>
<path d="M84.4637 157.294C84.4637 157.635 84.7373 157.912 85.0743 157.912C85.4113 157.912 85.6849 157.635 85.6849 157.294H84.4637ZM85.5062 127.622C85.2677 127.381 84.881 127.381 84.6424 127.622L80.7567 131.553C80.5186 131.794 80.5186 132.185 80.7567 132.427C80.9953 132.667 81.3819 132.667 81.6205 132.427L85.0743 128.932L88.5281 132.427C88.7667 132.667 89.1534 132.667 89.3919 132.427C89.63 132.185 89.63 131.794 89.3919 131.553L85.5062 127.622ZM85.6849 157.294V128.059H84.4637V157.294H85.6849Z" fill="#1A1B22"/>
</g>
<defs>
<clipPath id="clip0_1120_26069">
<rect width="254" height="182" fill="white"/>
</clipPath>
</defs>
</svg>
