<svg width="254" height="182" viewBox="0 0 254 182" fill="none" xmlns="http://www.w3.org/2000/svg">
<g clip-path="url(#clip0_1120_26080)">
<path d="M254 0H0V182H254V0Z" fill="white"/>
<path d="M215.942 16.2648C222.686 16.2648 228.154 21.7954 228.154 28.6178C228.154 35.4401 222.686 40.9707 215.942 40.9707C209.198 40.9707 203.73 35.4401 203.73 28.6178C203.73 21.7954 209.198 16.2648 215.942 16.2648Z" fill="white" stroke="#1A1B22" stroke-width="3"/>
<path d="M124.76 78.4411C131.505 78.4411 136.972 83.9717 136.972 90.794C136.972 97.6164 131.505 103.147 124.76 103.147C118.016 103.147 112.549 97.6164 112.549 90.794C112.549 83.9717 118.016 78.4411 124.76 78.4411Z" fill="#1A1B22" stroke="#1A1B22" stroke-width="3"/>
<path d="M33.1744 80.9118C39.9187 80.9118 45.386 86.4424 45.386 93.2647C45.386 100.087 39.9187 105.618 33.1744 105.618C26.4302 105.618 20.9629 100.087 20.9629 93.2647C20.9629 86.4424 26.4302 80.9118 33.1744 80.9118Z" fill="white" stroke="#1A1B22" stroke-width="3"/>
<path d="M124.354 16.2648C131.098 16.2648 136.566 21.7954 136.566 28.6178C136.566 35.4401 131.098 40.9707 124.354 40.9707C117.61 40.9707 112.143 35.4401 112.143 28.6178C112.143 21.7954 117.61 16.2648 124.354 16.2648Z" fill="#1A1B22" stroke="#1A1B22" stroke-width="3"/>
<path d="M33.1744 16.2648C39.9187 16.2648 45.386 21.7954 45.386 28.6178C45.386 35.4401 39.9187 40.9707 33.1744 40.9707C26.4302 40.9707 20.9629 35.4401 20.9629 28.6178C20.9629 21.7954 26.4302 16.2648 33.1744 16.2648Z" fill="#1A1B22" stroke="#1A1B22" stroke-width="3"/>
<path d="M219.198 78.4411C225.942 78.4411 231.409 83.9717 231.409 90.794C231.409 97.6164 225.942 103.147 219.198 103.147C212.454 103.147 206.986 97.6164 206.986 90.794C206.986 83.9717 212.454 78.4411 219.198 78.4411Z" fill="#1A1B22" stroke="#1A1B22" stroke-width="3"/>
<path d="M172.794 48.7941C179.538 48.7941 185.005 54.3247 185.005 61.1471C185.005 67.9694 179.538 73.5 172.794 73.5C166.049 73.5 160.582 67.9694 160.582 61.1471C160.582 54.3247 166.049 48.7941 172.794 48.7941Z" fill="white" stroke="#1A1B22" stroke-width="3"/>
<path d="M75.5084 48.7941C82.2527 48.7941 87.7199 54.3247 87.72 61.1471C87.72 67.9694 82.2527 73.5 75.5084 73.5C68.7642 73.5 63.2969 67.9694 63.2969 61.1471C63.2969 54.3247 68.7642 48.7941 75.5084 48.7941Z" fill="white" stroke="#1A1B22" stroke-width="3"/>
<path d="M216.959 123.324H37.0421C25.2396 123.324 15.6719 133.002 15.6719 144.941C15.6719 156.88 25.2396 166.559 37.0421 166.559H216.959C228.761 166.559 238.329 156.88 238.329 144.941C238.329 133.002 228.761 123.324 216.959 123.324Z" fill="white" stroke="#1A1B22" stroke-width="3"/>
<path d="M57.5982 145.353C57.5982 157.065 48.2128 166.559 36.635 166.559C25.0574 166.559 15.6719 157.065 15.6719 145.353C15.6719 133.641 25.0574 124.147 36.635 124.147C48.2128 124.147 57.5982 133.641 57.5982 145.353Z" stroke="#1A1B22" stroke-width="3"/>
<path d="M143.893 145.353C143.893 157.065 134.508 166.559 122.93 166.559C111.352 166.559 101.967 157.065 101.967 145.353C101.967 133.641 111.352 124.147 122.93 124.147C134.508 124.147 143.893 133.641 143.893 145.353Z" stroke="#1A1B22" stroke-width="3"/>
<path d="M100.747 145.353C100.747 157.065 91.3612 166.559 79.7835 166.559C68.2057 166.559 58.8203 157.065 58.8203 145.353C58.8203 133.641 68.2057 124.147 79.7835 124.147C91.3612 124.147 100.747 133.641 100.747 145.353Z" fill="#1A1B22" stroke="#1A1B22" stroke-width="3"/>
</g>
<defs>
<clipPath id="clip0_1120_26080">
<rect width="254" height="182" fill="white"/>
</clipPath>
</defs>
</svg>
