<svg width="254" height="182" viewBox="0 0 254 182" fill="none" xmlns="http://www.w3.org/2000/svg">
<g clip-path="url(#clip0_1120_26066)">
<path d="M254 0H0V182H254V0Z" fill="white"/>
<path d="M237.717 15.2354H16.2814C15.1573 15.2354 14.2461 16.1571 14.2461 17.2942V165.118C14.2461 166.255 15.1573 167.177 16.2814 167.177H237.717C238.841 167.177 239.753 166.255 239.753 165.118V17.2942C239.753 16.1571 238.841 15.2354 237.717 15.2354Z" stroke="#1A1B22" stroke-width="2"/>
<path d="M153.864 31.7061H29.3067C28.1827 31.7061 27.2715 32.6278 27.2715 33.7649V116.53C27.2715 117.667 28.1827 118.588 29.3067 118.588H153.864C154.988 118.588 155.9 117.667 155.9 116.53V33.7649C155.9 32.6278 154.988 31.7061 153.864 31.7061Z" fill="#1A1B22" stroke="#1A1B22" stroke-width="2"/>
<path d="M225.303 102.735C225.303 112.406 216.715 121.364 202.354 127.94C188.049 134.491 168.244 138.559 146.335 138.559C124.426 138.559 104.621 134.491 90.3163 127.94C75.9556 121.364 67.3672 112.406 67.3672 102.735C67.3672 93.0651 75.9556 84.1067 90.3163 77.5305C104.621 70.9797 124.426 66.9119 146.335 66.9119C168.244 66.9119 188.049 70.9797 202.354 77.5305C216.715 84.1067 225.303 93.0651 225.303 102.735Z" fill="white" stroke="#1A1B22" stroke-width="3"/>
<path d="M186.837 102.941L216.801 147.721H156.873L186.837 102.941Z" fill="#1A1B22"/>
</g>
<defs>
<clipPath id="clip0_1120_26066">
<rect width="254" height="182" fill="white"/>
</clipPath>
</defs>
</svg>
