<svg width="254" height="182" viewBox="0 0 254 182" fill="none" xmlns="http://www.w3.org/2000/svg">
<g clip-path="url(#clip0_1120_26065)">
<path d="M254 0H0V182H254V0Z" fill="white"/>
<path d="M234.257 15.6142C234.239 15.2735 233.952 15.0121 233.615 15.0302L228.128 15.3252C227.791 15.3433 227.532 15.6341 227.55 15.9747C227.568 16.3153 227.856 16.5768 228.193 16.5587L233.07 16.2965L233.329 21.2307C233.347 21.5714 233.635 21.8328 233.972 21.8147C234.308 21.7966 234.567 21.5058 234.549 21.1652L234.257 15.6142ZM194.21 60.9423L234.101 16.0599L233.194 15.234L193.303 60.1163L194.21 60.9423Z" fill="#1A1B22"/>
<path d="M238.149 91.4368C238.387 91.1955 238.387 90.8043 238.149 90.563L234.263 86.6323C234.025 86.3914 233.638 86.3914 233.4 86.6323C233.161 86.8736 233.161 87.2648 233.4 87.5061L236.854 90.9999L233.4 94.4937C233.161 94.735 233.161 95.1262 233.4 95.3675C233.638 95.6084 234.025 95.6084 234.263 95.3675L238.149 91.4368ZM213.701 91.6176H237.717V90.3823H213.701V91.6176Z" fill="#1A1B22"/>
<path d="M12.1867 90.563C11.9482 90.8043 11.9482 91.1955 12.1867 91.4368L16.0724 95.3675C16.3108 95.6084 16.6974 95.6084 16.9358 95.3675C17.1743 95.1262 17.1743 94.735 16.9358 94.4937L13.4819 90.9999L16.9358 87.5061C17.1743 87.2648 17.1743 86.8736 16.9358 86.6323C16.6974 86.3914 16.3108 86.3914 16.0724 86.6323L12.1867 90.563ZM39.4838 90.3823H12.6184V91.6176H39.4838V90.3823Z" fill="#1A1B22"/>
<path d="M238.328 165.974C238.31 166.315 238.022 166.576 237.685 166.558L232.198 166.263C231.861 166.245 231.603 165.954 231.621 165.613C231.639 165.273 231.926 165.011 232.263 165.029L237.141 165.292L237.4 160.357C237.418 160.017 237.705 159.755 238.042 159.773C238.379 159.791 238.637 160.082 238.619 160.423L238.328 165.974ZM198.281 120.646L238.172 165.528L237.264 166.354L197.373 121.472L198.281 120.646Z" fill="#1A1B22"/>
<path d="M14.8589 15.6142C14.8768 15.2735 15.1643 15.0121 15.501 15.0302L20.9885 15.3252C21.3252 15.3433 21.5837 15.6341 21.5658 15.9747C21.5479 16.3153 21.2604 16.5768 20.9237 16.5587L16.0459 16.2965L15.7867 21.2307C15.7689 21.5714 15.4814 21.8328 15.1446 21.8147C14.8079 21.7966 14.5494 21.5058 14.5673 21.1652L14.8589 15.6142ZM54.9058 60.9423L15.0146 16.0599L15.9227 15.234L55.8135 60.1163L54.9058 60.9423Z" fill="#1A1B22"/>
<path d="M18.9292 165.974C18.9471 166.315 19.2346 166.576 19.5713 166.558L25.0588 166.263C25.3955 166.245 25.654 165.954 25.6361 165.613C25.6182 165.273 25.3307 165.011 24.994 165.029L20.1162 165.292L19.857 160.357C19.8392 160.017 19.5517 159.755 19.2149 159.773C18.8782 159.791 18.6197 160.082 18.6376 160.423L18.9292 165.974ZM58.9761 120.646L19.0849 165.528L19.993 166.354L59.8838 121.472L58.9761 120.646Z" fill="#1A1B22"/>
<path d="M193.755 91.2059C193.755 128.842 163.594 159.353 126.388 159.353C89.1828 159.353 59.0215 128.842 59.0215 91.2059C59.0215 53.5694 89.1828 23.0588 126.388 23.0588C163.594 23.0588 193.755 53.5694 193.755 91.2059Z" fill="#1A1B22" stroke="#1A1B22" stroke-width="2"/>
<path d="M204.95 90.7942C204.95 100.465 196.361 109.423 182 115.999C167.695 122.55 147.89 126.618 125.982 126.618C104.073 126.618 84.2678 122.55 69.9628 115.999C55.602 109.423 47.0137 100.465 47.0137 90.7942C47.0137 81.1239 55.602 72.1656 69.9628 65.5893C84.2678 59.0385 104.073 54.9707 125.982 54.9707C147.89 54.9707 167.695 59.0385 182 65.5893C196.361 72.1656 204.95 81.1239 204.95 90.7942Z" fill="white" stroke="#1A1B22" stroke-width="3"/>
<path d="M150.61 90.7942C150.61 104.78 139.403 116.118 125.577 116.118C111.751 116.118 100.543 104.78 100.543 90.7942C100.543 76.8082 111.751 65.4707 125.577 65.4707C139.403 65.4707 150.61 76.8082 150.61 90.7942Z" fill="#1A1B22" stroke="#1A1B22" stroke-width="2"/>
</g>
<defs>
<clipPath id="clip0_1120_26065">
<rect width="254" height="182" fill="white"/>
</clipPath>
</defs>
</svg>
