<svg width="254" height="182" viewBox="0 0 254 182" fill="none" xmlns="http://www.w3.org/2000/svg">
<g clip-path="url(#clip0_1120_26068)">
<path d="M254 0H0V182H254V0Z" fill="white"/>
<path d="M229.577 17.2942H21.9809C17.4847 17.2942 13.8398 20.9813 13.8398 25.5295V104.588C13.8398 109.137 17.4847 112.824 21.9809 112.824H229.577C234.073 112.824 237.718 109.137 237.718 104.588V25.5295C237.718 20.9813 234.073 17.2942 229.577 17.2942Z" fill="#1A1B22"/>
<path d="M237.108 129.088C237.108 133.84 234.15 138.473 228.552 142.781C222.964 147.082 214.84 150.982 204.746 154.268C184.564 160.838 156.645 164.912 125.78 164.912C94.9142 164.912 66.9954 160.838 46.8138 154.268C36.7196 150.982 28.5951 147.082 23.007 142.781C17.4095 138.473 14.4512 133.84 14.4512 129.088C14.4512 124.336 17.4095 119.703 23.007 115.395C28.5951 111.094 36.7196 107.195 46.8138 103.908C66.9954 97.3382 94.9142 93.2646 125.78 93.2646C156.645 93.2646 184.564 97.3382 204.746 103.908C214.84 107.195 222.964 111.094 228.552 115.395C234.15 119.703 237.108 124.336 237.108 129.088Z" fill="white" stroke="#1A1B22" stroke-width="3"/>
<path d="M92.2299 131.032L100.432 147.412H107.205L98.3682 130.015C103.131 128.516 105.777 125.358 105.777 119.791C105.777 110.798 99.5853 108.603 89.2665 108.603H77.0957V147.412H83.1282V131.085H89.7428C90.5895 131.085 91.4361 131.085 92.2299 131.032ZM83.1282 113.635H89.9545C95.4049 113.635 99.5853 114.331 99.5853 119.898C99.5853 125.251 95.7224 126.107 90.0603 126.107H83.1282V113.635ZM144.932 120.379C143.345 112.511 137.153 107.907 128.898 107.907C117.839 107.907 110.801 115.883 110.801 127.927C110.801 139.864 117.204 148.108 128.21 148.108C133.396 148.108 137.735 146.341 140.117 142.648L140.381 147.412H145.091V127.392H129.48V132.584H139.482V133.441C139.482 140.935 133.502 143.022 128.634 143.022C121.702 143.022 116.992 137.509 116.992 127.927C116.992 118.078 122.019 112.992 128.687 112.992C134.296 112.992 137.841 115.829 139.111 120.379H144.932ZM153.06 108.603V147.412H168.3C176.079 147.412 182.323 144.2 182.323 135.956C182.323 130.978 179.995 128.302 176.555 126.749C179.042 125.304 180.788 121.985 180.788 118.345C180.788 110.476 174.227 108.603 167.189 108.603H153.06ZM159.093 125.036V113.635H167.93C171.951 113.635 174.703 115.401 174.703 119.095C174.703 123.27 172.057 125.036 167.93 125.036H159.093ZM159.093 142.38V129.747H168.141C173.592 129.747 176.132 131.674 176.132 135.956C176.132 140.078 173.592 142.38 168.459 142.38H159.093Z" fill="#1A1B22"/>
<path d="M126.267 48.7942H121.627V61.3118H106.81V48.7942H102.17V78.6471H106.81V65.2648H121.627V78.6471H126.267V48.7942ZM132.778 48.7942V78.6471H153.212V74.653H137.419V65.2648H152.317V61.3118H137.419V52.7883H153.212V48.7942H132.778ZM165.231 63.3295L154.322 78.6471H159.573L167.836 67.0354L176.018 78.6471H181.553L170.645 63.1236L180.821 48.7942H175.57L167.999 59.4177L160.59 48.7942H155.054L165.231 63.3295Z" fill="white"/>
<path d="M73.786 56.2471H68.0466L67.6395 59.6236H73.3382L72.3613 66.6236H66.6626L66.2148 69.9589H71.9136L70.7331 78.6471H74.3559L75.4956 69.9589H81.5607L80.4209 78.6471H84.0437L85.1834 69.9589H90.76L91.1671 66.6236H85.6719L86.6081 59.6236H92.144L92.5918 56.2471H87.0966L88.1142 48.7942H84.4914L83.4738 56.2471H77.368L78.4264 48.7942H74.8036L73.786 56.2471ZM75.9841 66.6236L76.9203 59.6236H82.9854L82.0491 66.6236H75.9841Z" fill="white"/>
</g>
<defs>
<clipPath id="clip0_1120_26068">
<rect width="254" height="182" fill="white"/>
</clipPath>
</defs>
</svg>
