<svg width="254" height="182" viewBox="0 0 254 182" fill="none" xmlns="http://www.w3.org/2000/svg">
<g clip-path="url(#clip0_1120_26074)">
<path d="M254 0H0V182H254V0Z" fill="white"/>
<path d="M10.7871 18.1176L10.7871 163.882C10.7871 168.089 14.1586 171.5 18.3176 171.5H96.4714C100.63 171.5 104.002 168.089 104.002 163.882L104.002 18.1176C104.002 13.9105 100.63 10.5 96.4714 10.5H18.3176C14.1586 10.5 10.7871 13.9105 10.7871 18.1176Z" fill="white" stroke="#1A1B22" stroke-width="3"/>
<path d="M144.504 18.1177V163.882C144.504 168.431 148.149 172.118 152.645 172.118H230.799C235.295 172.118 238.94 168.431 238.94 163.882V18.1177C238.94 13.5694 235.295 9.88239 230.799 9.88239H152.645C148.149 9.88239 144.504 13.5694 144.504 18.1177Z" fill="#1A1B22"/>
<path d="M191.517 126.206C212.649 126.206 229.78 108.877 229.78 87.4998C229.78 66.1232 212.649 48.7939 191.517 48.7939C170.385 48.7939 153.254 66.1232 153.254 87.4998C153.254 108.877 170.385 126.206 191.517 126.206Z" fill="white" stroke="white" stroke-width="3"/>
<path d="M54.7484 126.823C76.2176 126.823 93.6218 109.218 93.6218 87.4998C93.6218 65.782 76.2176 48.1763 54.7484 48.1763C33.2792 48.1763 15.875 65.782 15.875 87.4998C15.875 109.218 33.2792 126.823 54.7484 126.823Z" fill="#1A1B22"/>
<path d="M108.683 87.0883C108.346 87.0883 108.072 87.365 108.072 87.706C108.072 88.0469 108.346 88.3236 108.683 88.3236V87.0883ZM138.015 88.1428C138.253 87.9016 138.253 87.5104 138.015 87.2691L134.13 83.3384C133.891 83.0975 133.504 83.0975 133.266 83.3384C133.028 83.5797 133.028 83.9708 133.266 84.2121L136.72 87.706L133.266 91.1998C133.028 91.4411 133.028 91.8323 133.266 92.0735C133.504 92.3144 133.891 92.3144 134.13 92.0735L138.015 88.1428ZM108.683 88.3236H137.583V87.0883H108.683V88.3236Z" fill="#1A1B22"/>
</g>
<defs>
<clipPath id="clip0_1120_26074">
<rect width="254" height="182" fill="white"/>
</clipPath>
</defs>
</svg>
