<svg width="254" height="182" viewBox="0 0 254 182" fill="none" xmlns="http://www.w3.org/2000/svg">
<g clip-path="url(#clip0_1120_26084)">
<path d="M254 0H0V182H254V0Z" fill="white"/>
<path d="M243.416 8.64697H10.1759C9.05184 8.64697 8.14062 9.56874 8.14062 10.7058V171.294C8.14062 172.431 9.05184 173.353 10.1759 173.353H243.416C244.54 173.353 245.452 172.431 245.452 171.294V10.7058C245.452 9.56874 244.54 8.64697 243.416 8.64697Z" stroke="#1A1B22" stroke-width="2"/>
<path d="M60.4478 8.23535L64.4044 25.9547L79.5886 16.2555L70.0001 31.6152L87.5167 35.6177L70.0001 39.6202L79.5886 54.9801L64.4044 45.2806L60.4478 63.0001L56.4913 45.2806L41.307 54.9801L50.8955 39.6202L33.3789 35.6177L50.8955 31.6152L41.307 16.2555L56.4913 25.9547L60.4478 8.23535Z" fill="#1A1B22"/>
<path d="M60.4478 63L64.4044 80.7195L79.5886 71.0199L70.0001 86.38L87.5167 90.3824L70.0001 94.3847L79.5886 109.745L64.4044 100.045L60.4478 117.765L56.4913 100.045L41.307 109.745L50.8955 94.3847L33.3789 90.3824L50.8955 86.38L41.307 71.0199L56.4913 80.7195L60.4478 63Z" fill="#1A1B22"/>
<path d="M60.4478 117.765L64.4044 135.484L79.5886 125.785L70.0001 141.145L87.5167 145.147L70.0001 149.149L79.5886 164.509L64.4044 154.81L60.4478 172.529L56.4913 154.81L41.307 164.509L50.8955 149.149L33.3789 145.147L50.8955 141.145L41.307 125.785L56.4913 135.484L60.4478 117.765Z" fill="#1A1B22"/>
<path d="M178.289 8.64697H107.055V173.353H178.289V8.64697Z" fill="#1A1B22" stroke="#1A1B22" stroke-width="2"/>
<path d="M210.446 56C212.919 56 214.924 53.9721 214.924 51.4706C214.924 48.969 212.919 46.9412 210.446 46.9412C207.973 46.9412 205.969 48.969 205.969 51.4706C205.969 53.9721 207.973 56 210.446 56Z" fill="#1A1B22"/>
<path d="M210.446 135.47C212.919 135.47 214.924 133.443 214.924 130.941C214.924 128.44 212.919 126.412 210.446 126.412C207.973 126.412 205.969 128.44 205.969 130.941C205.969 133.443 207.973 135.47 210.446 135.47Z" fill="#1A1B22"/>
<path d="M178.695 88.9412H245.859" stroke="#1A1B22" stroke-width="2"/>
<path d="M107.055 88.9412H178.696" stroke="white" stroke-width="2"/>
<path d="M210.446 115.391L213.806 125.851L213.897 126.136H214.193H225.065L216.269 132.601L216.03 132.776L216.121 133.061L219.481 143.521L210.685 137.057L210.446 136.881L210.206 137.057L201.411 143.521L204.77 133.061L204.861 132.776L204.623 132.601L195.826 126.136H206.699H206.994L207.086 125.851L210.446 115.391Z" fill="white" stroke="#1A1B22" stroke-width="2"/>
<path d="M142.874 35.9207L146.233 46.3807L146.325 46.6652H146.62H157.493L148.697 53.1299L148.458 53.3057L148.549 53.5903L151.909 64.0507L143.113 57.586L142.874 57.4102L142.634 57.586L133.838 64.0507L137.198 53.5903L137.289 53.3057L137.05 53.1299L128.254 46.6652H139.127H139.422L139.514 46.3807L142.874 35.9207Z" fill="white" stroke="#1A1B22" stroke-width="2"/>
<path d="M140.839 135.47C143.312 135.47 145.316 133.443 145.316 130.941C145.316 128.44 143.312 126.412 140.839 126.412C138.366 126.412 136.361 128.44 136.361 130.941C136.361 133.443 138.366 135.47 140.839 135.47Z" fill="white"/>
</g>
<defs>
<clipPath id="clip0_1120_26084">
<rect width="254" height="182" fill="white"/>
</clipPath>
</defs>
</svg>
