<svg width="254" height="182" viewBox="0 0 254 182" fill="none" xmlns="http://www.w3.org/2000/svg">
<g clip-path="url(#clip0_1120_26072)">
<path d="M254 0H0V182H254V0Z" fill="white"/>
<path d="M225.912 39.7354H43.5532C38.495 39.7354 34.3945 43.8833 34.3945 49.0001V156.059C34.3945 161.176 38.495 165.324 43.5532 165.324H225.912C230.97 165.324 235.071 161.176 235.071 156.059V49.0001C235.071 43.8833 230.97 39.7354 225.912 39.7354Z" fill="white" stroke="#1A1B22" stroke-width="3"/>
<path d="M214.922 25.9414H32.5634C27.3928 25.9414 23.2012 30.1815 23.2012 35.412V142.471C23.2012 147.701 27.3928 151.941 32.5634 151.941H214.922C220.093 151.941 224.285 147.701 224.285 142.471V35.412C224.285 30.1815 220.093 25.9414 214.922 25.9414Z" fill="#1A1B22" stroke="#1A1B22" stroke-width="2"/>
<path d="M204.748 16.6763H22.3891C17.3309 16.6763 13.2305 20.8242 13.2305 25.941V133C13.2305 138.117 17.3309 142.265 22.3891 142.265H204.748C209.806 142.265 213.907 138.117 213.907 133V25.941C213.907 20.8242 209.806 16.6763 204.748 16.6763Z" fill="white" stroke="#1A1B22" stroke-width="3"/>
<path d="M173.2 94.2943C173.2 101.519 166.755 108.264 155.855 113.239C145.012 118.188 129.99 121.265 113.364 121.265C96.7379 121.265 81.7156 118.188 70.8726 113.239C59.9726 108.264 53.5273 101.519 53.5273 94.2943C53.5273 87.0695 59.9726 80.3244 70.8726 75.3494C81.7156 70.4008 96.7379 67.3237 113.364 67.3237C129.99 67.3237 145.012 70.4008 155.855 75.3494C166.755 80.3244 173.2 87.0695 173.2 94.2943Z" fill="#1A1B22" stroke="#1A1B22" stroke-width="3"/>
<path d="M173.2 81.9413C173.2 89.1661 166.755 95.9112 155.855 100.886C145.012 105.835 129.99 108.912 113.364 108.912C96.7379 108.912 81.7156 105.835 70.8726 100.886C59.9726 95.9112 53.5273 89.1661 53.5273 81.9413C53.5273 74.7165 59.9726 67.9714 70.8726 62.9964C81.7156 58.0478 96.7379 54.9707 113.364 54.9707C129.99 54.9707 145.012 58.0478 155.855 62.9964C166.755 67.9714 173.2 74.7165 173.2 81.9413Z" fill="white" stroke="#1A1B22" stroke-width="3"/>
<path d="M113.365 91.4118C146.749 91.4118 173.812 79.0601 173.812 63.8236C173.812 48.587 146.749 36.2354 113.365 36.2354C79.9811 36.2354 52.918 48.587 52.918 63.8236C52.918 79.0601 79.9811 91.4118 113.365 91.4118Z" fill="#1A1B22"/>
<path d="M74.243 64.0074L76.9979 64.5711C79.4126 65.0722 81.6416 66.0115 81.6416 68.3602C81.6416 70.5524 79.5982 71.9615 76.6886 71.9615C73.5311 71.9615 71.4568 70.3642 70.8067 67.2641H67.3398C67.8658 72.0241 71.364 74.9365 76.5648 74.9365C80.9297 74.9365 85.2013 72.5878 85.2013 68.0785C85.2013 63.5063 81.27 62.1285 77.6789 61.3771L75.0168 60.8134C73.0976 60.4061 71.6118 59.4356 71.6118 57.5567C71.6118 55.1767 74.4286 54.3939 76.0695 54.3939C78.2053 54.3939 80.6508 55.208 81.3628 57.9009H84.7682C83.9011 53.3291 80.3415 51.4189 76.2241 51.4189C72.4475 51.4189 68.0208 53.423 68.0208 57.7132C68.0208 61.5335 71.0546 63.3498 74.243 64.0074ZM93.2434 54.8638V74.5292H96.7725V54.8638H103.955V51.8262H86.0308V54.8638H93.2434ZM110.107 51.8262L101.78 74.5292H105.37L107.104 69.5502H116.855L118.62 74.5292H122.458L114.007 51.8262H110.107ZM108.157 66.5439L111.933 55.7091L115.772 66.5439H108.157ZM133.787 64.9471L138.586 74.5292H142.548L137.378 64.3521C140.164 63.475 141.712 61.6274 141.712 58.3708C141.712 53.1101 138.09 51.8262 132.054 51.8262H124.934V74.5292H128.463V64.9784H132.333C132.827 64.9784 133.323 64.9784 133.787 64.9471ZM128.463 54.7695H132.456C135.645 54.7695 138.09 55.1767 138.09 58.4334C138.09 61.5648 135.83 62.0659 132.518 62.0659H128.463V54.7695ZM149.805 54.8638V74.5292H153.334V54.8638H160.516V51.8262H142.592V54.8638H149.805Z" fill="white"/>
</g>
<defs>
<clipPath id="clip0_1120_26072">
<rect width="254" height="182" fill="white"/>
</clipPath>
</defs>
</svg>
