<svg width="254" height="182" viewBox="0 0 254 182" fill="none" xmlns="http://www.w3.org/2000/svg">
<g clip-path="url(#clip0_1120_26064)">
<path d="M254 0H0V182H254V0Z" fill="white"/>
<path d="M238.329 124.147C238.329 128.899 235.37 133.532 229.773 137.84C224.185 142.141 216.06 146.04 205.966 149.327C185.785 155.897 157.866 159.97 127 159.97C96.1349 159.97 68.2161 155.897 48.0345 149.327C37.9403 146.04 29.8158 142.141 24.2277 137.84C18.6302 133.532 15.6719 128.899 15.6719 124.147C15.6719 119.395 18.6302 114.762 24.2277 110.454C29.8158 106.153 37.9403 102.253 48.0345 98.967C68.2161 92.3968 96.1349 88.3232 127 88.3232C157.866 88.3232 185.785 92.3968 205.966 98.967C216.06 102.253 224.185 106.153 229.773 110.454C235.37 114.762 238.329 119.395 238.329 124.147Z" fill="white" stroke="#1A1B22" stroke-width="3"/>
<path d="M142.06 131.353C144.532 131.353 146.537 129.325 146.537 126.823C146.537 124.322 144.532 122.294 142.06 122.294C139.587 122.294 137.582 124.322 137.582 126.823C137.582 129.325 139.587 131.353 142.06 131.353Z" fill="white"/>
<path d="M237.719 15.0293H16.2829C15.2713 15.0293 14.4512 15.8589 14.4512 16.8822V164.706C14.4512 165.729 15.2713 166.559 16.2829 166.559H237.719C238.73 166.559 239.551 165.729 239.551 164.706V16.8822C239.551 15.8589 238.73 15.0293 237.719 15.0293Z" stroke="#1A1B22" stroke-width="3"/>
<path d="M238.329 94.9114C238.329 99.6632 235.37 104.296 229.773 108.604C224.185 112.906 216.06 116.805 205.966 120.091C185.785 126.661 157.866 130.735 127 130.735C96.1349 130.735 68.2161 126.661 48.0345 120.091C37.9403 116.805 29.8158 112.906 24.2277 108.604C18.6302 104.296 15.6719 99.6632 15.6719 94.9114C15.6719 90.1597 18.6302 85.5265 24.2277 81.2186C29.8158 76.9173 37.9403 73.0179 48.0345 69.7316C68.2161 63.1615 96.1349 59.0879 127 59.0879C157.866 59.0879 185.785 63.1615 205.966 69.7316C216.06 73.0179 224.185 76.9173 229.773 81.2186C235.37 85.5265 238.329 90.1597 238.329 94.9114Z" fill="#1A1B22" stroke="#1A1B22" stroke-width="3"/>
<path d="M238.329 62.7942C238.329 67.546 235.37 72.1792 229.773 76.4871C224.185 80.7884 216.06 84.6878 205.966 87.9741C185.785 94.5442 157.866 98.6178 127 98.6178C96.1349 98.6178 68.2161 94.5442 48.0345 87.9741C37.9403 84.6878 29.8158 80.7884 24.2277 76.4871C18.6302 72.1792 15.6719 67.546 15.6719 62.7942C15.6719 58.0425 18.6302 53.4093 24.2277 49.1014C29.8158 44.8001 37.9403 40.9005 48.0345 37.6144C68.2161 31.0444 96.1349 26.9707 127 26.9707C157.866 26.9707 185.785 31.0444 205.966 37.6144C216.06 40.9005 224.185 44.8001 229.773 49.1014C235.37 53.4093 238.329 58.0425 238.329 62.7942Z" fill="white" stroke="#1A1B22" stroke-width="3"/>
<path d="M95.8013 39.3647H89.1191V64.6833C89.1191 78.2617 94.2773 83.1238 106.293 83.1238C118.661 83.1238 123.526 77.3723 123.526 64.3276V39.3647H116.844V64.6833C116.844 72.8659 114.265 77.4316 106.293 77.4316C98.3218 77.4316 95.8013 73.281 95.8013 65.1577V39.3647ZM142.906 60.2956L127.198 82.353H134.759L146.658 65.632L158.44 82.353H166.411L150.702 59.9991L165.356 39.3647H157.795L146.892 54.6626L136.224 39.3647H128.253L142.906 60.2956Z" fill="#1A1B22"/>
</g>
<defs>
<clipPath id="clip0_1120_26064">
<rect width="254" height="182" fill="white"/>
</clipPath>
</defs>
</svg>
