<svg width="254" height="162" viewBox="0 0 254 162" fill="none" xmlns="http://www.w3.org/2000/svg">
<rect width="254" height="162" rx="12" fill="white"/>
<mask id="mask0_1121_27804" style="mask-type:luminance" maskUnits="userSpaceOnUse" x="16" y="21" width="221" height="119">
<path d="M16 21H237V140H16V21Z" fill="white"/>
</mask>
<g mask="url(#mask0_1121_27804)">
<path d="M130.368 127.178C158.023 127.178 180.442 104.76 180.442 77.1047C180.442 49.4499 158.023 27.0312 130.368 27.0312C102.714 27.0312 80.2949 49.4499 80.2949 77.1047C80.2949 104.76 102.714 127.178 130.368 127.178Z" stroke="#1A1B22" stroke-width="0.54"/>
<path d="M131.279 127.405V94.1704M126.502 119.449H136.056M127.411 109.436H135.605M127.87 98.9644H134.696M131.279 26.8164V60.0514M126.502 34.7724H136.056M127.411 44.7854H135.605M127.87 55.2574H134.696M180.672 77.1024H147.437M172.699 81.8879V72.3254M162.686 80.9699V72.7759M152.223 80.5109V73.6854M80.0664 77.1024H113.301M88.0394 81.8879V72.3254M98.0524 80.9699V72.7759M108.516 80.5109V73.6854" stroke="#1A1B22" stroke-width="0.54"/>
<path d="M146.297 92.5768H116.717C116.87 86.3208 123.381 81.1953 131.507 81.1953C139.633 81.1953 146.144 86.3208 146.297 92.5853V92.5768Z" fill="#1A1B22" stroke="#1A1B22" stroke-width="0.54"/>
<path d="M142.199 74.3743C142.199 80.1543 137.414 84.8463 131.506 84.8463C125.59 84.8463 120.805 80.1543 120.805 74.3743C120.805 68.5943 125.59 63.9023 131.506 63.9023C137.414 63.9023 142.199 68.5943 142.199 74.3743Z" fill="white" stroke="#1A1B22" stroke-width="0.54"/>
<path d="M131.507 63.6719C125.472 63.6719 128.779 69.8174 133.326 72.3249C137.882 74.8324 142.43 74.3734 142.43 74.3734C142.43 68.4659 137.542 63.6719 131.507 63.6719Z" fill="#1A1B22"/>
<mask id="mask1_1121_27804" style="mask-type:luminance" maskUnits="userSpaceOnUse" x="128" y="63" width="15" height="12">
<path d="M131.507 63.6758C125.472 63.6758 128.779 69.8213 133.326 72.3288C137.882 74.8363 142.43 74.3773 142.43 74.3773C142.43 68.4698 137.542 63.6758 131.507 63.6758Z" fill="white"/>
</mask>
<g mask="url(#mask1_1121_27804)">
<path d="M142.43 74.3747L142.472 74.8252L142.889 74.7912V74.3747H142.43ZM133.547 71.9267C131.337 70.7197 129.467 68.6287 128.872 66.9117C128.583 66.0617 128.634 65.3987 128.966 64.9567C129.306 64.5062 130.054 64.1322 131.507 64.1322V63.2227C129.943 63.2227 128.838 63.6222 128.243 64.4042C127.648 65.1862 127.674 66.2147 128.014 67.2092C128.702 69.1897 130.759 71.4337 133.114 72.7257L133.539 71.9267H133.547ZM131.507 64.1322C137.296 64.1322 141.979 68.7222 141.979 74.3747H142.889C142.889 68.2037 137.789 63.2227 131.499 63.2227V64.1322H131.507ZM133.105 72.7257C135.727 74.1469 138.666 74.8809 141.648 74.8592C141.923 74.8572 142.198 74.8458 142.472 74.8252L142.43 74.3747L142.387 73.9242H142.345C142.113 73.9398 141.88 73.9483 141.648 73.9497C138.82 73.9701 136.033 73.2741 133.547 71.9267L133.105 72.7257Z" fill="#1A1B22"/>
</g>
<path d="M125.821 69.5954C127.861 66.6374 128.643 64.5039 129.229 64.3594C128.243 64.4359 125.727 65.1754 123.534 67.5469C121.358 69.9099 120.814 72.3239 120.814 73.2419C121.494 72.8594 122.973 73.7009 125.812 69.5869L125.821 69.5954Z" fill="#1A1B22"/>
<path d="M129.23 64.3623L129.29 64.5833L129.213 64.1328L129.23 64.3623ZM120.807 73.2363H120.586V73.6273L120.926 73.4403L120.807 73.2363ZM123.544 67.5413L123.714 67.7028L123.544 67.5498V67.5413ZM129.179 64.1413C129.05 64.1782 128.933 64.2486 128.839 64.3453C128.746 64.4303 128.652 64.5578 128.55 64.6938C128.355 64.9743 128.134 65.3568 127.87 65.8158C127.352 66.7338 126.646 68.0003 125.626 69.4708L126.009 69.7258C127.029 68.2383 127.743 66.9548 128.27 66.0368C128.525 65.5778 128.746 65.2123 128.924 64.9573C129.009 64.8298 129.094 64.7363 129.154 64.6683C129.222 64.6088 129.264 64.5833 129.29 64.5833L129.179 64.1413ZM125.626 69.4708C124.224 71.5023 123.17 72.2758 122.413 72.6073C122.107 72.7375 121.784 72.8234 121.453 72.8623L121.062 72.9133C120.943 72.9388 120.815 72.9728 120.696 73.0408L120.917 73.4403C120.989 73.4027 121.067 73.3768 121.147 73.3638L121.512 73.3128C121.801 73.2703 122.158 73.2108 122.592 73.0238C123.459 72.6498 124.572 71.7998 126 69.7258L125.626 69.4708ZM129.213 64.1328C128.176 64.2178 125.601 64.9828 123.374 67.3968L123.714 67.7028C125.856 65.3823 128.321 64.6598 129.247 64.5918L129.213 64.1328ZM123.374 67.3968C121.155 69.8023 120.586 72.2673 120.586 73.2363H121.036C121.036 72.3863 121.563 70.0318 123.705 67.7028L123.374 67.3968Z" fill="#1A1B22"/>
<path d="M129.457 78.2487C129.833 78.2487 130.137 77.636 130.137 76.8802C130.137 76.1244 129.833 75.5117 129.457 75.5117C129.082 75.5117 128.777 76.1244 128.777 76.8802C128.777 77.636 129.082 78.2487 129.457 78.2487Z" fill="#1A1B22"/>
<path d="M134.006 78.2487C134.382 78.2487 134.686 77.636 134.686 76.8802C134.686 76.1244 134.382 75.5117 134.006 75.5117C133.631 75.5117 133.326 76.1244 133.326 76.8802C133.326 77.636 133.631 78.2487 134.006 78.2487Z" fill="#1A1B22"/>
<path d="M95.7208 122.016C89.7793 123.18 89.4393 134.29 90.0088 139.696H59.7488L57.0883 129.088C56.3233 124.931 54.7253 116.236 54.4193 114.74C54.0453 112.87 53.6628 106.631 53.8498 104.965C54.0453 103.299 55.5668 100.8 57.2753 99.7713C58.6438 98.9383 60.7603 98.5898 61.6528 98.5218C61.9758 97.6888 63.0638 95.6913 64.8828 94.3568C66.7188 93.0308 69.3283 92.6993 70.4078 92.6993C71.1593 91.4186 72.2871 90.4006 73.6378 89.7838C74.2674 89.4787 74.964 89.3382 75.6627 89.3754C76.3613 89.4125 77.0391 89.6262 77.6328 89.9963C77.7688 91.5858 77.9473 93.7363 77.6328 89.5713C77.3353 85.4148 78.0238 77.5863 78.3978 74.1863C78.7208 69.4773 80.2678 60.0508 83.9228 60.0508C88.4363 60.0508 89.0483 74.3053 89.4308 83.2643L89.4393 83.5448C89.7453 90.7018 88.9293 101.913 88.4873 106.631H105.232C111.327 106.631 115.262 107.464 116.461 107.88C117.54 108.22 119.929 109.461 120.838 111.62C121.748 113.788 117.03 116.27 114.557 117.23C110.749 118.344 101.654 120.851 95.7208 122.016Z" fill="white"/>
<path d="M90.0089 139.695V139.924H90.2639L90.2384 139.669L90.0089 139.695ZM114.557 117.238L114.625 117.459L114.642 117.45L114.557 117.238ZM120.847 111.628L120.626 111.713L120.838 111.628H120.847ZM116.461 107.879L116.384 108.092L116.469 107.879H116.461ZM88.4959 106.63L88.2579 106.613L88.2409 106.859H88.4874V106.63H88.4959ZM89.4394 83.5438L89.2099 83.5523H89.4394V83.5438ZM89.4309 83.2633L89.2014 83.2718H89.4309V83.2633ZM77.6414 89.9953L77.8709 89.9783L77.8624 89.8678L77.7774 89.8083L77.6414 89.9953ZM73.6464 89.7828L73.5529 89.5788L73.6379 89.7828H73.6464ZM70.4164 92.6983V92.9193H70.5524L70.6119 92.8003L70.4079 92.6983H70.4164ZM61.6614 98.5208L61.6699 98.7418H61.8144L61.8654 98.5973L61.6529 98.5123L61.6614 98.5208ZM57.0884 129.087L56.8674 129.129V129.138L57.0884 129.087ZM59.7489 139.695L59.5279 139.754L59.5789 139.924H59.7489V139.695ZM90.2384 139.669C89.9494 136.983 89.8984 132.878 90.6464 129.316C91.0204 127.531 91.5984 125.891 92.4314 124.641C92.7944 124.036 93.2772 123.511 93.8501 123.099C94.4231 122.687 95.0741 122.396 95.7634 122.244L95.6784 121.794C94.9304 121.957 94.2235 122.271 93.601 122.717C92.9784 123.163 92.4532 123.731 92.0574 124.386C91.1443 125.869 90.5159 127.509 90.2044 129.223C89.4394 132.852 89.4989 137 89.7794 139.72L90.2384 139.669ZM95.7634 122.244C101.713 121.08 110.808 118.564 114.625 117.459L114.497 117.017C110.689 118.122 101.603 120.638 95.6784 121.794L95.7634 122.244ZM114.642 117.45C115.891 116.957 117.702 116.09 119.104 115.062C119.757 114.61 120.324 114.046 120.779 113.396C121.161 112.801 121.314 112.163 121.051 111.526L120.626 111.713C120.821 112.155 120.728 112.639 120.396 113.158C119.969 113.756 119.44 114.274 118.832 114.688C117.478 115.639 116.014 116.424 114.472 117.025L114.642 117.45ZM121.051 111.534C120.566 110.468 119.802 109.552 118.841 108.882C118.137 108.359 117.358 107.946 116.529 107.658L116.393 108.092C116.903 108.262 117.753 108.644 118.577 109.248C119.402 109.86 120.192 110.676 120.626 111.713L121.051 111.534ZM116.537 107.658C115.296 107.233 111.335 106.4 105.232 106.4V106.859C111.31 106.859 115.211 107.684 116.384 108.092L116.537 107.667V107.658ZM105.232 106.4H88.4874V106.859H105.232V106.4ZM88.7169 106.655C89.1589 101.938 89.9749 90.7093 89.6689 83.5353L89.2099 83.5523C89.5159 90.6923 88.6999 101.895 88.2579 106.604L88.7169 106.647V106.655ZM89.6689 83.5353L89.6519 83.2548L89.2014 83.2718L89.2099 83.5523L89.6689 83.5353ZM89.6519 83.2548C89.4649 78.7753 89.2184 72.9613 88.4534 68.2608C88.1803 66.2148 87.6373 64.2141 86.8384 62.3108C86.1329 60.8233 85.1894 59.8203 83.9229 59.8203V60.2708C84.9089 60.2708 85.7419 61.0528 86.4304 62.5148C87.1104 63.9598 87.6204 65.9998 88.0029 68.3288C88.7679 73.0038 89.0059 78.7838 89.1929 83.2718L89.6519 83.2548ZM83.9229 59.8203C82.9029 59.8203 82.0529 60.4833 81.3729 61.4608C80.6219 62.6435 80.0544 63.9331 79.6899 65.2858C78.8813 68.1896 78.3743 71.169 78.1769 74.1768L78.6274 74.2023C78.7889 71.8563 79.2479 68.3373 80.1234 65.4133C80.4768 64.1093 81.0241 62.8657 81.7469 61.7243C82.3929 60.7893 83.1154 60.2793 83.9229 60.2793V59.8203ZM78.1769 74.1598C77.7944 77.5598 77.1059 85.4138 77.4119 89.5958L77.8709 89.5618C77.5649 85.4223 78.2449 77.6108 78.6359 74.2108L78.1769 74.1598ZM77.4119 89.5958C77.4708 90.3861 77.5275 91.1767 77.5819 91.9673C77.582 91.973 77.582 91.9786 77.5819 91.9843V91.9588C77.5846 91.9291 77.5933 91.9001 77.6074 91.8738C77.639 91.8392 77.6764 91.8104 77.7179 91.7888C77.7774 91.7633 77.8879 91.7718 77.9304 91.7888C77.9568 91.814 77.9796 91.8426 77.9984 91.8738C78.0136 91.8943 78.0251 91.9174 78.0324 91.9418V91.9163L77.8624 89.9783L77.4119 90.0123C77.4647 90.6813 77.5214 91.35 77.5819 92.0183V92.0268L77.5904 92.0608L77.6159 92.1118C77.6358 92.1371 77.6586 92.1599 77.6839 92.1798C77.7544 92.2067 77.8311 92.2126 77.9049 92.1968C77.9441 92.1718 77.9786 92.1402 78.0069 92.1033C78.0209 92.0769 78.0295 92.048 78.0324 92.0183V91.9418C77.9781 91.1483 77.9214 90.355 77.8624 89.5618L77.4119 89.5958ZM77.7774 89.8083C77.1506 89.4147 76.4339 89.187 75.6949 89.1469C74.9558 89.1067 74.2187 89.2554 73.5529 89.5788L73.7399 89.9953C74.3317 89.7053 74.9873 89.5696 75.6456 89.6008C76.3039 89.632 76.9437 89.8291 77.5054 90.1738L77.7774 89.8083ZM73.5529 89.5788C72.1507 90.213 70.9803 91.2675 70.2039 92.5963L70.6119 92.8003C71.3421 91.5665 72.4342 90.5873 73.7399 89.9953L73.5529 89.5703V89.5788ZM70.4079 92.4688C69.3029 92.4688 66.6424 92.8088 64.7554 94.1688L65.0274 94.5428C66.7954 93.2508 69.3539 92.9278 70.4079 92.9278V92.4688ZM64.7554 94.1688C63.3001 95.2806 62.1579 96.7508 61.4404 98.4358L61.8654 98.6058C62.5479 96.9994 63.6378 95.599 65.0274 94.5428L64.7554 94.1773V94.1688ZM61.6359 98.2913C61.1854 98.3253 60.4204 98.4358 59.5959 98.6313C58.7714 98.8353 57.8789 99.1413 57.1649 99.5663L57.3944 99.9658C58.1177 99.5596 58.8966 99.2617 59.7064 99.0818C60.3542 98.919 61.0135 98.8053 61.6784 98.7418L61.6359 98.2913ZM57.1649 99.5663C56.2086 100.197 55.402 101.03 54.8019 102.006C54.2043 102.887 53.8042 103.888 53.6289 104.938L54.0794 104.989C54.1644 104.207 54.5809 103.204 55.1844 102.252C55.746 101.336 56.5001 100.553 57.3944 99.9573L57.1649 99.5748V99.5663ZM53.6289 104.938C53.5269 105.788 53.5779 107.794 53.6969 109.783C53.8159 111.789 54.0114 113.829 54.2069 114.781L54.6489 114.696C54.3948 113.063 54.2302 111.417 54.1559 109.766C54.0302 108.177 54.0047 106.582 54.0794 104.989L53.6289 104.938ZM54.1984 114.79C54.5044 116.277 56.1024 124.973 56.8674 129.129L57.3094 129.044C56.5444 124.888 54.9549 116.192 54.6489 114.696L54.1984 114.781V114.79ZM56.8674 129.146L59.5364 139.754L59.9784 139.644L57.3094 129.036L56.8674 129.146ZM59.7574 139.924H90.0174V139.465H59.7574V139.924Z" fill="white"/>
<path d="M88.6842 106.63L88.4547 106.613L88.4377 106.86H88.6842V106.63ZM83.7372 60.0504L83.7542 60.2714L83.7372 60.0419V60.0504ZM69.8397 93.9314L69.6272 93.8549L69.8397 93.9399V93.9314ZM61.5947 98.5129L61.8072 98.5979L61.6032 98.5129H61.5947ZM90.4267 139.661C90.1717 137.349 90.0612 133.754 90.5457 130.473C90.7837 128.824 91.1662 127.277 91.7527 126.002C92.3392 124.727 93.1127 123.758 94.1157 123.256L93.9032 122.848C92.7812 123.418 91.9482 124.489 91.3362 125.815C90.7111 127.28 90.2934 128.825 90.0952 130.405C89.6022 133.737 89.7212 137.375 89.9762 139.712L90.4267 139.661ZM94.1157 123.256C95.4162 122.593 97.7707 121.922 100.593 121.199C103.398 120.485 106.653 119.72 109.722 118.879C112.79 118.029 115.697 117.094 117.822 116.031C118.885 115.496 119.76 114.926 120.364 114.297C120.959 113.677 121.316 112.98 121.256 112.223L120.806 112.249C120.848 112.844 120.585 113.413 120.041 113.983C119.48 114.552 118.655 115.096 117.618 115.623C115.536 116.669 112.671 117.595 109.603 118.437C106.534 119.287 103.296 120.035 100.474 120.757C97.6687 121.471 95.2632 122.16 93.9032 122.848L94.1157 123.256ZM121.256 112.223C121.202 111.552 120.994 110.902 120.647 110.324C120.301 109.746 119.826 109.256 119.259 108.891C117.953 108.046 116.495 107.463 114.966 107.174C111.677 106.443 107.801 106.392 105.234 106.392V106.851C107.809 106.851 111.634 106.902 114.864 107.616C116.479 107.982 117.924 108.509 118.995 109.265C119.507 109.589 119.936 110.027 120.25 110.545C120.564 111.063 120.754 111.646 120.806 112.249L121.256 112.223ZM105.234 106.392H88.6842V106.851H105.234V106.392ZM88.9137 106.639C89.5087 98.7339 89.9847 86.9104 89.4577 77.1439C89.1857 72.2564 88.6672 67.8789 87.7832 64.7509C87.4646 63.4319 86.9087 62.1819 86.1427 61.0619C85.4797 60.1949 84.6722 59.7189 83.7117 59.8124L83.7542 60.2629C84.5107 60.1864 85.1737 60.5519 85.7772 61.3339C86.3892 62.1329 86.9077 63.3314 87.3497 64.8699C88.2167 67.9469 88.7352 72.2904 88.9987 77.1609C89.5342 86.9019 89.0582 98.7084 88.4547 106.605L88.9052 106.639H88.9137ZM83.7117 59.8039C82.3942 59.9399 81.3657 61.0534 80.5667 62.7534C79.7507 64.4619 79.1302 66.8334 78.6542 69.6214C77.7107 75.1974 77.3537 82.4734 77.3112 89.5624H77.7702C77.8042 82.4819 78.1697 75.2314 79.1047 69.6979C79.5807 66.9269 80.1927 64.5979 80.9747 62.9489C81.7652 61.2829 82.6917 60.3649 83.7542 60.2629L83.7117 59.8124V59.8039ZM77.3112 89.5624C77.2857 95.8354 77.5067 101.955 77.7957 106.63L78.2462 106.605C77.903 100.934 77.7442 95.2526 77.7702 89.5709H77.3112V89.5624ZM69.6272 93.8549C68.2384 97.9675 67.7174 102.323 68.0972 106.647L68.5392 106.596C68.1703 102.344 68.6854 98.0605 70.0522 94.0164L69.6272 93.8549ZM77.6172 89.3499C76.4893 88.9456 75.2654 88.8923 74.1067 89.1969C73.2824 89.4276 72.5159 89.8291 71.8569 90.3753C71.198 90.9215 70.6613 91.6003 70.2817 92.3674L70.6812 92.5884C71.0301 91.8749 71.5252 91.2428 72.1344 90.7331C72.7436 90.2235 73.4532 89.8478 74.2172 89.6304C75.29 89.3514 76.4223 89.4048 77.4642 89.7834L77.6257 89.3584L77.6172 89.3499ZM70.2817 92.3674C70.0437 92.8094 69.8227 93.3024 69.6272 93.8549L70.0522 94.0079C70.2392 93.4809 70.4517 93.0049 70.6812 92.5884L70.2817 92.3674ZM70.4942 92.2484C68.5255 92.2225 66.5964 92.8021 64.9681 93.909C63.3398 95.0158 62.0909 96.5963 61.3907 98.4364L61.8157 98.6149C62.4834 96.8649 63.6718 95.3618 65.2207 94.3084C66.7695 93.2551 68.6042 92.7022 70.4772 92.7244L70.4942 92.2654V92.2484ZM61.3907 98.4364C60.5237 100.502 60.0647 103.196 60.2857 106.656L60.7447 106.622C60.5152 103.222 60.9742 100.604 61.8072 98.6149L61.3822 98.4449L61.3907 98.4364ZM61.6117 98.3004C59.6998 98.2269 57.8256 98.8456 56.3332 100.043C54.5907 101.479 53.2817 103.927 53.4432 107.897L53.8937 107.88C53.7407 104.029 55.0072 101.726 56.6222 100.4C58.0252 99.2721 59.7872 98.6868 61.5862 98.7509L61.6117 98.3004ZM53.4347 107.897C53.6302 112.801 54.9137 120.613 56.2397 127.277C56.9197 130.6 57.5997 133.652 58.1522 135.896C58.4327 137.026 58.6877 137.953 58.8917 138.624C59.0013 138.988 59.129 139.345 59.2742 139.695C59.3099 139.766 59.359 139.83 59.4187 139.882L59.7077 139.525L59.6822 139.474C59.6476 139.408 59.6164 139.34 59.5887 139.27C59.4909 139.013 59.403 138.752 59.3252 138.488C59.1212 137.834 58.8747 136.907 58.5942 135.785C57.8969 132.932 57.2621 130.064 56.6902 127.183C55.3642 120.528 54.0807 112.742 53.8852 107.88L53.4347 107.897Z" fill="#1A1B22"/>
<path d="M192.122 64.7786C193.286 58.8456 204.396 58.4971 209.802 59.0751V28.8151L199.194 26.1546C195.029 25.3896 186.342 23.7916 184.846 23.4856C182.976 23.1031 176.737 22.7206 175.071 22.9161C173.405 23.1031 170.906 24.6246 169.869 26.3416C169.044 27.7101 168.696 29.8266 168.628 30.7191C167.795 31.0336 165.797 32.1301 164.463 33.9491C163.137 35.7766 162.805 38.3946 162.805 39.4741C161.524 40.2247 160.506 41.3528 159.89 42.7041C159.585 43.3337 159.444 44.0303 159.482 44.729C159.519 45.4276 159.732 46.1054 160.102 46.6991C161.692 46.8266 163.842 47.0051 159.677 46.6991C155.521 46.4016 147.692 47.0816 144.292 47.4641C139.583 47.7786 130.148 49.3341 130.148 52.9891C130.148 57.5026 144.411 58.1061 153.37 58.4886L153.651 58.5056C160.808 58.8031 172.019 57.9956 176.737 57.5536V74.2986C176.737 80.3846 177.57 84.3201 177.986 85.5186C178.326 86.6066 179.567 88.9866 181.726 89.9046C183.894 90.8141 186.367 86.0966 187.336 83.6146C188.45 79.8151 190.957 70.7201 192.122 64.7786Z" fill="white"/>
<path d="M209.801 59.0736H210.03V59.3286L209.775 59.2946L209.801 59.0736ZM187.344 83.6216L187.556 83.6811V83.7066L187.344 83.6216ZM177.985 85.5256L178.198 85.4406V85.4576L177.985 85.5256ZM176.736 57.5521L176.71 57.3226L176.965 57.2971V57.5521H176.736ZM153.65 58.5041L153.658 58.2746V58.5041H153.65ZM153.369 58.4871L153.378 58.2576V58.4871H153.369ZM144.291 47.4626L144.317 47.6921H144.308L144.291 47.4626ZM160.101 46.6976L160.076 46.9271H159.974L159.914 46.8421L160.093 46.7061L160.101 46.6976ZM162.804 39.4726H163.025V39.6086L162.906 39.6766L162.804 39.4726ZM168.627 30.7176L168.848 30.7346L168.839 30.8791L168.703 30.9301L168.618 30.7176H168.627ZM199.193 26.1531L199.235 25.9236H199.252L199.193 26.1531ZM209.801 28.8136L209.86 28.5926L210.03 28.6351V28.8136H209.801ZM209.775 59.2946C206.323 58.9304 202.835 59.0707 199.422 59.7111C197.637 60.0851 195.997 60.6546 194.747 61.4961C194.142 61.8591 193.617 62.3419 193.205 62.9148C192.793 63.4877 192.502 64.1388 192.35 64.8281L191.9 64.7431C192.062 63.9935 192.376 63.285 192.822 62.6609C193.268 62.0368 193.836 61.5103 194.492 61.1136C195.973 60.2015 197.61 59.5731 199.32 59.2606C202.95 58.4956 207.106 58.5551 209.826 58.8441L209.775 59.2946ZM192.35 64.8196C191.177 70.7696 188.67 79.8816 187.556 83.6896L187.123 83.5536C188.228 79.7541 190.735 70.6591 191.9 64.7346L192.35 64.8196ZM187.556 83.7066C187.063 84.9476 186.196 86.7666 185.168 88.1691C184.716 88.8213 184.152 89.3882 183.502 89.8436C182.907 90.2176 182.269 90.3791 181.632 90.1071L181.81 89.6821C182.261 89.8776 182.745 89.7926 183.255 89.4611C183.856 89.0338 184.377 88.5044 184.794 87.8971C185.745 86.5424 186.53 85.0784 187.131 83.5366L187.556 83.7066ZM181.64 90.1071C180.576 89.623 179.66 88.8629 178.988 87.9056C178.466 87.2015 178.053 86.4219 177.764 85.5936L178.198 85.4491C178.368 85.9676 178.75 86.8091 179.354 87.6336C179.966 88.4666 180.782 89.2486 181.819 89.6906L181.64 90.1156V90.1071ZM177.756 85.6021C177.331 84.3611 176.498 80.4001 176.498 74.2971H176.957C176.957 80.3661 177.781 84.2761 178.189 85.4491L177.764 85.5936L177.756 85.6021ZM176.498 74.2971V57.5521H176.957V74.2971H176.498ZM176.753 57.7731C172.035 58.2236 160.807 59.0311 153.633 58.7251L153.65 58.2746C160.79 58.5721 171.993 57.7646 176.702 57.3226L176.744 57.7731H176.753ZM153.633 58.7251L153.352 58.7166L153.369 58.2576L153.65 58.2746L153.633 58.7251ZM153.352 58.7166C148.873 58.5296 143.059 58.2746 138.358 57.5096C136.313 57.2363 134.312 56.6933 132.408 55.8946C130.921 55.1976 129.918 54.2541 129.918 52.9791H130.368C130.368 53.9736 131.15 54.7981 132.604 55.4866C134.049 56.1666 136.089 56.6766 138.426 57.0591C143.101 57.8241 148.881 58.0706 153.369 58.2576L153.352 58.7166ZM129.918 52.9791C129.918 51.9591 130.581 51.1091 131.558 50.4291C132.544 49.7491 133.896 49.1966 135.383 48.7546C138.284 47.9428 141.261 47.433 144.266 47.2331L144.3 47.6921C141.954 47.8451 138.435 48.3126 135.511 49.1881C134.207 49.5381 132.964 50.0825 131.822 50.8031C130.887 51.4576 130.377 52.1801 130.377 52.9791H129.918ZM144.257 47.2331C147.657 46.8591 155.503 46.1706 159.693 46.4681L159.659 46.9271C155.52 46.6211 147.708 47.3096 144.308 47.6921L144.257 47.2331ZM159.693 46.4681C160.484 46.5271 161.274 46.5837 162.065 46.6381C162.068 46.6381 162.071 46.6381 162.073 46.6381H162.056C162.026 46.6438 161.997 46.6554 161.971 46.6721C161.935 46.7004 161.903 46.7349 161.878 46.7741C161.864 46.8451 161.87 46.9187 161.895 46.9866L161.963 47.0631L162.014 47.0886L160.067 46.9271L160.11 46.4766C160.773 46.5294 161.436 46.5861 162.099 46.6466H162.158L162.209 46.6806C162.235 46.7005 162.258 46.7233 162.277 46.7486C162.303 46.8165 162.309 46.89 162.294 46.9611C162.269 47.0003 162.238 47.0348 162.201 47.0631C162.184 47.0726 162.167 47.0811 162.15 47.0886H162.116L162.073 47.0971C161.269 47.0428 160.464 46.9861 159.659 46.9271L159.693 46.4766V46.4681ZM159.906 46.8336C159.512 46.2068 159.285 45.4901 159.245 44.751C159.204 44.012 159.353 43.2748 159.676 42.6091L160.084 42.7961C159.794 43.3897 159.659 44.0472 159.692 44.7072C159.725 45.3672 159.924 46.0081 160.271 46.5701L159.906 46.8336ZM159.676 42.6091C160.313 41.2106 161.367 40.0437 162.694 39.2686L162.898 39.6766C161.666 40.4045 160.686 41.4935 160.093 42.7961L159.668 42.6091H159.676ZM162.566 39.4641C162.566 38.3676 162.906 35.6986 164.266 33.8201L164.64 34.0836C163.348 35.8601 163.025 38.4186 163.025 39.4726H162.566V39.4641ZM164.266 33.8201C165.635 31.9501 167.666 30.8281 168.533 30.5051L168.703 30.9301C167.896 31.2361 165.941 32.3071 164.64 34.0836L164.275 33.8201H164.266ZM168.389 30.7006C168.423 30.2416 168.533 29.4766 168.729 28.6606C168.933 27.8361 169.239 26.9351 169.664 26.2211L170.055 26.4591C169.65 27.1798 169.352 27.9558 169.171 28.7626C168.975 29.5616 168.873 30.3011 168.839 30.7346L168.389 30.7006ZM169.664 26.2211C170.296 25.2677 171.128 24.464 172.103 23.8666C172.984 23.2655 173.985 22.8624 175.036 22.6851L175.087 23.1356C174.305 23.2291 173.302 23.6456 172.35 24.2406C171.433 24.8015 170.65 25.5557 170.055 26.4506L169.672 26.2211H169.664ZM175.036 22.6851C175.886 22.5916 177.883 22.6426 179.881 22.7616C181.887 22.8806 183.927 23.0676 184.879 23.2631L184.794 23.7051C183.161 23.4511 181.515 23.2865 179.864 23.2121C177.849 23.0931 175.894 23.0421 175.087 23.1356L175.036 22.6851ZM184.879 23.2631C186.375 23.5691 195.062 25.1671 199.227 25.9236L199.142 26.3741C194.985 25.6091 186.29 24.0111 184.794 23.7051L184.879 23.2631ZM199.244 25.9236L209.843 28.5926L209.733 29.0346L199.133 26.3741L199.244 25.9236ZM210.022 28.8136V59.0736H209.563V28.8136H210.022Z" fill="white"/>
<path d="M176.735 57.7383L176.718 57.5088L176.965 57.4918V57.7383H176.735ZM130.155 52.7913L130.376 52.8083L130.147 52.7913H130.155ZM164.045 38.9023L163.968 38.6813L164.053 38.8938L164.045 38.9023ZM209.775 59.4893C206.718 59.164 203.634 59.2011 200.586 59.5998C198.937 59.8378 197.39 60.2288 196.115 60.8068C194.84 61.3933 193.871 62.1668 193.361 63.1698L192.962 62.9658C193.531 61.8353 194.602 61.0108 195.928 60.3988C197.393 59.7708 198.938 59.3503 200.518 59.1493C203.85 58.6648 207.488 58.7753 209.826 59.0303L209.775 59.4893ZM193.37 63.1698C192.707 64.4703 192.035 66.8248 191.313 69.6468C190.599 72.4518 189.834 75.7073 188.992 78.7758C188.142 81.8528 187.207 84.7598 186.145 86.8763C185.709 87.8149 185.124 88.6763 184.411 89.4263C183.79 90.0213 183.093 90.3698 182.328 90.3188L182.362 89.8598C182.957 89.9023 183.527 89.6388 184.096 89.0948C184.768 88.3793 185.322 87.5616 185.737 86.6723C186.782 84.5983 187.709 81.7253 188.55 78.6568C189.4 75.5968 190.148 72.3498 190.871 69.5363C191.585 66.7313 192.273 64.3258 192.962 62.9658L193.361 63.1698H193.37ZM182.328 90.3188C181.657 90.2625 181.008 90.0523 180.432 89.7043C179.855 89.3564 179.367 88.8802 179.005 88.3128C178.161 87.0091 177.578 85.5543 177.288 84.0288C176.557 80.7393 176.506 76.8633 176.506 74.2963H176.965C176.965 76.8633 177.016 80.6968 177.73 83.9268C178.095 85.5418 178.622 86.9868 179.379 88.0493C179.702 88.5611 180.14 88.9909 180.658 89.305C181.175 89.6191 181.759 89.809 182.362 89.8598L182.328 90.3188ZM176.506 74.2963V57.7383H176.965V74.2963H176.506ZM176.752 57.9678C168.847 58.5628 157.024 59.0473 147.257 58.5118C142.37 58.2483 137.992 57.7298 134.864 56.8373C133.545 56.5184 132.295 55.9625 131.175 55.1968C130.308 54.5338 129.832 53.7263 129.926 52.7658L130.376 52.8083C130.3 53.5648 130.665 54.2363 131.447 54.8398C132.522 55.5697 133.72 56.0995 134.983 56.4038C138.06 57.2793 142.404 57.7893 147.274 58.0613C157.015 58.5883 168.822 58.1123 176.718 57.5088L176.752 57.9678ZM129.917 52.7658C130.053 51.4568 131.167 50.4283 132.867 49.6208C134.575 48.8133 136.947 48.1928 139.735 47.7168C145.311 46.7648 152.587 46.4078 159.684 46.3738V46.8243C152.595 46.8668 145.345 47.2238 139.811 48.1673C137.04 48.6348 134.711 49.2468 133.062 50.0373C131.396 50.8278 130.478 51.7543 130.376 52.8083L129.926 52.7658H129.917ZM159.676 46.3738C165.949 46.3398 172.069 46.5608 176.744 46.8498L176.718 47.3088C171.047 46.9628 165.366 46.8012 159.684 46.8243V46.3738H159.676ZM163.968 38.6813C168.081 37.2923 172.437 36.7713 176.761 37.1513L176.71 37.6018C174.653 37.3468 169.238 37.2958 164.13 39.1148L163.968 38.6898V38.6813ZM159.463 46.6798C159.14 45.8298 158.953 44.5208 159.31 43.1608C159.541 42.3368 159.943 41.5705 160.489 40.9116C161.035 40.2527 161.714 39.7158 162.481 39.3358L162.702 39.7438C161.988 40.0927 161.356 40.5878 160.846 41.197C160.337 41.8062 159.961 42.5159 159.744 43.2798C159.464 44.3497 159.518 45.4794 159.897 46.5183L159.472 46.6883L159.463 46.6798ZM162.481 39.3443C162.923 39.0978 163.416 38.8768 163.968 38.6813L164.121 39.1063C163.594 39.3018 163.118 39.5143 162.702 39.7438L162.481 39.3443ZM162.362 39.5483C162.337 37.5833 162.916 35.6581 164.019 34.0319C165.123 32.4058 166.698 31.1568 168.533 30.4533L168.711 30.8698C166.96 31.538 165.456 32.7278 164.402 34.2783C163.349 35.8288 162.797 37.6654 162.821 39.5398L162.362 39.5483ZM168.533 30.4533C170.598 29.5778 173.293 29.1188 176.752 29.3483L176.718 29.7988C173.318 29.5778 170.7 30.0368 168.711 30.8698L168.541 30.4448L168.533 30.4533ZM168.397 30.6658C168.325 28.7568 168.944 26.8859 170.139 25.3958C171.576 23.6533 174.024 22.3358 177.993 22.4973L177.976 22.9478C174.126 22.7948 171.822 24.0698 170.496 25.6763C169.366 27.0816 168.781 28.8469 168.847 30.6488L168.397 30.6658ZM177.993 22.4973C182.898 22.6843 190.709 23.9763 197.373 25.3023C200.697 25.9738 203.748 26.6538 205.992 27.2148C207.123 27.4953 208.049 27.7418 208.721 27.9458C209.084 28.0574 209.442 28.1879 209.792 28.3368C209.862 28.3702 209.925 28.4163 209.979 28.4728L209.622 28.7618L209.579 28.7363C209.51 28.7045 209.439 28.6761 209.367 28.6513C209.11 28.5507 208.849 28.46 208.585 28.3793C207.93 28.1838 207.004 27.9288 205.882 27.6568C203.638 27.0958 200.603 26.4158 197.28 25.7528C190.624 24.4183 182.838 23.1433 177.976 22.9478L177.993 22.4973Z" fill="#1A1B22"/>
<path d="M196.142 96.2188H156.54C154.906 96.2188 153.582 97.5431 153.582 99.1768V124.218C153.582 125.851 154.906 127.176 156.54 127.176H196.142C197.775 127.176 199.1 125.851 199.1 124.218V99.1768C199.1 97.5431 197.775 96.2188 196.142 96.2188Z" fill="white" stroke="#1A1B22" stroke-width="0.54"/>
<path d="M102.829 29.7656H63.2275C61.5939 29.7656 60.2695 31.09 60.2695 32.7236V51.8401C60.2695 53.4738 61.5939 54.7981 63.2275 54.7981H102.829C104.463 54.7981 105.787 53.4738 105.787 51.8401V32.7236C105.787 31.09 104.463 29.7656 102.829 29.7656Z" fill="white" stroke="#1A1B22" stroke-width="0.54"/>
<path d="M64.5853 34.48C65.0953 34.48 65.5033 34.0295 65.5033 33.4685C65.5033 32.9075 65.0953 32.457 64.5938 32.457C64.0838 32.457 63.6758 32.9075 63.6758 33.477C63.6758 34.0465 64.0838 34.48 64.5853 34.48ZM67.7728 34.48C68.2828 34.48 68.6908 34.0295 68.6908 33.4685C68.6908 32.9075 68.2743 32.457 67.7728 32.457C67.2713 32.457 66.8633 32.9075 66.8633 33.477C66.8633 34.0465 67.2713 34.48 67.7728 34.48ZM70.9603 34.48C71.4703 34.48 71.8698 34.0295 71.8698 33.4685C71.8698 32.9075 71.4618 32.457 70.9603 32.457C70.4588 32.457 70.0508 32.9075 70.0508 33.477C70.0508 34.0465 70.4588 34.48 70.9603 34.48Z" fill="#1A1B22" stroke="#1A1B22" stroke-width="0.54" stroke-linecap="round" stroke-linejoin="round"/>
<path d="M106.014 35.9102H60.4883" stroke="#1A1B22" stroke-width="0.54"/>
<path fill-rule="evenodd" clip-rule="evenodd" d="M65.6912 80.5162C66.3712 80.5162 75.7297 65.4882 76.6137 60.7112C77.7272 54.6592 73.6557 48.1992 65.6912 48.1992C57.4972 48.1992 53.6552 54.8037 54.7602 60.7197C55.5762 65.0462 65.0027 80.5247 65.6912 80.5247V80.5162ZM65.6912 62.7597C66.6572 62.7597 67.5836 62.376 68.2666 61.6929C68.9497 61.0099 69.3334 60.0835 69.3334 59.1175C69.3334 58.1515 68.9497 57.2251 68.2666 56.542C67.5836 55.859 66.6572 55.4752 65.6912 55.4752C64.7252 55.4752 63.7988 55.859 63.1157 56.542C62.4327 57.2251 62.0489 58.1515 62.0489 59.1175C62.0489 60.0835 62.4327 61.0099 63.1157 61.6929C63.7988 62.376 64.7252 62.7597 65.6912 62.7597Z" fill="#1A1B22"/>
<mask id="mask2_1121_27804" style="mask-type:luminance" maskUnits="userSpaceOnUse" x="54" y="48" width="23" height="33">
<path fill-rule="evenodd" clip-rule="evenodd" d="M65.6912 80.5201C66.3712 80.5201 75.7297 65.4921 76.6137 60.7151C77.7272 54.6631 73.6557 48.2031 65.6912 48.2031C57.4972 48.2031 53.6552 54.8076 54.7602 60.7236C55.5762 65.0501 65.0027 80.5286 65.6912 80.5286V80.5201ZM65.6912 62.7636C66.6572 62.7636 67.5836 62.3799 68.2666 61.6968C68.9497 61.0138 69.3334 60.0874 69.3334 59.1214C69.3334 58.1554 68.9497 57.229 68.2666 56.5459C67.5836 55.8629 66.6572 55.4791 65.6912 55.4791C64.7252 55.4791 63.7988 55.8629 63.1157 56.5459C62.4327 57.229 62.0489 58.1554 62.0489 59.1214C62.0489 60.0874 62.4327 61.0138 63.1157 61.6968C63.7988 62.3799 64.7252 62.7636 65.6912 62.7636Z" fill="white"/>
</mask>
<g mask="url(#mask2_1121_27804)">
<path d="M76.6053 60.7132L76.1633 60.6282L76.6138 60.7132H76.6053ZM76.1633 60.6282C75.9593 61.7587 75.2283 63.5437 74.2168 65.6262C72.1175 69.8349 69.7673 73.9138 67.1788 77.8407C66.7891 78.4342 66.3809 79.0153 65.9548 79.5832C65.8377 79.7395 65.7129 79.8899 65.5808 80.0337C65.5543 80.0611 65.5259 80.0867 65.4958 80.1102L65.5298 80.0932C65.5803 80.0697 65.6356 80.0581 65.6913 80.0592V80.9687C65.7741 80.9672 65.8555 80.9469 65.9293 80.9092C65.9712 80.8874 66.0111 80.8618 66.0483 80.8327L66.2438 80.6627C66.8468 79.9215 67.4114 79.1498 67.9353 78.3507C70.5512 74.39 72.9243 70.2741 75.0413 66.0257C76.0528 63.9432 76.8263 62.0562 77.0643 60.7982L76.1633 60.6282ZM65.6913 48.6517C73.3413 48.6517 77.2343 54.8227 76.1633 60.6367L77.0643 60.7982C78.2288 54.4827 73.9618 47.7422 65.6913 47.7422V48.6517ZM55.2108 60.6367C54.6753 57.7892 55.3383 54.7972 57.0978 52.5107C58.8488 50.2412 61.7218 48.6517 65.6828 48.6517V47.7422C61.4583 47.7422 58.3133 49.4422 56.3753 51.9582C55.4323 53.2054 54.7619 54.6368 54.4076 56.1596C54.0532 57.6825 54.0228 59.2628 54.3183 60.7982L55.2108 60.6282V60.6367ZM65.6913 80.0592C65.7763 80.0592 65.8358 80.0932 65.8613 80.0932L65.8783 80.1102C65.848 80.0839 65.8196 80.0555 65.7933 80.0252C65.6613 79.8783 65.5365 79.7252 65.4193 79.5662C64.9903 78.984 64.5792 78.3887 64.1868 77.7812C62.9627 75.8861 61.7893 73.9587 60.6678 72.0012C59.3928 69.8082 58.1263 67.4792 57.1233 65.4307C56.1118 63.3652 55.3978 61.6397 55.2108 60.6282L54.3183 60.7982C54.5308 61.9457 55.3043 63.7732 56.3073 65.8302C58.4473 70.108 60.8253 74.2625 63.4303 78.2742C63.9233 79.0392 64.3653 79.6682 64.6968 80.1187C64.8879 80.3699 65.0952 80.6084 65.3173 80.8327L65.4448 80.9177C65.5231 80.9499 65.6067 80.9672 65.6913 80.9687V80.0592ZM68.8788 59.1237C68.8788 59.9691 68.543 60.7798 67.9452 61.3776C67.3474 61.9754 66.5367 62.3112 65.6913 62.3112V63.2207C66.7779 63.2207 67.82 62.789 68.5883 62.0207C69.3567 61.2524 69.7883 60.2103 69.7883 59.1237H68.8703H68.8788ZM65.6913 55.9362C66.5367 55.9362 67.3474 56.272 67.9452 56.8698C68.543 57.4676 68.8788 58.2783 68.8788 59.1237H69.7883C69.7883 58.0371 69.3567 56.995 68.5883 56.2267C67.82 55.4583 66.7779 55.0267 65.6913 55.0267V55.9362ZM62.5038 59.1237C62.5038 58.2783 62.8396 57.4676 63.4374 56.8698C64.0352 56.272 64.8459 55.9362 65.6913 55.9362V55.0267C64.6047 55.0267 63.5626 55.4583 62.7943 56.2267C62.0259 56.995 61.5943 58.0371 61.5943 59.1237H62.5038ZM65.6913 62.3112C64.8459 62.3112 64.0352 61.9754 63.4374 61.3776C62.8396 60.7798 62.5038 59.9691 62.5038 59.1237H61.5943C61.5943 60.2103 62.0259 61.2524 62.7943 62.0207C63.5626 62.789 64.6047 63.2207 65.6913 63.2207V62.3112Z" fill="#1A1B22"/>
</g>
<path d="M158.852 119.406L165.941 103.817L174.908 116.567L182.703 108.067L186.715 112.555L194.985 102.406" stroke="#1A1B22" stroke-width="0.54"/>
<path d="M158.852 120.348C159.373 120.348 159.795 119.926 159.795 119.404C159.795 118.883 159.373 118.461 158.852 118.461C158.331 118.461 157.908 118.883 157.908 119.404C157.908 119.926 158.331 120.348 158.852 120.348Z" fill="#1A1B22"/>
<path d="M165.94 104.758C166.461 104.758 166.883 104.336 166.883 103.815C166.883 103.294 166.461 102.871 165.94 102.871C165.419 102.871 164.996 103.294 164.996 103.815C164.996 104.336 165.419 104.758 165.94 104.758Z" fill="#1A1B22"/>
<path d="M174.908 117.508C175.429 117.508 175.852 117.086 175.852 116.565C175.852 116.044 175.429 115.621 174.908 115.621C174.387 115.621 173.965 116.044 173.965 116.565C173.965 117.086 174.387 117.508 174.908 117.508Z" fill="#1A1B22"/>
<path d="M182.465 109.008C182.986 109.008 183.408 108.586 183.408 108.065C183.408 107.544 182.986 107.121 182.465 107.121C181.944 107.121 181.521 107.544 181.521 108.065C181.521 108.586 181.944 109.008 182.465 109.008Z" fill="#1A1B22"/>
<path d="M186.715 113.258C187.236 113.258 187.658 112.836 187.658 112.315C187.658 111.794 187.236 111.371 186.715 111.371C186.194 111.371 185.771 111.794 185.771 112.315C185.771 112.836 186.194 113.258 186.715 113.258Z" fill="#1A1B22"/>
<path d="M194.748 103.348C195.269 103.348 195.692 102.926 195.692 102.404C195.692 101.883 195.269 101.461 194.748 101.461C194.227 101.461 193.805 101.883 193.805 102.404C193.805 102.926 194.227 103.348 194.748 103.348Z" fill="#1A1B22"/>
<path d="M64.5938 45.2425H91.9043M64.5938 41.375H100.549" stroke="#1A1B22" stroke-width="0.54"/>
</g>
</svg>
