<svg width="254" height="162" viewBox="0 0 254 162" fill="none" xmlns="http://www.w3.org/2000/svg">
<g clip-path="url(#clip0_1121_27799)">
<path d="M0 0H254V162H0V0Z" fill="white"/>
<mask id="mask0_1121_27799" style="mask-type:luminance" maskUnits="userSpaceOnUse" x="37" y="15" width="181" height="133">
<path d="M37 15H217.55V147.977H37V15Z" fill="white"/>
</mask>
<g mask="url(#mask0_1121_27799)">
<path d="M163.186 15.2735H104.16C103.686 15.2722 103.217 15.3637 102.779 15.5428C102.341 15.7219 101.943 15.9851 101.607 16.3172C101.272 16.6494 101.005 17.044 100.824 17.4785C100.642 17.9129 100.549 18.3787 100.549 18.8491V139.415C100.549 141.385 102.166 142.991 104.16 142.991H163.186C165.17 142.991 166.787 141.385 166.787 139.405V18.8491C166.787 16.879 165.18 15.2735 163.186 15.2735Z" fill="white" stroke="#1A1B22" stroke-linecap="round" stroke-linejoin="round"/>
<path d="M157.74 19.707H109.428C108.599 19.707 107.804 20.0339 107.218 20.6158C106.632 21.1977 106.303 21.9869 106.303 22.8098V125.301C106.301 125.709 106.381 126.114 106.538 126.491C106.694 126.869 106.924 127.212 107.214 127.501C107.505 127.79 107.85 128.02 108.23 128.176C108.609 128.333 109.016 128.414 109.428 128.414H157.74C158.151 128.414 158.558 128.333 158.938 128.176C159.318 128.02 159.663 127.79 159.953 127.501C160.243 127.212 160.473 126.869 160.63 126.491C160.786 126.114 160.866 125.709 160.865 125.301V22.8197C160.865 21.9968 160.535 21.2076 159.949 20.6257C159.363 20.0438 158.568 19.7169 157.74 19.7169V19.707Z" fill="#1A1B22" stroke="#1A1B22" stroke-linecap="round" stroke-linejoin="round"/>
<path d="M136.54 83.4288C135.776 83.4288 135.052 83.616 134.427 83.941C134.356 83.9786 134.276 83.9971 134.195 83.9947C134.114 83.9923 134.035 83.9691 133.966 83.9274C133.897 83.8857 133.84 83.8269 133.801 83.7568C133.762 83.6866 133.742 83.6076 133.743 83.5273V74.4258H106.412V101.583H133.743V92.491C133.743 92.1462 134.12 91.9197 134.437 92.0773C135.056 92.3845 135.737 92.5493 136.429 92.5592C137.121 92.569 137.806 92.4239 138.434 92.1345C139.062 91.845 139.616 91.4188 140.054 90.8875C140.493 90.3561 140.806 89.7334 140.969 89.0655C141.132 88.3977 141.141 87.7019 140.996 87.0301C140.851 86.3582 140.555 85.7275 140.13 85.1849C139.705 84.6422 139.163 84.2017 138.543 83.8959C137.923 83.5902 137.242 83.4272 136.55 83.419L136.54 83.4288ZM204.356 104.735V104.774H195.189C195.108 104.775 195.029 104.797 194.958 104.837C194.888 104.877 194.829 104.935 194.787 105.004C194.746 105.073 194.722 105.151 194.72 105.232C194.717 105.312 194.735 105.392 194.772 105.464C195.112 106.123 195.286 106.855 195.279 107.596C195.272 108.336 195.085 109.065 194.733 109.718C194.381 110.371 193.875 110.93 193.258 111.347C192.642 111.764 191.932 112.027 191.191 112.113C190.362 112.204 189.523 112.071 188.764 111.727C188.005 111.383 187.354 110.841 186.881 110.159C186.407 109.477 186.129 108.68 186.076 107.853C186.023 107.026 186.196 106.2 186.578 105.464C186.616 105.394 186.634 105.315 186.632 105.236C186.63 105.156 186.608 105.079 186.567 105.01C186.526 104.942 186.468 104.886 186.399 104.846C186.33 104.806 186.252 104.785 186.172 104.784H177.154V113.836C177.154 114.181 177.531 114.408 177.839 114.25C178.542 113.889 179.327 113.713 180.118 113.741C180.909 113.768 181.68 113.997 182.356 114.405C183.033 114.814 183.592 115.389 183.979 116.074C184.367 116.759 184.571 117.532 184.571 118.318C184.571 119.104 184.367 119.877 183.979 120.562C183.592 121.248 183.033 121.822 182.356 122.231C181.68 122.64 180.909 122.869 180.118 122.896C179.327 122.923 178.542 122.747 177.839 122.386C177.766 122.346 177.684 122.325 177.601 122.327C177.518 122.328 177.437 122.352 177.366 122.395C177.295 122.438 177.237 122.5 177.198 122.573C177.159 122.645 177.14 122.727 177.144 122.81V131.902H201.122C201.974 131.902 202.792 131.565 203.394 130.967C203.997 130.368 204.336 129.557 204.336 128.71V104.745L204.346 104.735H204.356Z" fill="white" stroke="#1A1B22" stroke-linecap="round" stroke-linejoin="round"/>
<path d="M136.54 56.2395C135.776 56.2395 135.052 56.4266 134.427 56.7517C134.356 56.7892 134.276 56.8077 134.195 56.8053C134.114 56.8029 134.035 56.7798 133.966 56.738C133.897 56.6963 133.84 56.6375 133.801 56.5674C133.762 56.4972 133.742 56.4182 133.743 56.338V47.2364H124.239C124.177 47.3053 124.138 47.3908 124.126 47.482C124.113 47.5732 124.128 47.6661 124.17 47.7486C124.535 48.4468 124.714 49.2267 124.688 50.0133C124.662 50.7999 124.432 51.5666 124.021 52.2393C123.61 52.9121 123.031 53.4683 122.34 53.8544C121.649 54.2404 120.87 54.4432 120.077 54.4432C119.285 54.4432 118.506 54.2404 117.815 53.8544C117.124 53.4683 116.545 52.9121 116.134 52.2393C115.723 51.5666 115.493 50.7999 115.467 50.0133C115.441 49.2267 115.619 48.4468 115.985 47.7486C116.026 47.6661 116.042 47.5732 116.029 47.482C116.017 47.3908 115.977 47.3053 115.916 47.2364H106.412V74.4032H115.569C115.916 74.4032 116.144 74.7775 115.985 75.0927C115.624 75.7894 115.449 76.5667 115.477 77.3499C115.506 78.1331 115.736 78.8959 116.147 79.565C116.558 80.2341 117.136 80.7871 117.824 81.1708C118.512 81.5544 119.288 81.756 120.077 81.756C120.867 81.756 121.643 81.5544 122.331 81.1708C123.019 80.7871 123.596 80.2341 124.007 79.565C124.418 78.8959 124.649 78.1331 124.677 77.3499C124.706 76.5667 124.531 75.7894 124.17 75.0927C124.132 75.0218 124.113 74.9424 124.115 74.8622C124.118 74.782 124.141 74.7038 124.183 74.6353C124.225 74.5667 124.284 74.5102 124.355 74.4713C124.426 74.4323 124.505 74.4122 124.586 74.413H133.743V65.3115C133.743 64.9667 134.12 64.7402 134.437 64.8978C135.056 65.205 135.737 65.3697 136.429 65.3796C137.121 65.3895 137.806 65.2444 138.434 64.9549C139.062 64.6655 139.616 64.2393 140.054 63.7079C140.493 63.1766 140.806 62.5538 140.969 61.886C141.132 61.2181 141.141 60.5224 140.996 59.8505C140.851 59.1787 140.555 58.548 140.13 58.0053C139.705 57.4627 139.163 57.0221 138.543 56.7164C137.923 56.4107 137.242 56.2477 136.55 56.2395H136.54ZM151.778 47.0788H160.934V23.1035C160.932 22.2605 160.593 21.4527 159.993 20.8566C159.393 20.2605 158.579 19.9245 157.73 19.9219H133.753V29.0136C133.753 29.3583 134.12 29.5849 134.437 29.4273C135.101 29.085 135.84 28.9088 136.588 28.9139C137.337 28.9189 138.073 29.1052 138.732 29.4564C139.392 29.8077 139.955 30.3134 140.374 30.9296C140.792 31.5459 141.053 32.2542 141.133 32.9931C141.226 33.8165 141.092 34.6494 140.745 35.4031C140.399 36.1568 139.853 36.8031 139.166 37.2731C138.479 37.7431 137.676 38.0193 136.843 38.0722C136.01 38.1251 135.179 37.9527 134.437 37.5734C134.366 37.5358 134.286 37.5173 134.205 37.5197C134.124 37.5221 134.045 37.5453 133.976 37.587C133.907 37.6287 133.85 37.6875 133.811 37.7577C133.772 37.8278 133.752 37.9069 133.753 37.9871V47.0788H142.77C143.117 47.0788 143.345 47.4531 143.187 47.7683C142.821 48.4665 142.642 49.2464 142.668 50.033C142.695 50.8196 142.924 51.5863 143.335 52.259C143.747 52.9318 144.326 53.488 145.016 53.8741C145.707 54.2601 146.486 54.4629 147.279 54.4629C148.072 54.4629 148.851 54.2601 149.541 53.8741C150.232 53.488 150.811 52.9318 151.222 52.259C151.634 51.5863 151.863 50.8196 151.889 50.033C151.915 49.2464 151.737 48.4665 151.371 47.7683C151.331 47.6971 151.31 47.6166 151.311 47.535C151.313 47.4534 151.335 47.3735 151.378 47.3035C151.42 47.2335 151.48 47.1758 151.552 47.1363C151.624 47.0969 151.706 47.077 151.788 47.0788H151.778ZM133.852 140.616C135.246 140.616 136.584 140.066 137.57 139.087C138.556 138.108 139.11 136.78 139.11 135.395C139.11 134.011 138.556 132.683 137.57 131.704C136.584 130.725 135.246 130.175 133.852 130.175C132.457 130.175 131.12 130.725 130.134 131.704C129.148 132.683 128.594 134.011 128.594 135.395C128.594 136.78 129.148 138.108 130.134 139.087C131.12 140.066 132.457 140.616 133.852 140.616Z" fill="white" stroke="#1A1B22" stroke-linecap="round" stroke-linejoin="round"/>
<path d="M191.33 117.42V118.248L187.937 119.666L191.33 121.045V121.872L186.965 119.991V119.331L191.33 117.41V117.42ZM192.064 121.931L194.494 115.805H195.268L192.838 121.931H192.064ZM200.387 120.001L196.022 121.872V121.055L199.415 119.676L196.022 118.248V117.42L200.387 119.341V120.001Z" fill="#1A1B22"/>
<path d="M207.7 56.4842C208.042 57.1442 208.217 57.8767 208.211 58.6188C208.206 59.3609 208.019 60.0906 207.667 60.7452C207.314 61.3999 206.808 61.96 206.19 62.3776C205.572 62.7952 204.861 63.0578 204.119 63.1429C203.289 63.2339 202.45 63.0997 201.691 62.7544C200.932 62.4091 200.281 61.8658 199.809 61.1823C199.336 60.4988 199.06 59.7009 199.008 58.8735C198.956 58.0461 199.132 57.2203 199.516 56.4842C199.559 56.4004 199.575 56.3056 199.563 56.2124C199.551 56.1191 199.51 56.0318 199.446 55.9621H190.082V65.0637C190.082 65.4183 190.458 65.6448 190.776 65.4774C191.479 65.1162 192.264 64.9407 193.055 64.9679C193.847 64.9951 194.617 65.2241 195.294 65.6327C195.97 66.0414 196.529 66.616 196.917 67.3013C197.305 67.9865 197.509 68.7594 197.509 69.5455C197.509 70.3316 197.305 71.1045 196.917 71.7897C196.529 72.475 195.97 73.0496 195.294 73.4583C194.617 73.8669 193.847 74.0959 193.055 74.1231C192.264 74.1503 191.479 73.9748 190.776 73.6136C190.703 73.5732 190.621 73.5527 190.538 73.5542C190.455 73.5558 190.374 73.5794 190.303 73.6226C190.232 73.6658 190.175 73.727 190.136 73.7999C190.097 73.8728 190.078 73.9547 190.082 74.0372V83.1387H199.089C199.446 83.1387 199.674 83.5032 199.506 83.8184C199.14 84.5166 198.961 85.2965 198.988 86.0831C199.014 86.8697 199.243 87.6363 199.655 88.3091C200.066 88.9819 200.645 89.5381 201.335 89.9241C202.026 90.3102 202.805 90.5129 203.598 90.5129C204.391 90.5129 205.17 90.3102 205.861 89.9241C206.551 89.5381 207.13 88.9819 207.541 88.3091C207.953 87.6363 208.182 86.8697 208.208 86.0831C208.234 85.2965 208.056 84.5166 207.69 83.8184C207.655 83.7458 207.639 83.6657 207.644 83.5854C207.648 83.5052 207.673 83.4272 207.715 83.3588C207.757 83.2903 207.816 83.2334 207.886 83.1932C207.957 83.1531 208.036 83.131 208.117 83.1289H217.273V55.972H207.769C207.706 56.0417 207.665 56.129 207.653 56.2222C207.64 56.3155 207.657 56.4103 207.7 56.494V56.4842ZM90.4318 41.3543C90.3455 40.6184 90.081 39.9142 89.6611 39.3018C89.2411 38.6895 88.6781 38.1871 88.0201 37.8377C87.3622 37.4883 86.6288 37.3023 85.8827 37.2954C85.1366 37.2886 84.3999 37.4611 83.7356 37.7984C83.6634 37.8364 83.5825 37.8549 83.5009 37.8521C83.4192 37.8493 83.3398 37.8252 83.2705 37.7823C83.2012 37.7394 83.1444 37.6792 83.1059 37.6077C83.0674 37.5362 83.0485 37.4559 83.0511 37.3748V28.293H58.9447C58.5226 28.293 58.1046 28.3755 57.7146 28.5359C57.3247 28.6963 56.9703 28.9314 56.6719 29.2277C56.3734 29.5241 56.1367 29.8759 55.9751 30.2631C55.8136 30.6503 55.7305 31.0653 55.7305 31.4844V55.4598H64.8869C65.2341 55.4598 65.4722 55.8242 65.3135 56.1296C64.9209 56.8666 64.7392 57.6963 64.7883 58.5286C64.8374 59.361 65.1154 60.164 65.592 60.8505C66.0685 61.5369 66.7255 62.0805 67.4914 62.4222C68.2574 62.7638 69.103 62.8904 69.9364 62.7883C70.6752 62.6968 71.381 62.4298 71.9938 62.01C72.6067 61.5901 73.1086 61.0298 73.457 60.3765C73.8055 59.7231 73.9902 58.996 73.9956 58.2568C74.001 57.5175 73.8268 56.7878 73.4879 56.1296C73.4496 56.0579 73.4309 55.9776 73.4338 55.8965C73.4366 55.8155 73.4609 55.7366 73.5041 55.6678C73.5473 55.599 73.6079 55.5426 73.6799 55.5044C73.7519 55.4661 73.8328 55.4473 73.9144 55.4499H83.0709V46.3483C83.0709 46.0036 83.438 45.777 83.7554 45.9346C84.4973 46.3139 85.3288 46.4863 86.1615 46.4334C86.9943 46.3805 87.797 46.1044 88.4841 45.6344C89.1713 45.1643 89.7171 44.5181 90.0636 43.7643C90.4101 43.0106 90.5442 42.1777 90.4516 41.3543L90.4318 41.3642V41.3543Z" fill="white" stroke="#1A1B22" stroke-linecap="round" stroke-linejoin="round"/>
<path d="M61.0859 48.7029C62.941 48.7029 63.7049 34.8438 65.7485 34.8438C67.7722 34.8438 68.5361 48.7029 70.3912 48.7029C72.2562 48.7029 73.03 34.8438 75.0736 34.8438C77.1172 34.8438 77.891 48.7029 79.7659 48.7029" stroke="#1A1B22" stroke-linecap="round" stroke-linejoin="round"/>
<path d="M58.9844 31.3203V52.7247H80.9778" stroke="#1A1B22" stroke-linecap="round" stroke-linejoin="round"/>
<path d="M58.1094 32.9226L58.3574 33.0211L58.9824 31.3466L59.5875 33.0211L59.8454 32.9226L58.9824 30.5586L58.1094 32.9226ZM79.3587 53.5883L79.2595 53.3322L80.946 52.7215L79.2595 52.1108L79.3587 51.8547L81.7396 52.7215L79.3587 53.5883ZM203.918 76.7067C203.651 78.0364 202.609 78.7259 201.299 78.7259C199.563 78.7259 198.561 77.4257 198.561 75.6034C198.561 73.7812 199.663 72.5105 201.369 72.5105C202.609 72.5105 203.611 73.2493 203.879 74.5298H203.055C202.877 73.7713 202.282 73.2197 201.319 73.2197C200.258 73.2197 199.424 74.0471 199.424 75.6034C199.424 77.1598 200.218 78.0069 201.349 78.0069C202.321 78.0069 202.897 77.475 203.085 76.6968H203.918V76.7067ZM207.212 72.6188H208.055V76.7165C208.055 78.0364 207.361 78.7358 206.17 78.7358C204.97 78.7358 204.266 78.066 204.266 76.7658H205.059C205.059 77.5932 205.555 78.0463 206.16 78.0463C206.656 78.0463 207.212 77.8 207.212 76.7067V72.6188ZM212.003 78.6274L210.347 73.397V78.6176H209.494V72.6188H210.922L212.46 77.6227L214.007 72.6188H215.426V78.6274H214.583V73.397L212.916 78.6176H212.003V78.6274Z" fill="#1A1B22"/>
<path d="M151.779 101.601H160.936V74.4342H151.65C151.586 74.4545 151.526 74.4883 151.476 74.5332C151.426 74.5781 151.385 74.6331 151.358 74.6947C151.331 74.7562 151.317 74.8228 151.318 74.8899C151.319 74.9571 151.334 75.0234 151.362 75.0843C151.704 75.7443 151.88 76.4768 151.874 77.2189C151.868 77.9611 151.681 78.6907 151.329 79.3454C150.977 80 150.47 80.5602 149.852 80.9778C149.234 81.3953 148.524 81.6579 147.781 81.743C146.953 81.833 146.115 81.6983 145.358 81.3535C144.6 81.0086 143.951 80.4664 143.479 79.7845C143.006 79.1025 142.729 78.3063 142.676 77.4805C142.623 76.6546 142.797 75.83 143.178 75.0942C143.21 75.0337 143.229 74.9669 143.232 74.8986C143.235 74.8303 143.223 74.7621 143.196 74.699C143.17 74.6359 143.129 74.5794 143.078 74.5337C143.027 74.4879 142.966 74.4539 142.9 74.4342H133.744V83.5358C133.744 83.8805 134.121 84.1169 134.438 83.9495C135.141 83.5883 135.926 83.4128 136.718 83.44C137.509 83.4672 138.28 83.6962 138.956 84.1048C139.632 84.5135 140.191 85.0881 140.579 85.7733C140.967 86.4586 141.171 87.2315 141.171 88.0176C141.171 88.8037 140.967 89.5766 140.579 90.2618C140.191 90.9471 139.632 91.5217 138.956 91.9304C138.28 92.339 137.509 92.568 136.718 92.5952C135.926 92.6224 135.141 92.4469 134.438 92.0857C134.366 92.0453 134.284 92.0247 134.201 92.0263C134.118 92.0279 134.036 92.0515 133.966 92.0947C133.895 92.1379 133.837 92.1991 133.798 92.272C133.759 92.3449 133.74 92.4268 133.744 92.5093V101.611H142.752C143.109 101.611 143.337 101.975 143.168 102.29C142.802 102.989 142.624 103.769 142.65 104.555C142.676 105.342 142.906 106.108 143.317 106.781C143.728 107.454 144.307 108.01 144.998 108.396C145.688 108.782 146.468 108.985 147.26 108.985C148.053 108.985 148.832 108.782 149.523 108.396C150.214 108.01 150.793 107.454 151.204 106.781C151.615 106.108 151.845 105.342 151.871 104.555C151.897 103.769 151.718 102.989 151.352 102.29C151.318 102.218 151.302 102.138 151.306 102.058C151.311 101.977 151.335 101.899 151.377 101.831C151.42 101.762 151.479 101.705 151.549 101.665C151.619 101.625 151.698 101.603 151.779 101.601ZM119.409 94.1149C118.357 94.1149 117.365 94.371 116.492 94.8142C116.394 94.8628 116.285 94.8857 116.176 94.8808C116.066 94.8759 115.96 94.8433 115.866 94.7861C115.773 94.7289 115.696 94.649 115.642 94.5539C115.589 94.4589 115.56 94.3518 115.56 94.2429V81.7135H102.941C102.83 81.7141 102.721 81.6861 102.624 81.6324C102.527 81.5787 102.445 81.501 102.388 81.4069C102.33 81.3127 102.297 81.2053 102.293 81.0951C102.29 80.9849 102.315 80.8756 102.366 80.7777C102.866 79.8168 103.109 78.7441 103.071 77.6629C103.033 76.5818 102.716 75.5285 102.149 74.6044C101.583 73.6803 100.787 72.9165 99.8367 72.3865C98.8869 71.8565 97.8157 71.5781 96.7262 71.5781C95.6367 71.5781 94.5655 71.8565 93.6157 72.3865C92.6658 72.9165 91.8694 73.6803 91.3029 74.6044C90.7364 75.5285 90.4189 76.5818 90.381 77.6629C90.3431 78.7441 90.5861 79.8168 91.0865 80.7777C91.3146 81.2013 90.9873 81.7135 90.5111 81.7135H77.9024V114.751C77.901 115.328 78.0146 115.9 78.2365 116.434C78.4584 116.967 78.7842 117.452 79.1953 117.86C79.6064 118.269 80.0947 118.592 80.6321 118.812C81.1695 119.033 81.7454 119.145 82.3268 119.144H115.56V106.605C115.56 106.132 116.056 105.817 116.492 106.034C117.409 106.496 118.424 106.732 119.451 106.721C120.479 106.71 121.489 106.453 122.395 105.971C123.3 105.49 124.076 104.798 124.655 103.954C125.233 103.111 125.598 102.142 125.718 101.128C125.819 100.246 125.731 99.3528 125.46 98.5068C125.188 97.6609 124.74 96.8814 124.145 96.2193C123.549 95.5572 122.819 95.0275 122.003 94.6648C121.187 94.3022 120.303 94.1148 119.409 94.1149Z" fill="white" stroke="#1A1B22" stroke-linecap="round" stroke-linejoin="round"/>
<path d="M63.9035 96.8044L63.6059 96.6468C60.6397 95.8293 57.9811 97.4742 55.9276 99.9269L55.8085 99.8284C52.6539 97.9963 49.9059 101.001 48.0508 104.182C46.3048 103.246 43.6164 104.025 42.426 105.61C41.2356 107.196 40.8983 109.235 40.6205 111.196C39.7839 117.126 39.2772 123.098 39.1027 129.083C39.0432 131.447 38.8051 133.792 38.438 136.126L37.2773 143.337L65.1336 147.71C66.5324 145.779 68.6851 143.494 71.6017 137.367C76.6313 126.729 96.9779 115.638 93.3967 108.398C92.1368 105.867 88.8333 106.073 85.4306 107.413C81.6981 108.941 78.4736 111.481 76.1254 114.742C75.0143 116.229 73.3774 117.844 71.5422 117.775C70.2228 117.726 68.8934 117.283 68.1693 116.199C67.4864 115.062 67.2004 113.732 67.3558 112.417C67.574 109.61 75.4012 97.5038 76.7702 95.0215L76.7107 85.2305C69.8359 87.4172 66.6118 91.6725 63.9035 96.8044Z" fill="white"/>
<path d="M65.1247 147.702C67.5955 144.458 69.7606 140.996 71.5928 137.359C76.6224 126.731 96.969 115.639 93.3878 108.399C92.1378 105.858 88.8244 106.075 85.4217 107.405C81.6884 108.931 78.4636 111.471 76.1165 114.733C75.0054 116.23 73.3785 117.836 71.5333 117.767C70.2139 117.718 68.8945 117.274 68.1604 116.191C67.481 115.056 67.1985 113.729 67.3568 112.418C67.585 109.611 76.2256 96.7861 77.5847 94.3038M77.5252 85.0742C66.1763 88.6794 63.5573 98.1651 58.8253 107.592M63.6069 96.6482C58.2202 95.1706 53.8056 101.81 52.268 106.705M55.8095 99.8298C51.4644 97.3081 47.913 103.967 46.3555 107.592" stroke="#1A1B22" stroke-linecap="round" stroke-linejoin="round"/>
<path d="M48.051 104.181C46.2951 103.246 43.6067 104.024 42.4162 105.61C41.2258 107.195 40.8885 109.234 40.6107 111.195C39.7805 117.126 39.2771 123.097 39.1028 129.083C39.0334 131.447 38.8052 133.791 38.4283 136.125L37.2676 143.346" stroke="#1A1B22" stroke-linecap="round" stroke-linejoin="round"/>
<path d="M87.9698 93.1992V100.518C87.9698 102.882 88.823 103.985 91.0947 103.985C93.3665 103.985 94.2692 102.705 94.2692 100.341V93.1992H95.9656V100.203C95.9656 103.719 94.6164 105.443 91.1046 105.443C87.573 105.443 86.2734 104.084 86.2734 100.331V93.2091H87.9698V93.1992ZM101.709 99.0404L97.5231 93.1992H99.5369L102.731 97.6515L105.945 93.1992H107.87L103.684 98.9714L108.168 105.226H106.164L102.662 100.37L99.1401 105.226H97.2255L101.709 99.0404Z" fill="#1A1B22"/>
</g>
</g>
<defs>
<clipPath id="clip0_1121_27799">
<rect width="254" height="162" rx="12" fill="white"/>
</clipPath>
</defs>
</svg>
