<svg width="254" height="162" viewBox="0 0 254 162" fill="none" xmlns="http://www.w3.org/2000/svg">
<g clip-path="url(#clip0_1121_27803)">
<mask id="mask0_1121_27803" style="mask-type:luminance" maskUnits="userSpaceOnUse" x="0" y="0" width="254" height="162">
<path d="M0 0H254V162H0V0Z" fill="white"/>
</mask>
<g mask="url(#mask0_1121_27803)">
<path d="M0 0H254V162H0V0Z" fill="white"/>
<path d="M148.676 52H127.324C124.939 52 123.001 54.0667 123.001 56.6262V109.374C122.99 109.971 123.094 110.564 123.306 111.12C123.518 111.676 123.833 112.183 124.235 112.612C124.636 113.042 125.116 113.386 125.646 113.624C126.176 113.862 126.746 113.99 127.324 114H148.676C151.061 114 152.999 111.933 152.999 109.374V56.6262C153.01 56.0291 152.906 55.4357 152.694 54.8801C152.482 54.3244 152.167 53.8173 151.765 53.3877C151.364 52.9581 150.884 52.6144 150.354 52.3763C149.824 52.1382 149.254 52.0103 148.676 52Z" fill="white" stroke="#1A1B22"/>
<path d="M226.754 33.9249C222.857 33.4684 214.154 32.4688 210.562 32.1146C206.07 31.6502 197.336 32.6656 193.923 33.9249C192.249 34.5467 190.457 35.3259 189.877 37.569C189.306 39.8043 190.331 41.2053 189.877 41.6618C189.431 42.1183 188.531 43.9364 188.531 45.7545C188.531 47.5727 189.877 49.3908 189.431 49.8473C188.977 50.3038 188.977 51.2168 188.977 53.4914C188.977 55.766 189.877 58.0407 189.877 58.4893C189.877 58.9458 173.685 60.7718 168.747 62.1334C163.801 63.4951 160.647 65.3132 160.201 67.5878C159.747 69.8703 161.547 71.6806 164.247 72.1371C166.947 72.5936 172.339 72.5936 177.739 72.5936C183.139 72.5936 196.623 70.3189 198.87 69.8624C200.67 69.5004 202.016 69.4059 202.47 69.4059C200.89 71.4365 199.241 73.4106 197.523 75.3247C196.177 76.6863 193.477 81.6921 193.023 84.4232C192.577 87.1543 192.123 89.429 194.377 90.7906C196.623 92.1522 198.87 92.1522 200.67 90.7906C202.11 89.6966 208.762 82.4477 211.908 78.961C215.062 75.7812 221.808 69.2249 223.6 68.4929C225.4 67.7688 227.951 67.5878 229 67.5878M189.87 41.4414C190.23 41.1895 191.153 40.4969 192.217 40.6858M189.478 49.7056C189.478 49.4065 189.924 48.3282 193 47.7379M152.43 47.7379H125.57C124.972 47.7359 124.38 47.8523 123.826 48.0806C123.273 48.3089 122.77 48.6446 122.345 49.0685C121.921 49.4924 121.583 49.9962 121.353 50.5512C121.122 51.1061 121.002 51.7014 121 52.3029V112.435C121 114.954 123.043 117 125.57 117H152.43C154.957 117 157 114.954 157 112.435V52.3029C157 49.7843 154.957 47.7379 152.43 47.7379Z" stroke="#1A1B22"/>
<path d="M144.688 38H119.312C118.147 38.0247 117.039 38.5173 116.23 39.3697C115.422 40.2222 114.98 41.365 115.001 42.5477V102.452C115.001 104.961 116.932 107 119.312 107H144.688C145.853 106.975 146.961 106.483 147.77 105.63C148.578 104.778 149.02 103.635 148.999 102.452V42.5477C148.999 40.0386 147.068 38 144.688 38Z" fill="#1A1B22" stroke="#1A1B22"/>
<path d="M137.303 30H109.697C109.083 29.998 108.473 30.1123 107.905 30.3364C107.336 30.5606 106.819 30.8901 106.382 31.3063C105.946 31.7225 105.6 32.2171 105.362 32.762C105.125 33.3068 105.002 33.8913 105 34.4818V93.5182C105 95.9909 107.099 98 109.697 98H137.303C139.901 98 142 95.9909 142 93.5182V34.4818C142 32.0091 139.901 30 137.303 30Z" fill="white" stroke="#1A1B22"/>
<path d="M134.395 34.0003H111.605C110.401 33.9855 109.24 34.4558 108.377 35.3082C107.514 36.1605 107.019 37.3254 107 38.5476V90.4524C107.019 91.6746 107.514 92.8395 108.377 93.6918C109.24 94.5442 110.401 95.0145 111.605 94.9997H134.395C136.932 94.9997 139 92.9637 139 90.4524V38.5476C138.981 37.3254 138.486 36.1605 137.623 35.3082C136.76 34.4558 135.599 33.9855 134.395 34.0003Z" fill="white" stroke="#1A1B22"/>
<path d="M118.312 45H111V75.225H118.312V45ZM127.25 51.2H119.938V76H127.25V51.2ZM137 54.3H129.688V76H137V54.3Z" fill="#1A1B22"/>
<mask id="mask1_1121_27803" style="mask-type:luminance" maskUnits="userSpaceOnUse" x="39" y="57" width="79" height="81">
<path d="M39.8477 57.8672H117.698V137.044H39.8477V57.8594V57.8672Z" fill="white"/>
</mask>
<g mask="url(#mask1_1121_27803)">
<path d="M90.0778 112.449C86.5735 112.449 83.1034 111.758 79.8658 110.417C76.6282 109.076 73.6865 107.111 71.2085 104.633C68.7306 102.155 66.7649 99.213 65.4239 95.9754C64.0828 92.7378 63.3926 89.2677 63.3926 85.7634C63.3926 82.259 64.0828 78.789 65.4239 75.5514C66.7649 72.3138 68.7306 69.372 71.2085 66.8941C73.6865 64.4161 76.6282 62.4505 79.8658 61.1094C83.1034 59.7684 86.5735 59.0781 90.0778 59.0781C97.1552 59.0781 103.943 61.8896 108.947 66.8941C113.952 71.8985 116.763 78.686 116.763 85.7634C116.763 92.8408 113.952 99.6283 108.947 104.633C103.943 109.637 97.1552 112.449 90.0778 112.449Z" fill="white" stroke="#1A1B22" stroke-miterlimit="10"/>
<path d="M90.0774 108.522C77.5039 108.522 67.3164 98.5074 67.3164 86.1537C67.3164 73.8 77.5039 63.7852 90.0774 63.7852C102.651 63.7852 112.838 73.8 112.838 86.1537C112.838 98.5074 102.651 108.522 90.0774 108.522Z" fill="white" stroke="#1A1B22" stroke-miterlimit="10"/>
<path d="M66.9244 99.043L64.0911 101.594M72.3713 105.667L70.056 107.535M75.6599 108.163C75.6599 108.163 74.412 122.911 72.3478 128.938C70.2915 134.958 69.6793 136.583 69.6793 136.583M71.0371 108.791C67.2227 104.765 64.3422 101.806 63.1728 100.581C62.9923 100.393 62.5056 99.8749 61.6972 99.6552C61.4775 99.5924 60.3316 99.302 59.4996 99.8592C57.4119 101.264 58.3302 102.386 57.82 102.622C57.5846 102.74 56.2268 102.214 55.1515 102.748C53.0324 103.815 53.4954 105.44 53.3149 106.005C53.2207 106.303 50.8034 106.107 49.9086 107.088C48.5194 108.587 48.8569 110.149 48.7156 110.361C48.5979 110.525 47.2715 110.675 46.4003 111.577C45.2701 112.754 45.6625 114.803 45.8744 115.863C46.3454 118.264 47.7424 120.336 49.7988 123.405C50.1362 123.907 50.7406 124.771 50.9603 126.042C51.1092 126.958 51.0556 127.896 50.8034 128.789C49.995 132.101 48.5822 136.018 48.2369 136.999" stroke="#1A1B22" stroke-miterlimit="10"/>
<path d="M50.364 124.296L45.647 128.471L40.0117 122.067L46.0551 116.581M64.884 94.6439C64.5543 94.4948 63.0788 93.7963 62.0898 94.1416C58.3382 95.4288 60.5672 99.1804 60.6928 99.5101" stroke="#1A1B22" stroke-miterlimit="10"/>
</g>
<path d="M103 79.2814C103 74.273 97.6477 72 91.8975 72C84.6258 72 79.5934 75.5427 79.5934 81.7581H85.9912C85.9912 78.5681 88.4645 77.1965 91.8195 77.1965C94.4956 77.1965 96.2511 78.2154 96.2511 79.7908C96.2511 81.4368 93.3331 82.1892 91.3747 83.1768C88.6596 84.5092 86.5842 86.1238 86.5842 90.0584C86.5842 90.5757 86.5842 91.3986 86.7012 91.9473H93.2941V90.9284C93.2941 88.4046 94.6985 87.5816 97.5307 86.2805C100.605 84.8305 103 83.02 103 79.2814ZM86.2643 101H93.692V93.993H86.2643V101ZM35.9011 87.6757C36.9357 87.6757 37.928 87.2628 38.6596 86.5279C39.3912 85.7929 39.8022 84.7961 39.8022 83.7568C39.8022 82.7174 39.3912 81.7206 38.6596 80.9857C37.928 80.2507 36.9357 79.8378 35.9011 79.8378C34.8665 79.8378 33.8742 80.2507 33.1426 80.9857C32.411 81.7206 32 82.7174 32 83.7568C32 84.7961 32.411 85.7929 33.1426 86.5279C33.8742 87.2628 34.8665 87.6757 35.9011 87.6757Z" fill="#1A1B22"/>
<path d="M35 82V32H81" stroke="#1A1B22"/>
<path d="M91.9667 31.2785L81 37.557V25L91.9667 31.2785ZM218.867 80.7215C218.036 80.7215 217.239 81.0523 216.651 81.641C216.063 82.2297 215.733 83.0282 215.733 83.8608C215.733 84.6933 216.063 85.4918 216.651 86.0805C217.239 86.6693 218.036 87 218.867 87C219.698 87 220.495 86.6693 221.082 86.0805C221.67 85.4918 222 84.6933 222 83.8608C222 83.0282 221.67 82.2297 221.082 81.641C220.495 81.0523 219.698 80.7215 218.867 80.7215Z" fill="#1A1B22"/>
<path d="M219 83V123H184" stroke="#1A1B22"/>
<path d="M177 123L185 118V128L177 123Z" fill="#1A1B22"/>
</g>
</g>
<defs>
<clipPath id="clip0_1121_27803">
<rect width="254" height="162" rx="12" fill="white"/>
</clipPath>
</defs>
</svg>
