<svg width="254" height="162" viewBox="0 0 254 162" fill="none" xmlns="http://www.w3.org/2000/svg">
<g clip-path="url(#clip0_1121_27793)">
<path d="M0 0H254V162H0V0Z" fill="white"/>
<path d="M95.6035 41.0913H200.026V126.23H95.6035V41.0913Z" stroke="#1A1B22" stroke-width="0.5"/>
<path d="M106.188 101.397H140.76V132.733H106.188V101.397Z" stroke="#1A1B22" stroke-width="0.5"/>
<path d="M106.188 101.398H140.76V104.946H106.188V101.398ZM156.282 101.398H190.854V104.946H156.282V101.398ZM156.282 60.6025H190.854V64.15H156.282V60.6025Z" fill="#1A1B22" stroke="#1A1B22" stroke-width="0.5"/>
<path d="M156.281 101.398H190.854V132.734H156.281V101.398ZM156.281 60.011H190.854V91.938H156.281V60.011ZM95.6035 41.0913H200.026V47.595H95.6035V41.0913Z" stroke="#1A1B22" stroke-width="0.5"/>
<path d="M199.587 79.2261L215.194 90.1404L200.039 127.01V137.168L151.44 133.786L105.057 137.168L86.7832 129.269L92.1454 122.493L95.7014 121.736L114.427 123.995L139.404 115.351L159.018 123.995L199.587 79.2261Z" fill="white"/>
<path d="M76.1992 153.723L82.4081 136.636H89.0403L95.7008 121.772L114.327 123.629L139.586 115.47L159.088 123.629L200.024 79.5222V50.5514L229.121 40.7959L237.532 56.7594L249.06 61.2292V153.132" stroke="#1A1B22" stroke-width="0.5" stroke-linecap="round" stroke-linejoin="round"/>
<path d="M174.273 107.015L208.846 125.343" stroke="#1A1B22" stroke-width="0.5"/>
<path d="M208.844 125.272L237.701 56.168L249.06 61.3709L248.623 153.131H218.905L208.844 125.272Z" fill="#1A1B22" stroke="#1A1B22" stroke-width="0.5"/>
<path d="M129.16 140.94L150.101 134.661V153.132H117.123L129.16 140.94Z" fill="#1A1B22"/>
<path d="M159.456 123.569L150.101 134.661M150.101 134.661L129.16 140.928L117.123 153.131H150.101V134.649V134.661Z" stroke="#1A1B22" stroke-width="0.5"/>
<path d="M125.588 61.7847H71.9653C61.2494 61.7847 52.5625 69.0641 52.5625 78.0438C52.5625 87.0235 61.2494 94.3029 71.9653 94.3029H125.588C136.303 94.3029 144.99 87.0235 144.99 78.0438C144.99 69.0641 136.303 61.7847 125.588 61.7847Z" fill="#1A1B22" stroke="#1A1B22" stroke-width="0.5"/>
<path d="M122.062 59.4199H65.6171C55.291 59.4199 46.9199 66.4347 46.9199 75.0878C46.9199 83.7409 55.291 90.7557 65.6171 90.7557H122.062C132.388 90.7557 140.759 83.7409 140.759 75.0878C140.759 66.4347 132.388 59.4199 122.062 59.4199Z" fill="white" stroke="#1A1B22" stroke-width="0.5"/>
<path d="M75.3391 68.9387L72.7285 79.2263H74.6617L75.6777 75.2413H77.4699C80.8565 75.2413 83.5376 74.5318 83.5376 71.5402C83.5376 69.53 81.5621 68.9387 79.0644 68.9387H75.3391ZM76.9336 70.2749H78.7963C80.2638 70.2749 81.5056 70.4759 81.5056 71.6821C81.5056 73.574 79.7417 73.8815 77.9073 73.8815H76.0164L76.9336 70.2749ZM87.8415 68.9387H85.9083L83.2977 79.2263H91.5668L91.9196 77.831H85.5837L87.8415 68.9387ZM95.2357 76.2701C95.2357 75.9154 95.2781 75.5251 95.4051 75.1113L96.9573 68.9387H95.0241L93.5283 74.9102C93.3872 75.4778 93.3025 75.9863 93.3025 76.4475C93.3025 78.505 94.7419 79.4037 97.5923 79.4037C101.064 79.4037 102.63 78.032 103.448 74.9102L104.958 68.9387H103.011L101.459 74.993C100.979 76.9678 100.034 78.0675 97.7052 78.0675C95.9272 78.0675 95.2216 77.4762 95.2216 76.2701H95.2357ZM115.259 71.9659C114.977 69.7073 112.79 68.7495 110.518 68.7495C108.077 68.7495 106.003 69.7901 106.003 71.6466C106.003 73.1956 107.329 73.917 108.924 74.3426L110.363 74.7092C111.718 75.064 112.621 75.4897 112.621 76.3647C112.621 77.6063 111.266 78.0793 109.869 78.0793C107.964 78.0793 106.906 77.086 106.793 75.6552H104.902C104.987 78.0911 107.019 79.4155 109.813 79.4155C112.268 79.4155 114.61 78.3513 114.61 76.1755C114.61 74.4136 112.861 73.8105 111.012 73.3257L109.601 72.971C108.401 72.6754 107.978 72.226 107.978 71.5047C107.978 70.5705 109.022 70.0857 110.419 70.0857C111.972 70.0857 113.157 70.7597 113.369 71.9659H115.259Z" fill="#1A1B22"/>
<path d="M53.8486 78.1265C37.8607 104.933 22.4796 119.395 5.94141 138.646L27.6302 133.739C35.2502 126.324 52.1835 107.925 59.1262 93.6525C63.6135 84.4528 63.8675 79.2144 62.5834 76.2346C61.0594 72.7226 55.8524 74.7801 53.8486 78.1265Z" fill="white"/>
<path d="M5.94141 138.646C22.4796 119.395 37.8607 104.933 53.8486 78.1265C55.8524 74.7801 61.0594 72.7226 62.5834 76.2346C63.8534 79.2144 63.6135 84.4528 59.1262 93.6525C52.1835 107.925 35.2361 126.324 27.6302 133.739" stroke="#1A1B22" stroke-width="0.5" stroke-linecap="round" stroke-linejoin="bevel"/>
<path d="M45.2824 97.815L22.8457 132.615L40.4564 152.753L46.8487 148.26L53.5374 139.699L57.5308 133.148L56.5007 135.43L59.4076 136.979L63.4151 136.127L66.5901 133.597L69.5958 129.34L74.323 114.512L74.3936 108.126L73.0954 106.494L70.6683 104.898L67.5638 101.043L58.8432 95.249L45.2824 97.815Z" fill="white"/>
<path d="M39.1719 112.962C45.0562 105.134 58.1937 90.6842 63.5841 95.485C68.9887 100.286 58.6452 113.222 52.8032 119.099" stroke="#1A1B22" stroke-width="0.5" stroke-linecap="round" stroke-linejoin="bevel"/>
<path d="M57.4332 101.197L30.3398 137.854L36.1254 140.727L67.2404 106.506L66.7183 101.09L57.4191 101.209L57.4332 101.197Z" fill="white"/>
<path d="M44.0126 119.691C50.3626 110.042 67.3383 92.2101 71.3176 105.194M49.9675 124.279C53.6787 116.888 63.232 102.758 71.8256 105.418C81.139 108.316 69.455 131.67 66.28 134.791C64.2339 136.801 60.3815 138.67 56.5997 135.442M56.5997 135.442L62.3571 122.872M56.5997 135.442C54.0315 140.053 47.1453 150.104 40.2309 153.356M5.64453 78.9308L38.1001 73.0184M19.3182 51.0834L39.4406 61.1345M50.4755 53.2355L24.4405 14.1899M62.724 50.1374L63.2461 25.5063M160.161 69.7666H185.561M110.772 109.38H119.239M160.161 112.336H169.333M122.767 109.38H136.878M160.161 73.314H173.567M110.772 112.336H123.472M160.161 109.38H172.156" stroke="#1A1B22" stroke-width="0.5" stroke-linecap="round"/>
<path d="M100.33 45.7621C101.187 45.7621 101.882 45.1797 101.882 44.4614C101.882 43.743 101.187 43.1606 100.33 43.1606C99.4723 43.1606 98.7773 43.743 98.7773 44.4614C98.7773 45.1797 99.4723 45.7621 100.33 45.7621Z" fill="#1A1B22"/>
<path d="M105.974 45.7621C106.831 45.7621 107.526 45.1797 107.526 44.4614C107.526 43.743 106.831 43.1606 105.974 43.1606C105.117 43.1606 104.422 43.743 104.422 44.4614C104.422 45.1797 105.117 45.7621 105.974 45.7621Z" fill="#1A1B22"/>
<path d="M111.619 45.7621C112.476 45.7621 113.171 45.1797 113.171 44.4614C113.171 43.743 112.476 43.1606 111.619 43.1606C110.761 43.1606 110.066 43.743 110.066 44.4614C110.066 45.1797 110.761 45.7621 111.619 45.7621Z" fill="#1A1B22"/>
</g>
<defs>
<clipPath id="clip0_1121_27793">
<rect width="254" height="162" rx="12" fill="white"/>
</clipPath>
</defs>
</svg>
