<svg width="254" height="162" viewBox="0 0 254 162" fill="none" xmlns="http://www.w3.org/2000/svg">
<g clip-path="url(#clip0_1121_27792)">
<mask id="mask0_1121_27792" style="mask-type:luminance" maskUnits="userSpaceOnUse" x="0" y="0" width="254" height="162">
<path d="M0 0H254V162H0V0Z" fill="white"/>
</mask>
<g mask="url(#mask0_1121_27792)">
<path d="M254 0H0V162H254V0Z" fill="white"/>
<path d="M62.0785 21.9947C62.4044 22.0147 62.7316 21.9781 63.0399 21.8869C63.3482 21.7958 63.6308 21.6522 63.8701 21.465C64.1094 21.2778 64.3003 21.0511 64.4309 20.799C64.5614 20.547 64.6288 20.275 64.6288 20C64.6288 19.725 64.5614 19.453 64.4309 19.201C64.3003 18.9489 64.1094 18.7222 63.8701 18.535C63.6308 18.3478 63.3482 18.2042 63.0399 18.1131C62.7316 18.0219 62.4044 17.9853 62.0785 18.0053C61.4799 18.0423 60.92 18.2684 60.5113 18.6384C60.1027 19.0084 59.8756 19.4949 59.8756 20C59.8756 20.5051 60.1027 20.9916 60.5113 21.3616C60.92 21.7316 61.4799 21.9577 62.0785 21.9947ZM69.4497 21.9947C69.7756 22.0147 70.1029 21.9781 70.4111 21.8869C70.7194 21.7958 71.002 21.6522 71.2413 21.465C71.4807 21.2778 71.6716 21.0511 71.8021 20.799C71.9326 20.547 72 20.275 72 20C72 19.725 71.9326 19.453 71.8021 19.201C71.6716 18.9489 71.4807 18.7222 71.2413 18.535C71.002 18.3478 70.7194 18.2042 70.4111 18.1131C70.1029 18.0219 69.7756 17.9853 69.4497 18.0053C68.8511 18.0423 68.2912 18.2684 67.8826 18.6384C67.474 19.0084 67.2468 19.4949 67.2468 20C67.2468 20.5051 67.474 20.9916 67.8826 21.3616C68.2912 21.7316 68.8511 21.9577 69.4497 21.9947ZM55.2029 21.9947C55.5288 22.0147 55.856 21.9781 56.1643 21.8869C56.4726 21.7958 56.7552 21.6522 56.9945 21.465C57.2338 21.2778 57.4247 21.0511 57.5553 20.799C57.6858 20.547 57.7532 20.275 57.7532 20C57.7532 19.725 57.6858 19.453 57.5553 19.201C57.4247 18.9489 57.2338 18.7222 56.9945 18.535C56.7552 18.3478 56.4726 18.2042 56.1643 18.1131C55.856 18.0219 55.5288 17.9853 55.2029 18.0053C54.6043 18.0423 54.0444 18.2684 53.6358 18.6384C53.2271 19.0084 53 19.4949 53 20C53 20.5051 53.2271 20.9916 53.6358 21.3616C54.0444 21.7316 54.6043 21.9577 55.2029 21.9947Z" fill="#1A1B22"/>
<path d="M46 24.0973H229M56.0973 91.6216H49.3658C48.4731 91.6216 47.617 91.289 46.9858 90.697C46.3546 90.105 46 89.302 46 88.4648V17.1569C46 15.407 47.5127 14 49.3658 14H225.634C227.5 14 229 15.4188 229 17.1569V88.4529C229 90.2028 227.487 91.6216 225.634 91.6216H99.8272M77.956 144H225.634C227.5 144 229 142.581 229 140.843V99.8154C229 98.0773 227.487 96.6703 225.634 96.6703H100.495" stroke="#1A1B22" stroke-width="1.07"/>
<path d="M126.994 57.0596C127.074 53.5333 126.396 50.0276 125 46.748C123.604 43.4683 121.518 40.4808 118.864 37.9606C116.21 35.4403 113.042 33.438 109.545 32.0711C106.048 30.7041 102.293 30 98.5 30C94.7067 30 90.9515 30.7041 87.4546 32.0711C83.9578 33.438 80.7896 35.4403 78.1358 37.9606C75.482 40.4808 73.3959 43.4683 72 46.748C70.604 50.0276 69.9262 53.5333 70.0064 57.0596C70.1638 63.9894 73.2349 70.586 78.5614 75.4352C83.8878 80.2843 91.0456 83 98.5 83C105.954 83 113.112 80.2843 118.439 75.4352C123.765 70.586 126.836 63.9894 126.994 57.0596Z" fill="#1A1B22" stroke="#1A1B22" stroke-width="1.07"/>
<path d="M169.994 57.0596C170.072 53.5333 169.407 50.0276 168.035 46.7479C166.664 43.4683 164.614 40.4808 162.007 37.9606C159.4 35.4403 156.287 33.438 152.852 32.0711C149.416 30.7041 145.727 30 142 30C138.273 30 134.584 30.7041 131.148 32.0711C127.713 33.438 124.6 35.4403 121.993 37.9606C119.386 40.4808 117.336 43.4683 115.965 46.7479C114.593 50.0276 113.928 53.5333 114.006 57.0596C114.161 63.9894 117.178 70.586 122.411 75.4352C127.644 80.2843 134.676 83 142 83C149.324 83 156.356 80.2843 161.589 75.4352C166.822 70.586 169.839 63.9894 169.994 57.0596Z" fill="#1A1B22" stroke="white" stroke-width="1.07"/>
<path d="M213.994 57.0596C214.072 53.5333 213.407 50.0276 212.035 46.7479C210.664 43.4683 208.614 40.4808 206.007 37.9606C203.4 35.4403 200.287 33.438 196.852 32.0711C193.416 30.7041 189.727 30 186 30C182.273 30 178.584 30.7041 175.148 32.0711C171.713 33.438 168.6 35.4403 165.993 37.9606C163.386 40.4808 161.336 43.4683 159.965 46.7479C158.593 50.0276 157.928 53.5333 158.006 57.0596C158.161 63.9894 161.178 70.586 166.411 75.4352C171.644 80.2843 178.676 83 186 83C193.324 83 200.356 80.2843 205.589 75.4352C210.822 70.586 213.839 63.9894 213.994 57.0596Z" fill="white" stroke="#1A1B22" stroke-width="1.07"/>
<path d="M86.5114 54.3003C87.3768 53.1527 88.6665 52.3653 90.1169 52.0991C91.5673 51.8328 93.069 52.1078 94.3151 52.8678C95.5612 53.6277 96.4577 54.8154 96.8215 56.188C97.1852 57.5607 96.9888 59.0147 96.2722 60.2531L86.161 77.7996C85.7451 78.5165 85.1856 79.1476 84.5146 79.6566C83.8437 80.1656 83.0745 80.5424 82.2512 80.7654C81.428 80.9885 80.5669 81.0533 79.7174 80.9563C78.8679 80.8592 78.0468 80.6022 77.3012 80.1999L76.3001 79.6598C75.5054 79.2292 74.8143 78.6428 74.2717 77.9388C73.7292 77.2349 73.3475 76.4291 73.1515 75.5741C72.9555 74.7191 72.9496 73.8341 73.1342 72.9768C73.3188 72.1195 73.6897 71.3091 74.2228 70.5985L86.5114 54.3003Z" fill="white"/>
<path d="M91.2335 79.2554L90.8322 79.0065C89.4547 78.1321 87.7665 77.8095 86.1376 78.1093C84.5088 78.4092 83.0722 79.3071 82.1427 80.6062L80.0612 83.533C79.1371 84.8362 78.7977 86.4326 79.1174 87.972C79.4371 89.5114 80.3898 90.8681 81.7665 91.7446L82.1678 91.9935C83.5453 92.8679 85.2335 93.1905 86.8624 92.8907C88.4912 92.5908 89.9278 91.6929 90.8573 90.3938L92.9388 87.467C93.8629 86.1638 94.2023 84.5674 93.8826 83.028C93.5629 81.4886 92.6102 80.1319 91.2335 79.2554Z" fill="white"/>
<path d="M25 124C47.8648 104.352 81.3039 60.4334 87.8908 53.3284C93.771 46.9918 99.626 54.8653 95.7522 61.722C92.6025 66.9844 89.3336 72.1832 85.9475 77.3151" stroke="#1A1B22" stroke-width="1.07"/>
<path d="M66 99C71.9568 92.69 82.8071 79.9535 84.908 78.5797C87.6878 76.7752 95.848 79.0919 93.619 86.8223" stroke="#1A1B22" stroke-width="1.07"/>
<path d="M74 107C80.4542 100.591 88.7671 89.4171 90.6002 87.7008C96.0361 82.5639 103.101 90.0532 98.5312 97.0143" stroke="#1A1B22" stroke-width="1.07"/>
<path d="M81.8464 114.051C86.9164 108.121 92.4933 100.519 94.7113 98.8703C101.733 93.6639 106.955 100.199 104.293 107.789C100.681 118.545 91.9863 138.363 82.4802 133.026M91.5807 119.198C84.0012 131.366 68.6647 152.191 54 147.258" stroke="#1A1B22" stroke-width="1.07"/>
<path d="M174 56.5657H196.778M187.199 47L197 56.494L187.199 66" stroke="#1A1B22" stroke-width="2.04"/>
<path d="M119.875 103.924H222M113.833 102V139M107.778 129.427H93M107.778 121.779H97.7079M107.778 114.13H101.736M107.791 106.47H104.43" stroke="#1A1B22" stroke-width="1.07"/>
<path d="M144.412 128.262H120.341C119.601 128.262 119 128.824 119 129.515V135.758C119 136.449 119.601 137 120.341 137H144.412C145.164 137 145.752 136.449 145.752 135.758V129.503C145.752 128.801 145.151 128.25 144.412 128.25V128.262ZM135.064 110.762H129.714C128.962 110.762 128.373 111.312 128.373 112.003V118.258C128.373 118.949 128.974 119.512 129.714 119.512H135.064C135.803 119.512 136.392 118.949 136.392 118.258V112.003C136.392 111.312 135.803 110.762 135.064 110.762ZM144.424 110.762H139.074C138.322 110.762 137.733 111.312 137.733 112.003V118.258C137.733 118.949 138.334 119.512 139.074 119.512H144.424C145.164 119.512 145.752 118.949 145.752 118.258V112.003C145.752 111.312 145.164 110.762 144.424 110.762ZM211.287 110.762H205.936C205.197 110.762 204.608 111.312 204.608 112.003V118.258C204.608 118.949 205.197 119.512 205.936 119.512H211.287C212.038 119.512 212.627 118.949 212.627 118.258V112.003C212.627 111.312 212.026 110.762 211.287 110.762ZM220.659 110.762H215.309C214.569 110.762 213.968 111.312 213.968 112.003V118.258C213.968 118.949 214.569 119.512 215.309 119.512H220.659C221.399 119.512 222 118.949 222 118.258V112.003C222 111.312 221.399 110.762 220.659 110.762ZM125.691 110.762H120.341C119.601 110.762 119 111.312 119 112.003V118.258C119 118.949 119.601 119.512 120.341 119.512H125.691C126.431 119.512 127.032 118.949 127.032 118.258V112.003C127.032 111.312 126.431 110.762 125.691 110.762ZM161.791 119.512H146.417C145.677 119.512 145.088 120.074 145.088 120.765V127.008C145.088 127.711 145.677 128.262 146.417 128.262H161.804C162.543 128.262 163.145 127.699 163.145 127.008V120.765C163.145 120.062 162.543 119.512 161.804 119.512H161.791ZM185.223 128.262H164.485C163.734 128.262 163.145 128.824 163.145 129.515V135.758C163.145 136.449 163.746 137 164.485 137H185.211C185.963 137 186.551 136.449 186.551 135.758V129.503C186.551 128.801 185.95 128.25 185.211 128.25L185.223 128.262ZM201.926 110.762H164.485C163.734 110.762 163.145 111.312 163.145 112.003V118.258C163.145 118.949 163.746 119.512 164.485 119.512H201.926C202.678 119.512 203.267 118.949 203.267 118.258V112.003C203.267 111.312 202.666 110.762 201.939 110.762H201.926ZM220.647 128.262H193.243C192.503 128.262 191.914 128.824 191.914 129.515V135.758C191.914 136.449 192.503 137 193.243 137H220.659C221.411 137 222 136.449 222 135.758V129.503C222 128.801 221.399 128.25 220.659 128.25L220.647 128.262ZM221.987 102H119V105.128H222V102H221.987Z" fill="#1A1B22"/>
<path d="M126 56.5657H148.778M139.211 47L149 56.494L139.211 66" stroke="white" stroke-width="2.04"/>
</g>
</g>
<defs>
<clipPath id="clip0_1121_27792">
<rect width="254" height="162" rx="12" fill="white"/>
</clipPath>
</defs>
</svg>
