<svg width="254" height="162" viewBox="0 0 254 162" fill="none" xmlns="http://www.w3.org/2000/svg">
<rect width="254" height="162" rx="12" fill="white"/>
<mask id="mask0_1121_27798" style="mask-type:luminance" maskUnits="userSpaceOnUse" x="0" y="12" width="254" height="138">
<path d="M0 12.8447H254V149.614H0V12.8447Z" fill="white"/>
</mask>
<g mask="url(#mask0_1121_27798)">
<path d="M206.56 134.355H87.5615C86.1742 134.355 85.0898 133.153 85.0898 131.619V51.8828C85.0898 50.3491 86.1742 49.1475 87.5615 49.1475H206.56C207.948 49.1475 209.032 50.3491 209.032 51.8828V131.668C209.032 133.153 207.948 134.355 206.56 134.355Z" fill="black" stroke="black" stroke-width="0.51" stroke-miterlimit="10"/>
<path d="M199.752 125.821H80.7431C79.3656 125.821 78.2812 124.609 78.2812 123.085V43.2803C78.2812 41.7465 79.3559 40.5449 80.7431 40.5449H199.752C201.129 40.5449 202.223 41.7465 202.223 43.2803V123.066C202.223 124.551 201.129 125.801 199.752 125.801V125.821Z" fill="white" stroke="black" stroke-width="0.51" stroke-miterlimit="10"/>
<path d="M192.455 116.724H73.4267C72.0492 116.724 70.9648 115.522 70.9648 113.988V34.1934C70.9648 32.6596 72.0492 31.458 73.4267 31.458H192.455C193.842 31.458 194.927 32.6596 194.927 34.1934V113.988C194.927 115.464 193.842 116.724 192.455 116.724Z" fill="white" stroke="black" stroke-width="0.51" stroke-miterlimit="10"/>
<path d="M144.271 98.6509L158.339 68.4249L166.037 82.6098L180.984 53.7417" stroke="black" stroke-width="1.52" stroke-miterlimit="10"/>
<path d="M132.569 77.6742H83.0684V81.0153H132.569V77.6742ZM114.457 84.6885H83.0684V88.0296H114.457V84.6885ZM132.569 70.826H83.0684V74.1671H132.569V70.826ZM132.569 63.8801H83.0684V67.2211H132.569V63.8801ZM103.164 102.918H83.547V106.259H103.144V102.918H103.164ZM157.891 101.433H143.335V102.635H157.891V101.453V101.433ZM186.026 36.9268H171.47V38.1284H186.026V36.9268ZM157.891 103.68H143.335V104.882H157.891V103.699V103.68ZM151.824 105.868H143.325V107.08H151.824V105.868ZM189.338 36.9268H187.755V38.1284H189.338V36.9268ZM199.205 44.9766H197.632V46.1782H199.205V44.9864V44.9766ZM114.506 96.8317H83.5568V100.173H114.506V96.8317ZM143.53 44.8594L141.508 49.4118H145.552L143.53 44.8594ZM188.449 98.5901L184.297 96.3921V100.827L188.449 98.5804V98.5901ZM158.682 95.7864H158.194V98.3655H158.682V95.7864ZM158.682 91.7419H158.194V94.3112H158.682V91.7419ZM158.682 87.6779H158.194V90.257H158.682V87.6877V87.6779ZM158.682 83.6334H158.194V86.2028H158.682V83.6334ZM158.682 79.5304H158.194V82.0997H158.682V79.5206V79.5304ZM158.682 75.3101H158.194V77.8794H158.682V75.3101ZM158.682 71.2558H158.194V73.8251H158.682V71.2656V71.2558ZM158.682 67.1528H158.194V69.7221H158.682V67.1625V67.1528ZM166.586 97.2713H166.097V99.6843H166.586V97.2713ZM166.586 93.4906H166.097V95.9036H166.586V93.4906ZM166.586 89.7099H166.097V92.1229H166.586V89.7294V89.7099ZM166.586 85.5482H166.097V87.9612H166.586V85.5482ZM173.59 96.0013H173.102V98.3655H173.59V96.0111V96.0013ZM173.59 92.3965H173.102V94.7508H173.59V92.3965ZM173.59 88.7232H173.102V91.0776H173.59V88.733V88.7232ZM173.59 85.0598H173.102V87.4141H173.59V85.0598ZM173.59 81.3865H173.102V83.7409H173.59V81.3963V81.3865ZM173.59 77.557H173.102V79.9016H173.59V77.557ZM173.59 73.8838H173.102V76.2381H173.59V73.8935V73.8838ZM173.59 70.2203H173.102V72.5649H173.59V70.2203ZM181.044 96.0111H180.556V98.3655H181.044V96.0208V96.0111ZM181.044 92.3965H180.556V94.7508H181.044V92.4062V92.3965ZM181.044 88.733H180.556V91.0776H181.044V88.733ZM181.044 85.0598H180.556V87.4141H181.044V85.0695V85.0598ZM181.044 81.3865H180.556V83.7409H181.044V81.3963V81.3865ZM181.044 77.7231H180.556V80.0677H181.044V77.7231ZM181.044 74.0498H180.556V76.4042H181.044V74.0596V74.0498Z" fill="black"/>
<path d="M181.045 77.5667H180.556V79.9211H181.045V77.5667ZM181.045 73.9033H180.556V76.2479H181.045V73.9033ZM181.045 70.23H180.556V72.5844H181.045V70.23ZM181.045 66.5666H180.556V68.9112H181.045V66.5763V66.5666ZM181.045 62.8933H180.556V65.2379H181.045V62.8933ZM181.045 59.2201H180.556V61.5745H181.045V59.2299V59.2201ZM181.045 55.5566H180.556V57.9013H181.045V55.5566ZM150.643 96.0208H150.154V98.3849H150.643V96.0306V96.0208ZM150.643 92.4062H150.154V94.7606H150.643V92.4159V92.4062ZM150.643 88.4106H150.154V90.7649H150.643V88.4106ZM150.643 84.7471H150.154V87.0917H150.643V84.7471Z" fill="black"/>
<path d="M150.387 88.0307C151.54 88.0307 152.468 87.0537 152.468 85.8424C152.468 84.631 151.54 83.6443 150.387 83.6443C149.235 83.6443 148.316 84.6212 148.316 85.8424C148.316 87.0635 149.244 88.0307 150.387 88.0307Z" fill="white"/>
<path d="M150.389 88.3627C149.06 88.3627 148.025 87.2099 148.025 85.8422C148.014 85.5215 148.067 85.2018 148.18 84.9015C148.294 84.6012 148.465 84.3261 148.684 84.092C148.904 83.8579 149.168 83.6694 149.46 83.5373C149.752 83.4051 150.068 83.3319 150.389 83.3218C151.727 83.3218 152.763 84.4745 152.763 85.8422C152.781 86.1658 152.734 86.4897 152.623 86.7942C152.512 87.0987 152.34 87.3774 152.118 87.6133C151.896 87.8492 151.628 88.0374 151.331 88.1662C151.033 88.295 150.713 88.3619 150.389 88.3627ZM150.389 83.9763C149.412 83.9763 148.611 84.7969 148.611 85.8325C148.611 86.868 149.402 87.6984 150.389 87.6984C151.376 87.6984 152.167 86.8778 152.167 85.8422C152.167 84.7969 151.385 83.9861 150.389 83.9861V83.9763Z" fill="black"/>
<path d="M158.438 71.2201C159.581 71.2201 160.509 70.2432 160.509 69.0318C160.509 67.8204 159.581 66.8337 158.438 66.8337C157.295 66.8337 156.367 67.8107 156.367 69.0318C156.367 70.253 157.295 71.2201 158.438 71.2201Z" fill="white"/>
<path d="M158.436 71.5519C157.108 71.5519 156.062 70.3991 156.062 69.0314C156.062 67.6638 157.157 66.511 158.436 66.511C159.765 66.511 160.801 67.654 160.801 69.0314C160.801 70.3991 159.765 71.5519 158.436 71.5519ZM158.436 67.1655C157.45 67.1655 156.658 67.9861 156.658 69.0217C156.658 70.0572 157.44 70.8876 158.436 70.8876C159.423 70.8876 160.214 70.067 160.214 69.0314C160.214 67.9861 159.423 67.1655 158.436 67.1655Z" fill="black"/>
<path d="M166.038 82.7189C167.181 82.7189 168.109 81.742 168.109 80.5306C168.109 79.3192 167.181 78.3325 166.038 78.3325C164.895 78.3325 163.967 79.3094 163.967 80.5306C163.967 81.742 164.895 82.7189 166.038 82.7189Z" fill="white"/>
<path d="M166.038 83.0951C164.709 83.0951 163.674 81.9521 163.674 80.5844C163.662 80.2629 163.714 79.9421 163.826 79.6407C163.939 79.3392 164.11 79.063 164.33 78.8279C164.549 78.5928 164.813 78.4034 165.106 78.2706C165.4 78.1378 165.716 78.0643 166.038 78.0542C167.366 78.0542 168.402 79.207 168.402 80.5747C168.402 81.9424 167.327 83.0951 166.038 83.0951ZM166.038 78.6599C165.051 78.6599 164.26 79.4805 164.26 80.516C164.26 81.5613 165.041 82.382 166.038 82.382C167.024 82.382 167.816 81.5614 167.816 80.5258C167.816 79.4805 166.976 78.6697 166.038 78.6697V78.6599Z" fill="black"/>
<path d="M173.346 70.3874C174.489 70.3874 175.418 69.4104 175.418 68.1991C175.418 66.9877 174.489 66.0107 173.346 66.0107C172.203 66.0107 171.275 66.9877 171.275 68.1991C171.275 69.4104 172.203 70.3874 173.346 70.3874Z" fill="white"/>
<path d="M173.345 70.7775C172.006 70.7775 170.971 69.6247 170.971 68.257C170.971 66.8893 172.055 65.7366 173.345 65.7366C174.673 65.7366 175.709 66.8893 175.709 68.257C175.709 69.6247 174.673 70.7775 173.345 70.7775ZM173.345 66.3423C172.358 66.3423 171.567 67.1629 171.567 68.1984C171.567 69.234 172.348 70.0546 173.345 70.0546C174.322 70.0546 175.123 69.2437 175.123 68.1984C175.123 67.1629 174.331 66.3423 173.345 66.3423Z" fill="black"/>
<path d="M180.847 57.471C182.723 57.471 184.247 55.8102 184.247 53.7489C184.247 51.6974 182.723 50.0269 180.847 50.0269C178.961 50.0269 177.438 51.6876 177.438 53.7392C177.438 55.8005 178.961 57.471 180.847 57.471Z" fill="white"/>
<path d="M180.849 57.9108C178.719 57.9108 177.039 56.0449 177.039 53.7491C177.039 51.4436 178.778 49.5874 180.849 49.5874C182.969 49.5874 184.649 51.4436 184.649 53.7491C184.649 56.0449 182.92 57.9108 180.839 57.9108H180.849ZM180.849 50.4569C179.169 50.4569 177.782 51.9418 177.782 53.7979C177.782 55.6052 179.169 57.139 180.849 57.139C182.529 57.139 183.907 55.6639 183.907 53.7979C183.858 51.9418 182.481 50.4569 180.849 50.4569Z" fill="black"/>
<path d="M180.8 55.9309C181.943 55.9309 182.871 54.9344 182.871 53.6839C182.871 52.453 181.943 51.4468 180.8 51.4468C179.657 51.4468 178.729 52.453 178.729 53.6937C178.729 54.9344 179.657 55.9406 180.8 55.9406V55.9309Z" fill="black"/>
<path d="M143.434 47.1758L143.58 98.6596M185.539 98.7085H143.482" stroke="black" stroke-width="0.51" stroke-miterlimit="10"/>
<path d="M57.9417 130.255C64.3911 119.173 73.1872 109.636 83.7129 102.315C86.9661 100.077 90.3755 98.0552 93.0328 95.0853C95.6298 92.2624 97.8527 89.1169 99.6465 85.7264C104.785 75.5468 109.279 64.2048 107.1 52.8139C102.665 54.0252 101.18 59.9454 99.4023 64.5369C98.1449 67.7466 96.3621 70.7245 94.1269 73.3488C92.8862 74.8337 91.1082 76.2014 89.34 75.5957C86.9172 74.7165 86.8684 71.0042 87.4545 68.2688C89.7557 57.6642 93.8103 47.5179 99.4512 38.2479C99.9982 37.4273 100.536 36.4406 100.34 35.4539C99.9494 33.5392 97.3801 33.5392 95.7486 34.3598C91.1571 36.7728 88.2458 41.8625 85.9305 46.796C82.7546 53.5401 80.1438 60.5361 78.1249 67.7119L85.3835 37.0952C86.3702 32.9921 88.705 25.5479 87.4057 24.571C84.641 24.4635 82.5699 28.7327 81.1436 31.7416C75.6893 43.4596 71.5512 55.7462 68.8051 68.3762C70.8762 56.6532 71.6675 44.5589 75.0671 33.2754C76.5032 28.508 78.1835 23.3596 76.0538 22.4902C73.5431 22.3241 69.1958 30.921 67.4178 36.2843C64.8797 43.8371 63.2722 51.6712 62.6309 59.6132C62.3378 63.5014 62.1913 67.6142 60.511 71.0628C59.3778 65.3673 58.1859 59.6719 57.0527 53.9764C56.1735 49.6486 55.2747 45.2134 53.1548 41.3741C52.9105 40.9442 52.6077 40.446 52.1192 40.2897C50.986 39.9575 50.3412 41.5988 50.1947 42.859C48.8742 55.3934 50.4621 68.0635 54.8351 79.8844C55.4212 81.467 54.3857 83.0594 53.5944 84.5345C51.2675 88.8828 48.9326 93.2269 46.5898 97.5667" fill="white"/>
<path d="M57.9417 130.255C64.3911 119.173 73.1872 109.636 83.7129 102.315C86.9661 100.077 90.3755 98.0552 93.0328 95.0853C95.6298 92.2624 97.8527 89.1169 99.6465 85.7264C104.785 75.5468 109.279 64.2048 107.1 52.8139C102.665 54.0252 101.18 59.9454 99.4023 64.5369C98.1449 67.7466 96.3621 70.7245 94.1269 73.3488C92.8862 74.8337 91.1082 76.2014 89.34 75.5957C86.9172 74.7165 86.8684 71.0042 87.4545 68.2688C89.7557 57.6642 93.8103 47.5179 99.4512 38.2479C99.9982 37.4273 100.536 36.4406 100.34 35.4539C99.9494 33.5392 97.3801 33.5392 95.7486 34.3598C91.1571 36.7728 88.2458 41.8625 85.9305 46.796C82.7546 53.5401 80.1438 60.5361 78.1249 67.7119L85.3835 37.0952C86.3702 32.9921 88.705 25.5479 87.4057 24.571C84.641 24.4635 82.5699 28.7327 81.1436 31.7416C75.6893 43.4596 71.5512 55.7462 68.8051 68.3762C70.8762 56.6532 71.6675 44.5589 75.0671 33.2754C76.5032 28.508 78.1835 23.3596 76.0538 22.4902C73.5432 22.3241 69.1958 30.921 67.4178 36.2843C64.8797 43.8371 63.2722 51.6712 62.6309 59.6132C62.3378 63.5014 62.1913 67.6142 60.511 71.0628C59.3778 65.3673 58.1859 59.6719 57.0527 53.9764C56.1735 49.6486 55.2747 45.2134 53.1548 41.3741C52.9105 40.9442 52.6077 40.446 52.1192 40.2897C50.986 39.9575 50.3412 41.5988 50.1947 42.859C48.8742 55.3934 50.4621 68.0635 54.8351 79.8844C55.4212 81.467 54.3857 83.0594 53.5944 84.5345C51.2675 88.8828 48.9326 93.2269 46.5898 97.5667" stroke="black" stroke-width="0.51" stroke-miterlimit="10"/>
<path d="M93.7858 50.0762L91.998 53.8569L94.372 60.6954L144.517 38.1382L139.975 26.1416L95.7983 46.022L93.7858 50.0762Z" fill="black" stroke="black" stroke-width="0.51" stroke-miterlimit="10"/>
<path d="M168.305 113.17C166.878 112.945 163.127 114.205 162.384 115.573C160.02 119.735 160.069 125.049 160.812 129.934C162.083 138.213 165.147 146.115 169.789 153.087" fill="white"/>
<path d="M168.305 113.17C166.878 112.945 163.127 114.205 162.384 115.573C160.02 119.735 160.069 125.049 160.812 129.934C162.083 138.213 165.147 146.115 169.789 153.087" stroke="black" stroke-width="0.51" stroke-miterlimit="10"/>
<path d="M169.889 138.087C167.476 128.66 166.88 118.646 165.346 108.946C164.287 102.233 163.579 95.4703 163.226 88.6841C163.08 86.3786 162.933 83.6432 163.773 81.8945C164.213 80.9664 167.271 80.8004 167.818 82.7151C170.631 93.3929 174.48 109.385 177.196 120.063C176.903 117.767 174.627 109.991 174.236 107.685C173.982 106.318 174.529 104.842 175.418 103.856C176.356 102.762 178.183 102.371 179.17 103.416C180.316 104.834 181.158 106.474 181.641 108.232C182.325 111.026 184.406 117.816 185.09 120.61C184.65 117.65 181.641 110.694 181.641 107.685C181.709 106.901 181.969 106.146 182.399 105.487C182.828 104.827 183.414 104.284 184.103 103.905C184.347 103.807 185.139 103.905 185.393 104.022C187.561 104.999 191.508 118.969 192.006 120.063C191.02 116.839 189.037 111.466 187.561 107.685C187.268 106.923 187.073 106.591 187.561 106.093C188.441 105.116 189.828 105.116 191.02 105.546C192.495 106.093 194.517 108.565 194.966 109.874C199.9 123.844 204.98 139.885 212.287 153.523" fill="white"/>
<path d="M169.889 138.087C167.476 128.66 166.88 118.646 165.346 108.946C164.287 102.233 163.579 95.4703 163.226 88.6841C163.08 86.3786 162.933 83.6432 163.773 81.8945C164.213 80.9664 167.271 80.8004 167.818 82.7151C170.631 93.3929 174.48 109.385 177.196 120.063C176.903 117.767 174.627 109.991 174.236 107.685C173.982 106.318 174.529 104.842 175.418 103.856C176.356 102.762 178.183 102.371 179.17 103.416C180.316 104.834 181.158 106.474 181.641 108.232C182.325 111.026 184.406 117.816 185.09 120.61C184.65 117.65 181.641 110.694 181.641 107.685C181.709 106.901 181.969 106.146 182.399 105.487C182.828 104.827 183.414 104.284 184.103 103.905C184.347 103.807 185.139 103.905 185.393 104.022C187.561 104.999 191.508 118.969 192.006 120.063C191.02 116.839 189.037 111.466 187.561 107.685C187.268 106.923 187.073 106.591 187.561 106.093C188.441 105.116 189.828 105.116 191.02 105.546C192.495 106.093 194.517 108.565 194.966 109.874C199.9 123.844 204.98 139.885 212.287 153.523" stroke="black" stroke-width="0.51" stroke-miterlimit="10"/>
<path d="M138.889 18.8046C141.653 18.8046 142.601 16.4502 142.601 13.8809C142.601 16.4502 143.529 18.8046 146.294 18.8046C143.529 18.8046 142.591 21.1589 142.591 23.7282C142.591 21.2176 141.653 18.8046 138.889 18.8046Z" fill="black"/>
<path d="M142.787 23.7888H142.396C142.396 22.0304 141.946 19.0312 138.889 19.0312V18.5916C141.946 18.5916 142.396 15.6315 142.396 13.8242H142.787C142.787 15.5827 143.236 18.5916 146.304 18.5916V19.0214C143.236 19.0214 142.787 22.0401 142.787 23.7888ZM140.178 18.8065C141.409 19.2461 142.2 20.2914 142.542 21.8154C142.884 20.2328 143.724 19.1875 144.916 18.8065C143.676 18.3669 142.884 17.3314 142.542 15.7976C142.249 17.3802 141.409 18.4255 140.178 18.8065ZM147.525 25.264C149.352 25.264 149.996 23.6814 149.996 21.9815C149.996 23.6814 150.641 25.264 152.468 25.264C150.641 25.264 149.996 26.8564 149.996 28.5562C149.996 26.8564 149.352 25.264 147.525 25.264Z" fill="black"/>
<path d="M150.095 28.5437H149.851C149.851 27.4007 149.558 25.4273 147.526 25.4273V25.1538C149.548 25.1538 149.851 23.1804 149.851 22.0276H150.095C150.095 23.1804 150.388 25.1538 152.42 25.1538V25.4273C150.437 25.4273 150.095 27.4007 150.095 28.5534V28.5437ZM148.415 25.2612C149.206 25.5348 149.753 26.2479 149.998 27.2932C150.242 26.2479 150.779 25.5348 151.58 25.2612C150.789 24.9877 150.242 24.2843 149.998 23.239C149.753 24.2745 149.216 24.9974 148.415 25.2612ZM129.707 21.1581C131.094 21.1581 131.583 19.9565 131.583 18.6963C131.583 20.0054 132.032 21.1581 133.458 21.1581C132.081 21.1581 131.583 22.3598 131.583 23.62C131.583 22.3598 131.094 21.1581 129.707 21.1581Z" fill="black"/>
<path d="M131.69 23.6786H131.495C131.495 22.7994 131.241 21.3242 129.707 21.3242V21.0507C131.241 21.0507 131.485 19.5755 131.485 18.6963H131.68C131.68 19.5755 131.934 21.0409 133.458 21.0409V21.2656C131.934 21.2656 131.68 22.7505 131.68 23.6786H131.69ZM130.401 21.1581C130.987 21.3828 131.436 21.8713 131.583 22.6919C131.778 21.9299 132.179 21.3828 132.775 21.1581C132.179 20.9432 131.729 20.445 131.583 19.6244C131.387 20.445 130.997 20.9432 130.41 21.1581H130.401Z" fill="black"/>
</g>
</svg>
