<svg width="254" height="162" viewBox="0 0 254 162" fill="none" xmlns="http://www.w3.org/2000/svg">
<g clip-path="url(#clip0_1121_27795)">
<path d="M0 0H254V162H0V0Z" fill="#1A1B22"/>
<path d="M0 0H254V162H0V0Z" fill="white"/>
<path d="M200 24H27V131H200V24Z" fill="white"/>
<mask id="mask0_1121_27795" style="mask-type:luminance" maskUnits="userSpaceOnUse" x="26" y="25" width="202" height="114">
<path d="M228 25.6484H26V138.364H228V25.6484Z" fill="white"/>
</mask>
<g mask="url(#mask0_1121_27795)">
<path d="M170.655 40.7666C170.783 41.2455 170.799 41.7473 170.702 42.2333C170.605 42.7194 170.398 43.1767 170.096 43.5701C169.795 43.9634 169.407 44.2823 168.962 44.5022C168.518 44.722 168.029 44.8369 167.533 44.8381H152.984C152.487 44.8399 151.996 44.727 151.55 44.5082C151.104 44.2894 150.714 43.9706 150.411 43.5766C150.108 43.1827 149.9 42.7241 149.804 42.2367C149.707 41.7493 149.724 41.2462 149.854 40.7666" fill="#1A1B22"/>
<path d="M171.239 72.0872H150.655C150.225 72.0872 149.798 72.172 149.4 72.3367C149.002 72.5015 148.64 72.743 148.336 73.0475C148.031 73.352 147.79 73.7134 147.625 74.1112C147.46 74.5091 147.375 74.9354 147.375 75.366C147.374 75.7973 147.458 76.2246 147.622 76.6233C147.787 77.0221 148.028 77.3846 148.333 77.6899C148.638 77.9953 149 78.2375 149.398 78.4028C149.797 78.5681 150.224 78.6532 150.655 78.6532H171.248C171.679 78.6532 172.106 78.5681 172.505 78.4028C172.904 78.2375 173.266 77.9953 173.57 77.6899C173.875 77.3846 174.116 77.0221 174.281 76.6233C174.445 76.2246 174.529 75.7973 174.528 75.366C174.528 74.4964 174.183 73.6624 173.567 73.0475C172.952 72.4326 172.118 72.0872 171.248 72.0872H171.239Z" fill="#1A1B22" stroke="#1A1B22" stroke-width="2" stroke-miterlimit="10"/>
<path d="M212.974 133.071C206.455 126.521 202.983 120.373 201.038 116.067C198.951 111.479 195.42 104.445 191.489 85.9404C191.322 85.1811 190.838 80.0334 187.307 76.3875C185.529 74.5603 184.169 74.3267 183.426 74.3017C181.431 74.2516 179.953 75.6866 179.252 76.3875C177.766 77.8642 175.83 80.7593 175.546 88.1179C175.488 89.8533 175.379 95.7102 178.284 106.106C179.274 109.649 180.455 113.136 181.823 116.551M132.717 108.158C130.463 105.563 129.044 103.519 128.802 102.468C128.468 100.941 128.66 98.672 129.962 96.2942C130.505 95.3097 131.156 94.709 131.156 94.0082C131.156 94.0082 129.386 92.8235 128.785 91.4802C126.74 86.9332 129.654 85.6734 130.421 82.9702C130.588 82.4029 128.602 81.1848 128.209 79.2992C127.792 77.2134 129.178 75.3112 131.974 71.5985C135.037 67.5604 137.199 66.042 139.261 65.4663C140.071 65.2494 140.839 65.1826 141.465 65.5497C142.633 66.2422 142.733 68.0527 142.775 69.0705C142.759 70.4379 142.478 71.7893 141.949 73.0502M168.885 133.88C164.01 132.795 158.434 129.834 153.025 126.121M160.446 67.3268C161.667 67.3268 162.876 67.0864 164.004 66.6193C165.133 66.1522 166.158 65.4676 167.021 64.6046C167.885 63.7415 168.57 62.7169 169.037 61.5893C169.504 60.4617 169.745 59.2531 169.745 58.0325C169.745 56.812 169.504 55.6034 169.037 54.4758C168.57 53.3482 167.885 52.3236 167.021 51.4605C166.158 50.5975 165.133 49.9128 164.004 49.4458C162.876 48.9787 161.667 48.7383 160.446 48.7383C157.98 48.7383 155.615 49.7175 153.871 51.4605C152.127 53.2035 151.147 55.5676 151.147 58.0325C151.147 60.4975 152.127 62.8616 153.871 64.6046C155.615 66.3476 157.98 67.3268 160.446 67.3268Z" stroke="#1A1B22" stroke-miterlimit="10"/>
<path d="M143.518 83.8045C144.189 82.6622 144.705 81.4363 145.054 80.1586C145.33 78.8237 145.864 76.229 144.412 74.3684C144.008 73.7986 143.436 73.3697 142.776 73.142C141.507 72.7582 140.18 73.409 138.736 74.4268C135.584 76.8782 132.786 79.7532 130.422 82.9702M142.817 100.666C144.17 99.1476 145.346 96.7448 145.831 95.7102C146.634 93.9185 147.106 91.9965 147.225 90.0369C147.366 88.617 147.178 87.1836 146.674 85.8486C146.206 84.6973 145.764 84.3635 145.555 84.2384C144.829 83.7795 143.869 83.8212 142.433 84.2884C140.672 84.8975 138.435 86.1323 134.462 90.4707C133.377 91.6554 131.657 93.7663 131.123 94.4337M180.212 111.721C179.964 112.312 179.546 112.817 179.011 113.172C178.477 113.526 177.849 113.715 177.207 113.715H150.722M140.038 65.2577V44.0161C140.038 43.1509 140.382 42.3211 140.994 41.7094C141.606 41.0976 142.436 40.7539 143.301 40.7539H177.216C178.078 40.7561 178.905 41.0996 179.515 41.7094C180.125 42.3191 180.469 43.1454 180.471 44.0077V75.5448" stroke="#1A1B22" stroke-miterlimit="10"/>
<path d="M170.505 40.7666C170.657 41.3152 170.659 41.8942 170.512 42.4441C170.366 42.994 170.075 43.4949 169.671 43.8953C169.369 44.1955 169.011 44.4334 168.617 44.5951C168.223 44.7569 167.801 44.8395 167.375 44.8381H152.826C152.329 44.8399 151.838 44.727 151.392 44.5082C150.946 44.2894 150.556 43.9706 150.253 43.5766C149.95 43.1827 149.742 42.7241 149.646 42.2367C149.549 41.7493 149.566 41.2462 149.696 40.7666" stroke="#1A1B22" stroke-miterlimit="10"/>
<path d="M108.637 133.208C117.819 123.146 122.618 118.024 128.862 111.95C128.862 111.95 133.261 107.111 147.534 97.6746C148.569 96.9905 151.349 95.739 153.753 96.3397C157.008 97.1323 157.551 101.279 155.088 106.819C151.883 113.994 144.838 120.351 140.69 123.588" stroke="#1A1B22" stroke-miterlimit="10"/>
<path d="M148.695 116.259C149.438 116.468 151.917 117.277 152.76 118.37C153.402 119.221 153.887 120.539 153.411 123.693C152.889 127.001 151.715 130.171 149.955 133.021M144.363 133.162C144.538 132.136 144.63 131.093 144.638 130.05C144.696 128.415 144.763 126.78 143.987 125.57C142.752 123.66 139.855 123.493 139.037 123.518C135.164 123.635 127.435 132.136 126.992 132.946M171.449 81.752H150.873C150.442 81.752 150.016 81.8368 149.618 82.0016C149.22 82.1663 148.858 82.4078 148.554 82.7123C148.249 83.0168 148.007 83.3782 147.843 83.7761C147.678 84.1739 147.593 84.6002 147.593 85.0308C147.592 85.4621 147.676 85.8894 147.84 86.2881C148.005 86.6869 148.246 87.0494 148.551 87.3547C148.855 87.6601 149.217 87.9023 149.616 88.0676C150.015 88.2329 150.442 88.318 150.873 88.318H171.457C171.889 88.3191 172.316 88.2351 172.715 88.0708C173.114 87.9065 173.477 87.6652 173.782 87.3606C174.088 87.056 174.33 86.6942 174.495 86.2959C174.661 85.8975 174.746 85.4705 174.746 85.0392C174.747 84.6072 174.663 84.1792 174.498 83.7799C174.333 83.3806 174.091 83.0178 173.785 82.7123C173.48 82.4068 173.117 82.1648 172.717 81.9999C172.318 81.8351 171.889 81.7509 171.457 81.752H171.449Z" stroke="#1A1B22" stroke-miterlimit="10"/>
<path d="M161.307 64.1505L161.473 66.0694C160.863 66.1357 160.247 66.1329 159.637 66.0611L159.913 64.1505L159.52 63.7333L160.363 62.8823L160.597 62.6237L160.822 62.8823L161.657 63.7333L161.298 64.1505H161.307ZM163.393 56.5832V57.1256C163.393 57.3508 163.377 57.5761 163.327 57.793L163.276 58.035C163.135 58.5939 162.893 59.1196 162.567 59.5951C161.816 60.6964 161.039 60.8549 160.647 60.8549C160.255 60.8549 159.479 60.6881 158.727 59.5951C158.36 59.049 158.102 58.4371 157.968 57.793C157.922 57.5733 157.897 57.3499 157.893 57.1256V55.9742L158.201 55.24C158.246 55.1275 158.33 55.0346 158.437 54.978C158.544 54.9214 158.668 54.9049 158.786 54.9313L159.303 55.0398C160.146 55.2233 161.023 55.2233 161.866 55.0398L162.467 54.9063C162.588 54.8777 162.716 54.8941 162.827 54.9524C162.937 55.0107 163.023 55.1069 163.068 55.2233C163.176 55.532 163.293 55.7906 163.402 56.0076V56.5832H163.393Z" fill="#1A1B22"/>
<path d="M160.622 50.0773C159.133 50.0723 157.671 50.4823 156.402 51.2614C155.133 52.0406 154.106 53.1579 153.436 54.488C152.767 55.8181 152.482 57.3084 152.613 58.7915C152.744 60.2746 153.286 61.6918 154.178 62.8841C154.571 62.6082 154.987 62.368 155.422 62.1665C156.335 61.7342 157.285 61.3852 158.26 61.1237L160.572 62.225L162.935 61.1153C164.404 61.4657 165.798 62.0664 167.058 62.8841C167.955 61.6919 168.501 60.273 168.635 58.7873C168.768 57.3015 168.484 55.808 167.815 54.475C167.145 53.142 166.116 52.0225 164.843 51.2425C163.571 50.4626 162.106 50.0532 160.614 50.0606V50.0773H160.622ZM164.412 57.194C164.413 57.3641 164.352 57.5287 164.239 57.6564C164.127 57.7841 163.972 57.866 163.803 57.8865C163.655 58.5974 163.368 59.2721 162.96 59.8722C162.3 60.8233 161.482 61.3489 160.639 61.3489C159.804 61.3489 158.986 60.8233 158.327 59.8722C157.923 59.2706 157.639 58.5962 157.492 57.8865C157.39 57.8771 157.292 57.8453 157.204 57.7933C157.116 57.7414 157.04 57.6706 156.983 57.5861C156.926 57.5015 156.888 57.4053 156.872 57.3044C156.856 57.2034 156.862 57.1002 156.891 57.0021C156.783 56.4515 156.474 54.5993 157.317 53.7567C158.294 52.7722 158.16 51.7877 160.606 51.6709H160.681C163.135 51.7877 162.985 52.7722 163.961 53.7567C164.771 54.5743 164.504 56.3263 164.379 56.9354C164.412 57.0188 164.42 57.1023 164.412 57.194Z" fill="#1A1B22"/>
<path d="M111.141 29.0713H227.165V61.6096H205.864" stroke="#1A1B22" stroke-miterlimit="10"/>
<path d="M193.777 61.1921L199.202 58.4806L204.628 55.7691V66.6152L199.202 63.9036L193.777 61.1921ZM111.458 31.1234C111.729 31.141 112.001 31.1028 112.256 31.0112C112.512 30.9196 112.746 30.7765 112.945 30.5908C113.143 30.405 113.301 30.1806 113.409 29.9314C113.517 29.6822 113.573 29.4135 113.573 29.1419C113.573 28.8703 113.517 28.6016 113.409 28.3524C113.301 28.1032 113.143 27.8788 112.945 27.6931C112.746 27.5073 112.512 27.3643 112.256 27.2726C112.001 27.181 111.729 27.1428 111.458 27.1604C110.954 27.1931 110.482 27.4161 110.137 27.7841C109.792 28.1521 109.6 28.6376 109.6 29.1419C109.6 29.6463 109.792 30.1317 110.137 30.4998C110.482 30.8678 110.954 31.0907 111.458 31.1234Z" fill="#1A1B22" stroke="#1A1B22" stroke-miterlimit="10"/>
</g>
<path d="M62.7546 27H36V73.0632H62.7461V27H62.7546ZM98 115.18H75.4144V119H98V115.18Z" stroke="#1A1B22" stroke-miterlimit="10"/>
<path d="M98 59.4962H75.1323V61.0911H98V59.4962ZM98 62.9548H75.1323V64.5414H98V62.9464V62.9548ZM98 66.405H75.1323V68H98V66.405ZM42.7565 40.7759V37.5859L42 37.8714V37.4684L42.7565 37.1326H43.2122V40.7675H42.7565V40.7759ZM46.1953 40.8767C45.9972 40.881 45.8014 40.8353 45.6268 40.7441C45.4521 40.653 45.3044 40.5193 45.198 40.3562C44.9401 39.9365 44.8026 39.458 44.837 38.9627C44.8112 38.4674 44.9401 37.9721 45.2066 37.5524C45.3148 37.3931 45.4618 37.2624 45.6343 37.172C45.8068 37.0816 45.9995 37.0343 46.1953 37.0343C46.391 37.0343 46.5838 37.0816 46.7563 37.172C46.9288 37.2624 47.0757 37.3931 47.1839 37.5524C47.459 37.9721 47.588 38.4674 47.5622 38.9627C47.588 39.4664 47.459 39.9533 47.1839 40.3814C47.0757 40.5396 46.9284 40.6687 46.7556 40.7568C46.5828 40.8448 46.3901 40.8889 46.1953 40.8851V40.8767ZM46.1953 40.5073C46.3485 40.5102 46.4986 40.4642 46.6227 40.3764C46.7468 40.2885 46.8382 40.1635 46.883 40.0204C47.1581 39.3236 47.1581 38.5429 46.883 37.8378C46.8389 37.6943 46.7486 37.5684 46.6255 37.479C46.5024 37.3895 46.353 37.3412 46.1996 37.3412C46.0461 37.3412 45.8967 37.3895 45.7736 37.479C45.6505 37.5684 45.5602 37.6943 45.5161 37.8378C45.2343 38.5393 45.2343 39.3189 45.5161 40.0204C45.561 40.1635 45.6523 40.2885 45.7765 40.3764C45.9006 40.4642 46.0506 40.5102 46.2039 40.5073H46.1953ZM49.8403 38.7612H49.2128V38.1484H49.8489V38.7612H49.8403ZM49.8403 40.7759H49.2128V40.1463H49.8489V40.7675L49.8403 40.7759ZM51.6457 40.7759V40.3898C51.6629 40.1631 51.7317 39.9449 51.8434 39.7434C51.9982 39.4748 52.2131 39.2397 52.471 39.0634L52.7289 38.8787C52.961 38.7108 53.1759 38.5178 53.3651 38.2995C53.4478 38.1869 53.4929 38.052 53.494 37.9133C53.4942 37.8433 53.479 37.7741 53.4493 37.7103C53.4197 37.6466 53.3762 37.5898 53.3221 37.544C53.1782 37.4261 52.9938 37.366 52.8063 37.3761C52.648 37.3656 52.4907 37.407 52.3592 37.4936C52.3149 37.524 52.2786 37.5641 52.2532 37.6108C52.2278 37.6575 52.2141 37.7094 52.2131 37.7622V37.7874H51.766V37.7622C51.766 37.6279 51.8176 37.502 51.895 37.4013C51.9896 37.2753 52.1185 37.183 52.2561 37.1242C52.428 37.0403 52.6171 37.0067 52.8063 37.0067C52.9669 36.9901 53.1292 37.0045 53.2841 37.0491C53.439 37.0938 53.5834 37.1678 53.7089 37.2669C53.7971 37.3475 53.8671 37.445 53.9144 37.5534C53.9618 37.6618 53.9855 37.7787 53.984 37.8965C53.984 38.0309 53.9496 38.1652 53.8981 38.2911C53.8121 38.4506 53.7089 38.5933 53.5628 38.7108C53.4338 38.82 53.3049 38.9207 53.1587 39.0214L52.9868 39.1474C52.4022 39.5251 52.1185 39.9029 52.1185 40.2723V40.3562H54.0528V40.7591L51.6457 40.7675V40.7759ZM57.4228 39.7686C57.4247 39.9684 57.3703 40.1648 57.2657 40.3365C57.1612 40.5082 57.0103 40.6486 56.8296 40.7424C56.612 40.8324 56.3781 40.8788 56.1418 40.8788C55.9055 40.8788 55.6717 40.8324 55.4541 40.7424C55.2718 40.6465 55.1224 40.5006 55.0243 40.3226C54.9178 40.1534 54.8615 39.9587 54.8615 39.7602C54.8615 39.5616 54.9178 39.3669 55.0243 39.1977C55.1532 39.0046 55.3509 38.8535 55.5659 38.7612C55.3979 38.6832 55.2508 38.5683 55.136 38.4254C55.0446 38.2818 54.9962 38.116 54.9962 37.9469C54.9962 37.7778 55.0446 37.6121 55.136 37.4684C55.2392 37.3173 55.3853 37.1998 55.5573 37.1326C55.736 37.0554 55.9292 37.0154 56.1247 37.0154C56.3201 37.0154 56.5134 37.0554 56.692 37.1326C56.8607 37.2017 57.0042 37.3186 57.1038 37.4683C57.2035 37.6181 57.2547 37.7936 57.2508 37.9721C57.2533 38.1346 57.2021 38.2936 57.1047 38.4254C56.9929 38.5765 56.8468 38.694 56.6749 38.7612C56.8984 38.8535 57.0875 39.013 57.2165 39.2061C57.3454 39.374 57.4142 39.5671 57.4228 39.777V39.7686ZM56.1333 38.9627C55.9966 38.9643 55.8629 39.002 55.7464 39.0718C55.6188 39.1388 55.5141 39.241 55.4455 39.3656C55.3917 39.4547 55.3566 39.5534 55.3421 39.6559C55.3277 39.7583 55.3343 39.8626 55.3615 39.9626C55.3887 40.0626 55.436 40.1563 55.5006 40.2382C55.5652 40.3202 55.6458 40.3889 55.7378 40.4401C55.862 40.4963 55.9974 40.5246 56.1342 40.5232C56.271 40.5217 56.4058 40.4905 56.5287 40.4318C56.6544 40.3681 56.7595 40.2716 56.8324 40.153C56.9052 40.0344 56.943 39.8984 56.9414 39.7602C56.9377 39.6206 56.8962 39.4844 56.821 39.3656C56.7537 39.2379 56.649 39.1327 56.5201 39.0634C56.405 38.9987 56.2747 38.964 56.1418 38.9627H56.1333ZM56.1333 38.6017C56.2279 38.6105 56.3234 38.5985 56.4126 38.5665C56.5019 38.5346 56.5827 38.4835 56.6491 38.417C56.707 38.3629 56.753 38.2977 56.784 38.2255C56.8151 38.1533 56.8306 38.0756 56.8296 37.9973C56.8327 37.9146 56.8165 37.8324 56.7822 37.7568C56.748 37.6812 56.6965 37.6141 56.6319 37.5608C56.5026 37.4526 56.3379 37.3931 56.1676 37.3931C55.9974 37.3931 55.8327 37.4526 55.7034 37.5608C55.6387 37.6141 55.5873 37.6812 55.5531 37.7568C55.5188 37.8324 55.5026 37.9146 55.5057 37.9973C55.5058 38.0762 55.5226 38.1543 55.5552 38.2265C55.5877 38.2988 55.6353 38.3636 55.6948 38.417C55.8152 38.5261 55.9785 38.5849 56.1418 38.5849V38.6017H56.1333Z" fill="#1A1B22" stroke="#1A1B22" stroke-miterlimit="10"/>
<path d="M43.2092 49.9393C42.9457 49.9561 42.6814 49.921 42.4327 49.8364C42.184 49.7517 41.9561 49.6192 41.7633 49.4472C41.5704 49.2751 41.4167 49.0671 41.3116 48.836C41.2065 48.605 41.1523 48.3558 41.1523 48.104C41.1523 47.8521 41.2065 47.6029 41.3116 47.3719C41.4167 47.1408 41.5704 46.9328 41.7633 46.7607C41.9561 46.5887 42.184 46.4562 42.4327 46.3715C42.6814 46.2869 42.9457 46.2518 43.2092 46.2686C43.6974 46.2996 44.1551 46.5065 44.4894 46.8473C44.8237 47.188 45.0097 47.6373 45.0097 48.104C45.0097 48.5706 44.8237 49.0199 44.4894 49.3607C44.1551 49.7014 43.6974 49.9083 43.2092 49.9393ZM43.2092 46C42.6241 46 42.063 46.2217 41.6493 46.6162C41.2356 47.0108 41.0031 47.546 41.0031 48.104C41.0031 48.662 41.2356 49.1971 41.6493 49.5917C42.063 49.9863 42.6241 50.2079 43.2092 50.2079C43.7943 50.2079 44.3554 49.9863 44.7691 49.5917C45.1828 49.1971 45.4153 48.662 45.4153 48.104C45.4153 47.546 45.1828 47.0108 44.7691 46.6162C44.3554 46.2217 43.7943 46 43.2092 46ZM50.4973 49.9393C50.2338 49.9561 49.9695 49.921 49.7208 49.8364C49.4721 49.7517 49.2442 49.6192 49.0514 49.4472C48.8586 49.2751 48.7048 49.0671 48.5997 48.836C48.4946 48.605 48.4404 48.3558 48.4404 48.104C48.4404 47.8521 48.4946 47.6029 48.5997 47.3719C48.7048 47.1408 48.8586 46.9328 49.0514 46.7607C49.2442 46.5887 49.4721 46.4562 49.7208 46.3715C49.9695 46.2869 50.2338 46.2518 50.4973 46.2686C50.9855 46.2996 51.4432 46.5065 51.7775 46.8473C52.1118 47.188 52.2978 47.6373 52.2978 48.104C52.2978 48.5706 52.1118 49.0199 51.7775 49.3607C51.4432 49.7014 50.9855 49.9083 50.4973 49.9393ZM50.4973 46C49.9122 46 49.3511 46.2217 48.9374 46.6162C48.5237 47.0108 48.2912 47.546 48.2912 48.104C48.2912 48.662 48.5237 49.1971 48.9374 49.5917C49.3511 49.9863 49.9122 50.2079 50.4973 50.2079C51.0824 50.2079 51.6435 49.9863 52.0572 49.5917C52.4709 49.1971 52.7034 48.662 52.7034 48.104C52.7034 47.546 52.4709 47.0108 52.0572 46.6162C51.6435 46.2217 51.0824 46 50.4973 46ZM57.7939 49.9393C57.5304 49.9549 57.2663 49.9187 57.018 49.833C56.7697 49.7473 56.5425 49.6138 56.3505 49.441C56.1585 49.2681 56.0058 49.0594 55.9018 48.828C55.7977 48.5965 55.7447 48.3471 55.7459 48.0953C55.747 47.8434 55.8024 47.5945 55.9086 47.3639C56.0147 47.1333 56.1694 46.926 56.363 46.7547C56.5566 46.5835 56.785 46.452 57.0341 46.3683C57.2832 46.2847 57.5476 46.2508 57.811 46.2686C58.2992 46.3016 58.7559 46.5104 59.0887 46.8526C59.4215 47.1948 59.6054 47.6449 59.6032 48.1116C59.6011 48.5783 59.4129 49.0268 59.077 49.3662C58.741 49.7055 58.2824 49.9104 57.7939 49.9393ZM57.7939 46C57.2089 46 56.6477 46.2217 56.234 46.6162C55.8203 47.0108 55.5879 47.546 55.5879 48.104C55.5879 48.662 55.8203 49.1971 56.234 49.5917C56.6477 49.9863 57.2089 50.2079 57.7939 50.2079C58.379 50.2079 58.9401 49.9863 59.3539 49.5917C59.7676 49.1971 60 48.662 60 48.104C60 47.546 59.7676 47.0108 59.3539 46.6162C58.9401 46.2217 58.379 46 57.7939 46ZM43.2092 55.9541C42.9559 55.9541 42.7051 55.9065 42.4711 55.8141C42.2371 55.7217 42.0245 55.5862 41.8454 55.4154C41.6663 55.2446 41.5242 55.0418 41.4273 54.8186C41.3304 54.5954 41.2805 54.3562 41.2805 54.1147C41.2805 53.8731 41.3304 53.6339 41.4273 53.4108C41.5242 53.1876 41.6663 52.9848 41.8454 52.814C42.0245 52.6432 42.2371 52.5077 42.4711 52.4153C42.7051 52.3228 42.9559 52.2752 43.2092 52.2752C43.7207 52.2752 44.2113 52.469 44.573 52.814C44.9347 53.159 45.1379 53.6268 45.1379 54.1147C45.1379 54.6025 44.9347 55.0704 44.573 55.4154C44.2113 55.7603 43.7207 55.9541 43.2092 55.9541ZM43.2092 52.0148C42.6241 52.0148 42.063 52.2365 41.6493 52.631C41.2356 53.0256 41.0031 53.5608 41.0031 54.1188C41.0031 54.6768 41.2356 55.2119 41.6493 55.6065C42.063 56.001 42.6241 56.2227 43.2092 56.2227C43.7943 56.2227 44.3554 56.001 44.7691 55.6065C45.1828 55.2119 45.4153 54.6768 45.4153 54.1188C45.4153 53.5608 45.1828 53.0256 44.7691 52.631C44.3554 52.2365 43.7943 52.0148 43.2092 52.0148ZM50.4973 55.9541C50.244 55.9541 49.9932 55.9065 49.7592 55.8141C49.5252 55.7217 49.3126 55.5862 49.1335 55.4154C48.9544 55.2446 48.8123 55.0418 48.7154 54.8186C48.6185 54.5954 48.5686 54.3562 48.5686 54.1147C48.5686 53.8731 48.6185 53.6339 48.7154 53.4108C48.8123 53.1876 48.9544 52.9848 49.1335 52.814C49.3126 52.6432 49.5252 52.5077 49.7592 52.4153C49.9932 52.3228 50.244 52.2752 50.4973 52.2752C51.0088 52.2752 51.4994 52.469 51.8611 52.814C52.2228 53.159 52.426 53.6268 52.426 54.1147C52.426 54.6025 52.2228 55.0704 51.8611 55.4154C51.4994 55.7603 51.0088 55.9541 50.4973 55.9541ZM50.4973 52.0148C49.9122 52.0148 49.3511 52.2365 48.9374 52.631C48.5237 53.0256 48.2912 53.5608 48.2912 54.1188C48.2912 54.6768 48.5237 55.2119 48.9374 55.6065C49.3511 56.001 49.9122 56.2227 50.4973 56.2227C51.0824 56.2227 51.6435 56.001 52.0572 55.6065C52.4709 55.2119 52.7034 54.6768 52.7034 54.1188C52.7034 53.5608 52.4709 53.0256 52.0572 52.631C51.6435 52.2365 51.0824 52.0148 50.4973 52.0148ZM57.7939 55.9541C57.5407 55.9531 57.2901 55.9044 57.0565 55.811C56.8229 55.7176 56.6109 55.5812 56.4326 55.4096C56.2543 55.238 56.1132 55.0347 56.0173 54.8111C55.9214 54.5875 55.8727 54.3481 55.8738 54.1065C55.8749 53.865 55.9259 53.626 56.0239 53.4032C56.1218 53.1805 56.2648 52.9783 56.4447 52.8083C56.6246 52.6382 56.8378 52.5036 57.0723 52.4122C57.3067 52.3207 57.5577 52.2742 57.811 52.2752C58.3225 52.2774 58.8122 52.4733 59.1723 52.8198C59.5324 53.1663 59.7334 53.635 59.7312 54.1228C59.7289 54.6107 59.5235 55.0777 59.1602 55.4211C58.7969 55.7646 58.3055 55.9563 57.7939 55.9541ZM57.7939 52.0148C57.2089 52.0148 56.6477 52.2365 56.234 52.631C55.8203 53.0256 55.5879 53.5608 55.5879 54.1188C55.5879 54.6768 55.8203 55.2119 56.234 55.6065C56.6477 56.001 57.2089 56.2227 57.7939 56.2227C58.379 56.2227 58.9401 56.001 59.3539 55.6065C59.7676 55.2119 60 54.6768 60 54.1188C60 53.5608 59.7676 53.0256 59.3539 52.631C58.9401 52.2365 58.379 52.0148 57.7939 52.0148ZM43.2092 62.0259C42.6977 62.0259 42.2071 61.8321 41.8454 61.4871C41.4837 61.1422 41.2805 60.6743 41.2805 60.1865C41.2805 59.6986 41.4837 59.2307 41.8454 58.8858C42.2071 58.5408 42.6977 58.347 43.2092 58.347C43.6974 58.378 44.1551 58.5849 44.4894 58.9257C44.8237 59.2665 45.0097 59.7157 45.0097 60.1824C45.0097 60.6491 44.8237 61.0983 44.4894 61.4391C44.1551 61.7799 43.6974 61.9867 43.2092 62.0178V62.0259ZM43.2092 58.0866C42.6997 58.0849 42.2054 58.2519 41.8105 58.5589C41.4156 58.8659 41.1446 59.2941 41.0437 59.7704C40.9427 60.2466 41.0181 60.7416 41.2569 61.1708C41.4957 61.6 41.8832 61.9369 42.3534 62.1242C42.8235 62.3114 43.3472 62.3374 43.8351 62.1976C44.3231 62.0578 44.7451 61.761 45.0293 61.3577C45.3135 60.9544 45.4422 60.4695 45.3935 59.9859C45.3449 59.5022 45.1218 59.0496 44.7624 58.7051C44.3482 58.3169 43.79 58.1004 43.2092 58.1028V58.0866ZM50.4973 62.0259C50.244 62.0259 49.9932 61.9783 49.7592 61.8859C49.5252 61.7934 49.3126 61.6579 49.1335 61.4871C48.9544 61.3163 48.8123 61.1136 48.7154 60.8904C48.6185 60.6672 48.5686 60.428 48.5686 60.1865C48.5686 59.9449 48.6185 59.7057 48.7154 59.4825C48.8123 59.2594 48.9544 59.0566 49.1335 58.8858C49.3126 58.715 49.5252 58.5795 49.7592 58.487C49.9932 58.3946 50.244 58.347 50.4973 58.347C50.9855 58.378 51.4432 58.5849 51.7775 58.9257C52.1118 59.2665 52.2978 59.7157 52.2978 60.1824C52.2978 60.6491 52.1118 61.0983 51.7775 61.4391C51.4432 61.7799 50.9855 61.9867 50.4973 62.0178V62.0259ZM50.4973 58.0866C49.9878 58.0849 49.4935 58.2519 49.0986 58.5589C48.7037 58.8659 48.4327 59.2941 48.3318 59.7704C48.2308 60.2466 48.3062 60.7416 48.545 61.1708C48.7838 61.6 49.1713 61.9369 49.6415 62.1242C50.1116 62.3114 50.6353 62.3374 51.1233 62.1976C51.6112 62.0578 52.0332 61.761 52.3174 61.3577C52.6016 60.9544 52.7303 60.4695 52.6816 59.9859C52.633 59.5022 52.4099 59.0496 52.0505 58.7051C51.6384 58.3189 51.0836 58.1025 50.5058 58.1028V58.0866H50.4973ZM50.4973 67.7233C50.2299 67.7473 49.9602 67.7179 49.7055 67.6368C49.4507 67.5557 49.2166 67.4248 49.0179 67.2524C48.8193 67.08 48.6606 66.8699 48.552 66.6357C48.4435 66.4014 48.3874 66.1481 48.3874 65.892C48.3874 65.6358 48.4435 65.3825 48.552 65.1483C48.6606 64.914 48.8193 64.7039 49.0179 64.5316C49.2166 64.3592 49.4507 64.2282 49.7055 64.1471C49.9602 64.0661 50.2299 64.0366 50.4973 64.0607C50.9753 64.1037 51.4193 64.3152 51.7425 64.6539C52.0657 64.9926 52.2448 65.434 52.2448 65.892C52.2448 66.3499 52.0657 66.7914 51.7425 67.13C51.4193 67.4687 50.9753 67.6802 50.4973 67.7233ZM50.4973 63.7921C49.9122 63.7921 49.3511 64.0138 48.9374 64.4083C48.5237 64.8029 48.2912 65.338 48.2912 65.896C48.2912 66.454 48.5237 66.9892 48.9374 67.3838C49.3511 67.7783 49.9122 68 50.4973 68C51.0824 68 51.6435 67.7783 52.0572 67.3838C52.4709 66.9892 52.7034 66.454 52.7034 65.896C52.7034 65.338 52.4709 64.8029 52.0572 64.4083C51.6435 64.0138 51.0824 63.7921 50.4973 63.7921ZM57.7939 62.0259C57.5407 62.0248 57.2901 61.9762 57.0565 61.8828C56.8229 61.7893 56.6109 61.6529 56.4326 61.4814C56.2543 61.3098 56.1132 61.1064 56.0173 60.8829C55.9214 60.6593 55.8727 60.4199 55.8738 60.1783C55.8749 59.9368 55.9259 59.6978 56.0239 59.475C56.1218 59.2523 56.2648 59.0501 56.4447 58.88C56.6246 58.71 56.8378 58.5754 57.0723 58.4839C57.3067 58.3925 57.5577 58.346 57.811 58.347C58.2992 58.38 58.7559 58.5888 59.0887 58.931C59.4215 59.2732 59.6054 59.7233 59.6032 60.19C59.6011 60.6567 59.4129 61.1052 59.077 61.4446C58.741 61.784 58.2824 61.9889 57.7939 62.0178V62.0259ZM57.7939 58.0866C57.2845 58.0849 56.7901 58.2519 56.3953 58.5589C56.0004 58.8659 55.7294 59.2941 55.6284 59.7704C55.5274 60.2466 55.6028 60.7416 55.8416 61.1708C56.0805 61.6 56.468 61.9369 56.9381 62.1242C57.4083 62.3114 57.9319 62.3374 58.4199 62.1976C58.9078 62.0578 59.3299 61.761 59.614 61.3577C59.8982 60.9544 60.0269 60.4695 59.9783 59.9859C59.9296 59.5022 59.7065 59.0496 59.3471 58.7051C58.933 58.3169 58.3747 58.1004 57.7939 58.1028V58.0866Z" fill="#1A1B22" stroke="#1A1B22" stroke-miterlimit="10"/>
<path d="M99 27H73V73H99V27Z" stroke="#1A1B22" stroke-miterlimit="10"/>
<path d="M94.9992 48.3914H92.1295V48.5C92.128 49.4139 91.8556 50.3069 91.3467 51.066C90.8378 51.8252 90.1154 52.4165 89.2706 52.7651C88.4258 53.1138 87.4966 53.2043 86.6004 53.025C85.7042 52.8458 84.8813 52.4049 84.2356 51.7581C83.5899 51.1114 83.1504 50.2877 82.9727 49.3912C82.795 48.4947 82.8869 47.5657 83.237 46.7215C83.5871 45.8773 84.1796 45.1558 84.9396 44.6482C85.6996 44.1406 86.5931 43.8697 87.507 43.8697V41C86.0187 40.9986 84.5636 41.4401 83.327 42.2681C82.0904 43.0962 81.1281 44.2735 80.5625 45.6501C79.997 47.0268 79.8539 48.5406 80.1513 49.9988C80.4487 51.4571 81.1733 52.7939 82.2328 53.8391C83.2922 54.8843 84.6387 55.5907 86.1009 55.8683C87.563 56.146 89.0747 55.9823 90.4436 55.3982C91.8125 54.8141 92.9766 53.8359 93.7878 52.5882C94.5991 51.3404 95.0208 49.8795 94.9992 48.3914Z" fill="#1A1B22"/>
<path d="M62 81H36V128H62V81Z" stroke="#1A1B22" stroke-miterlimit="10"/>
<path d="M61 84.1888C61 84.1914 61 84.1909 61 84.1874C61 84.1839 61 84.1775 61 84.1685C61 84.1596 61 84.1484 61 84.1357C61 84.1231 61 84.1092 61 84.0952C61 84.0812 61 84.0674 61 84.0547C61 84.0421 61 84.0309 61 84.0219C61 84.013 61 84.0065 61 84.003C61 83.9995 61 83.9991 61 84.0016C61 84.0057 61 84.0173 61 84.0344C61 84.0515 61 84.073 61 84.0952C61 84.1174 61 84.1389 61 84.156C61 84.1731 61 84.1847 61 84.1888ZM61 84.9048C61 84.93 61 84.9542 61 84.9721C61 84.99 61 85 61 85C61 85 61 84.9896 61 84.9711C61 84.9527 61 84.9276 61 84.9015C61 84.8831 61 84.8655 61 84.8507C61 84.8358 61 84.8243 61 84.8175C61 84.8107 61 84.8087 61 84.812C61 84.8152 61 84.8235 61 84.8358C61 84.8445 61 84.8551 61 84.867C61 84.8788 61 84.8917 61 84.9048ZM61 84.6158C61 84.6184 61 84.6179 61 84.6144C61 84.6109 61 84.6044 61 84.5955C61 84.5865 61 84.5753 61 84.5627C61 84.55 61 84.5362 61 84.5222C61 84.5082 61 84.4943 61 84.4817C61 84.469 61 84.4578 61 84.4489C61 84.4399 61 84.4335 61 84.43C61 84.4265 61 84.426 61 84.4286C61 84.4327 61 84.4443 61 84.4614C61 84.4785 61 84.5 61 84.5222C61 84.5444 61 84.5659 61 84.583C61 84.6001 61 84.6117 61 84.6158Z" fill="#1A1B22" stroke="#1A1B22" stroke-miterlimit="10"/>
<path d="M47 115L45 115.5L47 116V115Z" fill="#1A1B22" stroke="#1A1B22" stroke-miterlimit="10"/>
<path d="M44.3155 115.006L43 115.503L44.3155 116V115.006ZM52.6672 115.994L54 115.503L52.6758 115V116L52.6672 115.994Z" fill="#1A1B22" stroke="#1A1B22" stroke-miterlimit="10"/>
<path d="M53.9422 115.873L55.2775 115.011L53.9422 114.131V115.883V115.873ZM56.5429 110H41.4625C41.3717 109.999 41.2827 110.029 41.2067 110.084C41.1306 110.14 41.0709 110.22 41.0349 110.313C41.0121 110.375 41.0002 110.442 41 110.509C41.0044 110.642 41.0545 110.768 41.1396 110.861C41.1833 110.91 41.2269 110.959 41.288 110.979C41.3404 110.998 41.4014 111.018 41.4625 111.008H56.5429C56.6027 111.009 56.6622 110.997 56.7177 110.972C56.7732 110.946 56.8235 110.909 56.8658 110.861C56.9083 110.815 56.942 110.759 56.9651 110.698C56.9881 110.637 57 110.571 57 110.504C57 110.438 56.9881 110.372 56.9651 110.31C56.942 110.249 56.9083 110.193 56.8658 110.147C56.7793 110.053 56.6635 110 56.5429 110ZM48.8893 114.023H48.2173V116H48.8893V114.023ZM50.1023 114.023H49.4391V116H50.1023V114.023Z" fill="#1A1B22" stroke="#1A1B22" stroke-miterlimit="10"/>
<path d="M41 91V104H57V91H41ZM51.304 95.8787V98.6007C51.2766 98.8759 51.1211 99.1213 50.8834 99.3146C50.7135 99.4912 50.4658 99.607 50.1928 99.6376C49.9197 99.6681 49.6427 99.611 49.4206 99.4783C49.2597 99.2969 49.1908 99.0721 49.2283 98.8505C49.2657 98.629 49.4066 98.4276 49.6217 98.2883C49.7524 98.1715 49.9144 98.0805 50.0951 98.0225C50.2757 97.9645 50.4704 97.9409 50.664 97.9537V96.0646L48.2777 96.4216V98.9949C48.2871 99.1474 48.2551 99.2998 48.184 99.4412C48.1129 99.5825 48.0044 99.7095 47.8663 99.8129C47.695 99.9879 47.4475 100.103 47.1751 100.133C46.9027 100.163 46.6264 100.107 46.4034 99.9765C46.2425 99.7952 46.1737 99.5704 46.2111 99.3488C46.2486 99.1273 46.3895 98.9259 46.6046 98.7866C46.7391 98.6675 46.9056 98.5753 47.0912 98.5173C47.2768 98.4592 47.4763 98.4369 47.6743 98.4519V96.1241C47.6743 96.087 47.6834 96.0498 47.72 96.0275C47.7459 96.0019 47.7811 95.9836 47.8206 95.9754L51.176 95.4697C51.1952 95.4663 51.215 95.4666 51.2341 95.4704C51.2531 95.4743 51.2707 95.4817 51.2857 95.492C51.2992 95.5012 51.3102 95.5125 51.3181 95.5253C51.326 95.5381 51.3305 95.5521 51.3314 95.5664V95.8638L51.304 95.8787Z" fill="#1A1B22"/>
<path d="M99 81H73V128H99V81Z" stroke="#1A1B22" stroke-miterlimit="10"/>
<path d="M97.7119 84.4714C97.747 84.4778 97.7831 84.4766 97.8177 84.4679C97.8524 84.4591 97.8846 84.443 97.9121 84.4207C97.9396 84.3984 97.9617 84.3705 97.9769 84.3388C97.9921 84.3072 98 84.2727 98 84.2377C98 84.2028 97.9921 84.1683 97.9769 84.1366C97.9617 84.105 97.9396 84.0771 97.9121 84.0547C97.8846 84.0324 97.8524 84.0163 97.8177 84.0076C97.7831 83.9988 97.747 83.9976 97.7119 84.0041C97.6561 84.0143 97.6058 84.0433 97.5697 84.086C97.5335 84.1286 97.5136 84.1823 97.5136 84.2377C97.5136 84.2932 97.5335 84.3469 97.5697 84.3895C97.6058 84.4322 97.6561 84.4611 97.7119 84.4714ZM97.955 86.2585C97.9543 86.2939 97.9458 86.3287 97.9301 86.3605C97.9144 86.3924 97.8919 86.4206 97.864 86.4431C97.8362 86.4657 97.8037 86.4821 97.7687 86.4913C97.7338 86.5005 97.6972 86.5022 97.6615 86.4963C97.6259 86.4894 97.5923 86.4748 97.5631 86.4536C97.534 86.4323 97.5101 86.405 97.4932 86.3735C97.4763 86.342 97.4669 86.3073 97.4655 86.2718C97.4642 86.2363 97.471 86.2009 97.4855 86.1683C97.5061 86.1268 97.5382 86.0917 97.5783 86.0672C97.6183 86.0426 97.6646 86.0296 97.7119 86.0296C97.7591 86.0296 97.8054 86.0426 97.8455 86.0672C97.8855 86.0917 97.9177 86.1268 97.9383 86.1683L97.955 86.2585ZM97.7119 85.5371C97.747 85.5436 97.7831 85.5424 97.8177 85.5336C97.8524 85.5249 97.8846 85.5088 97.9121 85.4864C97.9396 85.4641 97.9617 85.4362 97.9769 85.4046C97.9921 85.3729 98 85.3384 98 85.3035C98 85.2685 97.9921 85.234 97.9769 85.2024C97.9617 85.1707 97.9396 85.1428 97.9121 85.1205C97.8846 85.0982 97.8524 85.0821 97.8177 85.0733C97.7831 85.0645 97.747 85.0634 97.7119 85.0698C97.6561 85.0801 97.6058 85.109 97.5697 85.1517C97.5335 85.1944 97.5136 85.248 97.5136 85.3035C97.5136 85.3589 97.5335 85.4126 97.5697 85.4552C97.6058 85.4979 97.6561 85.5269 97.7119 85.5371ZM86.6683 94.0957C84.1041 94.0957 81.645 95.0915 79.8318 96.8642C78.0186 98.6368 77 101.041 77 103.548C77 106.055 78.0186 108.459 79.8318 110.232C81.645 112.004 84.1041 113 86.6683 113C89.2325 113 91.6917 112.004 93.5049 110.232C95.318 108.459 96.3367 106.055 96.3367 103.548C96.3367 101.041 95.318 98.6368 93.5049 96.8642C91.6917 95.0915 89.2325 94.0957 86.6683 94.0957ZM86.6683 111.688C84.4644 111.688 82.3508 110.832 80.7923 109.309C79.2339 107.785 78.3584 105.719 78.3584 103.564C78.3584 101.41 79.2339 99.3432 80.7923 97.8196C82.3508 96.2961 84.4644 95.4401 86.6683 95.4401C88.8723 95.4401 90.9859 96.2961 92.5443 97.8196C94.1027 99.3432 94.9782 101.41 94.9782 103.564C94.9782 105.719 94.1027 107.785 92.5443 109.309C90.9859 110.832 88.8723 111.688 86.6683 111.688Z" fill="#1A1B22" stroke="#1A1B22" stroke-miterlimit="10"/>
<path d="M87.1163 96.008C86.1933 95.9763 85.2734 96.1337 84.4115 96.4709C83.5495 96.8081 82.7632 97.3181 82.0992 97.9707C81.4352 98.6233 80.9071 99.4051 80.5465 100.269C80.1859 101.134 80 102.063 80 103.002C80 103.941 80.1859 104.87 80.5465 105.735C80.9071 106.599 81.4352 107.381 82.0992 108.033C82.7632 108.686 83.5495 109.196 84.4115 109.533C85.2734 109.87 86.1933 110.028 87.1163 109.996C88.942 109.996 90.6929 109.259 91.9838 107.946C93.2748 106.634 94 104.854 94 102.998C94 101.142 93.2748 99.362 91.9838 98.0497C90.6929 96.7373 88.942 96 87.1163 96V96.008ZM87.1163 109.564C86.2476 109.594 85.3819 109.445 84.5708 109.128C83.7596 108.81 83.0198 108.329 82.3953 107.715C81.7707 107.1 81.2744 106.364 80.9357 105.55C80.597 104.736 80.4231 103.861 80.4241 102.978C80.4252 102.094 80.6013 101.22 80.9419 100.407C81.2824 99.5936 81.7806 98.8586 82.4066 98.2455C83.0326 97.6324 83.7736 97.1538 84.5854 96.838C85.3973 96.5223 86.2634 96.376 87.1321 96.4079C88.8091 96.4694 90.3971 97.1904 91.5614 98.419C92.7257 99.6476 93.3753 101.288 93.3733 102.994C93.3712 104.7 92.7177 106.338 91.5505 107.564C90.3833 108.79 88.7935 109.507 87.1163 109.564Z" fill="#1A1B22" stroke="#1A1B22" stroke-miterlimit="10"/>
</g>
<defs>
<clipPath id="clip0_1121_27795">
<rect width="254" height="162" rx="12" fill="white"/>
</clipPath>
</defs>
</svg>
