<svg width="254" height="162" viewBox="0 0 254 162" fill="none" xmlns="http://www.w3.org/2000/svg">
<g clip-path="url(#clip0_1121_27794)">
<path d="M0 0H254V162H0V0Z" fill="white"/>
<path d="M34.008 20.4922H85.0467C86.3677 20.4922 87.6345 21.0944 88.5686 22.1662C89.5026 23.2381 90.0273 24.6918 90.0273 26.2076V84.7767C90.0273 86.2926 89.5026 87.7463 88.5686 88.8182C87.6345 89.89 86.3677 90.4922 85.0467 90.4922H34.008C32.687 90.4922 31.4202 89.89 30.4861 88.8182C29.5521 87.7463 29.0273 86.2926 29.0273 84.7767V26.2076C29.0273 24.6918 29.5521 23.2381 30.4861 22.1662C31.4202 21.0944 32.687 20.4922 34.008 20.4922Z" stroke="#1A1B22" stroke-width="0.6"/>
<path d="M26.5273 42.4922C32.3263 42.4922 37.0273 36.8957 37.0273 29.9922C37.0273 23.0886 32.3263 17.4922 26.5273 17.4922C20.7284 17.4922 16.0273 23.0886 16.0273 29.9922C16.0273 36.8957 20.7284 42.4922 26.5273 42.4922Z" fill="white"/>
<path d="M28.1339 26.7678L29.5611 26.2517L29.131 27.9643C28.9648 28.6212 29.2092 29.325 29.7175 29.6535L31.0273 30.4863L29.7077 31.3309C29.2092 31.6593 28.9648 32.3632 29.1212 33.02L29.5611 34.7327L28.1339 34.2165C27.8676 34.1204 27.5819 34.1381 27.3252 34.2664C27.0686 34.3947 26.8569 34.6258 26.7263 34.9203L26.0225 36.4922L25.3284 34.9086C25.1978 34.6141 24.9861 34.383 24.7295 34.2547C24.4728 34.1263 24.1871 34.1087 23.9208 34.2048L22.4936 34.7327L22.9237 33.02C23.0038 32.7005 22.9891 32.3576 22.8822 32.0496C22.7752 31.7416 22.5827 31.4877 22.3372 31.3309L21.0273 30.4863L22.347 29.6535C22.8455 29.325 23.0899 28.6212 22.9335 27.9643L22.4936 26.2517L23.9208 26.7678C24.4682 26.9673 25.0547 26.674 25.3284 26.064L26.0225 24.4922L26.7263 26.0758C27 26.674 27.5865 26.9673 28.1339 26.7796V26.7678Z" fill="#1A1B22" stroke="#1A1B22" stroke-width="1.76"/>
<mask id="mask0_1121_27794" style="mask-type:luminance" maskUnits="userSpaceOnUse" x="14" y="16" width="26" height="29">
<path d="M35.1809 19.9797C36.3946 21.3101 37.3657 22.9075 38.0373 24.678C38.7089 26.4485 39.0673 28.3564 39.0915 30.2893C39.1157 32.2222 38.8052 34.1412 38.1782 35.9334C37.5512 37.7257 36.6204 39.3549 35.4406 40.7253C34.2608 42.0957 32.8557 43.1796 31.308 43.9132C29.7604 44.6469 28.1014 45.0155 26.4287 44.9974C24.756 44.9792 23.1033 44.5747 21.5678 43.8076C20.0323 43.0405 18.6451 41.9263 17.4878 40.5306C15.2214 37.7974 13.9698 34.1483 14.0006 30.3629C14.0313 26.5776 15.3419 22.9563 17.6523 20.2727C19.9626 17.5892 23.0896 16.0563 26.365 16.0015C29.6403 15.9468 32.8043 17.3745 35.1809 19.9797ZM19.4603 38.251C20.3577 39.3554 21.4383 40.2396 22.6377 40.851C23.8371 41.4623 25.1308 41.7882 26.4416 41.8093C27.7523 41.8304 29.0534 41.5462 30.267 40.9737C31.4807 40.4012 32.5822 39.5521 33.5058 38.477C34.4294 37.4019 35.1561 36.1228 35.6427 34.7162C36.1293 33.3095 36.3658 31.804 36.338 30.2894C36.3103 28.7748 36.0189 27.2822 35.4812 25.9006C34.9435 24.519 34.1705 23.2767 33.2083 22.2477C31.3597 20.2164 28.8964 19.1019 26.3457 19.1428C23.795 19.1836 21.3595 20.3766 19.5603 22.4664C17.761 24.5562 16.7411 27.3768 16.7187 30.3247C16.6963 33.2725 17.6732 36.1134 19.4403 38.2394L19.4603 38.251Z" fill="white"/>
</mask>
<g mask="url(#mask0_1121_27794)">
<path d="M35.1809 19.9797C36.3946 21.3101 37.3657 22.9075 38.0373 24.678C38.7089 26.4485 39.0673 28.3564 39.0915 30.2893C39.1157 32.2222 38.8052 34.1412 38.1782 35.9334C37.5512 37.7257 36.6204 39.3549 35.4406 40.7253C34.2608 42.0957 32.8557 43.1796 31.308 43.9132C29.7604 44.6469 28.1014 45.0155 26.4287 44.9974C24.756 44.9792 23.1033 44.5747 21.5678 43.8076C20.0323 43.0405 18.6451 41.9263 17.4878 40.5306C15.2214 37.7974 13.9698 34.1483 14.0006 30.3629C14.0313 26.5776 15.3419 22.9563 17.6523 20.2727C19.9626 17.5892 23.0896 16.0563 26.365 16.0015C29.6403 15.9468 32.8043 17.3745 35.1809 19.9797ZM19.4603 38.251C20.3577 39.3554 21.4383 40.2396 22.6377 40.851C23.8371 41.4623 25.1308 41.7882 26.4416 41.8093C27.7523 41.8304 29.0534 41.5462 30.267 40.9737C31.4807 40.4012 32.5822 39.5521 33.5058 38.477C34.4294 37.4019 35.1561 36.1228 35.6427 34.7162C36.1293 33.3095 36.3658 31.804 36.338 30.2894C36.3103 28.7748 36.0189 27.2822 35.4812 25.9006C34.9435 24.519 34.1705 23.2767 33.2083 22.2477C31.3597 20.2164 28.8964 19.1019 26.3457 19.1428C23.795 19.1836 21.3595 20.3766 19.5603 22.4664C17.761 24.5562 16.7411 27.3768 16.7187 30.3247C16.6963 33.2725 17.6732 36.1134 19.4403 38.2394L19.4603 38.251Z" fill="#1A1B22" stroke="#1A1B22" stroke-width="2.11"/>
</g>
<path d="M36.7889 38.1402C36.1146 37.365 35.0241 37.3683 34.3533 38.1476C33.6825 38.9269 33.6853 40.187 34.3597 40.9623L41.5082 49.1802C42.1826 49.9554 43.273 49.9521 43.9438 49.1728C44.6147 48.3935 44.6118 47.1333 43.9375 46.3581L36.7889 38.1402Z" fill="#1A1B22"/>
<path d="M153.007 80.4922H234.048C235.369 80.4922 236.635 81.1002 237.569 82.1824C238.503 83.2646 239.027 84.7325 239.027 86.263V139.721C239.027 141.252 238.503 142.72 237.569 143.802C236.635 144.884 235.369 145.492 234.048 145.492H152.997C151.678 145.489 150.414 144.88 149.482 143.798C148.551 142.716 148.027 141.25 148.027 139.721V86.263C148.027 84.7325 148.552 83.2646 149.486 82.1824C150.42 81.1002 151.686 80.4922 153.007 80.4922Z" stroke="#1A1B22" stroke-width="0.6"/>
<path d="M201.565 127.486C197.712 127.569 193.884 126.764 190.303 125.117C186.723 123.471 183.462 121.017 180.712 117.899C177.962 114.78 175.778 111.06 174.287 106.955C172.795 102.851 172.027 98.4437 172.027 93.9922C172.027 89.5406 172.795 85.1337 174.287 81.029C175.778 76.9242 177.962 73.2039 180.712 70.0855C183.462 66.9671 186.723 64.5131 190.303 62.867C193.884 61.2208 197.712 60.4154 201.565 60.4979C209.162 60.6607 216.4 64.261 221.723 70.5247C227.045 76.7884 230.027 85.215 230.027 93.9922C230.027 102.769 227.045 111.196 221.723 117.46C216.4 123.723 209.162 127.324 201.565 127.486Z" fill="#1A1B22" stroke="#1A1B22" stroke-width="1.05"/>
<path d="M201.027 121.492C194.662 121.492 188.558 118.595 184.057 113.438C179.556 108.28 177.027 101.286 177.027 93.9922C177.027 86.6987 179.556 79.704 184.057 74.5468C188.558 69.3895 194.662 66.4922 201.027 66.4922C207.393 66.4922 213.497 69.3895 217.998 74.5468C222.499 79.704 225.027 86.6987 225.027 93.9922C225.027 101.286 222.499 108.28 217.998 113.438C213.497 118.595 207.393 121.492 201.027 121.492Z" fill="white" stroke="#1A1B22" stroke-width="1.05"/>
<path d="M201.527 113.492C197.151 113.492 192.954 111.438 189.86 107.781C186.766 104.124 185.027 99.1639 185.027 93.9922C185.027 88.8205 186.766 83.8606 189.86 80.2036C192.954 76.5466 197.151 74.4922 201.527 74.4922C205.903 74.4922 210.1 76.5466 213.195 80.2036C216.289 83.8606 218.027 88.8205 218.027 93.9922C218.027 99.1639 216.289 104.124 213.195 107.781C210.1 111.438 205.903 113.492 201.527 113.492Z" fill="#1A1B22" stroke="#1A1B22" stroke-width="1.05"/>
<path d="M201.527 107.492C198.477 107.492 195.552 106.07 193.396 103.538C191.239 101.006 190.027 97.5726 190.027 93.9922C190.027 90.4118 191.239 86.978 193.396 84.4462C195.552 81.9145 198.477 80.4922 201.527 80.4922C204.577 80.4922 207.502 81.9145 209.659 84.4462C211.816 86.978 213.027 90.4118 213.027 93.9922C213.027 97.5726 211.816 101.006 209.659 103.538C207.502 106.07 204.577 107.492 201.527 107.492Z" fill="white" stroke="#1A1B22" stroke-width="1.05"/>
<path d="M201.527 99.4922C200.334 99.4922 199.189 98.9127 198.345 97.8813C197.501 96.8498 197.027 95.4509 197.027 93.9922C197.027 92.5335 197.501 91.1345 198.345 90.1031C199.189 89.0716 200.334 88.4922 201.527 88.4922C202.721 88.4922 203.865 89.0716 204.709 90.1031C205.553 91.1345 206.027 92.5335 206.027 93.9922C206.027 95.4509 205.553 96.8498 204.709 97.8813C203.865 98.9127 202.721 99.4922 201.527 99.4922Z" fill="#1A1B22" stroke="#1A1B22" stroke-width="1.05"/>
<path d="M61.0273 37.1215C61.0273 35.3633 61.6279 33.6771 62.6968 32.4339C63.7658 31.1906 65.2156 30.4922 66.7273 30.4922H188.327C189.839 30.4922 191.289 31.1906 192.358 32.4339C193.427 33.6771 194.027 35.3633 194.027 37.1215V130.863C194.027 132.621 193.427 134.307 192.358 135.55C191.289 136.794 189.839 137.492 188.327 137.492H66.7273C65.2156 137.492 63.7658 136.794 62.6968 135.55C61.6279 134.307 61.0273 132.621 61.0273 130.863V37.1215Z" fill="#1A1B22" stroke="#1A1B22" stroke-width="0.6"/>
<path d="M58.0273 34.0596C58.0273 32.3178 58.6279 30.6474 59.6968 29.4157C60.7658 28.1841 62.2156 27.4922 63.7273 27.4922H185.327C186.839 27.4922 188.289 28.1841 189.358 29.4157C190.427 30.6474 191.027 32.3178 191.027 34.0596V126.925C191.027 128.667 190.427 130.337 189.358 131.569C188.289 132.8 186.839 133.492 185.327 133.492H63.7273C62.2156 133.492 60.7658 132.8 59.6968 131.569C58.6279 130.337 58.0273 128.667 58.0273 126.925V34.0596Z" fill="white" stroke="#1A1B22" stroke-width="0.6"/>
<path fill-rule="evenodd" clip-rule="evenodd" d="M110.814 55.1539H111.068V55.0505L111.059 54.7862C111.044 53.2156 111.05 51.6449 111.078 50.0745C111.147 47.0292 111.323 42.9496 111.763 38.8585C112.223 34.7559 112.937 30.6533 114.091 27.5161C115.255 24.3673 116.801 22.2988 118.855 22.0804C119.853 21.977 120.938 22.5976 122.103 23.8732C122.856 24.7006 123.619 25.7693 124.392 27.0449L125.027 27.1024C124.28 25.7799 123.414 24.5548 122.445 23.448C121.242 22.1379 120.009 21.3794 118.806 21.5059C116.458 21.7587 114.815 24.0915 113.641 27.2862C112.467 30.504 111.734 34.664 111.284 38.7781C110.758 43.7486 110.516 48.7549 110.56 53.7634V53.7979C110.296 53.1773 109.943 52.3844 109.513 51.557C109.032 50.6083 108.475 49.7155 107.85 48.8909C107.283 48.1101 106.565 47.4995 105.757 47.1096C105.364 46.9366 104.94 46.8797 104.524 46.9438C104.108 47.0079 103.712 47.1912 103.37 47.4774C102.578 48.0865 101.824 49.2471 101.11 51.0858C99.7114 54.6943 98.4397 61.0262 97.4909 71.4838L96.4735 70.0129C96.432 69.9519 96.3716 69.9128 96.3055 69.9042C96.2395 69.8956 96.1733 69.9181 96.1214 69.9669C96.0695 70.0157 96.0362 70.0866 96.0289 70.1642C96.0215 70.2418 96.0407 70.3196 96.0822 70.3806L97.4811 72.3917C97.5789 72.5066 97.7256 72.5296 97.8332 72.4261L99.5451 70.7943C99.6429 70.6909 99.6625 70.507 99.5842 70.3806C99.5634 70.3504 99.5377 70.3255 99.5085 70.3074C99.4793 70.2892 99.4473 70.2782 99.4144 70.275C99.3815 70.2718 99.3484 70.2764 99.317 70.2886C99.2857 70.3009 99.2568 70.3204 99.2321 70.3461L97.9897 71.5413C98.9386 61.1067 100.2 54.8436 101.56 51.3271C102.265 49.5344 102.969 48.4887 103.654 47.9485C103.932 47.7137 104.255 47.5635 104.595 47.5114C104.935 47.4593 105.28 47.5068 105.6 47.6498C106.246 47.9256 106.891 48.5116 107.488 49.2816C108.085 50.0516 108.633 50.9709 109.102 51.8558C109.653 52.9273 110.144 54.0406 110.569 55.1884L110.599 55.2459V55.2574L110.824 55.1424L110.814 55.1539ZM110.814 55.1539H111.068C111.081 55.2286 111.069 55.3063 111.033 55.3698C110.997 55.4334 110.941 55.4777 110.878 55.4929C110.814 55.5082 110.748 55.4931 110.694 55.4511C110.64 55.4091 110.602 55.3435 110.589 55.2688L110.814 55.1539Z" fill="#1A1B22"/>
<path d="M58.0273 37.4922H191.027" stroke="#1A1B22" stroke-width="0.6"/>
<path d="M64.5273 34.4922C65.3558 34.4922 66.0273 33.5968 66.0273 32.4922C66.0273 31.3876 65.3558 30.4922 64.5273 30.4922C63.6989 30.4922 63.0273 31.3876 63.0273 32.4922C63.0273 33.5968 63.6989 34.4922 64.5273 34.4922Z" fill="#1A1B22"/>
<path d="M70.5273 34.4922C71.3558 34.4922 72.0273 33.5968 72.0273 32.4922C72.0273 31.3876 71.3558 30.4922 70.5273 30.4922C69.6989 30.4922 69.0273 31.3876 69.0273 32.4922C69.0273 33.5968 69.6989 34.4922 70.5273 34.4922Z" stroke="#1A1B22" stroke-width="0.6"/>
<path d="M75.5273 34.4922C76.3558 34.4922 77.0273 33.5968 77.0273 32.4922C77.0273 31.3876 76.3558 30.4922 75.5273 30.4922C74.6989 30.4922 74.0273 31.3876 74.0273 32.4922C74.0273 33.5968 74.6989 34.4922 75.5273 34.4922Z" stroke="#1A1B22" stroke-width="0.6"/>
<path fill-rule="evenodd" clip-rule="evenodd" d="M181.8 16.4922C178.612 16.4932 175.54 17.8709 173.187 20.3547C170.834 22.8386 169.369 26.2492 169.08 29.917C168.791 33.5849 169.699 37.245 171.626 40.179C173.552 43.113 176.358 45.1089 179.493 45.7748L177.447 52.3915C177.394 52.5542 177.386 52.7326 177.427 52.9003C177.468 53.068 177.554 53.216 177.674 53.3226C177.793 53.4292 177.938 53.4886 178.089 53.492C178.24 53.4955 178.388 53.4428 178.51 53.3417L187.485 46.0182H218.252C221.64 46.0182 224.889 44.4628 227.285 41.6942C229.681 38.9256 231.027 35.1706 231.027 31.2552C231.027 27.3398 229.681 23.5848 227.285 20.8162C224.889 18.0476 221.64 16.4922 218.252 16.4922H181.8Z" fill="#1A1B22"/>
<path d="M191.527 33.4922C192.356 33.4922 193.027 32.5968 193.027 31.4922C193.027 30.3876 192.356 29.4922 191.527 29.4922C190.699 29.4922 190.027 30.3876 190.027 31.4922C190.027 32.5968 190.699 33.4922 191.527 33.4922Z" fill="white"/>
<path d="M199.527 33.4922C200.356 33.4922 201.027 32.5968 201.027 31.4922C201.027 30.3876 200.356 29.4922 199.527 29.4922C198.699 29.4922 198.027 30.3876 198.027 31.4922C198.027 32.5968 198.699 33.4922 199.527 33.4922Z" fill="white"/>
<path d="M208.027 33.4922C209.132 33.4922 210.027 32.5968 210.027 31.4922C210.027 30.3876 209.132 29.4922 208.027 29.4922C206.923 29.4922 206.027 30.3876 206.027 31.4922C206.027 32.5968 206.923 33.4922 208.027 33.4922Z" fill="white"/>
<path d="M60.5273 117.492C70.1923 117.492 78.0273 108.09 78.0273 96.4922C78.0273 84.8942 70.1923 75.4922 60.5273 75.4922C50.8624 75.4922 43.0273 84.8942 43.0273 96.4922C43.0273 108.09 50.8624 117.492 60.5273 117.492Z" fill="#1A1B22"/>
<path d="M58.8769 101.7V101.56C58.8964 100.104 59.0238 98.939 59.2589 98.0652C59.494 97.2031 59.827 96.5041 60.2678 95.9682C60.7086 95.4322 61.2277 94.9429 61.835 94.4886C62.2072 94.2206 62.5403 93.8944 62.8341 93.5216C63.454 92.709 63.7933 91.648 63.7842 90.5508C63.8071 89.8901 63.6708 89.2354 63.3914 88.6637C63.112 88.092 62.7012 87.6271 62.2072 87.3237C61.7324 87.0349 61.2083 86.8795 60.6751 86.8694C60.1419 86.8593 59.6138 86.9948 59.1315 87.2654C58.6516 87.5217 58.25 87.9411 57.9365 88.5004C57.6231 89.0479 57.437 89.7819 57.388 90.6906H55.0273C55.0763 89.3858 55.3506 88.2674 55.8501 87.347C56.3595 86.415 57.0256 85.716 57.8484 85.2266C58.7054 84.7309 59.6478 84.4796 60.6008 84.4927C61.6979 84.4927 62.6578 84.7606 63.4708 85.2965C64.2636 85.8028 64.9191 86.5663 65.3613 87.4984C65.8118 88.4305 66.0273 89.4906 66.0273 90.6906C66.0273 91.5294 65.9294 92.2867 65.7139 92.9624C65.5132 93.6343 65.2075 94.2549 64.8127 94.7915C64.4209 95.3274 63.9606 95.8051 63.412 96.2128C62.8635 96.6322 62.4227 97.0749 62.0897 97.5409C61.7664 98.007 61.5216 98.5545 61.3746 99.1836C61.209 99.9604 61.1267 100.759 61.1297 101.56V101.7H58.8769ZM60.0817 108.492C59.6213 108.492 59.2197 108.282 58.8964 107.875C58.734 107.685 58.6058 107.459 58.5199 107.208C58.434 106.958 58.3921 106.689 58.3969 106.418C58.3969 105.859 58.5634 105.37 58.8867 104.962C59.2197 104.554 59.6213 104.356 60.0817 104.356C60.542 104.356 60.9338 104.554 61.2669 104.962C61.5999 105.37 61.7566 105.859 61.7566 106.418C61.7565 106.778 61.6791 107.132 61.5316 107.446C61.3842 107.76 61.1717 108.024 60.9143 108.213C60.6643 108.397 60.3758 108.494 60.0817 108.492Z" fill="white"/>
<path d="M16.0273 64.4922V81.4922L20.1973 76.8588H34.0273V64.4922H16.0273Z" fill="white" stroke="#1A1B22" stroke-width="0.6"/>
<path d="M24.5273 67.4922V73.4922M22.0273 70.4922H27.0273" stroke="#1A1B22" stroke-width="0.6"/>
<path fill-rule="evenodd" clip-rule="evenodd" d="M232.81 64.1808L230.512 66.5545L228.027 54.4922L237.334 59.4818L235.037 61.8676L238.027 66.1911L235.81 68.4922L232.81 64.1687V64.1808Z" fill="white"/>
<path d="M232.317 64.027L232.547 63.8031L232.347 63.5457L232.126 63.7696L232.327 64.0158L232.317 64.027ZM229.988 66.2204L229.687 66.2987L229.817 66.8247L230.179 66.4778L229.978 66.2204H229.988ZM227.469 55.0741L227.589 54.772L227.027 54.4922L227.178 55.1637L227.469 55.0741ZM236.903 59.6848L237.104 59.9422L237.465 59.6065L237.024 59.3827L236.903 59.6848ZM234.575 61.8895L234.374 61.6321L234.153 61.8559L234.344 62.1133L234.575 61.8895ZM237.606 65.8847L237.807 66.1421L238.027 65.9182L237.837 65.672L237.606 65.8959V65.8847ZM235.358 68.011L235.127 68.2348L235.328 68.4922L235.548 68.2684L235.348 68.011H235.358ZM232.126 63.7584L229.787 65.963L230.189 66.4778L232.517 64.2732L232.116 63.7584H232.126ZM230.279 66.1421L227.76 54.9958L227.168 55.1525L229.697 66.2987L230.279 66.1421ZM227.349 55.3763L236.783 59.9982L237.024 59.3827L227.589 54.772L227.349 55.3763ZM236.713 59.4386L234.374 61.6321L234.776 62.1469L237.104 59.9422L236.703 59.4386H236.713ZM234.344 62.1133L237.375 66.1085L237.837 65.6608L234.806 61.6768L234.344 62.1133ZM237.415 65.6273L235.157 67.7536L235.548 68.2684L237.807 66.1421L237.405 65.6273H237.415ZM235.588 67.7983L232.547 63.8031L232.086 64.2396L235.127 68.2348L235.588 67.7983Z" fill="#1A1B22"/>
<path d="M47.0273 146.492H16.0273V93.4922" stroke="#1A1B22" stroke-width="0.6"/>
<path d="M63.0273 47.8558H85.0273M90.0273 132.492V37.4922M63.0273 51.3104H85.0273M63.0273 54.7649H85.0273M63.0273 58.2195H85.0273M63.0273 61.674H85.0273" stroke="#1A1B22" stroke-width="0.48" stroke-miterlimit="10" stroke-linecap="round" stroke-linejoin="round"/>
<path d="M30.3777 120.639C30.3972 120.443 30.6502 120.443 30.6697 120.639L30.8449 122.364C30.952 123.447 31.3646 124.456 32.0161 125.228C32.6676 126 33.52 126.49 34.4361 126.62L35.896 126.815C36.0711 126.838 36.0711 127.137 35.896 127.16L34.4361 127.367C33.5215 127.496 32.6702 127.985 32.0188 128.755C31.3675 129.525 30.9541 130.531 30.8449 131.612L30.6697 133.337C30.6502 133.544 30.3972 133.544 30.3777 133.337L30.2025 131.612C30.0933 130.531 29.6799 129.525 29.0286 128.755C28.3772 127.985 27.5259 127.496 26.6113 127.367L25.1514 127.16C24.986 127.137 24.986 126.838 25.1514 126.815L26.6113 126.608C27.5276 126.482 28.3812 125.994 29.0345 125.224C29.6878 124.454 30.1026 123.447 30.2123 122.364L30.3777 120.639Z" fill="#1A1B22"/>
<path d="M94.0273 108.492H187.027V118.492H94.0273V108.492Z" fill="white" stroke="#1A1B22" stroke-width="0.6"/>
<path d="M184.987 121.492H187.027V123.832H184.987V121.492ZM182.027 121.492H184.067V123.832H182.027V121.492ZM184.987 125.152H187.027V127.492H184.987V125.152ZM182.027 125.152H184.067V127.492H182.027V125.152Z" fill="#1A1B22"/>
<path d="M118.027 97.4922C118.127 87.0196 127.676 78.4922 139.532 78.4922C151.379 78.4922 160.937 87.0196 161.027 97.4922H118.027Z" fill="#1A1B22" stroke="#1A1B22" stroke-width="0.27"/>
<path d="M155.027 66.9865C155.027 76.6432 148.089 84.4922 139.532 84.4922C130.966 84.4922 124.027 76.6432 124.027 66.9865C124.027 57.3297 130.966 49.4922 139.532 49.4922C148.089 49.4922 155.027 57.3297 155.027 66.9979V66.9865Z" fill="white" stroke="#1A1B22" stroke-width="0.27"/>
<path d="M139.646 49.4922C131.149 49.4922 135.798 59.2311 142.204 63.1993C148.621 67.1564 155.027 66.4419 155.027 66.4419C155.027 57.0767 148.142 49.4922 139.646 49.4922Z" fill="#1A1B22"/>
<path d="M142.234 63.1497C139.008 61.138 136.238 57.6845 135.337 54.7563C134.882 53.281 134.912 51.9845 135.535 51.0457C136.168 50.1069 137.435 49.4922 139.572 49.4922C148.072 49.4922 154.958 57.0698 155.027 66.4467C154.698 66.4803 154.368 66.4952 154.038 66.4915C149.917 66.5254 145.856 65.3796 142.234 63.1609V63.1497Z" stroke="#1A1B22" stroke-width="0.27"/>
<path d="M131.506 59.143C134.562 53.9911 136.147 49.7462 137.027 49.4922C133.35 50.5685 131.123 51.3788 127.87 55.5149C124.607 59.6267 124.027 63.9079 124.027 65.4922C125.042 64.8391 127.259 66.3025 131.506 59.143Z" fill="#1A1B22"/>
<path d="M131.506 59.143C134.562 53.9911 136.147 49.7462 137.027 49.4922C133.35 50.5685 131.123 51.3788 127.87 55.5149C124.607 59.6267 124.027 63.9079 124.027 65.4922C125.042 64.8391 127.259 66.3025 131.506 59.143Z" stroke="#1A1B22" stroke-width="0.27"/>
<path d="M133.027 71.4922C133.58 71.4922 134.027 70.5968 134.027 69.4922C134.027 68.3876 133.58 67.4922 133.027 67.4922C132.475 67.4922 132.027 68.3876 132.027 69.4922C132.027 70.5968 132.475 71.4922 133.027 71.4922Z" fill="#1A1B22"/>
<path d="M145.027 71.4922C145.58 71.4922 146.027 70.5968 146.027 69.4922C146.027 68.3876 145.58 67.4922 145.027 67.4922C144.475 67.4922 144.027 68.3876 144.027 69.4922C144.027 70.5968 144.475 71.4922 145.027 71.4922Z" fill="#1A1B22"/>
<path d="M143.027 72.4922C143.027 74.4813 140.526 75.4922 139.027 75.4922C137.312 75.4922 135.027 74.4813 135.027 72.4922" stroke="#1A1B22" stroke-width="0.48"/>
<path d="M171.588 89.0829C176.737 90.9851 182.291 95.7518 185.027 101.492M170.027 82.516C173.433 82.2895 178.804 83.6935 181.379 86.1731" stroke="#1A1B22" stroke-width="0.6" stroke-linecap="round" stroke-linejoin="round"/>
</g>
<defs>
<clipPath id="clip0_1121_27794">
<rect width="254" height="162" rx="12" fill="white"/>
</clipPath>
</defs>
</svg>
