<svg width="195" height="15" viewBox="0 0 195 15" fill="none" xmlns="http://www.w3.org/2000/svg">
<path d="M10.352 10.4H11.856V14.72H10.144L10 12H2.064L1.904 14.72H0.208V10.4H1.024C1.344 10.112 1.60533 9.712 1.808 9.2C2.02133 8.688 2.18667 8.032 2.304 7.232C2.42133 6.432 2.512 5.48267 2.576 4.384C2.64 3.27467 2.688 1.98933 2.72 0.528H10.352V10.4ZM8.4 10.4V2.208H4.464C4.42133 3.30667 4.368 4.288 4.304 5.152C4.25067 6.00533 4.176 6.768 4.08 7.44C3.984 8.10133 3.86133 8.67733 3.712 9.168C3.56267 9.648 3.376 10.0587 3.152 10.4H8.4ZM15.3019 9.488L19.1419 3.696H20.9659V12H19.1259V6.24L15.3179 12H13.4619V3.696H15.3019V9.488ZM29.1676 9.616C29.1676 10.064 29.0716 10.448 28.8796 10.768C28.6983 11.088 28.4423 11.3547 28.1116 11.568C27.7916 11.7707 27.413 11.92 26.9756 12.016C26.5383 12.112 26.0743 12.16 25.5836 12.16C24.8796 12.16 24.3036 12.0907 23.8556 11.952C23.4076 11.8027 23.061 11.6533 22.8156 11.504V9.984C23.125 10.1867 23.509 10.352 23.9676 10.48C24.437 10.5973 24.9436 10.656 25.4876 10.656C26.053 10.656 26.501 10.5707 26.8316 10.4C27.1623 10.2293 27.3276 9.94133 27.3276 9.536C27.3276 9.152 27.1783 8.88 26.8796 8.72C26.581 8.54933 26.117 8.464 25.4876 8.464H24.3196V7.056H25.5196C26.021 7.056 26.405 6.97067 26.6716 6.8C26.949 6.62933 27.0876 6.37333 27.0876 6.032C27.0876 5.65867 26.933 5.40267 26.6236 5.264C26.325 5.11467 25.9356 5.04 25.4556 5.04C24.933 5.04 24.4636 5.104 24.0476 5.232C23.6316 5.34933 23.2636 5.50933 22.9436 5.712V4.192C23.2103 4.02133 23.573 3.872 24.0316 3.744C24.4903 3.60533 25.0556 3.536 25.7276 3.536C26.7516 3.536 27.5303 3.72267 28.0636 4.096C28.597 4.46933 28.8636 5.01333 28.8636 5.728C28.8636 6.272 28.7143 6.69867 28.4156 7.008C28.117 7.30667 27.6796 7.52533 27.1036 7.664C28.4796 7.87733 29.1676 8.528 29.1676 9.616ZM35.7615 10.544C35.6762 10.736 35.5588 10.928 35.4095 11.12C35.2708 11.312 35.0948 11.488 34.8815 11.648C34.6788 11.7973 34.4335 11.92 34.1455 12.016C33.8575 12.112 33.5215 12.16 33.1375 12.16C32.7748 12.16 32.4388 12.1067 32.1295 12C31.8202 11.904 31.5482 11.7547 31.3135 11.552C31.0895 11.3493 30.9082 11.0987 30.7695 10.8C30.6415 10.4907 30.5775 10.1387 30.5775 9.744C30.5775 8.83733 30.9135 8.16 31.5855 7.712C32.2575 7.25333 33.2068 7.024 34.4335 7.024H35.6975V6.512C35.6975 5.968 35.5588 5.59467 35.2815 5.392C35.0042 5.17867 34.5455 5.072 33.9055 5.072C33.3615 5.072 32.8495 5.152 32.3695 5.312C31.9002 5.46133 31.4842 5.63733 31.1215 5.84V4.288C31.4522 4.10667 31.8895 3.936 32.4335 3.776C32.9775 3.616 33.5695 3.536 34.2095 3.536C35.2762 3.536 36.0975 3.76 36.6735 4.208C37.2602 4.64533 37.5535 5.34933 37.5535 6.32V10.656C37.5535 10.752 37.5535 10.864 37.5535 10.992C37.5642 11.1093 37.5695 11.232 37.5695 11.36C37.5802 11.488 37.5908 11.6107 37.6015 11.728C37.6122 11.8347 37.6228 11.9253 37.6335 12H35.9215C35.8895 11.8507 35.8575 11.6427 35.8255 11.376C35.8042 11.1093 35.7882 10.8693 35.7775 10.656L35.7615 10.544ZM33.6495 10.72C34.0442 10.72 34.3695 10.64 34.6255 10.48C34.8922 10.3093 35.1055 10.1173 35.2655 9.904C35.4255 9.68 35.5375 9.46133 35.6015 9.248C35.6655 9.03467 35.6975 8.88533 35.6975 8.8V8.24H34.5455C33.8095 8.24 33.2708 8.35733 32.9295 8.592C32.5882 8.816 32.4175 9.136 32.4175 9.552C32.4175 9.91467 32.5188 10.2027 32.7215 10.416C32.9348 10.6187 33.2442 10.72 33.6495 10.72ZM43.2996 2.704C42.8516 2.704 42.4623 2.64533 42.1316 2.528C41.8116 2.41067 41.5396 2.25067 41.3156 2.048C41.1023 1.83467 40.9423 1.58933 40.8356 1.312C40.729 1.024 40.6756 0.719999 40.6756 0.4H42.3076C42.3076 0.773333 42.393 1.04533 42.5636 1.216C42.745 1.376 42.9903 1.456 43.2996 1.456C43.609 1.456 43.849 1.376 44.0196 1.216C44.1903 1.04533 44.2756 0.773333 44.2756 0.4H45.9236C45.9236 0.719999 45.8703 1.024 45.7636 1.312C45.657 1.58933 45.4916 1.83467 45.2676 2.048C45.0543 2.25067 44.7823 2.41067 44.4516 2.528C44.121 2.64533 43.737 2.704 43.2996 2.704ZM41.3956 9.488L45.2356 3.696H47.0596V12H45.2196V6.24L41.4116 12H39.5556V3.696H41.3956V9.488ZM54.5094 8.496H51.0054V12H49.1494V3.696H51.0054V6.992H54.5094V3.696H56.3654V12H54.5094V8.496ZM58.2863 6.304H62.2063V7.888H58.2863V6.304ZM68.1296 12.16C67.4576 12.16 66.855 12.064 66.3216 11.872C65.7883 11.6693 65.335 11.3867 64.9616 11.024C64.5883 10.6507 64.3003 10.1973 64.0976 9.664C63.895 9.13067 63.7936 8.52267 63.7936 7.84C63.7936 7.168 63.895 6.56533 64.0976 6.032C64.3003 5.49867 64.5883 5.05067 64.9616 4.688C65.335 4.31467 65.7936 4.032 66.3376 3.84C66.8816 3.63733 67.4896 3.536 68.1616 3.536C68.7376 3.536 69.239 3.6 69.6656 3.728C70.103 3.856 70.4496 4.016 70.7056 4.208V5.744C70.375 5.53067 70.0123 5.36533 69.6176 5.248C69.2336 5.13067 68.7856 5.072 68.2736 5.072C66.5563 5.072 65.6976 5.99467 65.6976 7.84C65.6976 9.68533 66.5403 10.608 68.2256 10.608C68.7696 10.608 69.2336 10.5493 69.6176 10.432C70.0123 10.304 70.375 10.144 70.7056 9.952V11.488C70.4283 11.6693 70.0816 11.8293 69.6656 11.968C69.2496 12.096 68.7376 12.16 68.1296 12.16ZM72.415 3.696H79.471V12H77.615V5.2H74.271V12H72.415V3.696ZM86.1316 12.16C85.5023 12.16 84.9583 12.0213 84.4996 11.744C84.0516 11.456 83.689 11.072 83.4116 10.592V14.832H81.5556V3.696H83.2516L83.3796 5.168C83.657 4.66667 84.025 4.272 84.4836 3.984C84.9423 3.68533 85.5023 3.536 86.1636 3.536C86.6543 3.536 87.1183 3.62667 87.5556 3.808C88.0036 3.97867 88.393 4.24533 88.7236 4.608C89.0543 4.96 89.3156 5.408 89.5076 5.952C89.7103 6.48533 89.8116 7.11467 89.8116 7.84C89.8116 8.576 89.7103 9.216 89.5076 9.76C89.3156 10.2933 89.049 10.7413 88.7076 11.104C88.377 11.456 87.9876 11.7227 87.5396 11.904C87.0916 12.0747 86.6223 12.16 86.1316 12.16ZM85.6836 10.608C86.345 10.608 86.8783 10.384 87.2836 9.936C87.6996 9.47733 87.9076 8.77867 87.9076 7.84C87.9076 6.912 87.6996 6.21867 87.2836 5.76C86.8783 5.30133 86.3503 5.072 85.6996 5.072C85.369 5.072 85.065 5.13067 84.7876 5.248C84.5103 5.35467 84.265 5.52533 84.0516 5.76C83.849 5.99467 83.689 6.288 83.5716 6.64C83.4543 6.98133 83.3956 7.38133 83.3956 7.84C83.3956 8.30933 83.4543 8.72 83.5716 9.072C83.689 9.41333 83.849 9.70133 84.0516 9.936C84.2543 10.16 84.4943 10.3307 84.7716 10.448C85.0596 10.5547 85.3636 10.608 85.6836 10.608ZM93.2238 9.488L97.0638 3.696H98.8878V12H97.0478V6.24L93.2398 12H91.3838V3.696H93.2238V9.488ZM106.338 8.496H102.834V12H100.978V3.696H102.834V6.992H106.338V3.696H108.194V12H106.338V8.496ZM113.986 5.2V12H112.13V5.2H109.618V3.696H116.546V5.2H113.986ZM127.446 8.144L130.854 0.528H133.254V12H131.302V3.376L128.214 10.24L127.142 10.256H126.454L123.43 3.264V12H121.67V0.528H124.262L127.446 8.144ZM140.293 10.544C140.207 10.736 140.09 10.928 139.941 11.12C139.802 11.312 139.626 11.488 139.413 11.648C139.21 11.7973 138.965 11.92 138.677 12.016C138.389 12.112 138.053 12.16 137.669 12.16C137.306 12.16 136.97 12.1067 136.661 12C136.351 11.904 136.079 11.7547 135.845 11.552C135.621 11.3493 135.439 11.0987 135.301 10.8C135.173 10.4907 135.109 10.1387 135.109 9.744C135.109 8.83733 135.445 8.16 136.117 7.712C136.789 7.25333 137.738 7.024 138.965 7.024H140.229V6.512C140.229 5.968 140.09 5.59467 139.813 5.392C139.535 5.17867 139.077 5.072 138.437 5.072C137.893 5.072 137.381 5.152 136.901 5.312C136.431 5.46133 136.015 5.63733 135.653 5.84V4.288C135.983 4.10667 136.421 3.936 136.965 3.776C137.509 3.616 138.101 3.536 138.741 3.536C139.807 3.536 140.629 3.76 141.205 4.208C141.791 4.64533 142.085 5.34933 142.085 6.32V10.656C142.085 10.752 142.085 10.864 142.085 10.992C142.095 11.1093 142.101 11.232 142.101 11.36C142.111 11.488 142.122 11.6107 142.133 11.728C142.143 11.8347 142.154 11.9253 142.165 12H140.453C140.421 11.8507 140.389 11.6427 140.357 11.376C140.335 11.1093 140.319 10.8693 140.309 10.656L140.293 10.544ZM138.181 10.72C138.575 10.72 138.901 10.64 139.157 10.48C139.423 10.3093 139.637 10.1173 139.797 9.904C139.957 9.68 140.069 9.46133 140.133 9.248C140.197 9.03467 140.229 8.88533 140.229 8.8V8.24H139.077C138.341 8.24 137.802 8.35733 137.461 8.592C137.119 8.816 136.949 9.136 136.949 9.552C136.949 9.91467 137.05 10.2027 137.253 10.416C137.466 10.6187 137.775 10.72 138.181 10.72ZM146.823 12.16C146.407 12.16 146.028 12.1227 145.687 12.048C145.356 11.984 145.063 11.904 144.807 11.808C144.551 11.712 144.332 11.6107 144.151 11.504C143.98 11.3973 143.842 11.3013 143.735 11.216V9.744C143.842 9.84 143.986 9.94667 144.167 10.064C144.359 10.1707 144.578 10.2773 144.823 10.384C145.079 10.48 145.367 10.56 145.687 10.624C146.007 10.688 146.364 10.72 146.759 10.72C147.346 10.72 147.772 10.6347 148.039 10.464C148.316 10.2827 148.455 10.0213 148.455 9.68C148.455 9.456 148.402 9.28 148.295 9.152C148.188 9.024 148.044 8.92267 147.863 8.848C147.682 8.77333 147.468 8.72 147.223 8.688C146.988 8.64533 146.743 8.59733 146.487 8.544C146.156 8.48 145.826 8.4 145.495 8.304C145.175 8.19733 144.882 8.05333 144.615 7.872C144.359 7.69067 144.146 7.456 143.975 7.168C143.815 6.88 143.735 6.512 143.735 6.064C143.735 5.27467 144.028 4.656 144.615 4.208C145.202 3.76 146.039 3.536 147.127 3.536C147.746 3.536 148.279 3.6 148.727 3.728C149.186 3.856 149.522 3.98933 149.735 4.128V5.6C149.479 5.42933 149.148 5.28 148.743 5.152C148.338 5.024 147.826 4.96 147.207 4.96C146.599 4.96 146.156 5.04 145.879 5.2C145.602 5.36 145.463 5.61067 145.463 5.952C145.463 6.144 145.511 6.29867 145.607 6.416C145.714 6.52267 145.847 6.608 146.007 6.672C146.178 6.736 146.37 6.78933 146.583 6.832C146.807 6.864 147.036 6.90133 147.271 6.944C147.602 7.008 147.938 7.088 148.279 7.184C148.631 7.26933 148.946 7.408 149.223 7.6C149.511 7.78133 149.746 8.02667 149.927 8.336C150.108 8.64533 150.199 9.04533 150.199 9.536C150.199 10.0373 150.103 10.4587 149.911 10.8C149.719 11.1307 149.463 11.3973 149.143 11.6C148.823 11.8027 148.46 11.9467 148.055 12.032C147.65 12.1173 147.239 12.16 146.823 12.16ZM156.176 11.744C155.984 11.8613 155.744 11.9573 155.456 12.032C155.168 12.1173 154.837 12.16 154.464 12.16C154.016 12.16 153.637 12.1013 153.328 11.984C153.029 11.856 152.784 11.6853 152.592 11.472C152.4 11.2587 152.261 11.0133 152.176 10.736C152.091 10.448 152.048 10.144 152.048 9.824V5.2H151.056V3.696H152.048V1.952H153.904V3.696H156.288V5.2H153.904V9.616C153.904 9.95733 153.984 10.208 154.144 10.368C154.315 10.528 154.592 10.608 154.976 10.608C155.232 10.608 155.456 10.5707 155.648 10.496C155.84 10.4213 156.016 10.32 156.176 10.192V11.744ZM164.765 11.392C164.648 11.4667 164.504 11.552 164.333 11.648C164.163 11.7333 163.96 11.8133 163.725 11.888C163.491 11.9627 163.219 12.0267 162.909 12.08C162.6 12.1333 162.248 12.16 161.853 12.16C160.328 12.16 159.187 11.7813 158.429 11.024C157.683 10.2667 157.309 9.20533 157.309 7.84C157.309 7.168 157.411 6.56533 157.613 6.032C157.816 5.49867 158.099 5.05067 158.461 4.688C158.824 4.31467 159.256 4.032 159.757 3.84C160.259 3.63733 160.808 3.536 161.405 3.536C162.024 3.536 162.579 3.63733 163.069 3.84C163.571 4.04267 163.981 4.34667 164.301 4.752C164.621 5.15733 164.84 5.65867 164.957 6.256C165.085 6.85333 165.091 7.552 164.973 8.352H159.229C159.304 9.10933 159.555 9.68 159.981 10.064C160.408 10.4373 161.075 10.624 161.981 10.624C162.643 10.624 163.192 10.544 163.629 10.384C164.077 10.2133 164.456 10.0373 164.765 9.856V11.392ZM161.405 5.008C160.861 5.008 160.403 5.17333 160.029 5.504C159.656 5.83467 159.411 6.32533 159.293 6.976H163.197C163.219 6.304 163.069 5.808 162.749 5.488C162.429 5.168 161.981 5.008 161.405 5.008ZM171.242 5.488C170.634 5.47733 170.085 5.57333 169.594 5.776C169.103 5.97867 168.73 6.29867 168.474 6.736V12H166.618V3.696H168.314L168.442 5.424H168.474C168.741 4.912 169.103 4.48533 169.562 4.144C170.031 3.80267 170.591 3.6 171.242 3.536V5.488ZM178.727 8.144L182.135 0.528H184.535V12H182.583V3.376L179.495 10.24L178.423 10.256H177.735L174.711 3.264V12H172.951V0.528H175.543L178.727 8.144ZM193.734 11.392C193.617 11.4667 193.473 11.552 193.302 11.648C193.131 11.7333 192.929 11.8133 192.694 11.888C192.459 11.9627 192.187 12.0267 191.878 12.08C191.569 12.1333 191.217 12.16 190.822 12.16C189.297 12.16 188.155 11.7813 187.398 11.024C186.651 10.2667 186.278 9.20533 186.278 7.84C186.278 7.168 186.379 6.56533 186.582 6.032C186.785 5.49867 187.067 5.05067 187.43 4.688C187.793 4.31467 188.225 4.032 188.726 3.84C189.227 3.63733 189.777 3.536 190.374 3.536C190.993 3.536 191.547 3.63733 192.038 3.84C192.539 4.04267 192.95 4.34667 193.27 4.752C193.59 5.15733 193.809 5.65867 193.926 6.256C194.054 6.85333 194.059 7.552 193.942 8.352H188.198C188.273 9.10933 188.523 9.68 188.95 10.064C189.377 10.4373 190.043 10.624 190.95 10.624C191.611 10.624 192.161 10.544 192.598 10.384C193.046 10.2133 193.425 10.0373 193.734 9.856V11.392ZM190.374 5.008C189.83 5.008 189.371 5.17333 188.998 5.504C188.625 5.83467 188.379 6.32533 188.262 6.976H192.166C192.187 6.304 192.038 5.808 191.718 5.488C191.398 5.168 190.95 5.008 190.374 5.008Z" fill="#1A1B22"/>
</svg>
