<svg width="145" height="127" viewBox="0 0 145 127" fill="none" xmlns="http://www.w3.org/2000/svg">
<mask id="path-1-inside-1_1302_2876" fill="white">
<path d="M67.0587 122.358C69.3008 126.165 74.2184 127.452 77.9006 125.01C97.3715 112.098 113.59 94.793 125.222 74.4464C136.854 54.0998 143.538 31.3441 144.786 8.01422C145.022 3.60225 141.418 0.0173187 137 0.0167847L8.99747 0.00164795C2.80792 0.000930786 -1.03783 6.72791 2.10309 12.0613L67.0587 122.358Z"/>
</mask>
<path d="M67.0587 122.358C69.3008 126.165 74.2184 127.452 77.9006 125.01C97.3715 112.098 113.59 94.793 125.222 74.4464C136.854 54.0998 143.538 31.3441 144.786 8.01422C145.022 3.60225 141.418 0.0173187 137 0.0167847L8.99747 0.00164795C2.80792 0.000930786 -1.03783 6.72791 2.10309 12.0613L67.0587 122.358Z" fill="#ACCCFF" stroke="white" stroke-width="4" mask="url(#path-1-inside-1_1302_2876)"/>
</svg>
