<svg width="24" height="24" viewBox="0 0 24 24" fill="none" xmlns="http://www.w3.org/2000/svg">
<path d="M8.28578 5.29305C8.10279 5.48074 8 5.73528 8 6.00068C8 6.26608 8.10279 6.52062 8.28578 6.70831L12.762 11.2984C12.9401 11.4887 13.0396 11.7423 13.0396 12.006C13.0396 12.2698 12.9401 12.5234 12.762 12.7137L8.28578 17.3038C8.10798 17.4925 8.0096 17.7454 8.01182 18.0078C8.01405 18.2702 8.1167 18.5213 8.29767 18.7068C8.47864 18.8924 8.72345 18.9977 8.97937 19C9.23529 19.0022 9.48185 18.9014 9.66594 18.719L14.1422 14.1299C14.4141 13.8511 14.6299 13.5201 14.7771 13.1557C14.9242 12.7914 15 12.4009 15 12.0065C15 11.6122 14.9242 11.2217 14.7771 10.8573C14.6299 10.493 14.4141 10.162 14.1422 9.88315L9.66594 5.29305C9.4829 5.10541 9.23467 5 8.97586 5C8.71704 5 8.46882 5.10541 8.28578 5.29305Z" fill="#1D6BF3"/>
</svg>
