<svg width="40" height="40" viewBox="0 0 40 40" fill="none" xmlns="http://www.w3.org/2000/svg">
<g id="bi:chat-heart-fill">
<path id="Vector" d="M20 37.5C31.045 37.5 40 29.665 40 20C40 10.335 31.045 2.5 20 2.5C8.955 2.5 0 10.335 0 20C0 24.4 1.8575 28.425 4.925 31.5C4.6825 34.04 3.8825 36.825 2.9975 38.915C2.8 39.38 3.1825 39.9 3.68 39.82C9.32 38.895 12.6725 37.475 14.13 36.735C16.0448 37.2457 18.0183 37.5029 20 37.5ZM20 14.9825C24.16 10.705 34.5625 18.19 20 27.8125C5.4375 18.1875 15.84 10.705 20 14.9825Z" fill="white"/>
</g>
</svg>
