<svg width="20" height="20" viewBox="0 0 20 20" fill="none" xmlns="http://www.w3.org/2000/svg">
<path d="M10 6.66537V16.6654M10 6.66537C10.5655 4.47231 12.7012 3.35252 17.3512 3.33204C17.4255 3.33176 17.4992 3.34594 17.5679 3.37376C17.6367 3.40159 17.6991 3.4425 17.7517 3.49414C17.8042 3.54578 17.8459 3.60714 17.8742 3.67466C17.9025 3.74219 17.917 3.81456 17.9167 3.88759V13.8876C17.9167 14.0349 17.8571 14.1762 17.751 14.2804C17.645 14.3846 17.5012 14.4431 17.3512 14.4431C12.8274 14.4431 11.0797 15.3393 10 16.6654C8.92667 15.3459 7.17263 14.4431 2.64882 14.4431C2.29964 14.4431 2.08335 14.1636 2.08335 13.8206V3.88759C2.08307 3.81456 2.0975 3.74219 2.12582 3.67466C2.15414 3.60714 2.19578 3.54578 2.24835 3.49414C2.30091 3.4425 2.36336 3.40159 2.43209 3.37376C2.50083 3.34594 2.57449 3.33176 2.64882 3.33204C7.2988 3.35252 9.43453 4.47231 10 6.66537Z" stroke="white" stroke-width="1.5" stroke-linecap="round" stroke-linejoin="round"/>
</svg>
