<svg width="20" height="20" viewBox="0 0 20 20" fill="none" xmlns="http://www.w3.org/2000/svg">
<g clip-path="url(#clip0_701_5832)">
<path fill-rule="evenodd" clip-rule="evenodd" d="M3.99999 1.33203C3.64637 1.33203 3.30723 1.47251 3.05718 1.72256C2.80713 1.9726 2.66666 2.31174 2.66666 2.66536V17.332C2.66666 17.6857 2.80713 18.0248 3.05718 18.2748C3.30723 18.5249 3.64637 18.6654 3.99999 18.6654H14C14.1768 18.6654 14.3464 18.5951 14.4714 18.4701C14.5964 18.3451 14.6667 18.1755 14.6667 17.9987C14.6667 17.8219 14.5964 17.6523 14.4714 17.5273C14.3464 17.4023 14.1768 17.332 14 17.332H3.99999V2.66536H14C14.1768 2.66536 14.3464 2.59513 14.4714 2.4701C14.5964 2.34508 14.6667 2.17551 14.6667 1.9987C14.6667 1.82189 14.5964 1.65232 14.4714 1.52729C14.3464 1.40227 14.1768 1.33203 14 1.33203H3.99999ZM16.8053 6.5267C16.6801 6.40152 16.5104 6.33119 16.3333 6.33119C16.1563 6.33119 15.9865 6.40152 15.8613 6.5267C15.7361 6.65188 15.6658 6.82166 15.6658 6.9987C15.6658 7.17573 15.7361 7.34552 15.8613 7.4707L17.724 9.33203H8.66666C8.48985 9.33203 8.32028 9.40227 8.19525 9.52729C8.07023 9.65232 7.99999 9.82189 7.99999 9.9987C7.99999 10.1755 8.07023 10.3451 8.19525 10.4701C8.32028 10.5951 8.48985 10.6654 8.66666 10.6654H17.724L15.8613 12.5267C15.7361 12.6519 15.6658 12.8217 15.6658 12.9987C15.6658 13.1757 15.7361 13.3455 15.8613 13.4707C15.9865 13.5959 16.1563 13.6662 16.3333 13.6662C16.5104 13.6662 16.6801 13.5959 16.8053 13.4707L19.8053 10.4707C19.8674 10.4088 19.9167 10.3352 19.9503 10.2542C19.9839 10.1732 20.0012 10.0864 20.0012 9.9987C20.0012 9.91101 19.9839 9.82418 19.9503 9.74319C19.9167 9.66219 19.8674 9.58862 19.8053 9.5267L16.8053 6.5267Z" fill="#B5B5B7"/>
</g>
<defs>
<clipPath id="clip0_701_5832">
<rect width="20" height="20" fill="white"/>
</clipPath>
</defs>
</svg>
