<svg width="20" height="20" viewBox="0 0 20 20" fill="none" xmlns="http://www.w3.org/2000/svg">
<path d="M11.6718 18.9844H8.33198C8.32807 18.9844 8.32416 18.9844 8.32026 18.9844C7.82026 18.9766 7.40229 18.6289 7.30073 18.1406C7.29682 18.1289 7.29682 18.1133 7.29291 18.1016L7.03119 16.2344H7.02729C6.70698 16.0781 6.39448 15.8984 6.10151 15.6914L4.3476 16.3984C4.34369 16.3984 4.33979 16.4023 4.33588 16.4023C3.85932 16.582 3.32416 16.3984 3.06244 15.957C3.06244 15.9531 3.05854 15.9531 3.05854 15.9492L1.38666 13.0586C1.12885 12.6172 1.23041 12.0547 1.62494 11.7266C1.62885 11.7227 1.63276 11.7188 1.63666 11.7148L3.12885 10.543L3.12494 10.5391C3.10932 10.3438 3.10151 10.168 3.10151 9.99609C3.10151 9.82031 3.10932 9.64453 3.12494 9.45703L1.64057 8.29297C1.63276 8.28906 1.62885 8.28516 1.62494 8.27734C1.23823 7.94922 1.14057 7.39062 1.39448 6.95312L3.06635 4.0625C3.06635 4.05859 3.07026 4.05859 3.07026 4.05469C3.33198 3.61719 3.86713 3.42969 4.34369 3.60938C4.3476 3.60938 4.35151 3.61328 4.35541 3.61328L6.10932 4.32031C6.40619 4.11719 6.71479 3.9375 7.0351 3.78125L7.29682 1.91016C7.29682 1.90234 7.30073 1.89453 7.30073 1.89063C7.38276 1.39453 7.81244 1.02734 8.31635 1.01562C8.32026 1.01562 8.32416 1.01562 8.32807 1.01562H11.6679C11.6718 1.01562 11.6757 1.01562 11.6796 1.01562C12.1796 1.02344 12.5976 1.37109 12.6992 1.85937C12.7031 1.87109 12.7031 1.88672 12.707 1.89844L12.9687 3.76562H12.9726C13.2929 3.92188 13.6054 4.10156 13.8984 4.30859L15.6523 3.60156C15.6562 3.60156 15.6601 3.59766 15.664 3.59766C16.1406 3.41406 16.6757 3.60156 16.9374 4.04297C16.9374 4.04688 16.9414 4.04687 16.9414 4.05078L18.6132 6.94141C18.871 7.38281 18.7695 7.94531 18.3749 8.27344C18.371 8.27734 18.3671 8.28125 18.3632 8.28516L16.871 9.45703C16.871 9.46094 16.871 9.46484 16.871 9.46484C16.8867 9.66406 16.8945 9.83984 16.8945 10V10.0039C16.8945 10.1797 16.8867 10.3594 16.871 10.5352L18.3632 11.7031C18.3671 11.707 18.371 11.7109 18.3749 11.7148C18.7695 12.043 18.871 12.6016 18.6132 13.0469L16.9414 15.9375C16.9414 15.9414 16.9374 15.9414 16.9374 15.9453C16.6757 16.3828 16.1406 16.5703 15.664 16.3906C15.6601 16.3906 15.6562 16.3867 15.6523 16.3867L13.8984 15.6797C13.6015 15.8828 13.2929 16.0625 12.9726 16.2188L12.7109 18.0898C12.7109 18.0977 12.707 18.1055 12.707 18.1094C12.621 18.6055 12.1914 18.9727 11.6874 18.9844C11.6796 18.9844 11.6757 18.9844 11.6718 18.9844ZM8.50385 17.7344H11.496L11.7343 16.043C11.7929 15.6328 12.0507 15.2773 12.4257 15.0938C12.6914 14.9648 12.9453 14.8164 13.1874 14.6523C13.5312 14.4141 13.9726 14.3633 14.3671 14.5195L15.9531 15.1562L17.4453 12.5742L15.8203 11.3047C15.6445 11.168 15.5546 10.9453 15.5859 10.7266C15.621 10.4883 15.6367 10.2422 15.6406 10C15.6406 9.87109 15.6328 9.73047 15.621 9.56641C15.582 9.14453 15.7617 8.73437 16.0937 8.47266L17.4414 7.41406L15.9492 4.83203L14.3632 5.46875C13.9726 5.625 13.5312 5.57812 13.1835 5.33594C12.9453 5.16797 12.6914 5.01953 12.4296 4.89453C12.0546 4.71484 11.7929 4.35938 11.7304 3.94531L11.496 2.26562H8.50385L8.26557 3.95703C8.20698 4.36719 7.94916 4.72266 7.57416 4.90625C7.30854 5.03516 7.05463 5.18359 6.81244 5.34766C6.46869 5.58594 6.02729 5.63672 5.63276 5.48047L4.05463 4.84375L2.56244 7.42578L3.90229 8.48047C4.23432 8.74219 4.4101 9.14844 4.37494 9.57031C4.35932 9.72266 4.35541 9.86328 4.35541 10C4.35541 10.1328 4.36323 10.2734 4.37494 10.4336C4.41401 10.8555 4.23823 11.2656 3.90619 11.5273L2.55854 12.5859L4.05073 15.168L5.63276 14.5312C6.02338 14.375 6.46479 14.4219 6.81244 14.6641C7.05073 14.832 7.30463 14.9805 7.56635 15.1055C7.94135 15.2852 8.20307 15.6406 8.26557 16.0547L8.50385 17.7344ZM10.0039 13.125C9.90229 13.125 9.79682 13.1211 9.69526 13.1094C8.86323 13.0273 8.11713 12.625 7.58588 11.9805C7.05463 11.3359 6.80854 10.5234 6.89057 9.69141C7.05854 7.97656 8.59369 6.71875 10.3085 6.88672C11.7851 7.03516 12.9609 8.21484 13.1093 9.6875C13.1289 9.89062 13.1289 10.0977 13.1093 10.3047C12.9492 11.918 11.5898 13.125 10.0039 13.125ZM9.99604 8.125C9.56244 8.125 9.14838 8.27344 8.80854 8.55078C8.42182 8.86719 8.17963 9.31641 8.13276 9.81641C8.08198 10.3164 8.23041 10.8008 8.55073 11.1914C8.86713 11.5781 9.31635 11.8203 9.81635 11.8672C10.8437 11.9687 11.7656 11.2148 11.8671 10.1836C11.8789 10.0625 11.8789 9.9375 11.8671 9.81641C11.7773 8.92969 11.0703 8.22266 10.1835 8.13281C10.121 8.12891 10.0585 8.125 9.99604 8.125Z" fill="#B5B5B7"/>
</svg>
