<svg width="20" height="20" viewBox="0 0 20 20" fill="none" xmlns="http://www.w3.org/2000/svg">
<path d="M6.25 11.25C6.94036 11.25 7.5 10.6904 7.5 10C7.5 9.30964 6.94036 8.75 6.25 8.75C5.55964 8.75 5 9.30964 5 10C5 10.6904 5.55964 11.25 6.25 11.25Z" fill="#B5B5B7"/>
<path d="M10 11.25C10.6904 11.25 11.25 10.6904 11.25 10C11.25 9.30964 10.6904 8.75 10 8.75C9.30964 8.75 8.75 9.30964 8.75 10C8.75 10.6904 9.30964 11.25 10 11.25Z" fill="#B5B5B7"/>
<path d="M13.75 11.25C14.4404 11.25 15 10.6904 15 10C15 9.30964 14.4404 8.75 13.75 8.75C13.0596 8.75 12.5 9.30964 12.5 10C12.5 10.6904 13.0596 11.25 13.75 11.25Z" fill="#B5B5B7"/>
<path fill-rule="evenodd" clip-rule="evenodd" d="M9.9934 2.5C5.82847 2.5 2.48749 5.79179 2.50004 9.81602L2.50004 9.81701V9.81799C2.49999 11.2179 2.90915 12.5871 3.677 13.7573C3.72086 13.8172 3.76189 13.8791 3.79995 13.9429L3.80297 13.9479L3.8059 13.9531C3.86752 14.0608 3.94059 14.206 3.99095 14.3664C4.03703 14.5131 4.09011 14.7523 4.02075 15.0076L4.02039 15.009L3.37485 17.344L5.6072 16.5384C5.82914 16.4471 6.06697 16.4004 6.30707 16.4012C6.30747 16.4012 6.30787 16.4012 6.30827 16.4012L6.3059 17.0262L6.3066 16.4012C6.30676 16.4012 6.30691 16.4012 6.30707 16.4012C6.53186 16.4015 6.75469 16.443 6.96452 16.5236L6.96497 16.5238L6.96542 16.524C7.09212 16.5729 7.5968 16.7604 8.09583 16.9001C8.58642 17.0374 9.49236 17.2039 10.1332 17.2039C14.2774 17.2039 17.4999 13.8765 17.5 9.82405L18.125 9.82383H17.5C17.4998 9.32111 17.4466 8.81982 17.3413 8.32826L17.3411 8.32761L17.341 8.32695C16.6381 5.0133 13.6228 2.5 9.9934 2.5ZM1.25004 9.81894C1.23579 5.07409 5.16647 1.25 9.9934 1.25C14.2058 1.25 17.7364 4.16906 18.5636 8.06667C18.6873 8.64413 18.7498 9.23304 18.75 9.82361V9.82383C18.75 14.5533 14.9812 18.4539 10.1332 18.4539C9.34443 18.4539 8.32069 18.2611 7.75893 18.1038C7.20632 17.9492 6.6609 17.7463 6.51567 17.6903C6.44849 17.6645 6.37716 17.6513 6.3052 17.6512H6.30436L6.30352 17.6512C6.22582 17.6509 6.14886 17.6663 6.07731 17.6966L6.06172 17.7032L3.41095 18.6599C3.3009 18.705 3.18493 18.7342 3.06656 18.7466L3.03323 18.7501L2.99971 18.75C2.86742 18.7496 2.73652 18.723 2.6146 18.6716C2.49267 18.6203 2.38215 18.5452 2.28943 18.4509C2.19671 18.3565 2.12364 18.2447 2.07444 18.1219C2.02525 17.999 2.00091 17.8677 2.00284 17.7354L2.00311 17.7166L2.00452 17.6979C2.01091 17.6124 2.02614 17.5278 2.04993 17.4454L2.79796 14.7396C2.78433 14.6967 2.75829 14.6398 2.72371 14.5787C2.7049 14.5476 2.68459 14.5174 2.66286 14.4882L2.65217 14.4738L2.64232 14.4589C1.73426 13.0818 1.25017 11.4685 1.25004 9.81894Z" fill="#B5B5B7"/>
</svg>
