<svg width="20" height="20" viewBox="0 0 20 20" fill="none" xmlns="http://www.w3.org/2000/svg">
<path fill-rule="evenodd" clip-rule="evenodd" d="M9.68991 1.95735C9.88206 1.84755 10.1179 1.84755 10.3101 1.95735L19.0601 6.95735C19.2548 7.06862 19.375 7.27571 19.375 7.5V14.375C19.375 14.7202 19.0952 15 18.75 15C18.4048 15 18.125 14.7202 18.125 14.375V8.57699L16.25 9.64842V14.375C16.25 14.602 16.1269 14.8111 15.9285 14.9213L10.3035 18.0463C10.1148 18.1512 9.88524 18.1512 9.69647 18.0463L4.07147 14.9213C3.87306 14.8111 3.75 14.602 3.75 14.375V9.64842L0.939913 8.04265C0.745179 7.93138 0.625 7.72429 0.625 7.5C0.625 7.27571 0.745179 7.06862 0.939913 6.95735L9.68991 1.95735ZM5 10.3627V14.0072L9.375 16.4378V12.8627L5 10.3627ZM10.625 12.8627V16.4378L15 14.0072V10.3627L10.625 12.8627ZM10 11.7802L17.4903 7.5L10 3.21984L2.50973 7.5L10 11.7802Z" fill="#B5B5B7"/>
</svg>
