<svg width="160" height="964" viewBox="0 0 160 964" fill="none" xmlns="http://www.w3.org/2000/svg">
<g clip-path="url(#clip0_373_10618)">
<rect width="160" height="964" fill="#1A1B22"/>
<g clip-path="url(#clip1_373_10618)">
<rect x="8" width="144" height="84" rx="4" fill="white"/>
<rect x="16" y="12" width="24" height="24" rx="12" fill="#B5B5B7"/>
<path d="M50.919 24.062C50.919 24.6927 50.8237 25.261 50.633 25.767C50.4423 26.2657 50.1747 26.691 49.83 27.043C49.4853 27.3877 49.0673 27.6517 48.576 27.835C48.092 28.0183 47.553 28.11 46.959 28.11C46.3943 28.11 45.9067 28.0403 45.496 27.901C45.0927 27.7617 44.7847 27.6077 44.572 27.439V26.449C44.9313 26.713 45.3017 26.9 45.683 27.01C46.0717 27.12 46.4713 27.175 46.882 27.175C47.784 27.175 48.477 26.9513 48.961 26.504C49.4523 26.0567 49.7273 25.3747 49.786 24.458H46.079V23.534H49.775C49.7017 22.6687 49.445 22.0233 49.005 21.598C48.565 21.1653 47.9233 20.949 47.08 20.949C46.6693 20.949 46.255 21.004 45.837 21.114C45.4263 21.2167 45.0523 21.3707 44.715 21.576V20.586C44.9717 20.432 45.298 20.3 45.694 20.19C46.09 20.0727 46.5483 20.014 47.069 20.014C47.685 20.014 48.2313 20.1057 48.708 20.289C49.192 20.4723 49.5953 20.74 49.918 21.092C50.248 21.4367 50.4973 21.8583 50.666 22.357C50.8347 22.8557 50.919 23.424 50.919 24.062ZM52.4508 26.229C52.5534 25.855 52.6194 25.349 52.6488 24.711C52.6781 24.073 52.6928 23.2663 52.6928 22.291H56.5318V28H55.5528V23.116H53.6058C53.5984 23.9007 53.5728 24.5973 53.5288 25.206C53.4921 25.8147 53.4078 26.328 53.2758 26.746C53.1511 27.164 52.9641 27.483 52.7148 27.703C52.4728 27.9157 52.1464 28.022 51.7358 28.022C51.7064 28.022 51.6771 28.022 51.6478 28.022C51.6184 28.022 51.5854 28.0183 51.5488 28.011V27.054C51.5854 27.0613 51.6331 27.065 51.6918 27.065C52.0658 27.065 52.3188 26.7863 52.4508 26.229ZM62.3476 26.097C62.3476 26.427 62.2889 26.713 62.1716 26.955C62.0542 27.197 61.8892 27.395 61.6766 27.549C61.4639 27.703 61.2109 27.8167 60.9176 27.89C60.6242 27.9633 60.3052 28 59.9606 28H58.0686V22.291H59.0366V24.282H60.0266C60.7526 24.282 61.3209 24.425 61.7316 24.711C62.1422 24.997 62.3476 25.459 62.3476 26.097ZM59.0366 25.107V27.175H59.9606C60.3786 27.175 60.7159 27.098 60.9726 26.944C61.2366 26.7827 61.3686 26.5187 61.3686 26.152C61.3686 25.778 61.2512 25.5103 61.0166 25.349C60.7819 25.1877 60.4519 25.107 60.0266 25.107H59.0366ZM63.5801 22.291H65.7141C66.4034 22.291 66.9241 22.412 67.2761 22.654C67.6281 22.8887 67.8041 23.259 67.8041 23.765C67.8041 24.1023 67.7161 24.3737 67.5401 24.579C67.3714 24.777 67.1294 24.92 66.8141 25.008C67.6281 25.14 68.0351 25.591 68.0351 26.361C68.0351 26.6543 67.9764 26.9073 67.8591 27.12C67.7418 27.3253 67.5804 27.494 67.3751 27.626C67.1698 27.758 66.9204 27.8533 66.6271 27.912C66.3411 27.9707 66.0294 28 65.6921 28H63.5801V22.291ZM64.5481 23.116V24.667H65.6261C65.9928 24.667 66.2861 24.601 66.5061 24.469C66.7334 24.337 66.8471 24.1463 66.8471 23.897C66.8471 23.5963 66.7481 23.391 66.5501 23.281C66.3521 23.171 66.0698 23.116 65.7031 23.116H64.5481ZM64.5481 25.437V27.175H65.6811C65.8864 27.175 66.0698 27.164 66.2311 27.142C66.3998 27.1127 66.5428 27.065 66.6601 26.999C66.7848 26.933 66.8801 26.845 66.9461 26.735C67.0121 26.625 67.0451 26.4893 67.0451 26.328C67.0451 25.998 66.9314 25.767 66.7041 25.635C66.4768 25.503 66.1358 25.437 65.6811 25.437H64.5481ZM70.4563 26.68L73.5033 22.291H74.4823V28H73.5143V23.622L70.4783 28H69.4883V22.291H70.4563V26.68ZM78.9335 28.11C78.4935 28.11 78.1122 28.0073 77.7895 27.802C77.4742 27.5967 77.2212 27.3143 77.0305 26.955V29.947H76.0625V22.291H76.9095L77.0085 23.402C77.1992 23.028 77.4558 22.731 77.7785 22.511C78.1012 22.291 78.5008 22.181 78.9775 22.181C79.3075 22.181 79.6228 22.2433 79.9235 22.368C80.2315 22.4853 80.4992 22.6687 80.7265 22.918C80.9612 23.16 81.1445 23.468 81.2765 23.842C81.4158 24.2087 81.4855 24.6413 81.4855 25.14C81.4855 25.646 81.4158 26.086 81.2765 26.46C81.1372 26.8267 80.9502 27.1347 80.7155 27.384C80.4808 27.626 80.2095 27.8093 79.9015 27.934C79.5935 28.0513 79.2708 28.11 78.9335 28.11ZM78.7905 27.241C79.2965 27.241 79.7035 27.0687 80.0115 26.724C80.3268 26.372 80.4845 25.844 80.4845 25.14C80.4845 24.4507 80.3268 23.93 80.0115 23.578C79.7035 23.2187 79.2965 23.039 78.7905 23.039C78.5412 23.039 78.3065 23.083 78.0865 23.171C77.8738 23.259 77.6868 23.391 77.5255 23.567C77.3715 23.7357 77.2468 23.952 77.1515 24.216C77.0635 24.48 77.0195 24.788 77.0195 25.14C77.0195 25.492 77.0635 25.8 77.1515 26.064C77.2468 26.328 77.3715 26.548 77.5255 26.724C77.6868 26.9 77.8738 27.032 78.0865 27.12C78.3065 27.2007 78.5412 27.241 78.7905 27.241ZM85.9485 26.911C85.8825 27.043 85.7982 27.1823 85.6955 27.329C85.5928 27.4683 85.4645 27.5967 85.3105 27.714C85.1565 27.8313 84.9732 27.9267 84.7605 28C84.5552 28.0733 84.3132 28.11 84.0345 28.11C83.5212 28.11 83.1068 27.967 82.7915 27.681C82.4762 27.3877 82.3185 26.9697 82.3185 26.427C82.3185 25.8037 82.5348 25.3453 82.9675 25.052C83.4075 24.7587 84.0308 24.612 84.8375 24.612H85.9045V24.139C85.9045 23.743 85.8018 23.4607 85.5965 23.292C85.3912 23.1233 85.0392 23.039 84.5405 23.039C84.1885 23.039 83.8548 23.0977 83.5395 23.215C83.2242 23.325 82.9418 23.4533 82.6925 23.6V22.731C82.8978 22.6063 83.1728 22.4853 83.5175 22.368C83.8695 22.2433 84.2545 22.181 84.6725 22.181C85.3912 22.181 85.9375 22.3313 86.3115 22.632C86.6855 22.9253 86.8725 23.3837 86.8725 24.007V27.076C86.8725 27.142 86.8725 27.219 86.8725 27.307C86.8798 27.3877 86.8835 27.472 86.8835 27.56C86.8908 27.648 86.8982 27.7323 86.9055 27.813C86.9128 27.8863 86.9202 27.9487 86.9275 28H86.0475C86.0255 27.8973 86.0035 27.7543 85.9815 27.571C85.9668 27.3803 85.9595 27.2153 85.9595 27.076L85.9485 26.911ZM84.2435 27.241C84.5442 27.241 84.8008 27.1787 85.0135 27.054C85.2262 26.9293 85.3985 26.7863 85.5305 26.625C85.6625 26.4563 85.7578 26.295 85.8165 26.141C85.8752 25.9797 85.9045 25.866 85.9045 25.8V25.382H84.9365C84.3572 25.382 83.9355 25.4663 83.6715 25.635C83.4148 25.7963 83.2865 26.042 83.2865 26.372C83.2865 26.6287 83.3635 26.8377 83.5175 26.999C83.6715 27.1603 83.9135 27.241 84.2435 27.241Z" fill="#1A1B22"/>
<path d="M19.806 49.07V56H18.761V49.07H16.33V48.113H22.237V49.07H19.806ZM27.1788 55.516C27.0981 55.5747 26.9991 55.637 26.8818 55.703C26.7644 55.769 26.6214 55.835 26.4528 55.901C26.2841 55.9597 26.0934 56.0073 25.8808 56.044C25.6681 56.088 25.4298 56.11 25.1658 56.11C24.2051 56.11 23.4754 55.8497 22.9768 55.329C22.4781 54.8083 22.2288 54.0787 22.2288 53.14C22.2288 52.678 22.2948 52.2637 22.4268 51.897C22.5661 51.5303 22.7568 51.2223 22.9988 50.973C23.2408 50.7163 23.5268 50.522 23.8568 50.39C24.1868 50.2507 24.5461 50.181 24.9348 50.181C25.3454 50.181 25.7121 50.2507 26.0348 50.39C26.3574 50.5293 26.6214 50.7347 26.8268 51.006C27.0394 51.2773 27.1824 51.6147 27.2558 52.018C27.3364 52.414 27.3364 52.876 27.2558 53.404H23.2298C23.2664 54.02 23.4498 54.482 23.7798 54.79C24.1098 55.0907 24.6011 55.241 25.2538 55.241C25.6938 55.241 26.0714 55.1787 26.3868 55.054C26.7021 54.9293 26.9661 54.7937 27.1788 54.647V55.516ZM24.9128 51.039C24.4948 51.039 24.1354 51.1673 23.8348 51.424C23.5341 51.6807 23.3434 52.0693 23.2628 52.59H26.3318C26.3611 52.062 26.2401 51.6733 25.9688 51.424C25.6974 51.1673 25.3454 51.039 24.9128 51.039ZM30.0287 53.569H29.5227V56H28.5547V50.291H29.5227V52.744H30.0727L32.0747 50.291H33.1747L30.8317 53.107L33.2187 56H32.0417L30.0287 53.569ZM37.096 55.934C36.964 56.2787 36.8247 56.5793 36.678 56.836C36.5314 57.1 36.3664 57.3237 36.183 57.507C35.9997 57.6903 35.7944 57.826 35.567 57.914C35.3397 58.0093 35.0794 58.057 34.786 58.057C34.6394 58.057 34.5037 58.046 34.379 58.024C34.2544 58.0093 34.1407 57.98 34.038 57.936V57.001C34.1187 57.0597 34.2214 57.1037 34.346 57.133C34.4707 57.1697 34.6064 57.188 34.753 57.188C35.0244 57.188 35.248 57.122 35.424 56.99C35.6 56.8653 35.7687 56.6637 35.93 56.385L33.609 50.291H34.676L36.491 55.109L38.295 50.291H39.23L37.096 55.934ZM47.3165 55.175H48.1745V57.628H47.3495L47.2285 56H40.1885V50.291H41.1565V55.175H43.2685V50.291H44.2365V55.175H46.3485V50.291H47.3165V55.175ZM50.1584 54.68L53.2054 50.291H54.1844V56H53.2164V51.622L50.1804 56H49.1904V50.291H50.1584V54.68ZM58.2837 49.532C57.9903 49.532 57.7337 49.4953 57.5137 49.422C57.301 49.3413 57.1213 49.235 56.9747 49.103C56.8353 48.9637 56.729 48.806 56.6557 48.63C56.5897 48.4467 56.5567 48.2487 56.5567 48.036H57.5247C57.5247 48.3147 57.5907 48.5163 57.7227 48.641C57.862 48.7657 58.049 48.828 58.2837 48.828C58.5183 48.828 58.7017 48.7657 58.8337 48.641C58.9657 48.5163 59.0317 48.3147 59.0317 48.036H59.9997C59.9997 48.454 59.8567 48.8097 59.5707 49.103C59.292 49.389 58.863 49.532 58.2837 49.532ZM56.7327 54.68L59.7797 50.291H60.7587V56H59.7907V51.622L56.7547 56H55.7647V50.291H56.7327V54.68ZM69.0569 53.14C69.0569 53.6093 68.9909 54.0273 68.8589 54.394C68.7269 54.7607 68.5362 55.0723 68.2869 55.329C68.0375 55.5783 67.7332 55.7727 67.3739 55.912C67.0219 56.044 66.6259 56.11 66.1859 56.11C65.8119 56.11 65.4782 56.066 65.1849 55.978C64.8989 55.89 64.6532 55.7837 64.4479 55.659V54.79C64.6825 54.922 64.9429 55.032 65.2289 55.12C65.5222 55.2007 65.8412 55.241 66.1859 55.241C66.7799 55.241 67.2272 55.098 67.5279 54.812C67.8359 54.5187 68.0119 54.075 68.0559 53.481H65.5919V52.656H68.0449C67.9862 52.1133 67.8102 51.71 67.5169 51.446C67.2309 51.1747 66.7982 51.039 66.2189 51.039C65.9109 51.039 65.6139 51.0793 65.3279 51.16C65.0492 51.2333 64.7925 51.347 64.5579 51.501V50.632C64.7485 50.4853 64.9942 50.3753 65.2949 50.302C65.5955 50.2213 65.9219 50.181 66.2739 50.181C67.1832 50.181 67.8725 50.4413 68.3419 50.962C68.8185 51.4753 69.0569 52.2013 69.0569 53.14ZM72.3723 51.116V56H71.4043V51.116H69.6113V50.291H74.1983V51.116H72.3723ZM78.4983 54.911C78.4323 55.043 78.348 55.1823 78.2453 55.329C78.1426 55.4683 78.0143 55.5967 77.8603 55.714C77.7063 55.8313 77.523 55.9267 77.3103 56C77.105 56.0733 76.863 56.11 76.5843 56.11C76.071 56.11 75.6566 55.967 75.3413 55.681C75.026 55.3877 74.8683 54.9697 74.8683 54.427C74.8683 53.8037 75.0846 53.3453 75.5173 53.052C75.9573 52.7587 76.5806 52.612 77.3873 52.612H78.4543V52.139C78.4543 51.743 78.3516 51.4607 78.1463 51.292C77.941 51.1233 77.589 51.039 77.0903 51.039C76.7383 51.039 76.4046 51.0977 76.0893 51.215C75.774 51.325 75.4916 51.4533 75.2423 51.6V50.731C75.4476 50.6063 75.7226 50.4853 76.0673 50.368C76.4193 50.2433 76.8043 50.181 77.2223 50.181C77.941 50.181 78.4873 50.3313 78.8613 50.632C79.2353 50.9253 79.4223 51.3837 79.4223 52.007V55.076C79.4223 55.142 79.4223 55.219 79.4223 55.307C79.4296 55.3877 79.4333 55.472 79.4333 55.56C79.4406 55.648 79.448 55.7323 79.4553 55.813C79.4626 55.8863 79.47 55.9487 79.4773 56H78.5973C78.5753 55.8973 78.5533 55.7543 78.5313 55.571C78.5166 55.3803 78.5093 55.2153 78.5093 55.076L78.4983 54.911ZM76.7933 55.241C77.094 55.241 77.3506 55.1787 77.5633 55.054C77.776 54.9293 77.9483 54.7863 78.0803 54.625C78.2123 54.4563 78.3076 54.295 78.3663 54.141C78.425 53.9797 78.4543 53.866 78.4543 53.8V53.382H77.4863C76.907 53.382 76.4853 53.4663 76.2213 53.635C75.9646 53.7963 75.8363 54.042 75.8363 54.372C75.8363 54.6287 75.9133 54.8377 76.0673 54.999C76.2213 55.1603 76.4633 55.241 76.7933 55.241ZM80.9443 50.291H85.5203V56H84.5523V51.116H81.9123V56H80.9443V50.291Z" fill="#1A1B22"/>
<path d="M19.025 64.113H20.565L23.392 72H22.292L21.478 69.745H17.991L17.188 72H16.22L19.025 64.113ZM21.148 68.81L19.74 64.883L18.332 68.81H21.148ZM25.8822 69.569H25.3762V72H24.4082V66.291H25.3762V68.744H25.9262L27.9282 66.291H29.0282L26.6852 69.107L29.0722 72H27.8952L25.8822 69.569ZM32.34 72.11C31.9 72.11 31.5003 72.044 31.141 71.912C30.789 71.7727 30.4883 71.5783 30.239 71.329C29.9897 71.0723 29.799 70.7607 29.667 70.394C29.535 70.0273 29.469 69.6093 29.469 69.14C29.469 68.678 29.535 68.2637 29.667 67.897C29.8063 67.5303 30.0007 67.2223 30.25 66.973C30.4993 66.7163 30.8037 66.522 31.163 66.39C31.5223 66.2507 31.9293 66.181 32.384 66.181C32.736 66.181 33.0587 66.2213 33.352 66.302C33.6453 66.3753 33.8873 66.4853 34.078 66.632V67.501C33.8433 67.347 33.5793 67.2333 33.286 67.16C33 67.0793 32.703 67.039 32.395 67.039C31.7277 67.039 31.2363 67.2113 30.921 67.556C30.613 67.9007 30.459 68.4287 30.459 69.14C30.459 69.8513 30.6093 70.3793 30.91 70.724C31.2107 71.0687 31.6873 71.241 32.34 71.241C32.6847 71.241 33 71.2007 33.286 71.12C33.5793 71.032 33.8433 70.922 34.078 70.79V71.659C33.8727 71.7837 33.6233 71.89 33.33 71.978C33.044 72.066 32.714 72.11 32.34 72.11ZM39.919 71.516C39.8383 71.5747 39.7393 71.637 39.622 71.703C39.5047 71.769 39.3617 71.835 39.193 71.901C39.0243 71.9597 38.8337 72.0073 38.621 72.044C38.4083 72.088 38.17 72.11 37.906 72.11C36.9453 72.11 36.2157 71.8497 35.717 71.329C35.2183 70.8083 34.969 70.0787 34.969 69.14C34.969 68.678 35.035 68.2637 35.167 67.897C35.3063 67.5303 35.497 67.2223 35.739 66.973C35.981 66.7163 36.267 66.522 36.597 66.39C36.927 66.2507 37.2863 66.181 37.675 66.181C38.0857 66.181 38.4523 66.2507 38.775 66.39C39.0977 66.5293 39.3617 66.7347 39.567 67.006C39.7797 67.2773 39.9227 67.6147 39.996 68.018C40.0767 68.414 40.0767 68.876 39.996 69.404H35.97C36.0067 70.02 36.19 70.482 36.52 70.79C36.85 71.0907 37.3413 71.241 37.994 71.241C38.434 71.241 38.8117 71.1787 39.127 71.054C39.4423 70.9293 39.7063 70.7937 39.919 70.647V71.516ZM37.653 67.039C37.235 67.039 36.8757 67.1673 36.575 67.424C36.2743 67.6807 36.0837 68.0693 36.003 68.59H39.072C39.1013 68.062 38.9803 67.6733 38.709 67.424C38.4377 67.1673 38.0857 67.039 37.653 67.039ZM41.7349 70.229C41.8376 69.855 41.9036 69.349 41.9329 68.711C41.9623 68.073 41.9769 67.2663 41.9769 66.291H45.8159V72H44.8369V67.116H42.8899C42.8826 67.9007 42.8569 68.5973 42.8129 69.206C42.7763 69.8147 42.6919 70.328 42.5599 70.746C42.4353 71.164 42.2483 71.483 41.9989 71.703C41.7569 71.9157 41.4306 72.022 41.0199 72.022C40.9906 72.022 40.9613 72.022 40.9319 72.022C40.9026 72.022 40.8696 72.0183 40.8329 72.011V71.054C40.8696 71.0613 40.9173 71.065 40.9759 71.065C41.3499 71.065 41.6029 70.7863 41.7349 70.229ZM51.9288 71.516C51.8481 71.5747 51.7491 71.637 51.6318 71.703C51.5144 71.769 51.3714 71.835 51.2028 71.901C51.0341 71.9597 50.8434 72.0073 50.6308 72.044C50.4181 72.088 50.1798 72.11 49.9158 72.11C48.9551 72.11 48.2254 71.8497 47.7268 71.329C47.2281 70.8083 46.9788 70.0787 46.9788 69.14C46.9788 68.678 47.0448 68.2637 47.1768 67.897C47.3161 67.5303 47.5068 67.2223 47.7488 66.973C47.9908 66.7163 48.2768 66.522 48.6068 66.39C48.9368 66.2507 49.2961 66.181 49.6848 66.181C50.0954 66.181 50.4621 66.2507 50.7848 66.39C51.1074 66.5293 51.3714 66.7347 51.5768 67.006C51.7894 67.2773 51.9324 67.6147 52.0058 68.018C52.0864 68.414 52.0864 68.876 52.0058 69.404H47.9798C48.0164 70.02 48.1998 70.482 48.5298 70.79C48.8598 71.0907 49.3511 71.241 50.0038 71.241C50.4438 71.241 50.8214 71.1787 51.1368 71.054C51.4521 70.9293 51.7161 70.7937 51.9288 70.647V71.516ZM49.6628 67.039C49.2448 67.039 48.8854 67.1673 48.5848 67.424C48.2841 67.6807 48.0934 68.0693 48.0128 68.59H51.0818C51.1111 68.062 50.9901 67.6733 50.7188 67.424C50.4474 67.1673 50.0954 67.039 49.6628 67.039ZM56.1757 72.11C55.7357 72.11 55.3544 72.0073 55.0317 71.802C54.7164 71.5967 54.4634 71.3143 54.2727 70.955V73.947H53.3047V66.291H54.1517L54.2507 67.402C54.4414 67.028 54.698 66.731 55.0207 66.511C55.3434 66.291 55.743 66.181 56.2197 66.181C56.5497 66.181 56.865 66.2433 57.1657 66.368C57.4737 66.4853 57.7414 66.6687 57.9687 66.918C58.2034 67.16 58.3867 67.468 58.5187 67.842C58.658 68.2087 58.7277 68.6413 58.7277 69.14C58.7277 69.646 58.658 70.086 58.5187 70.46C58.3794 70.8267 58.1924 71.1347 57.9577 71.384C57.723 71.626 57.4517 71.8093 57.1437 71.934C56.8357 72.0513 56.513 72.11 56.1757 72.11ZM56.0327 71.241C56.5387 71.241 56.9457 71.0687 57.2537 70.724C57.569 70.372 57.7267 69.844 57.7267 69.14C57.7267 68.4507 57.569 67.93 57.2537 67.578C56.9457 67.2187 56.5387 67.039 56.0327 67.039C55.7834 67.039 55.5487 67.083 55.3287 67.171C55.116 67.259 54.929 67.391 54.7677 67.567C54.6137 67.7357 54.489 67.952 54.3937 68.216C54.3057 68.48 54.2617 68.788 54.2617 69.14C54.2617 69.492 54.3057 69.8 54.3937 70.064C54.489 70.328 54.6137 70.548 54.7677 70.724C54.929 70.9 55.116 71.032 55.3287 71.12C55.5487 71.2007 55.7834 71.241 56.0327 71.241ZM63.1907 70.911C63.1247 71.043 63.0404 71.1823 62.9377 71.329C62.835 71.4683 62.7067 71.5967 62.5527 71.714C62.3987 71.8313 62.2154 71.9267 62.0027 72C61.7974 72.0733 61.5554 72.11 61.2767 72.11C60.7634 72.11 60.349 71.967 60.0337 71.681C59.7184 71.3877 59.5607 70.9697 59.5607 70.427C59.5607 69.8037 59.777 69.3453 60.2097 69.052C60.6497 68.7587 61.273 68.612 62.0797 68.612H63.1467V68.139C63.1467 67.743 63.044 67.4607 62.8387 67.292C62.6334 67.1233 62.2814 67.039 61.7827 67.039C61.4307 67.039 61.097 67.0977 60.7817 67.215C60.4664 67.325 60.184 67.4533 59.9347 67.6V66.731C60.14 66.6063 60.415 66.4853 60.7597 66.368C61.1117 66.2433 61.4967 66.181 61.9147 66.181C62.6334 66.181 63.1797 66.3313 63.5537 66.632C63.9277 66.9253 64.1147 67.3837 64.1147 68.007V71.076C64.1147 71.142 64.1147 71.219 64.1147 71.307C64.122 71.3877 64.1257 71.472 64.1257 71.56C64.133 71.648 64.1404 71.7323 64.1477 71.813C64.155 71.8863 64.1624 71.9487 64.1697 72H63.2897C63.2677 71.8973 63.2457 71.7543 63.2237 71.571C63.209 71.3803 63.2017 71.2153 63.2017 71.076L63.1907 70.911ZM61.4857 71.241C61.7864 71.241 62.043 71.1787 62.2557 71.054C62.4684 70.9293 62.6407 70.7863 62.7727 70.625C62.9047 70.4563 63 70.295 63.0587 70.141C63.1174 69.9797 63.1467 69.866 63.1467 69.8V69.382H62.1787C61.5994 69.382 61.1777 69.4663 60.9137 69.635C60.657 69.7963 60.5287 70.042 60.5287 70.372C60.5287 70.6287 60.6057 70.8377 60.7597 70.999C60.9137 71.1603 61.1557 71.241 61.4857 71.241ZM70.2897 72H65.6367V66.291H66.6047V71.175H69.4097V66.291H70.3777V71.175H71.2357V73.628H70.4107L70.2897 72ZM73.2112 70.68L76.2582 66.291H77.2372V72H76.2692V67.622L73.2332 72H72.2432V66.291H73.2112V70.68ZM78.8174 68.139C78.8174 67.8163 78.8761 67.5413 78.9934 67.314C79.1107 67.0793 79.2757 66.8887 79.4884 66.742C79.7011 66.588 79.9541 66.4743 80.2474 66.401C80.5407 66.3277 80.8597 66.291 81.2044 66.291H83.0414V72H82.0734V69.932H81.0284L79.5654 72H78.4104L80.0604 69.69C79.6644 69.5727 79.3564 69.393 79.1364 69.151C78.9237 68.909 78.8174 68.5717 78.8174 68.139ZM82.0734 69.107V67.116H81.2044C80.7937 67.116 80.4564 67.193 80.1924 67.347C79.9284 67.501 79.7964 67.7503 79.7964 68.095C79.7964 68.4543 79.9137 68.7147 80.1484 68.876C80.3831 69.03 80.7167 69.107 81.1494 69.107H82.0734Z" fill="#1D6BF3"/>
<path d="M128.286 53.293C128.103 53.4807 128 53.7353 128 54.0007C128 54.2661 128.103 54.5206 128.286 54.7083L132.762 59.2984C132.94 59.4887 133.04 59.7423 133.04 60.006C133.04 60.2698 132.94 60.5234 132.762 60.7137L128.286 65.3038C128.108 65.4925 128.01 65.7454 128.012 66.0078C128.014 66.2702 128.117 66.5213 128.298 66.7068C128.479 66.8924 128.723 66.9977 128.979 67C129.235 67.0022 129.482 66.9014 129.666 66.719L134.142 62.1299C134.414 61.8511 134.63 61.5201 134.777 61.1557C134.924 60.7914 135 60.4009 135 60.0065C135 59.6122 134.924 59.2217 134.777 58.8573C134.63 58.493 134.414 58.162 134.142 57.8831L129.666 53.293C129.483 53.1054 129.235 53 128.976 53C128.717 53 128.469 53.1054 128.286 53.293Z" fill="#1D6BF3"/>
<path d="M21.5714 121H27.2857V126.714" stroke="#B5B5B7" stroke-width="1.14286" stroke-linecap="round" stroke-linejoin="round"/>
<path d="M27.2857 121L19.2143 129.071C19.0808 129.202 18.9013 129.276 18.7143 129.276C18.5273 129.276 18.3478 129.202 18.2143 129.071L14.9286 125.786C14.7951 125.655 14.6155 125.582 14.4286 125.582C14.2416 125.582 14.0621 125.655 13.9286 125.786L8.71429 131" stroke="#B5B5B7" stroke-width="1.14286" stroke-linecap="round" stroke-linejoin="round"/>
<path d="M36.844 122.18V131H35.514V122.18H32.42V120.962H39.938V122.18H36.844ZM44.1815 131.14C43.6215 131.14 43.1362 131.009 42.7255 130.748C42.3242 130.487 42.0022 130.127 41.7595 129.67V133.478H40.5275V123.734H41.6055L41.7315 125.148C41.9742 124.672 42.3009 124.294 42.7115 124.014C43.1222 123.734 43.6309 123.594 44.2375 123.594C44.6575 123.594 45.0589 123.673 45.4415 123.832C45.8335 123.981 46.1742 124.215 46.4635 124.532C46.7622 124.84 46.9955 125.232 47.1635 125.708C47.3409 126.175 47.4295 126.725 47.4295 127.36C47.4295 128.004 47.3409 128.564 47.1635 129.04C46.9862 129.507 46.7482 129.899 46.4495 130.216C46.1509 130.524 45.8055 130.757 45.4135 130.916C45.0215 131.065 44.6109 131.14 44.1815 131.14ZM43.9995 130.034C44.6435 130.034 45.1615 129.815 45.5535 129.376C45.9549 128.928 46.1555 128.256 46.1555 127.36C46.1555 126.483 45.9549 125.82 45.5535 125.372C45.1615 124.915 44.6435 124.686 43.9995 124.686C43.6822 124.686 43.3835 124.742 43.1035 124.854C42.8329 124.966 42.5949 125.134 42.3895 125.358C42.1935 125.573 42.0349 125.848 41.9135 126.184C41.8015 126.52 41.7455 126.912 41.7455 127.36C41.7455 127.808 41.8015 128.2 41.9135 128.536C42.0349 128.872 42.1935 129.152 42.3895 129.376C42.5949 129.6 42.8329 129.768 43.1035 129.88C43.3835 129.983 43.6822 130.034 43.9995 130.034ZM54.7041 130.384C54.6014 130.459 54.4754 130.538 54.3261 130.622C54.1767 130.706 53.9947 130.79 53.7801 130.874C53.5654 130.949 53.3227 131.009 53.0521 131.056C52.7814 131.112 52.4781 131.14 52.1421 131.14C50.9194 131.14 49.9907 130.809 49.3561 130.146C48.7214 129.483 48.4041 128.555 48.4041 127.36C48.4041 126.772 48.4881 126.245 48.6561 125.778C48.8334 125.311 49.0761 124.919 49.3841 124.602C49.6921 124.275 50.0561 124.028 50.4761 123.86C50.8961 123.683 51.3534 123.594 51.8481 123.594C52.3707 123.594 52.8374 123.683 53.2481 123.86C53.6587 124.037 53.9947 124.299 54.2561 124.644C54.5267 124.989 54.7087 125.419 54.8021 125.932C54.9047 126.436 54.9047 127.024 54.8021 127.696H49.6781C49.7247 128.48 49.9581 129.068 50.3781 129.46C50.7981 129.843 51.4234 130.034 52.2541 130.034C52.8141 130.034 53.2947 129.955 53.6961 129.796C54.0974 129.637 54.4334 129.465 54.7041 129.278V130.384ZM51.8201 124.686C51.2881 124.686 50.8307 124.849 50.4481 125.176C50.0654 125.503 49.8227 125.997 49.7201 126.66H53.6261C53.6634 125.988 53.5094 125.493 53.1641 125.176C52.8187 124.849 52.3707 124.686 51.8201 124.686ZM58.3313 127.906H57.6873V131H56.4553V123.734H57.6873V126.856H58.3873L60.9353 123.734H62.3353L59.3533 127.318L62.3913 131H60.8933L58.3313 127.906ZM70.4179 131.14C69.8579 131.14 69.3725 131.009 68.9619 130.748C68.5605 130.487 68.2385 130.127 67.9959 129.67V133.478H66.7639V123.734H67.8419L67.9679 125.148C68.2105 124.672 68.5372 124.294 68.9479 124.014C69.3585 123.734 69.8672 123.594 70.4739 123.594C70.8939 123.594 71.2952 123.673 71.6779 123.832C72.0699 123.981 72.4105 124.215 72.6999 124.532C72.9985 124.84 73.2319 125.232 73.3999 125.708C73.5772 126.175 73.6659 126.725 73.6659 127.36C73.6659 128.004 73.5772 128.564 73.3999 129.04C73.2225 129.507 72.9845 129.899 72.6859 130.216C72.3872 130.524 72.0419 130.757 71.6499 130.916C71.2579 131.065 70.8472 131.14 70.4179 131.14ZM70.2359 130.034C70.8799 130.034 71.3979 129.815 71.7899 129.376C72.1912 128.928 72.3919 128.256 72.3919 127.36C72.3919 126.483 72.1912 125.82 71.7899 125.372C71.3979 124.915 70.8799 124.686 70.2359 124.686C69.9185 124.686 69.6199 124.742 69.3399 124.854C69.0692 124.966 68.8312 125.134 68.6259 125.358C68.4299 125.573 68.2712 125.848 68.1499 126.184C68.0379 126.52 67.9819 126.912 67.9819 127.36C67.9819 127.808 68.0379 128.2 68.1499 128.536C68.2712 128.872 68.4299 129.152 68.6259 129.376C68.8312 129.6 69.0692 129.768 69.3399 129.88C69.6199 129.983 69.9185 130.034 70.2359 130.034ZM79.346 129.614C79.262 129.782 79.1547 129.959 79.024 130.146C78.8934 130.323 78.73 130.487 78.534 130.636C78.338 130.785 78.1047 130.907 77.834 131C77.5727 131.093 77.2647 131.14 76.91 131.14C76.2567 131.14 75.7294 130.958 75.328 130.594C74.9267 130.221 74.726 129.689 74.726 128.998C74.726 128.205 75.0014 127.621 75.552 127.248C76.112 126.875 76.9054 126.688 77.932 126.688H79.29V126.086C79.29 125.582 79.1594 125.223 78.898 125.008C78.6367 124.793 78.1887 124.686 77.554 124.686C77.106 124.686 76.6814 124.761 76.28 124.91C75.8787 125.05 75.5194 125.213 75.202 125.4V124.294C75.4634 124.135 75.8134 123.981 76.252 123.832C76.7 123.673 77.19 123.594 77.722 123.594C78.6367 123.594 79.332 123.785 79.808 124.168C80.284 124.541 80.522 125.125 80.522 125.918V129.824C80.522 129.908 80.522 130.006 80.522 130.118C80.5314 130.221 80.536 130.328 80.536 130.44C80.5454 130.552 80.5547 130.659 80.564 130.762C80.5734 130.855 80.5827 130.935 80.592 131H79.472C79.444 130.869 79.416 130.687 79.388 130.454C79.3694 130.211 79.36 130.001 79.36 129.824L79.346 129.614ZM77.176 130.034C77.5587 130.034 77.8854 129.955 78.156 129.796C78.4267 129.637 78.646 129.455 78.814 129.25C78.982 129.035 79.1034 128.83 79.178 128.634C79.2527 128.429 79.29 128.284 79.29 128.2V127.668H78.058C77.3207 127.668 76.784 127.775 76.448 127.99C76.1214 128.195 75.958 128.508 75.958 128.928C75.958 129.255 76.056 129.521 76.252 129.726C76.448 129.931 76.756 130.034 77.176 130.034ZM87.6112 128.886C87.6112 129.297 87.5272 129.647 87.3592 129.936C87.2005 130.216 86.9812 130.449 86.7012 130.636C86.4212 130.813 86.0945 130.939 85.7212 131.014C85.3572 131.098 84.9745 131.14 84.5732 131.14C84.0412 131.14 83.5698 131.084 83.1592 130.972C82.7578 130.86 82.4405 130.725 82.2072 130.566V129.46C82.4965 129.637 82.8418 129.777 83.2432 129.88C83.6445 129.983 84.0785 130.034 84.5452 130.034C85.0772 130.034 85.5205 129.95 85.8752 129.782C86.2392 129.605 86.4212 129.306 86.4212 128.886C86.4212 128.475 86.2672 128.186 85.9592 128.018C85.6605 127.85 85.1985 127.766 84.5732 127.766H83.6072V126.772H84.6152C85.1285 126.772 85.5205 126.679 85.7912 126.492C86.0618 126.305 86.1972 126.035 86.1972 125.68C86.1972 125.493 86.1505 125.339 86.0572 125.218C85.9732 125.087 85.8565 124.985 85.7072 124.91C85.5578 124.826 85.3805 124.77 85.1752 124.742C84.9792 124.705 84.7692 124.686 84.5452 124.686C84.1158 124.686 83.7145 124.737 83.3412 124.84C82.9772 124.943 82.6458 125.087 82.3472 125.274V124.168C82.5898 124.009 82.9025 123.874 83.2852 123.762C83.6772 123.65 84.1298 123.594 84.6432 123.594C85.5298 123.594 86.1972 123.762 86.6452 124.098C87.1025 124.434 87.3312 124.919 87.3312 125.554C87.3312 126.03 87.2005 126.403 86.9392 126.674C86.6872 126.945 86.3278 127.131 85.8612 127.234C86.4398 127.309 86.8738 127.491 87.1632 127.78C87.4618 128.069 87.6112 128.438 87.6112 128.886ZM89.4182 123.734H92.1342C93.0115 123.734 93.6742 123.888 94.1222 124.196C94.5702 124.495 94.7942 124.966 94.7942 125.61C94.7942 126.039 94.6822 126.385 94.4582 126.646C94.2435 126.898 93.9355 127.08 93.5342 127.192C94.5702 127.36 95.0882 127.934 95.0882 128.914C95.0882 129.287 95.0135 129.609 94.8642 129.88C94.7148 130.141 94.5095 130.356 94.2482 130.524C93.9868 130.692 93.6695 130.813 93.2962 130.888C92.9322 130.963 92.5355 131 92.1062 131H89.4182V123.734ZM90.6502 124.784V126.758H92.0222C92.4888 126.758 92.8622 126.674 93.1422 126.506C93.4315 126.338 93.5762 126.095 93.5762 125.778C93.5762 125.395 93.4502 125.134 93.1982 124.994C92.9462 124.854 92.5868 124.784 92.1202 124.784H90.6502ZM90.6502 127.738V129.95H92.0922C92.3535 129.95 92.5868 129.936 92.7922 129.908C93.0068 129.871 93.1888 129.81 93.3382 129.726C93.4968 129.642 93.6182 129.53 93.7022 129.39C93.7862 129.25 93.8282 129.077 93.8282 128.872C93.8282 128.452 93.6835 128.158 93.3942 127.99C93.1048 127.822 92.6708 127.738 92.0922 127.738H90.6502ZM98.1697 129.32L102.048 123.734H103.294V131H102.062V125.428L98.1977 131H96.9377V123.734H98.1697V129.32ZM108.231 124.784V131H106.999V124.784H104.717V123.734H110.555V124.784H108.231ZM113.209 129.32L117.087 123.734H118.333V131H117.101V125.428L113.237 131H111.977V123.734H113.209V129.32ZM120.344 126.086C120.344 125.675 120.419 125.325 120.568 125.036C120.717 124.737 120.927 124.495 121.198 124.308C121.469 124.112 121.791 123.967 122.164 123.874C122.537 123.781 122.943 123.734 123.382 123.734H125.72V131H124.488V128.368H123.158L121.296 131H119.826L121.926 128.06C121.422 127.911 121.03 127.682 120.75 127.374C120.479 127.066 120.344 126.637 120.344 126.086ZM124.488 127.318V124.784H123.382C122.859 124.784 122.43 124.882 122.094 125.078C121.758 125.274 121.59 125.591 121.59 126.03C121.59 126.487 121.739 126.819 122.038 127.024C122.337 127.22 122.761 127.318 123.312 127.318H124.488Z" fill="#B5B5B7"/>
<path d="M24.875 157H21.75V156.375C21.7479 155.878 21.5497 155.403 21.1986 155.051C20.8474 154.7 20.3716 154.502 19.875 154.5H16.125C15.6284 154.502 15.1526 154.7 14.8014 155.051C14.4503 155.403 14.2521 155.878 14.25 156.375V157H11.125C10.7935 157 10.4755 157.132 10.2411 157.366C10.0067 157.601 9.875 157.918 9.875 158.25V168.25C9.875 168.582 10.0067 168.899 10.2411 169.134C10.4755 169.368 10.7935 169.5 11.125 169.5H24.875C25.2065 169.5 25.5245 169.368 25.7589 169.134C25.9933 168.899 26.125 168.582 26.125 168.25V158.25C26.125 157.918 25.9933 157.601 25.7589 157.366C25.5245 157.132 25.2065 157 24.875 157ZM15.5 156.375C15.5 156.209 15.5658 156.05 15.6831 155.933C15.8003 155.816 15.9592 155.75 16.125 155.75H19.875C20.0408 155.75 20.1997 155.816 20.3169 155.933C20.4342 156.05 20.5 156.209 20.5 156.375V157H15.5V156.375ZM24.875 158.25V163.875H11.125V158.25H24.875ZM24.875 168.25H11.125V165.125H24.875V168.25Z" fill="#B5B5B7"/>
<path d="M33.176 156.962H36.578C37.6793 156.962 38.5147 157.149 39.084 157.522C39.6627 157.895 39.952 158.525 39.952 159.412C39.952 159.776 39.9007 160.093 39.798 160.364C39.7047 160.625 39.5693 160.854 39.392 161.05C39.224 161.237 39.014 161.391 38.762 161.512C38.5193 161.633 38.2487 161.727 37.95 161.792C38.734 161.885 39.322 162.114 39.714 162.478C40.1153 162.833 40.316 163.374 40.316 164.102C40.316 164.625 40.218 165.073 40.022 165.446C39.8353 165.81 39.574 166.109 39.238 166.342C38.902 166.566 38.5053 166.734 38.048 166.846C37.5907 166.949 37.0913 167 36.55 167H33.176V156.962ZM34.492 158.166V161.246H36.48C36.7973 161.246 37.0867 161.213 37.348 161.148C37.6093 161.073 37.8333 160.966 38.02 160.826C38.2067 160.677 38.3513 160.495 38.454 160.28C38.566 160.056 38.622 159.79 38.622 159.482C38.622 158.969 38.4447 158.623 38.09 158.446C37.7353 158.259 37.2313 158.166 36.578 158.166H34.492ZM34.492 162.436V165.81H36.55C36.9047 165.81 37.2267 165.782 37.516 165.726C37.8053 165.67 38.0527 165.577 38.258 165.446C38.4727 165.315 38.636 165.143 38.748 164.928C38.8693 164.713 38.93 164.447 38.93 164.13C38.93 163.495 38.7247 163.057 38.314 162.814C37.9127 162.562 37.2733 162.436 36.396 162.436H34.492ZM46.2874 165.614C46.2034 165.782 46.0961 165.959 45.9654 166.146C45.8348 166.323 45.6714 166.487 45.4754 166.636C45.2794 166.785 45.0461 166.907 44.7754 167C44.5141 167.093 44.2061 167.14 43.8514 167.14C43.1981 167.14 42.6708 166.958 42.2694 166.594C41.8681 166.221 41.6674 165.689 41.6674 164.998C41.6674 164.205 41.9428 163.621 42.4934 163.248C43.0534 162.875 43.8468 162.688 44.8734 162.688H46.2314V162.086C46.2314 161.582 46.1008 161.223 45.8394 161.008C45.5781 160.793 45.1301 160.686 44.4954 160.686C44.0474 160.686 43.6228 160.761 43.2214 160.91C42.8201 161.05 42.4608 161.213 42.1434 161.4V160.294C42.4048 160.135 42.7548 159.981 43.1934 159.832C43.6414 159.673 44.1314 159.594 44.6634 159.594C45.5781 159.594 46.2734 159.785 46.7494 160.168C47.2254 160.541 47.4634 161.125 47.4634 161.918V165.824C47.4634 165.908 47.4634 166.006 47.4634 166.118C47.4728 166.221 47.4774 166.328 47.4774 166.44C47.4868 166.552 47.4961 166.659 47.5054 166.762C47.5148 166.855 47.5241 166.935 47.5334 167H46.4134C46.3854 166.869 46.3574 166.687 46.3294 166.454C46.3108 166.211 46.3014 166.001 46.3014 165.824L46.2874 165.614ZM44.1174 166.034C44.5001 166.034 44.8268 165.955 45.0974 165.796C45.3681 165.637 45.5874 165.455 45.7554 165.25C45.9234 165.035 46.0448 164.83 46.1194 164.634C46.1941 164.429 46.2314 164.284 46.2314 164.2V163.668H44.9994C44.2621 163.668 43.7254 163.775 43.3894 163.99C43.0628 164.195 42.8994 164.508 42.8994 164.928C42.8994 165.255 42.9974 165.521 43.1934 165.726C43.3894 165.931 43.6974 166.034 44.1174 166.034ZM51.2766 163.906H50.6326V167H49.4006V159.734H50.6326V162.856H51.3326L53.8806 159.734H55.2806L52.2986 163.318L55.3366 167H53.8386L51.2766 163.906ZM60.7523 165.614C60.6683 165.782 60.5609 165.959 60.4303 166.146C60.2996 166.323 60.1363 166.487 59.9403 166.636C59.7443 166.785 59.5109 166.907 59.2403 167C58.9789 167.093 58.6709 167.14 58.3163 167.14C57.6629 167.14 57.1356 166.958 56.7343 166.594C56.3329 166.221 56.1323 165.689 56.1323 164.998C56.1323 164.205 56.4076 163.621 56.9583 163.248C57.5183 162.875 58.3116 162.688 59.3383 162.688H60.6963V162.086C60.6963 161.582 60.5656 161.223 60.3043 161.008C60.0429 160.793 59.5949 160.686 58.9603 160.686C58.5123 160.686 58.0876 160.761 57.6863 160.91C57.2849 161.05 56.9256 161.213 56.6083 161.4V160.294C56.8696 160.135 57.2196 159.981 57.6583 159.832C58.1063 159.673 58.5963 159.594 59.1283 159.594C60.0429 159.594 60.7383 159.785 61.2143 160.168C61.6903 160.541 61.9283 161.125 61.9283 161.918V165.824C61.9283 165.908 61.9283 166.006 61.9283 166.118C61.9376 166.221 61.9423 166.328 61.9423 166.44C61.9516 166.552 61.9609 166.659 61.9703 166.762C61.9796 166.855 61.9889 166.935 61.9983 167H60.8783C60.8503 166.869 60.8223 166.687 60.7943 166.454C60.7756 166.211 60.7663 166.001 60.7663 165.824L60.7523 165.614ZM58.5823 166.034C58.9649 166.034 59.2916 165.955 59.5623 165.796C59.8329 165.637 60.0523 165.455 60.2203 165.25C60.3883 165.035 60.5096 164.83 60.5843 164.634C60.6589 164.429 60.6963 164.284 60.6963 164.2V163.668H59.4643C58.7269 163.668 58.1903 163.775 57.8543 163.99C57.5276 164.195 57.3643 164.508 57.3643 164.928C57.3643 165.255 57.4623 165.521 57.6583 165.726C57.8543 165.931 58.1623 166.034 58.5823 166.034ZM68.6114 163.78H65.0974V167H63.8654V159.734H65.0974V162.73H68.6114V159.734H69.8434V167H68.6114V163.78ZM74.9995 167.14C74.4395 167.14 73.9308 167.056 73.4735 166.888C73.0255 166.711 72.6428 166.463 72.3255 166.146C72.0081 165.819 71.7655 165.423 71.5975 164.956C71.4295 164.489 71.3455 163.957 71.3455 163.36C71.3455 162.772 71.4295 162.245 71.5975 161.778C71.7748 161.311 72.0221 160.919 72.3395 160.602C72.6568 160.275 73.0441 160.028 73.5015 159.86C73.9588 159.683 74.4768 159.594 75.0555 159.594C75.5035 159.594 75.9141 159.645 76.2875 159.748C76.6608 159.841 76.9688 159.981 77.2115 160.168V161.274C76.9128 161.078 76.5768 160.933 76.2035 160.84C75.8395 160.737 75.4615 160.686 75.0695 160.686C74.2201 160.686 73.5948 160.905 73.1935 161.344C72.8015 161.783 72.6055 162.455 72.6055 163.36C72.6055 164.265 72.7968 164.937 73.1795 165.376C73.5621 165.815 74.1688 166.034 74.9995 166.034C75.4381 166.034 75.8395 165.983 76.2035 165.88C76.5768 165.768 76.9128 165.628 77.2115 165.46V166.566C76.9501 166.725 76.6328 166.86 76.2595 166.972C75.8955 167.084 75.4755 167.14 74.9995 167.14ZM80.0955 165.32L83.9735 159.734H85.2195V167H83.9875V161.428L80.1235 167H78.8635V159.734H80.0955V165.32ZM88.4627 165.32L92.3407 159.734H93.5867V167H92.3547V161.428L88.4907 167H87.2307V159.734H88.4627V165.32Z" fill="#B5B5B7"/>
<path fill-rule="evenodd" clip-rule="evenodd" d="M17.6899 189.957C17.8821 189.848 18.1179 189.848 18.3101 189.957L27.0601 194.957C27.2548 195.069 27.375 195.276 27.375 195.5V202.375C27.375 202.72 27.0952 203 26.75 203C26.4048 203 26.125 202.72 26.125 202.375V196.577L24.25 197.648V202.375C24.25 202.602 24.1269 202.811 23.9285 202.921L18.3035 206.046C18.1148 206.151 17.8852 206.151 17.6965 206.046L12.0715 202.921C11.8731 202.811 11.75 202.602 11.75 202.375V197.648L8.93991 196.043C8.74518 195.931 8.625 195.724 8.625 195.5C8.625 195.276 8.74518 195.069 8.93991 194.957L17.6899 189.957ZM13 198.363V202.007L17.375 204.438V200.863L13 198.363ZM18.625 200.863V204.438L23 202.007V198.363L18.625 200.863ZM18 199.78L25.4903 195.5L18 191.22L10.5097 195.5L18 199.78Z" fill="#B5B5B7"/>
<path d="M38.132 200.004L41.394 192.962H43.102V203H41.772V194.922L38.692 201.46L38.034 201.474H37.446L37.46 201.46L34.422 194.81V203H33.176V192.962H35.01L38.132 200.004ZM49.5277 201.614C49.4437 201.782 49.3363 201.959 49.2057 202.146C49.075 202.323 48.9117 202.487 48.7157 202.636C48.5197 202.785 48.2863 202.907 48.0157 203C47.7543 203.093 47.4463 203.14 47.0917 203.14C46.4383 203.14 45.911 202.958 45.5097 202.594C45.1083 202.221 44.9077 201.689 44.9077 200.998C44.9077 200.205 45.183 199.621 45.7337 199.248C46.2937 198.875 47.087 198.688 48.1137 198.688H49.4717V198.086C49.4717 197.582 49.341 197.223 49.0797 197.008C48.8183 196.793 48.3703 196.686 47.7357 196.686C47.2877 196.686 46.863 196.761 46.4617 196.91C46.0603 197.05 45.701 197.213 45.3837 197.4V196.294C45.645 196.135 45.995 195.981 46.4337 195.832C46.8817 195.673 47.3717 195.594 47.9037 195.594C48.8183 195.594 49.5137 195.785 49.9897 196.168C50.4657 196.541 50.7037 197.125 50.7037 197.918V201.824C50.7037 201.908 50.7037 202.006 50.7037 202.118C50.713 202.221 50.7177 202.328 50.7177 202.44C50.727 202.552 50.7363 202.659 50.7457 202.762C50.755 202.855 50.7643 202.935 50.7737 203H49.6537C49.6257 202.869 49.5977 202.687 49.5697 202.454C49.551 202.211 49.5417 202.001 49.5417 201.824L49.5277 201.614ZM47.3577 202.034C47.7403 202.034 48.067 201.955 48.3377 201.796C48.6083 201.637 48.8277 201.455 48.9957 201.25C49.1637 201.035 49.285 200.83 49.3597 200.634C49.4343 200.429 49.4717 200.284 49.4717 200.2V199.668H48.2397C47.5023 199.668 46.9657 199.775 46.6297 199.99C46.303 200.195 46.1397 200.508 46.1397 200.928C46.1397 201.255 46.2377 201.521 46.4337 201.726C46.6297 201.931 46.9377 202.034 47.3577 202.034ZM55.7768 203.14C55.2168 203.14 54.7081 203.056 54.2508 202.888C53.8028 202.711 53.4201 202.463 53.1028 202.146C52.7855 201.819 52.5428 201.423 52.3748 200.956C52.2068 200.489 52.1228 199.957 52.1228 199.36C52.1228 198.772 52.2068 198.245 52.3748 197.778C52.5521 197.311 52.7995 196.919 53.1168 196.602C53.4341 196.275 53.8215 196.028 54.2788 195.86C54.7361 195.683 55.2541 195.594 55.8328 195.594C56.2808 195.594 56.6915 195.645 57.0648 195.748C57.4381 195.841 57.7461 195.981 57.9888 196.168V197.274C57.6901 197.078 57.3541 196.933 56.9808 196.84C56.6168 196.737 56.2388 196.686 55.8468 196.686C54.9975 196.686 54.3721 196.905 53.9708 197.344C53.5788 197.783 53.3828 198.455 53.3828 199.36C53.3828 200.265 53.5741 200.937 53.9568 201.376C54.3395 201.815 54.9461 202.034 55.7768 202.034C56.2155 202.034 56.6168 201.983 56.9808 201.88C57.3541 201.768 57.6901 201.628 57.9888 201.46V202.566C57.7275 202.725 57.4101 202.86 57.0368 202.972C56.6728 203.084 56.2528 203.14 55.7768 203.14ZM62.5668 196.784V203H61.3348V196.784H59.0528V195.734H64.8908V196.784H62.5668ZM71.8896 202.384C71.7869 202.459 71.6609 202.538 71.5116 202.622C71.3623 202.706 71.1803 202.79 70.9656 202.874C70.7509 202.949 70.5083 203.009 70.2376 203.056C69.9669 203.112 69.6636 203.14 69.3276 203.14C68.1049 203.14 67.1763 202.809 66.5416 202.146C65.9069 201.483 65.5896 200.555 65.5896 199.36C65.5896 198.772 65.6736 198.245 65.8416 197.778C66.0189 197.311 66.2616 196.919 66.5696 196.602C66.8776 196.275 67.2416 196.028 67.6616 195.86C68.0816 195.683 68.5389 195.594 69.0336 195.594C69.5563 195.594 70.0229 195.683 70.4336 195.86C70.8443 196.037 71.1803 196.299 71.4416 196.644C71.7123 196.989 71.8943 197.419 71.9876 197.932C72.0903 198.436 72.0903 199.024 71.9876 199.696H66.8636C66.9103 200.48 67.1436 201.068 67.5636 201.46C67.9836 201.843 68.6089 202.034 69.4396 202.034C69.9996 202.034 70.4803 201.955 70.8816 201.796C71.2829 201.637 71.6189 201.465 71.8896 201.278V202.384ZM69.0056 196.686C68.4736 196.686 68.0163 196.849 67.6336 197.176C67.2509 197.503 67.0083 197.997 66.9056 198.66H70.8116C70.8489 197.988 70.6949 197.493 70.3496 197.176C70.0043 196.849 69.5563 196.686 69.0056 196.686ZM77.2948 203.14C76.7348 203.14 76.2495 203.009 75.8388 202.748C75.4375 202.487 75.1155 202.127 74.8728 201.67V205.478H73.6408V195.734H74.7188L74.8448 197.148C75.0875 196.672 75.4141 196.294 75.8248 196.014C76.2355 195.734 76.7441 195.594 77.3508 195.594C77.7708 195.594 78.1721 195.673 78.5548 195.832C78.9468 195.981 79.2875 196.215 79.5768 196.532C79.8755 196.84 80.1088 197.232 80.2768 197.708C80.4541 198.175 80.5428 198.725 80.5428 199.36C80.5428 200.004 80.4541 200.564 80.2768 201.04C80.0995 201.507 79.8615 201.899 79.5628 202.216C79.2641 202.524 78.9188 202.757 78.5268 202.916C78.1348 203.065 77.7241 203.14 77.2948 203.14ZM77.1128 202.034C77.7568 202.034 78.2748 201.815 78.6668 201.376C79.0681 200.928 79.2688 200.256 79.2688 199.36C79.2688 198.483 79.0681 197.82 78.6668 197.372C78.2748 196.915 77.7568 196.686 77.1128 196.686C76.7955 196.686 76.4968 196.742 76.2168 196.854C75.9461 196.966 75.7081 197.134 75.5028 197.358C75.3068 197.573 75.1481 197.848 75.0268 198.184C74.9148 198.52 74.8588 198.912 74.8588 199.36C74.8588 199.808 74.9148 200.2 75.0268 200.536C75.1481 200.872 75.3068 201.152 75.5028 201.376C75.7081 201.6 75.9461 201.768 76.2168 201.88C76.4968 201.983 76.7955 202.034 77.1128 202.034ZM85.1713 203.14C84.6113 203.14 84.1027 203.056 83.6453 202.888C83.1973 202.711 82.8147 202.463 82.4973 202.146C82.18 201.819 81.9373 201.423 81.7693 200.956C81.6013 200.489 81.5173 199.957 81.5173 199.36C81.5173 198.772 81.6013 198.245 81.7693 197.778C81.9467 197.311 82.194 196.919 82.5113 196.602C82.8287 196.275 83.216 196.028 83.6733 195.86C84.1307 195.683 84.6487 195.594 85.2273 195.594C85.6753 195.594 86.086 195.645 86.4593 195.748C86.8327 195.841 87.1407 195.981 87.3833 196.168V197.274C87.0847 197.078 86.7487 196.933 86.3753 196.84C86.0113 196.737 85.6333 196.686 85.2413 196.686C84.392 196.686 83.7667 196.905 83.3653 197.344C82.9733 197.783 82.7773 198.455 82.7773 199.36C82.7773 200.265 82.9687 200.937 83.3513 201.376C83.734 201.815 84.3407 202.034 85.1713 202.034C85.61 202.034 86.0113 201.983 86.3753 201.88C86.7487 201.768 87.0847 201.628 87.3833 201.46V202.566C87.122 202.725 86.8047 202.86 86.4313 202.972C86.0673 203.084 85.6473 203.14 85.1713 203.14ZM90.9113 199.906H90.2673V203H89.0353V195.734H90.2673V198.856H90.9673L93.5153 195.734H94.9153L91.9333 199.318L94.9713 203H93.4733L90.9113 199.906ZM100.387 201.614C100.303 201.782 100.196 201.959 100.065 202.146C99.9344 202.323 99.771 202.487 99.575 202.636C99.379 202.785 99.1457 202.907 98.875 203C98.6137 203.093 98.3057 203.14 97.951 203.14C97.2977 203.14 96.7704 202.958 96.369 202.594C95.9677 202.221 95.767 201.689 95.767 200.998C95.767 200.205 96.0424 199.621 96.593 199.248C97.153 198.875 97.9464 198.688 98.973 198.688H100.331V198.086C100.331 197.582 100.2 197.223 99.939 197.008C99.6777 196.793 99.2297 196.686 98.595 196.686C98.147 196.686 97.7224 196.761 97.321 196.91C96.9197 197.05 96.5604 197.213 96.243 197.4V196.294C96.5044 196.135 96.8544 195.981 97.293 195.832C97.741 195.673 98.231 195.594 98.763 195.594C99.6777 195.594 100.373 195.785 100.849 196.168C101.325 196.541 101.563 197.125 101.563 197.918V201.824C101.563 201.908 101.563 202.006 101.563 202.118C101.572 202.221 101.577 202.328 101.577 202.44C101.586 202.552 101.596 202.659 101.605 202.762C101.614 202.855 101.624 202.935 101.633 203H100.513C100.485 202.869 100.457 202.687 100.429 202.454C100.41 202.211 100.401 202.001 100.401 201.824L100.387 201.614ZM98.217 202.034C98.5997 202.034 98.9264 201.955 99.197 201.796C99.4677 201.637 99.687 201.455 99.855 201.25C100.023 201.035 100.144 200.83 100.219 200.634C100.294 200.429 100.331 200.284 100.331 200.2V199.668H99.099C98.3617 199.668 97.825 199.775 97.489 199.99C97.1624 200.195 96.999 200.508 96.999 200.928C96.999 201.255 97.097 201.521 97.293 201.726C97.489 201.931 97.797 202.034 98.217 202.034ZM103.5 198.086C103.5 197.675 103.575 197.325 103.724 197.036C103.874 196.737 104.084 196.495 104.354 196.308C104.625 196.112 104.947 195.967 105.32 195.874C105.694 195.781 106.1 195.734 106.538 195.734H108.876V203H107.644V200.368H106.314L104.452 203H102.982L105.082 200.06C104.578 199.911 104.186 199.682 103.906 199.374C103.636 199.066 103.5 198.637 103.5 198.086ZM107.644 199.318V196.784H106.538C106.016 196.784 105.586 196.882 105.25 197.078C104.914 197.274 104.746 197.591 104.746 198.03C104.746 198.487 104.896 198.819 105.194 199.024C105.493 199.22 105.918 199.318 106.468 199.318H107.644Z" fill="#B5B5B7"/>
<path d="M0 225H160V223H0V225ZM160 291H0V293H160V291Z" fill="#B5B5B7" mask="url(#path-13-inside-1_373_10618)"/>
<path d="M18 254.665V264.665M18 254.665C18.5655 252.472 20.7012 251.353 25.3512 251.332C25.4255 251.332 25.4992 251.346 25.5679 251.374C25.6367 251.402 25.6991 251.442 25.7517 251.494C25.8042 251.546 25.8459 251.607 25.8742 251.675C25.9025 251.742 25.917 251.815 25.9167 251.888V261.888C25.9167 262.035 25.8571 262.176 25.751 262.28C25.645 262.385 25.5012 262.443 25.3512 262.443C20.8274 262.443 19.0797 263.339 18 264.665C16.9267 263.346 15.1726 262.443 10.6488 262.443C10.2996 262.443 10.0833 262.164 10.0833 261.821V251.888C10.0831 251.815 10.0975 251.742 10.1258 251.675C10.1541 251.607 10.1958 251.546 10.2483 251.494C10.3009 251.442 10.3634 251.402 10.4321 251.374C10.5008 251.346 10.5745 251.332 10.6488 251.332C15.2988 251.353 17.4345 252.472 18 254.665Z" stroke="white" stroke-width="1.5" stroke-linecap="round" stroke-linejoin="round"/>
<path d="M40.834 261.81H42.122V265.38H40.904L40.764 263H33.554L33.4 265.38H32.21V261.81H32.896C33.2133 261.521 33.4653 261.133 33.652 260.648C33.848 260.153 33.9973 259.547 34.1 258.828C34.2027 258.109 34.2773 257.265 34.324 256.294C34.3707 255.323 34.408 254.213 34.436 252.962H40.834V261.81ZM39.504 261.81V254.166H35.668C35.64 255.23 35.598 256.173 35.542 256.994C35.4953 257.806 35.4207 258.52 35.318 259.136C35.2247 259.752 35.1033 260.279 34.954 260.718C34.814 261.147 34.6367 261.511 34.422 261.81H39.504ZM48.4317 259.78H44.9177V263H43.6857V255.734H44.9177V258.73H48.4317V255.734H49.6637V263H48.4317V259.78ZM57.4658 262.384C57.3631 262.459 57.2371 262.538 57.0878 262.622C56.9384 262.706 56.7564 262.79 56.5418 262.874C56.3271 262.949 56.0844 263.009 55.8138 263.056C55.5431 263.112 55.2398 263.14 54.9038 263.14C53.6811 263.14 52.7524 262.809 52.1178 262.146C51.4831 261.483 51.1658 260.555 51.1658 259.36C51.1658 258.772 51.2498 258.245 51.4178 257.778C51.5951 257.311 51.8378 256.919 52.1458 256.602C52.4538 256.275 52.8178 256.028 53.2378 255.86C53.6578 255.683 54.1151 255.594 54.6098 255.594C55.1324 255.594 55.5991 255.683 56.0098 255.86C56.4204 256.037 56.7564 256.299 57.0178 256.644C57.2884 256.989 57.4704 257.419 57.5638 257.932C57.6664 258.436 57.6664 259.024 57.5638 259.696H52.4398C52.4864 260.48 52.7198 261.068 53.1398 261.46C53.5598 261.843 54.1851 262.034 55.0158 262.034C55.5758 262.034 56.0564 261.955 56.4578 261.796C56.8591 261.637 57.1951 261.465 57.4658 261.278V262.384ZM54.5818 256.686C54.0498 256.686 53.5924 256.849 53.2098 257.176C52.8271 257.503 52.5844 257.997 52.4818 258.66H56.3878C56.4251 257.988 56.2711 257.493 55.9258 257.176C55.5804 256.849 55.1324 256.686 54.5818 256.686ZM59.217 255.734H61.933C62.8103 255.734 63.473 255.888 63.921 256.196C64.369 256.495 64.593 256.966 64.593 257.61C64.593 258.039 64.481 258.385 64.257 258.646C64.0423 258.898 63.7343 259.08 63.333 259.192C64.369 259.36 64.887 259.934 64.887 260.914C64.887 261.287 64.8123 261.609 64.663 261.88C64.5137 262.141 64.3083 262.356 64.047 262.524C63.7857 262.692 63.4683 262.813 63.095 262.888C62.731 262.963 62.3343 263 61.905 263H59.217V255.734ZM60.449 256.784V258.758H61.821C62.2877 258.758 62.661 258.674 62.941 258.506C63.2303 258.338 63.375 258.095 63.375 257.778C63.375 257.395 63.249 257.134 62.997 256.994C62.745 256.854 62.3857 256.784 61.919 256.784H60.449ZM60.449 259.738V261.95H61.891C62.1523 261.95 62.3857 261.936 62.591 261.908C62.8057 261.871 62.9877 261.81 63.137 261.726C63.2957 261.642 63.417 261.53 63.501 261.39C63.585 261.25 63.627 261.077 63.627 260.872C63.627 260.452 63.4823 260.158 63.193 259.99C62.9037 259.822 62.4697 259.738 61.891 259.738H60.449ZM71.4825 259.78H67.9685V263H66.7365V255.734H67.9685V258.73H71.4825V255.734H72.7145V263H71.4825V259.78ZM75.9666 261.32L79.8446 255.734H81.0906V263H79.8586V257.428L75.9946 263H74.7346V255.734H75.9666V261.32ZM84.9778 259.906H84.3338V263H83.1018V255.734H84.3338V258.856H85.0338L87.5818 255.734H88.9818L85.9998 259.318L89.0378 263H87.5398L84.9778 259.906Z" fill="white"/>
<path d="M23.8333 318C23.8333 316.375 23.2672 314.996 22.135 313.864C21.0033 312.733 19.625 312.167 18 312.167V310.5C19.0417 310.5 20.0175 310.698 20.9275 311.093C21.8369 311.489 22.6286 312.024 23.3025 312.697C23.9758 313.371 24.5106 314.163 24.9067 315.073C25.3022 315.983 25.5 316.958 25.5 318H23.8333ZM20.5 318C20.5 317.306 20.2569 316.715 19.7708 316.229C19.2847 315.743 18.6944 315.5 18 315.5V313.833C19.1528 313.833 20.1356 314.239 20.9483 315.052C21.7606 315.864 22.1667 316.847 22.1667 318H20.5ZM24.625 325.5C22.8333 325.5 21.0869 325.101 19.3858 324.302C17.6842 323.503 16.1772 322.448 14.865 321.135C13.5522 319.823 12.4967 318.316 11.6983 316.614C10.8994 314.913 10.5 313.167 10.5 311.375C10.5 311.125 10.5833 310.917 10.75 310.75C10.9167 310.583 11.125 310.5 11.375 310.5H14.75C14.9444 310.5 15.1181 310.562 15.2708 310.687C15.4236 310.812 15.5139 310.972 15.5417 311.167L16.0833 314.083C16.1111 314.278 16.1078 314.455 16.0733 314.614C16.0383 314.774 15.9583 314.917 15.8333 315.042L13.8125 317.083C14.3958 318.083 15.1286 319.021 16.0108 319.896C16.8925 320.771 17.8611 321.528 18.9167 322.167L20.875 320.208C21 320.083 21.1633 319.989 21.365 319.927C21.5661 319.864 21.7639 319.847 21.9583 319.875L24.8333 320.458C25.0278 320.5 25.1875 320.594 25.3125 320.739C25.4375 320.885 25.5 321.056 25.5 321.25V324.625C25.5 324.875 25.4167 325.083 25.25 325.25C25.0833 325.417 24.875 325.5 24.625 325.5ZM13.0208 315.5L14.3958 314.125L14.0417 312.167H12.1875C12.2569 312.736 12.3542 313.299 12.4792 313.854C12.6042 314.41 12.7847 314.958 13.0208 315.5ZM20.4792 322.958C21.0208 323.194 21.5731 323.382 22.1358 323.521C22.6981 323.66 23.2639 323.75 23.8333 323.792V321.958L21.875 321.562L20.4792 322.958Z" fill="#B5B5B7"/>
<path d="M35.556 318.702H34.492V323H33.176V312.962H34.492V317.512H35.472L39.056 312.962H40.54L36.578 317.974L40.694 323H39.056L35.556 318.702ZM44.6033 323.14C44.1086 323.14 43.6466 323.056 43.2173 322.888C42.7879 322.72 42.4146 322.477 42.0973 322.16C41.7893 321.833 41.5466 321.437 41.3693 320.97C41.1919 320.503 41.1033 319.967 41.1033 319.36C41.1033 318.763 41.1919 318.231 41.3693 317.764C41.5466 317.288 41.7893 316.891 42.0973 316.574C42.4146 316.257 42.7879 316.014 43.2173 315.846C43.6466 315.678 44.1086 315.594 44.6033 315.594C45.1073 315.594 45.5739 315.678 46.0033 315.846C46.4326 316.014 46.8013 316.257 47.1093 316.574C47.4266 316.891 47.6739 317.288 47.8513 317.764C48.0379 318.231 48.1313 318.763 48.1313 319.36C48.1313 319.967 48.0379 320.503 47.8513 320.97C47.6739 321.437 47.4266 321.833 47.1093 322.16C46.8013 322.477 46.4326 322.72 46.0033 322.888C45.5739 323.056 45.1073 323.14 44.6033 323.14ZM44.6033 322.034C44.9299 322.034 45.2286 321.983 45.4993 321.88C45.7793 321.768 46.0219 321.605 46.2273 321.39C46.4326 321.166 46.5913 320.886 46.7033 320.55C46.8153 320.214 46.8713 319.817 46.8713 319.36C46.8713 318.903 46.8153 318.506 46.7033 318.17C46.5913 317.834 46.4326 317.559 46.2273 317.344C46.0219 317.12 45.7793 316.957 45.4993 316.854C45.2286 316.742 44.9299 316.686 44.6033 316.686C44.2766 316.686 43.9779 316.742 43.7073 316.854C43.4366 316.957 43.1986 317.12 42.9933 317.344C42.7973 317.559 42.6433 317.834 42.5313 318.17C42.4193 318.506 42.3633 318.903 42.3633 319.36C42.3633 319.817 42.4193 320.214 42.5313 320.55C42.6433 320.886 42.7973 321.166 42.9933 321.39C43.1986 321.605 43.4366 321.768 43.7073 321.88C43.9779 321.983 44.2766 322.034 44.6033 322.034ZM54.379 319.78H50.865V323H49.633V315.734H50.865V318.73H54.379V315.734H55.611V323H54.379V319.78ZM60.557 316.784V323H59.325V316.784H57.043V315.734H62.881V316.784H60.557ZM68.3538 321.614C68.2698 321.782 68.1625 321.959 68.0318 322.146C67.9012 322.323 67.7378 322.487 67.5418 322.636C67.3458 322.785 67.1125 322.907 66.8418 323C66.5805 323.093 66.2725 323.14 65.9178 323.14C65.2645 323.14 64.7372 322.958 64.3358 322.594C63.9345 322.221 63.7338 321.689 63.7338 320.998C63.7338 320.205 64.0092 319.621 64.5598 319.248C65.1198 318.875 65.9132 318.688 66.9398 318.688H68.2978V318.086C68.2978 317.582 68.1672 317.223 67.9058 317.008C67.6445 316.793 67.1965 316.686 66.5618 316.686C66.1138 316.686 65.6892 316.761 65.2878 316.91C64.8865 317.05 64.5272 317.213 64.2098 317.4V316.294C64.4712 316.135 64.8212 315.981 65.2598 315.832C65.7078 315.673 66.1978 315.594 66.7298 315.594C67.6445 315.594 68.3398 315.785 68.8158 316.168C69.2918 316.541 69.5298 317.125 69.5298 317.918V321.824C69.5298 321.908 69.5298 322.006 69.5298 322.118C69.5392 322.221 69.5438 322.328 69.5438 322.44C69.5532 322.552 69.5625 322.659 69.5718 322.762C69.5812 322.855 69.5905 322.935 69.5998 323H68.4798C68.4518 322.869 68.4238 322.687 68.3958 322.454C68.3772 322.211 68.3678 322.001 68.3678 321.824L68.3538 321.614ZM66.1838 322.034C66.5665 322.034 66.8932 321.955 67.1638 321.796C67.4345 321.637 67.6538 321.455 67.8218 321.25C67.9898 321.035 68.1112 320.83 68.1858 320.634C68.2605 320.429 68.2978 320.284 68.2978 320.2V319.668H67.0658C66.3285 319.668 65.7918 319.775 65.4558 319.99C65.1292 320.195 64.9658 320.508 64.9658 320.928C64.9658 321.255 65.0638 321.521 65.2598 321.726C65.4558 321.931 65.7638 322.034 66.1838 322.034ZM73.343 319.906H72.699V323H71.467V315.734H72.699V318.856H73.399L75.947 315.734H77.347L74.365 319.318L77.403 323H75.905L73.343 319.906ZM81.6254 316.784V323H80.3934V316.784H78.1114V315.734H83.9494V316.784H81.6254ZM90.7473 320.578C90.7473 320.998 90.6726 321.362 90.5233 321.67C90.3739 321.978 90.1639 322.23 89.8933 322.426C89.6226 322.622 89.3006 322.767 88.9273 322.86C88.5539 322.953 88.1479 323 87.7093 323H85.3713V315.734H86.6033V318.268H87.7933C88.7173 318.268 89.4406 318.45 89.9633 318.814C90.4859 319.178 90.7473 319.766 90.7473 320.578ZM93.0293 323H91.7973V315.734H93.0293V323ZM86.6033 319.318V321.95H87.7093C88.2413 321.95 88.6706 321.852 88.9973 321.656C89.3333 321.451 89.5013 321.115 89.5013 320.648C89.5013 320.172 89.3519 319.831 89.0533 319.626C88.7546 319.421 88.3346 319.318 87.7933 319.318H86.6033Z" fill="#B5B5B7"/>
<path d="M14.25 355.25C14.9404 355.25 15.5 354.69 15.5 354C15.5 353.31 14.9404 352.75 14.25 352.75C13.5596 352.75 13 353.31 13 354C13 354.69 13.5596 355.25 14.25 355.25Z" fill="#B5B5B7"/>
<path d="M18 355.25C18.6904 355.25 19.25 354.69 19.25 354C19.25 353.31 18.6904 352.75 18 352.75C17.3096 352.75 16.75 353.31 16.75 354C16.75 354.69 17.3096 355.25 18 355.25Z" fill="#B5B5B7"/>
<path d="M21.75 355.25C22.4404 355.25 23 354.69 23 354C23 353.31 22.4404 352.75 21.75 352.75C21.0596 352.75 20.5 353.31 20.5 354C20.5 354.69 21.0596 355.25 21.75 355.25Z" fill="#B5B5B7"/>
<path fill-rule="evenodd" clip-rule="evenodd" d="M17.9934 346.5C13.8285 346.5 10.4875 349.792 10.5 353.816L10.5 353.817V353.818C10.5 355.218 10.9091 356.587 11.677 357.757C11.7209 357.817 11.7619 357.879 11.7999 357.943L11.803 357.948L11.8059 357.953C11.8675 358.061 11.9406 358.206 11.9909 358.366C12.037 358.513 12.0901 358.752 12.0208 359.008L12.0204 359.009L11.3749 361.344L13.6072 360.538C13.8291 360.447 14.067 360.4 14.3071 360.401C14.3075 360.401 14.3079 360.401 14.3083 360.401L14.3059 361.026L14.3066 360.401C14.3068 360.401 14.3069 360.401 14.3071 360.401C14.5319 360.401 14.7547 360.443 14.9645 360.524L14.965 360.524L14.9654 360.524C15.0921 360.573 15.5968 360.76 16.0958 360.9C16.5864 361.037 17.4924 361.204 18.1332 361.204C22.2774 361.204 25.4999 357.877 25.5 353.824L26.125 353.824H25.5C25.4998 353.321 25.4466 352.82 25.3413 352.328L25.3411 352.328L25.341 352.327C24.6381 349.013 21.6228 346.5 17.9934 346.5ZM9.25004 353.819C9.23579 349.074 13.1665 345.25 17.9934 345.25C22.2058 345.25 25.7364 348.169 26.5636 352.067C26.6873 352.644 26.7498 353.233 26.75 353.824V353.824C26.75 358.553 22.9812 362.454 18.1332 362.454C17.3444 362.454 16.3207 362.261 15.7589 362.104C15.2063 361.949 14.6609 361.746 14.5157 361.69C14.4485 361.665 14.3772 361.651 14.3052 361.651H14.3044L14.3035 361.651C14.2258 361.651 14.1489 361.666 14.0773 361.697L14.0617 361.703L11.411 362.66C11.3009 362.705 11.1849 362.734 11.0666 362.747L11.0332 362.75L10.9997 362.75C10.8674 362.75 10.7365 362.723 10.6146 362.672C10.4927 362.62 10.3821 362.545 10.2894 362.451C10.1967 362.356 10.1236 362.245 10.0744 362.122C10.0252 361.999 10.0009 361.868 10.0028 361.735L10.0031 361.717L10.0045 361.698C10.0109 361.612 10.0261 361.528 10.0499 361.445L10.798 358.74C10.7843 358.697 10.7583 358.64 10.7237 358.579C10.7049 358.548 10.6846 358.517 10.6629 358.488L10.6522 358.474L10.6423 358.459C9.73426 357.082 9.25017 355.468 9.25004 353.819Z" fill="#B5B5B7"/>
<path d="M33.792 355.962C33.932 355.262 34.0253 354.333 34.072 353.176C34.1187 352.019 34.1513 350.614 34.17 348.962H40.358V359H39.028V350.166H35.416C35.388 351.538 35.3507 352.719 35.304 353.708C35.2573 354.697 35.1687 355.542 35.038 356.242C34.954 356.615 34.8513 356.975 34.73 357.32C34.6087 357.656 34.4453 357.955 34.24 358.216C34.044 358.477 33.8013 358.687 33.512 358.846C33.2227 358.995 32.8773 359.07 32.476 359.07C32.448 359.07 32.4153 359.065 32.378 359.056C32.35 359.056 32.3173 359.056 32.28 359.056V357.726C32.3173 357.735 32.3733 357.74 32.448 357.74C32.84 357.731 33.134 357.563 33.33 357.236C33.5353 356.9 33.6893 356.475 33.792 355.962ZM48.3056 358.384C48.203 358.459 48.077 358.538 47.9276 358.622C47.7783 358.706 47.5963 358.79 47.3816 358.874C47.167 358.949 46.9243 359.009 46.6536 359.056C46.383 359.112 46.0796 359.14 45.7436 359.14C44.521 359.14 43.5923 358.809 42.9576 358.146C42.323 357.483 42.0056 356.555 42.0056 355.36C42.0056 354.772 42.0896 354.245 42.2576 353.778C42.435 353.311 42.6776 352.919 42.9856 352.602C43.2936 352.275 43.6576 352.028 44.0776 351.86C44.4976 351.683 44.955 351.594 45.4496 351.594C45.9723 351.594 46.439 351.683 46.8496 351.86C47.2603 352.037 47.5963 352.299 47.8576 352.644C48.1283 352.989 48.3103 353.419 48.4036 353.932C48.5063 354.436 48.5063 355.024 48.4036 355.696H43.2796C43.3263 356.48 43.5596 357.068 43.9796 357.46C44.3996 357.843 45.025 358.034 45.8556 358.034C46.4156 358.034 46.8963 357.955 47.2976 357.796C47.699 357.637 48.035 357.465 48.3056 357.278V358.384ZM45.4216 352.686C44.8896 352.686 44.4323 352.849 44.0496 353.176C43.667 353.503 43.4243 353.997 43.3216 354.66H47.2276C47.265 353.988 47.111 353.493 46.7656 353.176C46.4203 352.849 45.9723 352.686 45.4216 352.686ZM54.8028 355.78H51.2888V359H50.0568V351.734H51.2888V354.73H54.8028V351.734H56.0348V359H54.8028V355.78ZM60.9809 352.784V359H59.7489V352.784H57.4669V351.734H63.3049V352.784H60.9809ZM68.7777 357.614C68.6937 357.782 68.5863 357.959 68.4557 358.146C68.325 358.323 68.1617 358.487 67.9657 358.636C67.7697 358.785 67.5363 358.907 67.2657 359C67.0043 359.093 66.6963 359.14 66.3417 359.14C65.6883 359.14 65.161 358.958 64.7597 358.594C64.3583 358.221 64.1577 357.689 64.1577 356.998C64.1577 356.205 64.433 355.621 64.9837 355.248C65.5437 354.875 66.337 354.688 67.3637 354.688H68.7217V354.086C68.7217 353.582 68.591 353.223 68.3297 353.008C68.0683 352.793 67.6203 352.686 66.9857 352.686C66.5377 352.686 66.113 352.761 65.7117 352.91C65.3103 353.05 64.951 353.213 64.6337 353.4V352.294C64.895 352.135 65.245 351.981 65.6837 351.832C66.1317 351.673 66.6217 351.594 67.1537 351.594C68.0683 351.594 68.7637 351.785 69.2397 352.168C69.7157 352.541 69.9537 353.125 69.9537 353.918V357.824C69.9537 357.908 69.9537 358.006 69.9537 358.118C69.963 358.221 69.9677 358.328 69.9677 358.44C69.977 358.552 69.9863 358.659 69.9957 358.762C70.005 358.855 70.0143 358.935 70.0237 359H68.9037C68.8757 358.869 68.8477 358.687 68.8197 358.454C68.801 358.211 68.7917 358.001 68.7917 357.824L68.7777 357.614ZM66.6077 358.034C66.9903 358.034 67.317 357.955 67.5877 357.796C67.8583 357.637 68.0777 357.455 68.2457 357.25C68.4137 357.035 68.535 356.83 68.6097 356.634C68.6843 356.429 68.7217 356.284 68.7217 356.2V355.668H67.4897C66.7523 355.668 66.2157 355.775 65.8797 355.99C65.553 356.195 65.3897 356.508 65.3897 356.928C65.3897 357.255 65.4877 357.521 65.6837 357.726C65.8797 357.931 66.1877 358.034 66.6077 358.034Z" fill="#B5B5B7"/>
<rect x="8" y="776" width="144" height="40" rx="6" fill="white"/>
<path d="M36.2604 801.14C35.5791 801.14 34.9398 801.028 34.3424 800.804C33.7544 800.58 33.2411 800.249 32.8024 799.81C32.3731 799.371 32.0324 798.835 31.7804 798.2C31.5284 797.556 31.4024 796.814 31.4024 795.974C31.4024 795.134 31.5284 794.397 31.7804 793.762C32.0324 793.118 32.3731 792.581 32.8024 792.152C33.2411 791.713 33.7544 791.387 34.3424 791.172C34.9398 790.948 35.5791 790.836 36.2604 790.836C36.9511 790.836 37.5904 790.948 38.1784 791.172C38.7758 791.387 39.2938 791.709 39.7324 792.138C40.1711 792.567 40.5118 793.104 40.7544 793.748C41.0064 794.383 41.1324 795.12 41.1324 795.96C41.1324 796.791 41.0064 797.528 40.7544 798.172C40.5118 798.816 40.1711 799.357 39.7324 799.796C39.2938 800.235 38.7758 800.571 38.1784 800.804C37.5904 801.028 36.9511 801.14 36.2604 801.14ZM36.2604 799.684C36.6991 799.684 37.1051 799.619 37.4784 799.488C37.8611 799.357 38.1878 799.147 38.4584 798.858C38.7384 798.559 38.9578 798.177 39.1164 797.71C39.2751 797.234 39.3544 796.66 39.3544 795.988C39.3544 795.316 39.2751 794.747 39.1164 794.28C38.9578 793.813 38.7384 793.435 38.4584 793.146C38.1878 792.847 37.8611 792.633 37.4784 792.502C37.1051 792.362 36.6991 792.292 36.2604 792.292C35.8218 792.292 35.4158 792.362 35.0424 792.502C34.6691 792.633 34.3424 792.847 34.0624 793.146C33.7918 793.435 33.5771 793.813 33.4184 794.28C33.2598 794.747 33.1804 795.316 33.1804 795.988C33.1804 796.66 33.2598 797.234 33.4184 797.71C33.5771 798.177 33.7918 798.559 34.0624 798.858C34.3424 799.147 34.6691 799.357 35.0424 799.488C35.4158 799.619 35.8218 799.684 36.2604 799.684ZM51.5809 797.36C51.5809 797.948 51.4829 798.471 51.2869 798.928C51.0909 799.376 50.8156 799.759 50.4609 800.076C50.1156 800.384 49.7049 800.627 49.2289 800.804C48.7623 800.981 48.2583 801.084 47.7169 801.112V803.478H46.0929V801.112C45.5423 801.075 45.0289 800.972 44.5529 800.804C44.0769 800.627 43.6663 800.379 43.3209 800.062C42.9756 799.745 42.7049 799.362 42.5089 798.914C42.3129 798.466 42.2149 797.948 42.2149 797.36C42.2149 796.772 42.3129 796.254 42.5089 795.806C42.7049 795.358 42.9756 794.975 43.3209 794.658C43.6756 794.341 44.0863 794.098 44.5529 793.93C45.0289 793.753 45.5423 793.65 46.0929 793.622V790.822H47.7169V793.622C48.2676 793.65 48.7763 793.753 49.2429 793.93C49.7189 794.098 50.1296 794.341 50.4749 794.658C50.8203 794.975 51.0909 795.358 51.2869 795.806C51.4829 796.254 51.5809 796.772 51.5809 797.36ZM49.9149 797.36C49.9149 796.576 49.7096 795.983 49.2989 795.582C48.8883 795.181 48.3609 794.957 47.7169 794.91V799.81C48.3609 799.763 48.8883 799.539 49.2989 799.138C49.7096 798.737 49.9149 798.144 49.9149 797.36ZM43.8669 797.36C43.8669 798.144 44.0723 798.737 44.4829 799.138C44.9029 799.539 45.4396 799.763 46.0929 799.81V794.91C45.4303 794.966 44.8936 795.195 44.4829 795.596C44.0723 795.997 43.8669 796.585 43.8669 797.36ZM61.8759 797.36C61.8759 797.948 61.7779 798.471 61.5819 798.928C61.3859 799.376 61.1105 799.759 60.7559 800.076C60.4105 800.384 59.9999 800.627 59.5239 800.804C59.0572 800.981 58.5532 801.084 58.0119 801.112V803.478H56.3879V801.112C55.8372 801.075 55.3239 800.972 54.8479 800.804C54.3719 800.627 53.9612 800.379 53.6159 800.062C53.2705 799.745 52.9999 799.362 52.8039 798.914C52.6079 798.466 52.5099 797.948 52.5099 797.36C52.5099 796.772 52.6079 796.254 52.8039 795.806C52.9999 795.358 53.2705 794.975 53.6159 794.658C53.9705 794.341 54.3812 794.098 54.8479 793.93C55.3239 793.753 55.8372 793.65 56.3879 793.622V790.822H58.0119V793.622C58.5625 793.65 59.0712 793.753 59.5379 793.93C60.0139 794.098 60.4245 794.341 60.7699 794.658C61.1152 794.975 61.3859 795.358 61.5819 795.806C61.7779 796.254 61.8759 796.772 61.8759 797.36ZM60.2099 797.36C60.2099 796.576 60.0045 795.983 59.5939 795.582C59.1832 795.181 58.6559 794.957 58.0119 794.91V799.81C58.6559 799.763 59.1832 799.539 59.5939 799.138C60.0045 798.737 60.2099 798.144 60.2099 797.36ZM54.1619 797.36C54.1619 798.144 54.3672 798.737 54.7779 799.138C55.1979 799.539 55.7345 799.763 56.3879 799.81V794.91C55.7252 794.966 55.1885 795.195 54.7779 795.596C54.3672 795.997 54.1619 796.585 54.1619 797.36ZM69.3288 800.468C69.2261 800.533 69.1001 800.608 68.9508 800.692C68.8014 800.767 68.6241 800.837 68.4188 800.902C68.2134 800.967 67.9754 801.023 67.7048 801.07C67.4341 801.117 67.1261 801.14 66.7808 801.14C65.4461 801.14 64.4474 800.809 63.7848 800.146C63.1314 799.483 62.8048 798.555 62.8048 797.36C62.8048 796.772 62.8934 796.245 63.0708 795.778C63.2481 795.311 63.4954 794.919 63.8128 794.602C64.1301 794.275 64.5081 794.028 64.9468 793.86C65.3854 793.683 65.8661 793.594 66.3888 793.594C66.9301 793.594 67.4154 793.683 67.8448 793.86C68.2834 794.037 68.6428 794.303 68.9228 794.658C69.2028 795.013 69.3941 795.451 69.4968 795.974C69.6088 796.497 69.6134 797.108 69.5108 797.808H64.4848C64.5501 798.471 64.7694 798.97 65.1428 799.306C65.5161 799.633 66.0994 799.796 66.8928 799.796C67.4714 799.796 67.9521 799.726 68.3348 799.586C68.7268 799.437 69.0581 799.283 69.3288 799.124V800.468ZM66.3888 794.882C65.9128 794.882 65.5114 795.027 65.1848 795.316C64.8581 795.605 64.6434 796.035 64.5408 796.604H67.9568C67.9754 796.016 67.8448 795.582 67.5648 795.302C67.2848 795.022 66.8928 794.882 66.3888 794.882ZM75.0224 801.14C74.4717 801.14 73.9957 801.019 73.5944 800.776C73.2024 800.524 72.8851 800.188 72.6424 799.768V803.478H71.0184V793.734H72.5024L72.6144 795.022C72.8571 794.583 73.1791 794.238 73.5804 793.986C73.9817 793.725 74.4717 793.594 75.0504 793.594C75.4797 793.594 75.8857 793.673 76.2684 793.832C76.6604 793.981 77.0011 794.215 77.2904 794.532C77.5797 794.84 77.8084 795.232 77.9764 795.708C78.1537 796.175 78.2424 796.725 78.2424 797.36C78.2424 798.004 78.1537 798.564 77.9764 799.04C77.8084 799.507 77.5751 799.899 77.2764 800.216C76.9871 800.524 76.6464 800.757 76.2544 800.916C75.8624 801.065 75.4517 801.14 75.0224 801.14ZM74.6304 799.782C75.2091 799.782 75.6757 799.586 76.0304 799.194C76.3944 798.793 76.5764 798.181 76.5764 797.36C76.5764 796.548 76.3944 795.941 76.0304 795.54C75.6757 795.139 75.2137 794.938 74.6444 794.938C74.3551 794.938 74.0891 794.989 73.8464 795.092C73.6037 795.185 73.3891 795.335 73.2024 795.54C73.0251 795.745 72.8851 796.002 72.7824 796.31C72.6797 796.609 72.6284 796.959 72.6284 797.36C72.6284 797.771 72.6797 798.13 72.7824 798.438C72.8851 798.737 73.0251 798.989 73.2024 799.194C73.3797 799.39 73.5897 799.539 73.8324 799.642C74.0844 799.735 74.3504 799.782 74.6304 799.782ZM82.6942 793.734H88.8682V801H87.2442V795.05H84.3182V801H82.6942V793.734ZM94.6962 801.14C94.1456 801.14 93.6696 801.019 93.2682 800.776C92.8762 800.524 92.5589 800.188 92.3162 799.768V803.478H90.6922V793.734H92.1762L92.2882 795.022C92.5309 794.583 92.8529 794.238 93.2542 793.986C93.6556 793.725 94.1456 793.594 94.7242 793.594C95.1536 793.594 95.5596 793.673 95.9422 793.832C96.3342 793.981 96.6749 794.215 96.9642 794.532C97.2536 794.84 97.4822 795.232 97.6502 795.708C97.8276 796.175 97.9162 796.725 97.9162 797.36C97.9162 798.004 97.8276 798.564 97.6502 799.04C97.4822 799.507 97.2489 799.899 96.9502 800.216C96.6609 800.524 96.3202 800.757 95.9282 800.916C95.5362 801.065 95.1256 801.14 94.6962 801.14ZM94.3042 799.782C94.8829 799.782 95.3496 799.586 95.7042 799.194C96.0682 798.793 96.2502 798.181 96.2502 797.36C96.2502 796.548 96.0682 795.941 95.7042 795.54C95.3496 795.139 94.8876 794.938 94.3182 794.938C94.0289 794.938 93.7629 794.989 93.5202 795.092C93.2776 795.185 93.0629 795.335 92.8762 795.54C92.6989 795.745 92.5589 796.002 92.4562 796.31C92.3536 796.609 92.3022 796.959 92.3022 797.36C92.3022 797.771 92.3536 798.13 92.4562 798.438C92.5589 798.737 92.6989 798.989 92.8762 799.194C93.0536 799.39 93.2636 799.539 93.5062 799.642C93.7582 799.735 94.0242 799.782 94.3042 799.782ZM100.902 798.802L104.262 793.734H105.858V801H104.248V795.96L100.916 801H99.2918V793.734H100.902V798.802ZM112.376 797.934H109.31V801H107.686V793.734H109.31V796.618H112.376V793.734H114V801H112.376V797.934ZM115.737 796.114C115.737 795.722 115.812 795.377 115.961 795.078C116.11 794.779 116.316 794.532 116.577 794.336C116.848 794.131 117.17 793.981 117.543 793.888C117.926 793.785 118.346 793.734 118.803 793.734H121.505V801H119.881V798.536H118.845L117.123 801H115.303L117.305 798.186C116.801 798.037 116.414 797.794 116.143 797.458C115.872 797.122 115.737 796.674 115.737 796.114ZM119.881 797.248V795.022H118.929C118.481 795.022 118.112 795.106 117.823 795.274C117.543 795.442 117.403 795.722 117.403 796.114C117.403 796.515 117.529 796.805 117.781 796.982C118.042 797.159 118.411 797.248 118.887 797.248H119.881ZM126.575 795.05V801H124.951V795.05H122.753V793.734H128.815V795.05H126.575Z" fill="#1D6BF3"/>
<path d="M14.25 859.25C14.9404 859.25 15.5 858.69 15.5 858C15.5 857.31 14.9404 856.75 14.25 856.75C13.5596 856.75 13 857.31 13 858C13 858.69 13.5596 859.25 14.25 859.25Z" fill="#B5B5B7"/>
<path d="M18 859.25C18.6904 859.25 19.25 858.69 19.25 858C19.25 857.31 18.6904 856.75 18 856.75C17.3096 856.75 16.75 857.31 16.75 858C16.75 858.69 17.3096 859.25 18 859.25Z" fill="#B5B5B7"/>
<path d="M21.75 859.25C22.4404 859.25 23 858.69 23 858C23 857.31 22.4404 856.75 21.75 856.75C21.0596 856.75 20.5 857.31 20.5 858C20.5 858.69 21.0596 859.25 21.75 859.25Z" fill="#B5B5B7"/>
<path fill-rule="evenodd" clip-rule="evenodd" d="M17.9934 850.5C13.8285 850.5 10.4875 853.792 10.5 857.816L10.5 857.817V857.818C10.5 859.218 10.9091 860.587 11.677 861.757C11.7209 861.817 11.7619 861.879 11.7999 861.943L11.803 861.948L11.8059 861.953C11.8675 862.061 11.9406 862.206 11.9909 862.366C12.037 862.513 12.0901 862.752 12.0208 863.008L12.0204 863.009L11.3749 865.344L13.6072 864.538C13.8291 864.447 14.067 864.4 14.3071 864.401C14.3075 864.401 14.3079 864.401 14.3083 864.401L14.3059 865.026L14.3066 864.401C14.3068 864.401 14.3069 864.401 14.3071 864.401C14.5319 864.401 14.7547 864.443 14.9645 864.524L14.965 864.524L14.9654 864.524C15.0921 864.573 15.5968 864.76 16.0958 864.9C16.5864 865.037 17.4924 865.204 18.1332 865.204C22.2774 865.204 25.4999 861.877 25.5 857.824L26.125 857.824H25.5C25.4998 857.321 25.4466 856.82 25.3413 856.328L25.3411 856.328L25.341 856.327C24.6381 853.013 21.6228 850.5 17.9934 850.5ZM9.25004 857.819C9.23579 853.074 13.1665 849.25 17.9934 849.25C22.2058 849.25 25.7364 852.169 26.5636 856.067C26.6873 856.644 26.7498 857.233 26.75 857.824V857.824C26.75 862.553 22.9812 866.454 18.1332 866.454C17.3444 866.454 16.3207 866.261 15.7589 866.104C15.2063 865.949 14.6609 865.746 14.5157 865.69C14.4485 865.665 14.3772 865.651 14.3052 865.651H14.3044L14.3035 865.651C14.2258 865.651 14.1489 865.666 14.0773 865.697L14.0617 865.703L11.411 866.66C11.3009 866.705 11.1849 866.734 11.0666 866.747L11.0332 866.75L10.9997 866.75C10.8674 866.75 10.7365 866.723 10.6146 866.672C10.4927 866.62 10.3821 866.545 10.2894 866.451C10.1967 866.356 10.1236 866.245 10.0744 866.122C10.0252 865.999 10.0009 865.868 10.0028 865.735L10.0031 865.717L10.0045 865.698C10.0109 865.612 10.0261 865.528 10.0499 865.445L10.798 862.74C10.7843 862.697 10.7583 862.64 10.7237 862.579C10.7049 862.548 10.6846 862.517 10.6629 862.488L10.6522 862.474L10.6423 862.459C9.73426 861.082 9.25017 859.468 9.25004 857.819Z" fill="#B5B5B7"/>
<path d="M37.446 860.284C37.2593 860.723 37.0633 861.115 36.858 861.46C36.6527 861.796 36.424 862.081 36.172 862.314C35.92 862.547 35.6307 862.725 35.304 862.846C34.9867 862.958 34.618 863.014 34.198 863.014C34.1513 863.014 34.1047 863.014 34.058 863.014C34.0113 863.014 33.9647 863.009 33.918 863V861.684C33.9647 861.693 34.0113 861.698 34.058 861.698C34.114 861.698 34.1653 861.698 34.212 861.698C34.7067 861.698 35.094 861.586 35.374 861.362C35.6633 861.138 35.9013 860.858 36.088 860.522L32.364 852.962H33.862L36.76 859.01L39.266 852.962H40.624L37.446 860.284ZM44.3488 854.768C43.9754 854.768 43.6488 854.721 43.3688 854.628C43.0981 854.525 42.8694 854.39 42.6828 854.222C42.5054 854.045 42.3701 853.844 42.2768 853.62C42.1928 853.387 42.1508 853.135 42.1508 852.864H43.3828C43.3828 853.219 43.4668 853.475 43.6348 853.634C43.8121 853.793 44.0501 853.872 44.3488 853.872C44.6474 853.872 44.8808 853.793 45.0488 853.634C45.2168 853.475 45.3008 853.219 45.3008 852.864H46.5328C46.5328 853.396 46.3508 853.849 45.9868 854.222C45.6321 854.586 45.0861 854.768 44.3488 854.768ZM42.3748 861.32L46.2528 855.734H47.4988V863H46.2668V857.428L42.4028 863H41.1428V855.734H42.3748V861.32ZM52.436 856.784V863H51.204V856.784H48.922V855.734H54.76V856.784H52.436ZM57.4138 861.32L61.2918 855.734H62.5378V863H61.3058V857.428L57.4418 863H56.1818V855.734H57.4138V861.32ZM67.6252 855.734H70.3412C71.2185 855.734 71.8812 855.888 72.3292 856.196C72.7772 856.495 73.0012 856.966 73.0012 857.61C73.0012 858.039 72.8892 858.385 72.6652 858.646C72.4505 858.898 72.1425 859.08 71.7412 859.192C72.7772 859.36 73.2952 859.934 73.2952 860.914C73.2952 861.287 73.2205 861.609 73.0712 861.88C72.9219 862.141 72.7165 862.356 72.4552 862.524C72.1939 862.692 71.8765 862.813 71.5032 862.888C71.1392 862.963 70.7425 863 70.3132 863H67.6252V855.734ZM68.8572 856.784V858.758H70.2292C70.6959 858.758 71.0692 858.674 71.3492 858.506C71.6385 858.338 71.7832 858.095 71.7832 857.778C71.7832 857.395 71.6572 857.134 71.4052 856.994C71.1532 856.854 70.7939 856.784 70.3272 856.784H68.8572ZM68.8572 859.738V861.95H70.2992C70.5605 861.95 70.7939 861.936 70.9992 861.908C71.2139 861.871 71.3959 861.81 71.5452 861.726C71.7039 861.642 71.8252 861.53 71.9092 861.39C71.9932 861.25 72.0352 861.077 72.0352 860.872C72.0352 860.452 71.8905 860.158 71.6012 859.99C71.3119 859.822 70.8779 859.738 70.2992 859.738H68.8572ZM81.2029 863.14C80.7082 863.14 80.2462 863.056 79.8169 862.888C79.3876 862.72 79.0142 862.477 78.6969 862.16C78.3889 861.833 78.1462 861.437 77.9689 860.97C77.7916 860.503 77.7029 859.967 77.7029 859.36C77.7029 858.763 77.7916 858.231 77.9689 857.764C78.1462 857.288 78.3889 856.891 78.6969 856.574C79.0142 856.257 79.3876 856.014 79.8169 855.846C80.2462 855.678 80.7082 855.594 81.2029 855.594C81.7069 855.594 82.1736 855.678 82.6029 855.846C83.0322 856.014 83.4009 856.257 83.7089 856.574C84.0262 856.891 84.2736 857.288 84.4509 857.764C84.6376 858.231 84.7309 858.763 84.7309 859.36C84.7309 859.967 84.6376 860.503 84.4509 860.97C84.2736 861.437 84.0262 861.833 83.7089 862.16C83.4009 862.477 83.0322 862.72 82.6029 862.888C82.1736 863.056 81.7069 863.14 81.2029 863.14ZM81.2029 862.034C81.5296 862.034 81.8282 861.983 82.0989 861.88C82.3789 861.768 82.6216 861.605 82.8269 861.39C83.0322 861.166 83.1909 860.886 83.3029 860.55C83.4149 860.214 83.4709 859.817 83.4709 859.36C83.4709 858.903 83.4149 858.506 83.3029 858.17C83.1909 857.834 83.0322 857.559 82.8269 857.344C82.6216 857.12 82.3789 856.957 82.0989 856.854C81.8282 856.742 81.5296 856.686 81.2029 856.686C80.8762 856.686 80.5776 856.742 80.3069 856.854C80.0362 856.957 79.7982 857.12 79.5929 857.344C79.3969 857.559 79.2429 857.834 79.1309 858.17C79.0189 858.506 78.9629 858.903 78.9629 859.36C78.9629 859.817 79.0189 860.214 79.1309 860.55C79.2429 860.886 79.3969 861.166 79.5929 861.39C79.7982 861.605 80.0362 861.768 80.3069 861.88C80.5776 861.983 80.8762 862.034 81.2029 862.034ZM88.9535 856.784V863H87.7215V856.784H85.4395V855.734H91.2775V856.784H88.9535ZM92.6994 855.734H98.5234V863H97.2914V856.784H93.9314V863H92.6994V855.734ZM104.103 862.916C103.935 863.355 103.758 863.737 103.571 864.064C103.385 864.4 103.175 864.685 102.941 864.918C102.708 865.151 102.447 865.324 102.157 865.436C101.868 865.557 101.537 865.618 101.163 865.618C100.977 865.618 100.804 865.604 100.645 865.576C100.487 865.557 100.342 865.52 100.211 865.464V864.274C100.314 864.349 100.445 864.405 100.603 864.442C100.762 864.489 100.935 864.512 101.121 864.512C101.467 864.512 101.751 864.428 101.975 864.26C102.199 864.101 102.414 863.845 102.619 863.49L99.6654 855.734H101.023L103.333 861.866L105.629 855.734H106.819L104.103 862.916ZM111.039 863.14C110.479 863.14 109.97 863.056 109.513 862.888C109.065 862.711 108.682 862.463 108.365 862.146C108.047 861.819 107.805 861.423 107.637 860.956C107.469 860.489 107.385 859.957 107.385 859.36C107.385 858.772 107.469 858.245 107.637 857.778C107.814 857.311 108.061 856.919 108.379 856.602C108.696 856.275 109.083 856.028 109.541 855.86C109.998 855.683 110.516 855.594 111.095 855.594C111.543 855.594 111.953 855.645 112.327 855.748C112.7 855.841 113.008 855.981 113.251 856.168V857.274C112.952 857.078 112.616 856.933 112.243 856.84C111.879 856.737 111.501 856.686 111.109 856.686C110.259 856.686 109.634 856.905 109.233 857.344C108.841 857.783 108.645 858.455 108.645 859.36C108.645 860.265 108.836 860.937 109.219 861.376C109.601 861.815 110.208 862.034 111.039 862.034C111.477 862.034 111.879 861.983 112.243 861.88C112.616 861.768 112.952 861.628 113.251 861.46V862.566C112.989 862.725 112.672 862.86 112.299 862.972C111.935 863.084 111.515 863.14 111.039 863.14ZM116.779 859.906H116.135V863H114.903V855.734H116.135V858.856H116.835L119.383 855.734H120.783L117.801 859.318L120.839 863H119.341L116.779 859.906Z" fill="#B5B5B7"/>
<path d="M19.6718 902.984H16.332C16.3281 902.984 16.3242 902.984 16.3203 902.984C15.8203 902.977 15.4023 902.629 15.3007 902.141C15.2968 902.129 15.2968 902.113 15.2929 902.102L15.0312 900.234H15.0273C14.707 900.078 14.3945 899.898 14.1015 899.691L12.3476 900.398C12.3437 900.398 12.3398 900.402 12.3359 900.402C11.8593 900.582 11.3242 900.398 11.0624 899.957C11.0624 899.953 11.0585 899.953 11.0585 899.949L9.38666 897.059C9.12885 896.617 9.23041 896.055 9.62494 895.727C9.62885 895.723 9.63276 895.719 9.63666 895.715L11.1289 894.543L11.1249 894.539C11.1093 894.344 11.1015 894.168 11.1015 893.996C11.1015 893.82 11.1093 893.645 11.1249 893.457L9.64057 892.293C9.63276 892.289 9.62885 892.285 9.62494 892.277C9.23823 891.949 9.14057 891.391 9.39448 890.953L11.0664 888.062C11.0664 888.059 11.0703 888.059 11.0703 888.055C11.332 887.617 11.8671 887.43 12.3437 887.609C12.3476 887.609 12.3515 887.613 12.3554 887.613L14.1093 888.32C14.4062 888.117 14.7148 887.938 15.0351 887.781L15.2968 885.91C15.2968 885.902 15.3007 885.895 15.3007 885.891C15.3828 885.395 15.8124 885.027 16.3164 885.016C16.3203 885.016 16.3242 885.016 16.3281 885.016H19.6679C19.6718 885.016 19.6757 885.016 19.6796 885.016C20.1796 885.023 20.5976 885.371 20.6992 885.859C20.7031 885.871 20.7031 885.887 20.707 885.898L20.9687 887.766H20.9726C21.2929 887.922 21.6054 888.102 21.8984 888.309L23.6523 887.602C23.6562 887.602 23.6601 887.598 23.664 887.598C24.1406 887.414 24.6757 887.602 24.9374 888.043C24.9374 888.047 24.9414 888.047 24.9414 888.051L26.6132 890.941C26.871 891.383 26.7695 891.945 26.3749 892.273C26.371 892.277 26.3671 892.281 26.3632 892.285L24.871 893.457C24.871 893.461 24.871 893.465 24.871 893.465C24.8867 893.664 24.8945 893.84 24.8945 894V894.004C24.8945 894.18 24.8867 894.359 24.871 894.535L26.3632 895.703C26.3671 895.707 26.371 895.711 26.3749 895.715C26.7695 896.043 26.871 896.602 26.6132 897.047L24.9414 899.938C24.9414 899.941 24.9374 899.941 24.9374 899.945C24.6757 900.383 24.1406 900.57 23.664 900.391C23.6601 900.391 23.6562 900.387 23.6523 900.387L21.8984 899.68C21.6015 899.883 21.2929 900.062 20.9726 900.219L20.7109 902.09C20.7109 902.098 20.707 902.105 20.707 902.109C20.621 902.605 20.1914 902.973 19.6874 902.984C19.6796 902.984 19.6757 902.984 19.6718 902.984ZM16.5039 901.734H19.496L19.7343 900.043C19.7929 899.633 20.0507 899.277 20.4257 899.094C20.6914 898.965 20.9453 898.816 21.1874 898.652C21.5312 898.414 21.9726 898.363 22.3671 898.52L23.9531 899.156L25.4453 896.574L23.8203 895.305C23.6445 895.168 23.5546 894.945 23.5859 894.727C23.621 894.488 23.6367 894.242 23.6406 894C23.6406 893.871 23.6328 893.73 23.621 893.566C23.582 893.145 23.7617 892.734 24.0937 892.473L25.4414 891.414L23.9492 888.832L22.3632 889.469C21.9726 889.625 21.5312 889.578 21.1835 889.336C20.9453 889.168 20.6914 889.02 20.4296 888.895C20.0546 888.715 19.7929 888.359 19.7304 887.945L19.496 886.266H16.5039L16.2656 887.957C16.207 888.367 15.9492 888.723 15.5742 888.906C15.3085 889.035 15.0546 889.184 14.8124 889.348C14.4687 889.586 14.0273 889.637 13.6328 889.48L12.0546 888.844L10.5624 891.426L11.9023 892.48C12.2343 892.742 12.4101 893.148 12.3749 893.57C12.3593 893.723 12.3554 893.863 12.3554 894C12.3554 894.133 12.3632 894.273 12.3749 894.434C12.414 894.855 12.2382 895.266 11.9062 895.527L10.5585 896.586L12.0507 899.168L13.6328 898.531C14.0234 898.375 14.4648 898.422 14.8124 898.664C15.0507 898.832 15.3046 898.98 15.5664 899.105C15.9414 899.285 16.2031 899.641 16.2656 900.055L16.5039 901.734ZM18.0039 897.125C17.9023 897.125 17.7968 897.121 17.6953 897.109C16.8632 897.027 16.1171 896.625 15.5859 895.98C15.0546 895.336 14.8085 894.523 14.8906 893.691C15.0585 891.977 16.5937 890.719 18.3085 890.887C19.7851 891.035 20.9609 892.215 21.1093 893.688C21.1289 893.891 21.1289 894.098 21.1093 894.305C20.9492 895.918 19.5898 897.125 18.0039 897.125ZM17.996 892.125C17.5624 892.125 17.1484 892.273 16.8085 892.551C16.4218 892.867 16.1796 893.316 16.1328 893.816C16.082 894.316 16.2304 894.801 16.5507 895.191C16.8671 895.578 17.3164 895.82 17.8164 895.867C18.8437 895.969 19.7656 895.215 19.8671 894.184C19.8789 894.063 19.8789 893.938 19.8671 893.816C19.7773 892.93 19.0703 892.223 18.1835 892.133C18.121 892.129 18.0585 892.125 17.996 892.125Z" fill="#B5B5B7"/>
<path d="M34.492 897.25L40.008 888.962H41.436V899H40.092V890.754L34.604 899H33.176V888.962H34.492V897.25ZM48.3497 895.78H44.8357V899H43.6037V891.734H44.8357V894.73H48.3497V891.734H49.5817V899H48.3497V895.78ZM60.1138 895.36C60.1138 895.967 60.0111 896.499 59.8058 896.956C59.6004 897.413 59.3204 897.801 58.9658 898.118C58.6204 898.435 58.2098 898.678 57.7338 898.846C57.2578 899.005 56.7538 899.093 56.2218 899.112V901.478H54.9898V899.112C54.4391 899.093 53.9258 899 53.4498 898.832C52.9831 898.664 52.5724 898.426 52.2178 898.118C51.8631 897.801 51.5831 897.413 51.3778 896.956C51.1818 896.499 51.0838 895.967 51.0838 895.36C51.0838 894.763 51.1864 894.235 51.3918 893.778C51.5971 893.311 51.8771 892.924 52.2318 892.616C52.5864 892.299 52.9971 892.061 53.4638 891.902C53.9398 891.734 54.4484 891.641 54.9898 891.622V888.822H56.2218V891.622C56.7631 891.641 57.2671 891.734 57.7338 891.902C58.2098 892.07 58.6204 892.313 58.9658 892.63C59.3204 892.938 59.6004 893.321 59.8058 893.778C60.0111 894.235 60.1138 894.763 60.1138 895.36ZM58.8538 895.36C58.8538 894.912 58.7838 894.525 58.6438 894.198C58.5131 893.871 58.3264 893.601 58.0838 893.386C57.8504 893.171 57.5751 893.008 57.2578 892.896C56.9404 892.775 56.5951 892.705 56.2218 892.686V898.034C56.5951 898.015 56.9404 897.95 57.2578 897.838C57.5844 897.717 57.8644 897.549 58.0978 897.334C58.3311 897.119 58.5131 896.849 58.6438 896.522C58.7838 896.195 58.8538 895.808 58.8538 895.36ZM52.3438 895.36C52.3438 895.808 52.4091 896.195 52.5398 896.522C52.6798 896.849 52.8664 897.124 53.0998 897.348C53.3424 897.563 53.6224 897.726 53.9398 897.838C54.2664 897.95 54.6164 898.015 54.9898 898.034V892.686C54.6071 892.705 54.2524 892.775 53.9258 892.896C53.6084 893.008 53.3331 893.176 53.0998 893.4C52.8664 893.615 52.6798 893.885 52.5398 894.212C52.4091 894.539 52.3438 894.921 52.3438 895.36ZM64.6052 899.14C64.1106 899.14 63.6486 899.056 63.2192 898.888C62.7899 898.72 62.4166 898.477 62.0992 898.16C61.7912 897.833 61.5486 897.437 61.3712 896.97C61.1939 896.503 61.1052 895.967 61.1052 895.36C61.1052 894.763 61.1939 894.231 61.3712 893.764C61.5486 893.288 61.7912 892.891 62.0992 892.574C62.4166 892.257 62.7899 892.014 63.2192 891.846C63.6486 891.678 64.1106 891.594 64.6052 891.594C65.1092 891.594 65.5759 891.678 66.0052 891.846C66.4346 892.014 66.8032 892.257 67.1112 892.574C67.4286 892.891 67.6759 893.288 67.8532 893.764C68.0399 894.231 68.1332 894.763 68.1332 895.36C68.1332 895.967 68.0399 896.503 67.8532 896.97C67.6759 897.437 67.4286 897.833 67.1112 898.16C66.8032 898.477 66.4346 898.72 66.0052 898.888C65.5759 899.056 65.1092 899.14 64.6052 899.14ZM64.6052 898.034C64.9319 898.034 65.2306 897.983 65.5012 897.88C65.7812 897.768 66.0239 897.605 66.2292 897.39C66.4346 897.166 66.5932 896.886 66.7052 896.55C66.8172 896.214 66.8732 895.817 66.8732 895.36C66.8732 894.903 66.8172 894.506 66.7052 894.17C66.5932 893.834 66.4346 893.559 66.2292 893.344C66.0239 893.12 65.7812 892.957 65.5012 892.854C65.2306 892.742 64.9319 892.686 64.6052 892.686C64.2786 892.686 63.9799 892.742 63.7092 892.854C63.4386 892.957 63.2006 893.12 62.9952 893.344C62.7992 893.559 62.6452 893.834 62.5332 894.17C62.4212 894.506 62.3652 894.903 62.3652 895.36C62.3652 895.817 62.4212 896.214 62.5332 896.55C62.6452 896.886 62.7992 897.166 62.9952 897.39C63.2006 897.605 63.4386 897.768 63.7092 897.88C63.9799 897.983 64.2786 898.034 64.6052 898.034ZM72.7111 891.734H78.5351V899H77.3031V892.784H73.9431V899H72.7111V891.734ZM84.1991 899.14C83.6391 899.14 83.1538 899.009 82.7431 898.748C82.3418 898.487 82.0198 898.127 81.7771 897.67V901.478H80.5451V891.734H81.6231L81.7491 893.148C81.9918 892.672 82.3184 892.294 82.7291 892.014C83.1398 891.734 83.6484 891.594 84.2551 891.594C84.6751 891.594 85.0764 891.673 85.4591 891.832C85.8511 891.981 86.1918 892.215 86.4811 892.532C86.7798 892.84 87.0131 893.232 87.1811 893.708C87.3584 894.175 87.4471 894.725 87.4471 895.36C87.4471 896.004 87.3584 896.564 87.1811 897.04C87.0038 897.507 86.7658 897.899 86.4671 898.216C86.1684 898.524 85.8231 898.757 85.4311 898.916C85.0391 899.065 84.6284 899.14 84.1991 899.14ZM84.0171 898.034C84.6611 898.034 85.1791 897.815 85.5711 897.376C85.9724 896.928 86.1731 896.256 86.1731 895.36C86.1731 894.483 85.9724 893.82 85.5711 893.372C85.1791 892.915 84.6611 892.686 84.0171 892.686C83.6998 892.686 83.4011 892.742 83.1211 892.854C82.8504 892.966 82.6124 893.134 82.4071 893.358C82.2111 893.573 82.0524 893.848 81.9311 894.184C81.8191 894.52 81.7631 894.912 81.7631 895.36C81.7631 895.808 81.8191 896.2 81.9311 896.536C82.0524 896.872 82.2111 897.152 82.4071 897.376C82.6124 897.6 82.8504 897.768 83.1211 897.88C83.4011 897.983 83.6998 898.034 84.0171 898.034ZM91.9216 899.14C91.427 899.14 90.965 899.056 90.5356 898.888C90.1063 898.72 89.733 898.477 89.4156 898.16C89.1076 897.833 88.865 897.437 88.6876 896.97C88.5103 896.503 88.4216 895.967 88.4216 895.36C88.4216 894.763 88.5103 894.231 88.6876 893.764C88.865 893.288 89.1076 892.891 89.4156 892.574C89.733 892.257 90.1063 892.014 90.5356 891.846C90.965 891.678 91.427 891.594 91.9216 891.594C92.4256 891.594 92.8923 891.678 93.3216 891.846C93.751 892.014 94.1196 892.257 94.4276 892.574C94.745 892.891 94.9923 893.288 95.1696 893.764C95.3563 894.231 95.4496 894.763 95.4496 895.36C95.4496 895.967 95.3563 896.503 95.1696 896.97C94.9923 897.437 94.745 897.833 94.4276 898.16C94.1196 898.477 93.751 898.72 93.3216 898.888C92.8923 899.056 92.4256 899.14 91.9216 899.14ZM91.9216 898.034C92.2483 898.034 92.547 897.983 92.8176 897.88C93.0976 897.768 93.3403 897.605 93.5456 897.39C93.751 897.166 93.9096 896.886 94.0216 896.55C94.1336 896.214 94.1896 895.817 94.1896 895.36C94.1896 894.903 94.1336 894.506 94.0216 894.17C93.9096 893.834 93.751 893.559 93.5456 893.344C93.3403 893.12 93.0976 892.957 92.8176 892.854C92.547 892.742 92.2483 892.686 91.9216 892.686C91.595 892.686 91.2963 892.742 91.0256 892.854C90.755 892.957 90.517 893.12 90.3116 893.344C90.1156 893.559 89.9616 893.834 89.8496 894.17C89.7376 894.506 89.6816 894.903 89.6816 895.36C89.6816 895.817 89.7376 896.214 89.8496 896.55C89.9616 896.886 90.1156 897.166 90.3116 897.39C90.517 897.605 90.755 897.768 91.0256 897.88C91.2963 897.983 91.595 898.034 91.9216 898.034ZM105.463 895.36C105.463 895.967 105.361 896.499 105.155 896.956C104.95 897.413 104.67 897.801 104.315 898.118C103.97 898.435 103.559 898.678 103.083 898.846C102.607 899.005 102.103 899.093 101.571 899.112V901.478H100.339V899.112C99.7887 899.093 99.2754 899 98.7994 898.832C98.3327 898.664 97.922 898.426 97.5674 898.118C97.2127 897.801 96.9327 897.413 96.7274 896.956C96.5314 896.499 96.4334 895.967 96.4334 895.36C96.4334 894.763 96.536 894.235 96.7414 893.778C96.9467 893.311 97.2267 892.924 97.5814 892.616C97.936 892.299 98.3467 892.061 98.8134 891.902C99.2894 891.734 99.798 891.641 100.339 891.622V888.822H101.571V891.622C102.113 891.641 102.617 891.734 103.083 891.902C103.559 892.07 103.97 892.313 104.315 892.63C104.67 892.938 104.95 893.321 105.155 893.778C105.361 894.235 105.463 894.763 105.463 895.36ZM104.203 895.36C104.203 894.912 104.133 894.525 103.993 894.198C103.863 893.871 103.676 893.601 103.433 893.386C103.2 893.171 102.925 893.008 102.607 892.896C102.29 892.775 101.945 892.705 101.571 892.686V898.034C101.945 898.015 102.29 897.95 102.607 897.838C102.934 897.717 103.214 897.549 103.447 897.334C103.681 897.119 103.863 896.849 103.993 896.522C104.133 896.195 104.203 895.808 104.203 895.36ZM97.6934 895.36C97.6934 895.808 97.7587 896.195 97.8894 896.522C98.0294 896.849 98.216 897.124 98.4494 897.348C98.692 897.563 98.972 897.726 99.2894 897.838C99.616 897.95 99.966 898.015 100.339 898.034V892.686C99.9567 892.705 99.602 892.775 99.2754 892.896C98.958 893.008 98.6827 893.176 98.4494 893.4C98.216 893.615 98.0294 893.885 97.8894 894.212C97.7587 894.539 97.6934 894.921 97.6934 895.36ZM108.205 897.32L112.083 891.734H113.329V899H112.097V893.428L108.233 899H106.973V891.734H108.205V897.32ZM115.9 896.746C116.031 896.27 116.115 895.626 116.152 894.814C116.189 894.002 116.208 892.975 116.208 891.734H121.094V899H119.848V892.784H117.37C117.361 893.783 117.328 894.669 117.272 895.444C117.225 896.219 117.118 896.872 116.95 897.404C116.791 897.936 116.553 898.342 116.236 898.622C115.928 898.893 115.513 899.028 114.99 899.028C114.953 899.028 114.915 899.028 114.878 899.028C114.841 899.028 114.799 899.023 114.752 899.014V897.796C114.799 897.805 114.859 897.81 114.934 897.81C115.41 897.81 115.732 897.455 115.9 896.746ZM123.092 894.086C123.092 893.675 123.167 893.325 123.316 893.036C123.465 892.737 123.675 892.495 123.946 892.308C124.217 892.112 124.539 891.967 124.912 891.874C125.285 891.781 125.691 891.734 126.13 891.734H128.468V899H127.236V896.368H125.906L124.044 899H122.574L124.674 896.06C124.17 895.911 123.778 895.682 123.498 895.374C123.227 895.066 123.092 894.637 123.092 894.086ZM127.236 895.318V892.784H126.13C125.607 892.784 125.178 892.882 124.842 893.078C124.506 893.274 124.338 893.591 124.338 894.03C124.338 894.487 124.487 894.819 124.786 895.024C125.085 895.22 125.509 895.318 126.06 895.318H127.236Z" fill="#B5B5B7"/>
<g clip-path="url(#clip2_373_10618)">
<path fill-rule="evenodd" clip-rule="evenodd" d="M12 921.332C11.6464 921.332 11.3072 921.473 11.0572 921.723C10.8071 921.973 10.6667 922.312 10.6667 922.665V937.332C10.6667 937.686 10.8071 938.025 11.0572 938.275C11.3072 938.525 11.6464 938.665 12 938.665H22C22.1768 938.665 22.3464 938.595 22.4714 938.47C22.5964 938.345 22.6667 938.176 22.6667 937.999C22.6667 937.822 22.5964 937.652 22.4714 937.527C22.3464 937.402 22.1768 937.332 22 937.332H12V922.665H22C22.1768 922.665 22.3464 922.595 22.4714 922.47C22.5964 922.345 22.6667 922.176 22.6667 921.999C22.6667 921.822 22.5964 921.652 22.4714 921.527C22.3464 921.402 22.1768 921.332 22 921.332H12ZM24.8053 926.527C24.6801 926.402 24.5104 926.331 24.3333 926.331C24.1563 926.331 23.9865 926.402 23.8613 926.527C23.7361 926.652 23.6658 926.822 23.6658 926.999C23.6658 927.176 23.7361 927.346 23.8613 927.471L25.724 929.332H16.6667C16.4898 929.332 16.3203 929.402 16.1953 929.527C16.0702 929.652 16 929.822 16 929.999C16 930.176 16.0702 930.345 16.1953 930.47C16.3203 930.595 16.4898 930.665 16.6667 930.665H25.724L23.8613 932.527C23.7361 932.652 23.6658 932.822 23.6658 932.999C23.6658 933.176 23.7361 933.346 23.8613 933.471C23.9865 933.596 24.1563 933.666 24.3333 933.666C24.5104 933.666 24.6801 933.596 24.8053 933.471L27.8053 930.471C27.8674 930.409 27.9167 930.335 27.9503 930.254C27.9839 930.173 28.0012 930.086 28.0012 929.999C28.0012 929.911 27.9839 929.824 27.9503 929.743C27.9167 929.662 27.8674 929.589 27.8053 929.527L24.8053 926.527Z" fill="#B5B5B7"/>
</g>
<path d="M33.176 924.962H36.578C37.6793 924.962 38.5147 925.149 39.084 925.522C39.6627 925.895 39.952 926.525 39.952 927.412C39.952 927.776 39.9007 928.093 39.798 928.364C39.7047 928.625 39.5693 928.854 39.392 929.05C39.224 929.237 39.014 929.391 38.762 929.512C38.5193 929.633 38.2487 929.727 37.95 929.792C38.734 929.885 39.322 930.114 39.714 930.478C40.1153 930.833 40.316 931.374 40.316 932.102C40.316 932.625 40.218 933.073 40.022 933.446C39.8353 933.81 39.574 934.109 39.238 934.342C38.902 934.566 38.5053 934.734 38.048 934.846C37.5907 934.949 37.0913 935 36.55 935H33.176V924.962ZM34.492 926.166V929.246H36.48C36.7973 929.246 37.0867 929.213 37.348 929.148C37.6093 929.073 37.8333 928.966 38.02 928.826C38.2067 928.677 38.3513 928.495 38.454 928.28C38.566 928.056 38.622 927.79 38.622 927.482C38.622 926.969 38.4447 926.623 38.09 926.446C37.7353 926.259 37.2313 926.166 36.578 926.166H34.492ZM34.492 930.436V933.81H36.55C36.9047 933.81 37.2267 933.782 37.516 933.726C37.8053 933.67 38.0527 933.577 38.258 933.446C38.4727 933.315 38.636 933.143 38.748 932.928C38.8693 932.713 38.93 932.447 38.93 932.13C38.93 931.495 38.7247 931.057 38.314 930.814C37.9127 930.562 37.2733 930.436 36.396 930.436H34.492ZM47.4074 932.578C47.4074 932.998 47.3328 933.362 47.1834 933.67C47.0341 933.978 46.8241 934.23 46.5534 934.426C46.2828 934.622 45.9608 934.767 45.5874 934.86C45.2141 934.953 44.8081 935 44.3694 935H42.0314V927.734H43.2634V930.268H44.4534C45.3774 930.268 46.1008 930.45 46.6234 930.814C47.1461 931.178 47.4074 931.766 47.4074 932.578ZM49.6894 935H48.4574V927.734H49.6894V935ZM43.2634 931.318V933.95H44.3694C44.9014 933.95 45.3308 933.852 45.6574 933.656C45.9934 933.451 46.1614 933.115 46.1614 932.648C46.1614 932.172 46.0121 931.831 45.7134 931.626C45.4148 931.421 44.9948 931.318 44.4534 931.318H43.2634ZM54.1611 932.116L52.2011 935H50.9131L53.5451 931.234L51.2211 927.734H52.6491L54.3851 930.296L56.1351 927.734H57.4091L55.0011 931.206L57.5351 935H56.1071L54.1611 932.116ZM61.4607 935.14C60.966 935.14 60.504 935.056 60.0747 934.888C59.6454 934.72 59.272 934.477 58.9547 934.16C58.6467 933.833 58.404 933.437 58.2267 932.97C58.0494 932.503 57.9607 931.967 57.9607 931.36C57.9607 930.763 58.0494 930.231 58.2267 929.764C58.404 929.288 58.6467 928.891 58.9547 928.574C59.272 928.257 59.6454 928.014 60.0747 927.846C60.504 927.678 60.966 927.594 61.4607 927.594C61.9647 927.594 62.4314 927.678 62.8607 927.846C63.29 928.014 63.6587 928.257 63.9667 928.574C64.284 928.891 64.5314 929.288 64.7087 929.764C64.8954 930.231 64.9887 930.763 64.9887 931.36C64.9887 931.967 64.8954 932.503 64.7087 932.97C64.5314 933.437 64.284 933.833 63.9667 934.16C63.6587 934.477 63.29 934.72 62.8607 934.888C62.4314 935.056 61.9647 935.14 61.4607 935.14ZM61.4607 934.034C61.7874 934.034 62.086 933.983 62.3567 933.88C62.6367 933.768 62.8794 933.605 63.0847 933.39C63.29 933.166 63.4487 932.886 63.5607 932.55C63.6727 932.214 63.7287 931.817 63.7287 931.36C63.7287 930.903 63.6727 930.506 63.5607 930.17C63.4487 929.834 63.29 929.559 63.0847 929.344C62.8794 929.12 62.6367 928.957 62.3567 928.854C62.086 928.742 61.7874 928.686 61.4607 928.686C61.134 928.686 60.8354 928.742 60.5647 928.854C60.294 928.957 60.056 929.12 59.8507 929.344C59.6547 929.559 59.5007 929.834 59.3887 930.17C59.2767 930.506 59.2207 930.903 59.2207 931.36C59.2207 931.817 59.2767 932.214 59.3887 932.55C59.5007 932.886 59.6547 933.166 59.8507 933.39C60.056 933.605 60.294 933.768 60.5647 933.88C60.8354 933.983 61.134 934.034 61.4607 934.034ZM66.0301 933.95C66.2914 933.791 66.4967 933.544 66.6461 933.208C66.7954 932.872 66.9121 932.447 66.9961 931.934C67.0801 931.421 67.1361 930.814 67.1641 930.114C67.2014 929.414 67.2341 928.621 67.2621 927.734H72.2601V933.95H73.3521V937.072H72.2741L72.1201 935H66.7161L66.5901 937.072H65.4841V933.95H66.0301ZM71.0281 933.95V928.784H68.3681C68.3214 930.156 68.2327 931.257 68.1021 932.088C67.9807 932.909 67.7661 933.53 67.4581 933.95H71.0281Z" fill="#B5B5B7"/>
</g>
</g>
<defs>
<clipPath id="clip0_373_10618">
<rect width="160" height="964" fill="white"/>
</clipPath>
<clipPath id="clip1_373_10618">
<rect width="160" height="964" fill="white"/>
</clipPath>
<clipPath id="clip2_373_10618">
<rect width="20" height="20" fill="white" transform="translate(8 920)"/>
</clipPath>
</defs>
</svg>
