<svg width="20" height="20" viewBox="0 0 20 20" fill="none" xmlns="http://www.w3.org/2000/svg">
<g id="partners">
<path id="Vector" d="M10.2192 2.5C10.1414 2.49986 10.0646 2.51768 9.99441 2.55216C9.9242 2.58663 9.8624 2.63688 9.81355 2.6992L9.72097 2.76989C7.92663 2.19798 5.87951 2.61781 4.45443 4.03151C3.85766 4.61454 3.41371 5.34343 3.16383 6.15044C2.91396 6.95745 2.86627 7.8164 3.02519 8.64748C3.00753 8.66353 2.99019 8.67995 2.97318 8.69674L2.16287 9.49998C2.00612 9.65308 1.88129 9.83744 1.79598 10.0418C1.71068 10.2462 1.66669 10.4663 1.66669 10.6888C1.66669 10.9112 1.71068 11.1314 1.79598 11.3357C1.88129 11.5401 2.00612 11.7245 2.16287 11.8776C2.57687 12.2888 3.15106 12.4431 3.68468 12.3402C3.75022 12.6498 3.90313 12.9443 4.14549 13.1842C4.46483 13.5012 4.87987 13.6651 5.29804 13.6768C5.30948 14.0913 5.47487 14.5026 5.79421 14.8196C6.11355 15.1366 6.52963 15.3015 6.9478 15.3122C6.9582 15.7267 7.12463 16.139 7.44397 16.4561C7.7497 16.7548 8.15018 16.9294 8.57129 16.9475C8.9924 16.9656 9.40564 16.826 9.7345 16.5546L10.1891 17.0044C10.8548 17.6652 11.9345 17.6652 12.6003 17.0044C12.9186 16.6895 13.0839 16.2804 13.0985 15.867C13.5261 15.8557 13.9341 15.6804 14.2427 15.3754C14.561 15.0595 14.7264 14.6504 14.7389 14.237C15.1617 14.2217 15.5642 14.0467 15.8696 13.7454C16.1224 13.4958 16.2784 13.1863 16.3387 12.8629C16.6065 12.9112 16.8815 12.8942 17.1417 12.8131C17.4019 12.7319 17.6399 12.5891 17.8366 12.3959C17.9935 12.2428 18.1185 12.0584 18.2039 11.8539C18.2893 11.6494 18.3334 11.4292 18.3334 11.2066C18.3334 10.984 18.2893 10.7638 18.2039 10.5593C18.1185 10.3548 17.9935 10.1704 17.8366 10.0173L17.0877 9.27508L17.2406 8.68603C17.5499 7.48178 17.3933 6.20094 16.8037 5.11321C15.9341 3.5003 14.2469 2.50428 12.4224 2.50428H11.1429C11.0878 2.50147 11.0327 2.50005 10.9775 2.5H10.2192ZM12.7708 6.47979L15.2725 8.96128L15.2756 8.96342L17.0866 10.7605C17.1455 10.818 17.1923 10.8871 17.2243 10.9638C17.2564 11.0405 17.2729 11.1231 17.2729 11.2066C17.2729 11.2901 17.2564 11.3727 17.2243 11.4494C17.1923 11.5261 17.1455 11.5952 17.0866 11.6527C16.9651 11.7712 16.8041 11.8372 16.6368 11.8372C16.4694 11.8372 16.3084 11.7712 16.1869 11.6527L14.8128 10.2904C14.712 10.1909 14.5779 10.1353 14.4383 10.1353C14.2987 10.1353 14.1645 10.1909 14.0638 10.2904L14.0493 10.3032C14.0002 10.3511 13.9612 10.4087 13.9345 10.4726C13.9078 10.5365 13.894 10.6053 13.894 10.6749C13.894 10.7444 13.9078 10.8132 13.9345 10.8771C13.9612 10.941 14.0002 10.9987 14.0493 11.0465L15.1207 12.1089C15.3703 12.3552 15.3703 12.7558 15.1207 13.0032C15.0102 13.111 14.8667 13.1758 14.7149 13.1866C14.563 13.1973 14.4123 13.1533 14.2885 13.0621C14.1852 12.9853 14.059 12.9481 13.9319 12.9571C13.8048 12.9661 13.6847 13.0207 13.5926 13.1114C13.5026 13.2 13.4482 13.3202 13.4403 13.4482C13.4324 13.5762 13.4716 13.7025 13.55 13.8021C13.6433 13.9226 13.6894 14.0747 13.679 14.2284C13.6686 14.3821 13.6025 14.5262 13.4938 14.6322C13.3817 14.7416 13.2358 14.8067 13.0816 14.8161C12.9275 14.8255 12.775 14.7786 12.6512 14.6836C12.5484 14.6042 12.4217 14.5647 12.2935 14.5722C12.1652 14.5796 12.0436 14.6335 11.9501 14.7243C11.8589 14.8128 11.8036 14.9335 11.7953 15.0622C11.787 15.191 11.8264 15.3182 11.9054 15.4183C12.001 15.5403 12.0484 15.6949 12.0381 15.8513C12.0279 16.0077 11.9608 16.1544 11.8503 16.2622C11.7271 16.3825 11.5639 16.4496 11.3941 16.4496C11.2244 16.4496 11.0611 16.3825 10.938 16.2622L10.4876 15.8156L10.652 15.6528C10.8089 15.4997 10.9338 15.3153 11.0192 15.1108C11.1046 14.9063 11.1487 14.6861 11.1487 14.4635C11.1487 14.2409 11.1046 14.0206 11.0192 13.8162C10.9338 13.6117 10.8089 13.4273 10.652 13.2741C10.3411 12.9674 9.92989 12.7916 9.49941 12.7815C9.48678 12.3478 9.30848 11.9368 9.00323 11.6377C8.69194 11.3311 8.28035 11.1557 7.84965 11.1461C7.83702 10.7124 7.65872 10.3014 7.35347 10.0023C7.15364 9.80644 6.91137 9.66243 6.64674 9.58216C6.3821 9.50189 6.1027 9.48767 5.83166 9.54068C5.76309 9.2184 5.60264 8.92454 5.37085 8.69674C5.19317 8.52216 4.98143 8.38852 4.74971 8.30468C4.518 8.22085 4.2716 8.18875 4.02691 8.21051C3.94496 7.58293 4.00877 6.94429 4.21311 6.34703C4.41744 5.74977 4.75646 5.21094 5.20234 4.77478C5.65289 4.33159 6.19309 3.99652 6.78422 3.79359C7.37534 3.59065 8.00276 3.52488 8.62148 3.60098L7.10799 4.74694C6.91434 4.89181 6.75122 5.07559 6.62847 5.28717C6.50572 5.49876 6.4259 5.73376 6.39382 5.97799C6.36174 6.22223 6.37806 6.47062 6.44181 6.70817C6.50556 6.94573 6.61541 7.16752 6.76472 7.36015C7.06669 7.74999 7.50302 8.00494 7.98293 8.07197C8.46284 8.13899 8.94937 8.01293 9.3413 7.72L10.9807 6.48087H12.7698L12.7708 6.47979ZM7.72379 5.60908L10.42 3.57099H10.9775C11.0285 3.57071 11.0795 3.57214 11.1304 3.57527H12.4224C13.8828 3.57527 15.2153 4.37316 15.8946 5.63371C16.3543 6.48622 16.475 7.47688 16.2347 8.41186L16.2316 8.42257L13.3606 5.56624C13.2633 5.46574 13.1313 5.40912 12.9934 5.40881H10.809C10.6986 5.40902 10.5911 5.44541 10.5022 5.51269L8.7255 6.85571C8.55098 6.98437 8.33531 7.03951 8.12261 7.00985C7.90991 6.98019 7.71626 6.86796 7.58128 6.69613C7.51837 6.61635 7.472 6.52416 7.445 6.42523C7.41801 6.3263 7.41097 6.22273 7.42432 6.12089C7.43767 6.01906 7.47113 5.92111 7.52263 5.83309C7.57413 5.74507 7.64259 5.66884 7.72379 5.60908ZM8.18355 14.8303L8.19396 14.8196L9.00323 14.0163L9.0126 14.0078C9.13479 13.8934 9.29449 13.8308 9.45964 13.8326C9.62479 13.8344 9.78317 13.9004 9.90301 14.0174C9.96184 14.0749 10.0087 14.144 10.0407 14.2207C10.0727 14.2974 10.0892 14.38 10.0892 14.4635C10.0892 14.547 10.0727 14.6296 10.0407 14.7062C10.0087 14.7829 9.96184 14.8521 9.90301 14.9095L9.09269 15.7128C8.97117 15.8313 8.81017 15.8973 8.6428 15.8973C8.47544 15.8973 8.31444 15.8313 8.19292 15.7128C8.13486 15.6562 8.08843 15.5882 8.05638 15.5128C8.02434 15.4374 8.00732 15.3561 8.00635 15.2738C8.00538 15.1915 8.02048 15.1098 8.05074 15.0337C8.081 14.9575 8.12581 14.8883 8.18252 14.8303H8.18355ZM8.26365 13.2645L8.25325 13.2741L7.44397 14.0774L7.43357 14.087C7.3113 14.201 7.15175 14.2632 6.98684 14.2612C6.82194 14.2592 6.66384 14.1932 6.5442 14.0763C6.48603 14.0195 6.43957 13.9512 6.4076 13.8755C6.37563 13.7997 6.35881 13.7182 6.35813 13.6356C6.35745 13.553 6.37293 13.4712 6.40365 13.3949C6.43436 13.3186 6.47969 13.2495 6.53692 13.1917L6.5442 13.1842L7.35347 12.3809L7.36075 12.3734C7.48281 12.2581 7.6428 12.1948 7.80844 12.1962C7.97408 12.1976 8.13304 12.2636 8.25325 12.3809C8.31146 12.4375 8.35803 12.5056 8.39017 12.5811C8.42232 12.6566 8.43938 12.738 8.44035 12.8205C8.44132 12.9029 8.42618 12.9847 8.39582 13.061C8.36547 13.1373 8.32052 13.2065 8.26365 13.2645ZM6.60453 11.6377L5.79421 12.4409L5.78693 12.4484C5.66488 12.5637 5.50489 12.6271 5.33925 12.6257C5.17361 12.6243 5.01465 12.5583 4.89444 12.4409C4.83561 12.3835 4.78876 12.3143 4.75674 12.2376C4.72472 12.1609 4.70821 12.0783 4.70821 11.9949C4.70821 11.9114 4.72472 11.8288 4.75674 11.7521C4.78876 11.6754 4.83561 11.6062 4.89444 11.5488L5.70371 10.7455C5.82529 10.6267 5.98651 10.5605 6.15412 10.5605C6.32173 10.5605 6.48295 10.6267 6.60453 10.7455C6.66286 10.8024 6.70945 10.8708 6.74152 10.9466C6.77358 11.0224 6.79046 11.1041 6.79114 11.1868C6.79182 11.2695 6.77629 11.3515 6.74547 11.4278C6.71466 11.5042 6.6692 11.5734 6.61181 11.6313L6.60453 11.6377ZM4.6219 10.3321L3.81263 11.1354C3.69117 11.2544 3.52991 11.3208 3.36222 11.3208C3.19453 11.3208 3.03327 11.2544 2.91181 11.1354C2.85282 11.0779 2.80583 11.0087 2.77372 10.9319C2.7416 10.8551 2.72504 10.7724 2.72504 10.6888C2.72504 10.6052 2.7416 10.5224 2.77372 10.4457C2.80583 10.3689 2.85282 10.2996 2.91181 10.2422L3.72213 9.43894C3.84365 9.32045 4.00465 9.25442 4.17202 9.25442C4.33938 9.25442 4.50038 9.32045 4.6219 9.43894C4.6809 9.49639 4.72789 9.56563 4.76 9.64242C4.79211 9.71921 4.80868 9.80193 4.80868 9.88554C4.80868 9.96914 4.79211 10.0519 4.76 10.1287C4.72789 10.2055 4.6809 10.2747 4.6219 10.3321Z" fill="#797981"/>
</g>
</svg>
