<svg width="20" height="20" viewBox="0 0 20 20" fill="none" xmlns="http://www.w3.org/2000/svg">
<path d="M17.2252 3.07788C15.3376 1.10756 12.7258 -0.00439339 9.99712 0.00062728C4.48284 -0.00631798 0.00695317 4.45827 7.91637e-06 9.9726C-0.00342287 12.6992 1.1084 15.3086 3.07726 17.195C3.08299 17.2006 3.08513 17.2092 3.09082 17.2142C3.14864 17.2699 3.21148 17.3171 3.27005 17.3706C3.43071 17.5134 3.59138 17.6612 3.76061 17.7991C3.85128 17.8705 3.94554 17.9419 4.03838 18.0075C4.19833 18.1268 4.35828 18.246 4.52535 18.356C4.6389 18.4274 4.756 18.4988 4.87236 18.5702C5.02658 18.6631 5.18012 18.7566 5.33936 18.8416C5.47434 18.913 5.61211 18.9744 5.74922 19.0393C5.89917 19.1108 6.04699 19.1821 6.20049 19.2464C6.354 19.3107 6.50826 19.3607 6.6639 19.4163C6.81954 19.472 6.9538 19.5235 7.10304 19.5691C7.27157 19.6199 7.44436 19.6591 7.61573 19.7012C7.75853 19.7362 7.89706 19.7762 8.04416 19.8048C8.24123 19.8441 8.44117 19.869 8.64112 19.8962C8.76467 19.9134 8.88534 19.9376 9.01027 19.9498C9.33732 19.9819 9.66718 19.9998 9.99992 19.9998C10.3327 19.9998 10.6626 19.9819 10.9896 19.9498C11.1146 19.9376 11.2352 19.9134 11.3587 19.8962C11.5587 19.869 11.7586 19.8441 11.9557 19.8048C12.0985 19.7762 12.2413 19.7334 12.3841 19.7012C12.5555 19.6591 12.7283 19.6198 12.8968 19.5691C13.046 19.5235 13.1903 19.4678 13.3359 19.4163C13.4816 19.3649 13.6473 19.3092 13.7994 19.2464C13.9514 19.1836 14.1007 19.11 14.2506 19.0393C14.3877 18.9744 14.5256 18.9129 14.6605 18.8416C14.8197 18.7566 14.9732 18.663 15.1275 18.5702C15.2439 18.4988 15.361 18.4338 15.4745 18.356C15.6416 18.2461 15.8016 18.1268 15.9615 18.0075C16.0543 17.9361 16.1485 17.8719 16.2392 17.7991C16.4085 17.6634 16.5691 17.5192 16.7298 17.3706C16.7883 17.3171 16.8512 17.27 16.909 17.2142C16.9147 17.2093 16.9169 17.2007 16.9226 17.195C20.9046 13.3802 21.04 7.05973 17.2252 3.07788ZM15.6203 16.4473C15.4904 16.5616 15.3561 16.6701 15.2205 16.7751C15.1405 16.8365 15.0605 16.8972 14.9784 16.9558C14.8491 17.0493 14.7178 17.1378 14.5842 17.2228C14.4871 17.2849 14.3879 17.3449 14.2879 17.4035C14.1622 17.4749 14.0344 17.5463 13.9051 17.6177C13.7909 17.6762 13.6745 17.7312 13.5574 17.7855C13.4403 17.8398 13.3111 17.8976 13.1847 17.9483C13.0583 17.999 12.924 18.0468 12.7919 18.0911C12.6713 18.1325 12.5506 18.1754 12.4285 18.2118C12.2857 18.2546 12.1364 18.2896 11.9886 18.3253C11.8729 18.3524 11.7587 18.3831 11.6416 18.406C11.4724 18.4389 11.2996 18.4617 11.1261 18.4853C11.0275 18.4981 10.9297 18.516 10.8304 18.526C10.5562 18.5524 10.2784 18.5681 9.99783 18.5681C9.71722 18.5681 9.43945 18.5524 9.16524 18.526C9.066 18.516 8.96818 18.4981 8.86961 18.4853C8.6961 18.4617 8.5233 18.4389 8.35407 18.406C8.23696 18.3832 8.1227 18.3525 8.00705 18.3253C7.85924 18.2896 7.71213 18.2539 7.5672 18.2118C7.44512 18.1754 7.32441 18.1325 7.20375 18.0911C7.07166 18.0454 6.93953 17.999 6.81101 17.9483C6.68248 17.8976 6.5611 17.8419 6.43826 17.7855C6.31542 17.7291 6.20476 17.6763 6.09054 17.6177C5.9613 17.5506 5.83348 17.4799 5.7078 17.4035C5.60784 17.3449 5.50856 17.2849 5.41145 17.2228C5.27794 17.1378 5.14653 17.0493 5.01729 16.9558C4.93516 16.8972 4.8552 16.8365 4.77521 16.7751C4.63952 16.6701 4.5053 16.5609 4.37535 16.4473C4.34393 16.4238 4.31536 16.3938 4.28469 16.3666C4.31661 13.9376 5.87708 11.7928 8.17843 11.0148C9.32912 11.5622 10.6651 11.5622 11.8158 11.0148C14.1171 11.7928 15.6776 13.9375 15.7096 16.3666C15.6796 16.3938 15.651 16.4209 15.6203 16.4473ZM7.50716 5.72578C8.2803 4.35079 10.0217 3.8629 11.3967 4.63604C12.7717 5.40918 13.2596 7.15056 12.4864 8.52556C12.2299 8.98177 11.8529 9.35874 11.3967 9.61529C11.3931 9.61529 11.3888 9.61529 11.3845 9.61956C11.1952 9.72495 10.9951 9.80972 10.7876 9.87235C10.7505 9.88306 10.7162 9.89733 10.6769 9.90662C10.6055 9.92519 10.5305 9.93804 10.457 9.95088C10.3185 9.97511 10.1784 9.98916 10.0378 9.99301H9.95641C9.81588 9.98916 9.67576 9.97511 9.53727 9.95088C9.46585 9.93804 9.39016 9.92519 9.31736 9.90662C9.2795 9.89733 9.24595 9.88306 9.2067 9.87235C8.99922 9.80972 8.79911 9.72499 8.60974 9.61956L8.5969 9.61529C7.22191 8.84215 6.73402 7.10077 7.50716 5.72578ZM16.9763 14.9507C16.518 12.8135 15.1107 11.0015 13.1532 10.0288C14.7534 8.28574 14.6375 5.57554 12.8944 3.97541C11.1514 2.37528 8.44117 2.49117 6.84105 4.23422C5.33677 5.87289 5.33677 8.39017 6.84105 10.0288C4.88361 11.0016 3.47624 12.8135 3.01802 14.9507C0.27991 11.0939 1.18681 5.74762 5.04365 3.00951C8.90048 0.271409 14.2467 1.17831 16.9848 5.03514C18.0141 6.48499 18.5667 8.21925 18.5658 9.99732C18.5658 11.7738 18.01 13.5058 16.9763 14.9507Z" fill="#1A1B22"/>
</svg>
