<svg width="319" height="160" viewBox="0 0 319 160" fill="none" xmlns="http://www.w3.org/2000/svg">
    <mask id="path-1-inside-1_1_2" fill="white">
        <path d="M309.775 -5.5C309.775 47.1223 266.895 89.7811 214 89.7811C208.876 89.7811 203.846 89.3808 198.94 88.6099L198.284 89.7399C203.4 90.569 208.649 91 214 91C267.572 91 311 47.7955 311 -5.5C311 -58.7955 267.572 -102 214 -102C160.428 -102 117 -58.7955 117 -5.5C117 40.4976 149.349 78.9786 192.649 88.6547L193.291 87.5479C150.352 78.1321 118.225 40.0484 118.225 -5.5C118.225 -58.1223 161.105 -100.781 214 -100.781C266.895 -100.781 309.775 -58.1223 309.775 -5.5Z"/>
    </mask>
    <path d="M309.775 -5.5C309.775 47.1223 266.895 89.7811 214 89.7811C208.876 89.7811 203.846 89.3808 198.94 88.6099L198.284 89.7399C203.4 90.569 208.649 91 214 91C267.572 91 311 47.7955 311 -5.5C311 -58.7955 267.572 -102 214 -102C160.428 -102 117 -58.7955 117 -5.5C117 40.4976 149.349 78.9786 192.649 88.6547L193.291 87.5479C150.352 78.1321 118.225 40.0484 118.225 -5.5C118.225 -58.1223 161.105 -100.781 214 -100.781C266.895 -100.781 309.775 -58.1223 309.775 -5.5Z" fill="#5A9BFF"/>
    <path d="M198.94 88.6099L199.251 86.6341L197.898 86.4216L197.21 87.606L198.94 88.6099ZM198.284 89.7399L196.554 88.7361L195.096 91.2493L197.964 91.7142L198.284 89.7399ZM192.649 88.6547L192.213 90.6066L193.643 90.9262L194.379 89.6586L192.649 88.6547ZM193.291 87.5479L195.021 88.5518L196.397 86.1813L193.72 85.5943L193.291 87.5479ZM214 91.7811C267.99 91.7811 311.775 48.2366 311.775 -5.5H307.775C307.775 46.008 265.8 87.7811 214 87.7811V91.7811ZM198.63 90.5856C203.638 91.3726 208.772 91.7811 214 91.7811V87.7811C208.98 87.7811 204.054 87.3889 199.251 86.6341L198.63 90.5856ZM197.21 87.606L196.554 88.7361L200.014 90.7438L200.67 89.6138L197.21 87.606ZM197.964 91.7142C203.185 92.5603 208.542 93 214 93V89C208.757 89 203.614 88.5777 198.604 87.7657L197.964 91.7142ZM214 93C268.666 93 313 48.9098 313 -5.5H309C309 46.6812 266.477 89 214 89V93ZM313 -5.5C313 -59.9098 268.666 -104 214 -104V-100C266.477 -100 309 -57.6812 309 -5.5H313ZM214 -104C159.334 -104 115 -59.9098 115 -5.5H119C119 -57.6812 161.523 -100 214 -100V-104ZM115 -5.5C115 41.461 148.026 80.7321 192.213 90.6066L193.085 86.7029C150.673 77.2251 119 39.5343 119 -5.5H115ZM194.379 89.6586L195.021 88.5518L191.562 86.544L190.919 87.6508L194.379 89.6586ZM116.225 -5.5C116.225 41.0146 149.032 79.8902 192.863 89.5015L193.72 85.5943C151.671 76.374 120.225 39.0823 120.225 -5.5H116.225ZM214 -102.781C160.01 -102.781 116.225 -59.2366 116.225 -5.5H120.225C120.225 -57.008 162.2 -98.7811 214 -98.7811V-102.781ZM311.775 -5.5C311.775 -59.2366 267.99 -102.781 214 -102.781V-98.7811C265.8 -98.7811 307.775 -57.008 307.775 -5.5H311.775Z" fill="#5A9BFF" mask="url(#path-1-inside-1_1_2)"/>
    <mask id="path-3-inside-2_1_2" fill="white">
        <path d="M225.989 36.4731L155 160.606L244.89 213L319 83.4094L234.231 34L233.622 35.0657L317.335 83.8598L244.444 211.319L156.665 160.155L227.045 37.0884L225.989 36.4731Z"/>
    </mask>
    <path d="M225.989 36.4731L155 160.606L244.89 213L319 83.4094L234.231 34L233.622 35.0657L317.335 83.8598L244.444 211.319L156.665 160.155L227.045 37.0884L225.989 36.4731Z" fill="#1D6BF3"/>
    <path d="M225.989 36.4731L226.996 34.7452L225.254 33.7297L224.253 35.4802L225.989 36.4731ZM155 160.606L153.264 159.613L152.279 161.335L153.993 162.334L155 160.606ZM244.89 213L243.883 214.728L245.625 215.743L246.626 213.993L244.89 213ZM319 83.4094L320.736 84.4022L321.721 82.6804L320.007 81.6815L319 83.4094ZM234.231 34L235.238 32.2721L233.496 31.2566L232.495 33.0071L234.231 34ZM233.622 35.0657L231.886 34.0728L230.901 35.7947L232.615 36.7936L233.622 35.0657ZM317.335 83.8598L319.071 84.8527L320.056 83.1308L318.342 82.1319L317.335 83.8598ZM244.444 211.319L243.436 213.047L245.179 214.062L246.18 212.312L244.444 211.319ZM156.665 160.155L154.929 159.162L153.944 160.884L155.658 161.883L156.665 160.155ZM227.045 37.0884L228.781 38.0812L229.765 36.3593L228.052 35.3605L227.045 37.0884ZM232.495 33.0071L231.886 34.0728L235.358 36.0586L235.967 34.9929L232.495 33.0071ZM318.342 82.1319L234.629 33.3378L232.615 36.7936L316.328 85.5877L318.342 82.1319ZM246.18 212.312L319.071 84.8527L315.599 82.8669L242.707 210.326L246.18 212.312ZM155.658 161.883L243.436 213.047L245.451 209.591L157.672 158.427L155.658 161.883ZM225.308 36.0955L154.929 159.162L158.401 161.148L228.781 38.0812L225.308 36.0955ZM228.052 35.3605L226.996 34.7452L224.982 38.201L226.037 38.8163L228.052 35.3605ZM224.253 35.4802L153.264 159.613L156.736 161.599L227.725 37.4659L224.253 35.4802ZM153.993 162.334L243.883 214.728L245.897 211.272L156.007 158.878L153.993 162.334ZM246.626 213.993L320.736 84.4022L317.264 82.4165L243.154 212.007L246.626 213.993ZM320.007 81.6815L235.238 32.2721L233.224 35.7279L317.993 85.1373L320.007 81.6815Z" fill="#1D6BF3" mask="url(#path-3-inside-2_1_2)"/>
    <path d="M0.797252 139.355L51.4611 12.9422L141.036 115.114L0.797252 139.355Z" stroke="#5A9BFF"/>
</svg>
