<svg xmlns:xlink="http://www.w3.org/1999/xlink" width="180" height="137" fill="none" xmlns="http://www.w3.org/2000/svg"><path fill="#FFFFFF" d="M0 0h180v137H0z"></path><path d="M44.64 109h115.42V32.35H45.38a.74.74 0 00-.74.75V109z" fill="#FFFFFF"></path><path d="M44.47 106.86c0 1.1.9 2 2 2h111.77a2 2 0 002-2V32.3H45.2c-.4 0-.73.33-.73.75v73.82z" stroke="#000000" stroke-width="0.5px" stroke-miterlimit="10" fill="none"></path><path d="M158.13 29.43H46.97a2.5 2.5 0 00-2.51 2.5v1.58h116.17v-1.58a2.5 2.5 0 00-2.51-2.5z" fill="currentColor" stroke="#000000" stroke-width="0.5px"></path><path d="M103.68 43.44H54.14c-.83 0-1.5.67-1.5 1.5V97.4c0 .83.67 1.5 1.5 1.5h49.54c.83 0 1.5-.67 1.5-1.5V44.94c0-.83-.67-1.5-1.5-1.5zm24.39 19.85h-14.83c-.9 0-1.64-.7-1.64-1.55v-1.58c0-.85.74-1.54 1.64-1.54h14.83c.9 0 1.63.7 1.63 1.54v1.58c0 .84-.74 1.55-1.63 1.55z" fill="currentColor"></path><path d="M36.66 103.86c-3.87 4.8-3.85 16.1-3.35 21.14l-30.27-7.33v-1.48l.39-9.68.55-6.94.93-8.35 1.25-7.25 3.12-13.65 3.12-8.2 3.82-7.48 5.3-6.4 5.31-4.44 3.75-2.11 3.97-.94 3.83-.23 3.74 1.17 2.65 1.56 1.25 1.56 1.72.31 3.66 1.64 2.5 2.65.55 1.64 1.71.39 1.33.86 3.2-1.64 4.05-.94c6.63.24 5.3 4.42 3.51 6.09l-7.17 4.37-8.2 5.77-4.36 3.82-5.07 5.93c-.86 1.33-2.64 4.17-2.89 4.91-.25.75.26 1.4.55 1.64l6.47-.54h6.4l5.46.54c1.87.57 5.86 2.2 6.86 4.14 1 1.93-1.2 3.4-2.41 3.9-2.4.86-8.24 2.68-12.49 3.12-4.24.43-8.63 3.2-10.3 4.52-.62.31-2.38 1.94-4.44 5.93z" fill="#FFFFFF"></path><path d="M32.8 119.4c.48-8.64.96-20.65 15.73-25.36 10.75-2.54 16.68-2.82 17.81-5.93.9-2.5-2.26-5.1-7.35-5.94-2.26-.38-8.87-.9-17.24 0-2.94.45.66-5.28 2.83-8.2 2.35-3.02 10.29-10.8 23.18-17.81 3.67-2.26 1.5-5.26.28-5.94-1.22-.68-4.52-.84-8.76 1.13a831.92 831.92 0 00-18.1 8.77l-4.8 2.82" stroke="#000000" stroke-width="0.5px" stroke-linecap="round" fill="none"></path><path d="M3.02 118.92c0-14.42 1.44-49.48 13.85-65.02 11.94-14.96 21.96-14.42 26.01-11.88.76.48 2.38 1.59 2.83 2.27.45.67.56.66.56.56 2.36.38 7.3 2.04 8.2 5.66.13.56.1.52 0 .52.68.09 2.15.27 2.83 1.17m-11.03-7.35c-4.05 0-13.28.9-17.8 4.52m26.21 1.68c-4.75-.57-16.5.54-22.39 4.84" stroke="#000000" stroke-width="0.5px" stroke-linecap="round" fill="none"></path><path d="M64.01 74.63c1.84 2.1 2.66 5.45 2.66 10.87h.16c0-5.42.82-8.77 2.66-10.87 1.83-2.1 4.77-3.04 9.51-3.04v-.18c-4.74 0-7.68-.94-9.51-3.04-1.84-2.1-2.66-5.45-2.66-10.87h-.16c0 5.42-.82 8.77-2.66 10.87-1.83 2.1-4.77 3.04-9.51 3.04v.18c4.74 0 7.68.94 9.51 3.04z" fill="#FFFFFF" stroke="#FFFFFF" stroke-width="0.29px" stroke-linecap="round" stroke-linejoin="round"></path><path d="M73.5 99.5c6.1-15.06 23.95-10.27 20.75-5.75C90.6 98.9 83.5 76 105.5 74.5" stroke="#FFFFFF" stroke-width="0.5px" fill="none"></path><path d="M105.25 74.5c26.78-.86 68.75 21.2 68.75-3.17 0-6.6-7.57-11.18-13.97-12.33M35 36c-7.7-11.68 7.11-32.05 38.5-5.4" stroke="#000000" stroke-width="0.5px" fill="none"></path><path d="M27.62 29c-2.89-8.57 5.13-13 7.38-13m133 70.96c5.48-.32 8.61-5.58 8.61-8.26" stroke="#000000" stroke-width="0.5px" stroke-linecap="round" fill="none"></path><path d="M111.5 44.5h26m3.5 0h9.5m-39 4h13m2.5 0h6.5m-22 4.5h6.5m3 0h20" stroke="#000000" stroke-linecap="round" fill="none"></path></svg>