<svg xmlns:xlink="http://www.w3.org/1999/xlink" width="260" height="140" fill="none" xmlns="http://www.w3.org/2000/svg"><g clip-path="url(#hashedId-1271006818-design-presentation-0)" fill="none"><path d="M211.44 124.38H89.63c-1.42 0-2.53-1.23-2.53-2.8V39.96c0-1.57 1.11-2.8 2.53-2.8h121.81c1.42 0 2.53 1.23 2.53 2.8v81.67c0 1.52-1.11 2.75-2.53 2.75z" fill="currentColor" stroke="#000000" stroke-width="0.51px" stroke-miterlimit="10"></path><path d="M204.47 115.64H82.65c-1.41 0-2.52-1.24-2.52-2.8V31.15c0-1.57 1.1-2.8 2.52-2.8h121.82c1.41 0 2.53 1.23 2.53 2.8v81.67c0 1.52-1.12 2.8-2.53 2.8z" fill="#FFFFFF" stroke="#000000" stroke-width="0.51px" stroke-miterlimit="10"></path><path d="M197 106.33H75.16c-1.41 0-2.52-1.23-2.52-2.8V21.85c0-1.57 1.11-2.8 2.52-2.8H197c1.42 0 2.53 1.23 2.53 2.8v81.68c0 1.51-1.11 2.8-2.53 2.8z" fill="#FFFFFF" stroke="#000000" stroke-width="0.51px" stroke-miterlimit="10"></path><path d="M147.68 87.83l14.4-30.94 7.88 14.52 15.3-29.55" stroke="#000000" stroke-width="1.52px" stroke-miterlimit="10" fill="none"></path><path d="M135.7 66.36H85.03v3.42h50.67v-3.42zm-18.54 7.18H85.03v3.42h32.13v-3.42zm18.54-14.19H85.03v3.42h50.67v-3.42zm0-7.11H85.03v3.42h50.67v-3.42zM105.6 92.2H85.52v3.42h20.06V92.2zm56.02-1.52h-14.9v1.23h14.9V90.7zm28.8-66.03h-14.9v1.23h14.9v-1.23zm-28.8 68.33h-14.9v1.23h14.9V93zm-6.21 2.24h-8.7v1.24h8.7v-1.24zm38.4-70.57h-1.62v1.23h1.62v-1.23zm10.1 8.24h-1.61v1.23h1.61V32.9zm-86.7 53.08H85.53v3.42h31.68v-3.42zm29.71-53.2l-2.07 4.66h4.14l-2.07-4.66zm45.98 55l-4.25-2.25v4.54l4.25-2.3zm-30.47-2.87h-.5v2.64h.5V84.9zm0-4.14h-.5v2.63h.5v-2.63zm0-4.16h-.5v2.64h.5v-2.63zm0-4.14h-.5v2.63h.5v-2.63zm0-4.2h-.5v2.63h.5v-2.64zm0-4.32h-.5v2.63h.5v-2.63zm0-4.15h-.5v2.63h.5V59.8zm0-4.2h-.5v2.63h.5V55.6zm8.09 30.83h-.5v2.47h.5v-2.47zm0-3.87h-.5v2.47h.5v-2.47zm0-3.87h-.5v2.47h.5V78.7zm0-4.26h-.5v2.47h.5v-2.47zm7.17 10.7h-.5v2.42h.5v-2.41zm0-3.69h-.5v2.41h.5v-2.41zm0-3.76h-.5v2.41h.5v-2.4zm0-3.75h-.5v2.41h.5v-2.41zm0-3.76h-.5v2.41h.5v-2.4zm0-3.92h-.5v2.4h.5v-2.4zm0-3.76h-.5v2.41h.5v-2.4zm0-3.75h-.5v2.4h.5v-2.4zm7.63 26.4h-.5v2.41h.5v-2.4zm0-3.7h-.5v2.41h.5v-2.4zm0-3.75h-.5v2.4h.5v-2.4zm0-3.76h-.5v2.41h.5v-2.4zm0-3.76h-.5v2.41h.5v-2.4zm0-3.75h-.5v2.4h.5v-2.4zm0-3.76h-.5v2.41h.5v-2.4z" fill="currentColor"></path><path d="M185.32 66.25h-.5v2.41h.5v-2.41zm0-3.75h-.5v2.4h.5v-2.4zm0-3.76h-.5v2.41h.5v-2.41zm0-3.75h-.5v2.4h.5V55zm0-3.76h-.5v2.4h.5v-2.4zm0-3.76h-.5v2.41h.5v-2.4zm0-3.75h-.5v2.4h.5v-2.4zM154.2 85.14h-.5v2.42h.5v-2.41zm0-3.7h-.5v2.41h.5v-2.4zm0-4.09h-.5v2.41h.5v-2.41zm0-3.75h-.5V76h.5v-2.4z" fill="currentColor"></path><path d="M153.94 76.96c1.18 0 2.13-1 2.13-2.24 0-1.24-.95-2.25-2.13-2.25s-2.12 1-2.12 2.25.95 2.24 2.12 2.24z" fill="#FFFFFF"></path><path d="M153.94 77.3c-1.36 0-2.42-1.18-2.42-2.58a2.5 2.5 0 012.42-2.58c1.37 0 2.43 1.18 2.43 2.58a2.44 2.44 0 01-2.43 2.58zm0-4.49c-1 0-1.82.84-1.82 1.9s.81 1.91 1.82 1.91 1.82-.84 1.82-1.9c0-1.07-.8-1.9-1.82-1.9z" fill="currentColor"></path><path d="M162.18 59.75c1.17 0 2.12-1 2.12-2.24s-.95-2.25-2.12-2.25-2.12 1-2.12 2.25.95 2.24 2.12 2.24z" fill="#FFFFFF"></path><path d="M162.18 60.09c-1.36 0-2.43-1.18-2.43-2.58 0-1.4 1.12-2.58 2.43-2.58 1.36 0 2.42 1.17 2.42 2.58 0 1.4-1.06 2.58-2.42 2.58zm0-4.49c-1.01 0-1.82.84-1.82 1.9s.8 1.91 1.82 1.91c1.01 0 1.82-.84 1.82-1.9 0-1.07-.81-1.91-1.82-1.91z" fill="currentColor"></path><path d="M169.96 71.52c1.17 0 2.12-1 2.12-2.24 0-1.24-.95-2.25-2.12-2.25s-2.12 1-2.12 2.25c0 1.24.95 2.24 2.12 2.24z" fill="#FFFFFF"></path><path d="M169.96 71.91c-1.36 0-2.42-1.17-2.42-2.57a2.5 2.5 0 012.42-2.59c1.36 0 2.42 1.18 2.42 2.58 0 1.4-1.1 2.58-2.42 2.58zm0-4.54c-1.01 0-1.82.84-1.82 1.9 0 1.07.8 1.91 1.82 1.91 1.01 0 1.82-.84 1.82-1.9 0-1.07-.86-1.9-1.82-1.9z" fill="currentColor"></path><path d="M177.44 58.9c1.17 0 2.12-1 2.12-2.24 0-1.24-.95-2.24-2.12-2.24-1.17 0-2.12 1-2.12 2.24 0 1.24.95 2.24 2.12 2.24z" fill="#FFFFFF"></path><path d="M177.44 59.3c-1.37 0-2.43-1.18-2.43-2.58 0-1.4 1.11-2.58 2.43-2.58 1.36 0 2.42 1.18 2.42 2.58 0 1.4-1.06 2.58-2.42 2.58zm0-4.54c-1.01 0-1.82.84-1.82 1.9s.8 1.9 1.82 1.9c1 0 1.82-.83 1.82-1.9 0-1.06-.81-1.9-1.82-1.9z" fill="currentColor"></path><path d="M185.12 45.68c1.92 0 3.48-1.7 3.48-3.81 0-2.1-1.56-3.81-3.48-3.81-1.93 0-3.49 1.7-3.49 3.8 0 2.11 1.56 3.82 3.49 3.82z" fill="#FFFFFF"></path><path d="M185.12 46.13c-2.18 0-3.9-1.91-3.9-4.26 0-2.36 1.78-4.26 3.9-4.26 2.17 0 3.89 1.9 3.89 4.26 0 2.35-1.77 4.26-3.9 4.26zm0-7.63c-1.72 0-3.14 1.52-3.14 3.42 0 1.85 1.42 3.42 3.14 3.42s3.13-1.51 3.13-3.42c-.05-1.9-1.46-3.42-3.13-3.42z" fill="currentColor"></path><path d="M185.07 44.1c1.17 0 2.12-1.02 2.12-2.3 0-1.26-.95-2.29-2.12-2.29s-2.12 1.03-2.12 2.3c0 1.27.95 2.3 2.12 2.3z" fill="currentColor"></path><path d="M146.82 35.14l.15 52.7m42.95.05h-43.05" stroke="#000000" stroke-width="0.51px" stroke-miterlimit="10" fill="none"></path><path d="M59.31 120.18a89.96 89.96 0 0126.38-28.6c3.33-2.29 6.82-4.36 9.54-7.4A45.75 45.75 0 00102 74.6c5.26-10.42 9.86-22.03 7.63-33.69-4.54 1.24-6.06 7.3-7.88 12a31.8 31.8 0 01-5.4 9.02c-1.27 1.52-3.09 2.92-4.9 2.3-2.48-.9-2.53-4.7-1.93-7.5A99.85 99.85 0 01101.8 26c.56-.84 1.11-1.85.91-2.86-.4-1.96-3.03-1.96-4.7-1.12-4.7 2.47-7.68 7.68-10.05 12.73a137.94 137.94 0 00-7.99 21.41l7.43-31.34C88.41 20.62 90.8 13 89.47 12c-2.83-.11-4.95 4.26-6.41 7.34a178.97 178.97 0 00-12.63 37.5c2.12-12 2.93-24.38 6.41-35.93 1.47-4.88 3.19-10.15 1.01-11.04-2.57-.17-7.02 8.63-8.84 14.12a100.31 100.31 0 00-4.9 23.88c-.3 3.98-.45 8.19-2.17 11.72-1.16-5.83-2.38-11.66-3.54-17.49-.9-4.43-1.82-8.97-3.99-12.9-.25-.44-.56-.95-1.06-1.11-1.16-.34-1.82 1.34-1.97 2.63a83.9 83.9 0 004.75 37.9c.6 1.62-.46 3.25-1.27 4.76a4157.6 4157.6 0 01-7.17 13.34" fill="#FFFFFF"></path><path d="M59.31 120.18a89.96 89.96 0 0126.38-28.6c3.33-2.29 6.82-4.36 9.54-7.4A45.75 45.75 0 00102 74.6c5.26-10.42 9.86-22.03 7.63-33.69-4.54 1.24-6.06 7.3-7.88 12a31.8 31.8 0 01-5.4 9.02c-1.27 1.52-3.09 2.92-4.9 2.3-2.48-.9-2.53-4.7-1.93-7.5A99.85 99.85 0 01101.8 26c.56-.84 1.11-1.85.91-2.86-.4-1.96-3.03-1.96-4.7-1.12-4.7 2.47-7.68 7.68-10.05 12.73a137.94 137.94 0 00-7.99 21.41l7.43-31.34C88.41 20.62 90.8 13 89.47 12c-2.83-.11-4.95 4.26-6.41 7.34a178.97 178.97 0 00-12.63 37.5c2.12-12 2.93-24.38 6.41-35.93 1.47-4.88 3.19-10.15 1.01-11.04-2.57-.17-7.02 8.63-8.84 14.12a100.31 100.31 0 00-4.9 23.88c-.3 3.98-.45 8.19-2.17 11.72-1.16-5.83-2.38-11.66-3.54-17.49-.9-4.43-1.82-8.97-3.99-12.9-.25-.44-.56-.95-1.06-1.11-1.16-.34-1.82 1.34-1.97 2.63a83.9 83.9 0 004.75 37.9c.6 1.62-.46 3.25-1.27 4.76a4157.6 4157.6 0 01-7.17 13.34" stroke="#000000" stroke-width="0.51px" stroke-miterlimit="10" fill="none"></path><path d="M96 38.11l-1.83 3.87 2.43 7 51.33-23.09-4.65-12.28-45.22 20.35L96 38.11z" fill="currentColor" stroke="#000000" stroke-width="0.51px" stroke-miterlimit="10"></path><path d="M172.28 102.69c-1.46-.23-5.3 1.06-6.06 2.46-2.42 4.26-2.37 9.7-1.61 14.7a58.9 58.9 0 009.19 23.7" fill="#FFFFFF"></path><path d="M172.28 102.69c-1.46-.23-5.3 1.06-6.06 2.46-2.42 4.26-2.37 9.7-1.61 14.7a58.9 58.9 0 009.19 23.7" stroke="#000000" stroke-width="0.51px" stroke-miterlimit="10" fill="none"></path><path d="M173.9 128.2c-2.47-9.65-3.08-19.9-4.65-29.83a199.4 199.4 0 01-2.17-20.74c-.15-2.36-.3-5.16.56-6.95.45-.95 3.58-1.12 4.14.84 2.88 10.93 6.82 27.3 9.6 38.23-.3-2.35-2.63-10.31-3.03-12.67-.26-1.4.3-2.91 1.21-3.92.96-1.12 2.83-1.52 3.84-.45a13.56 13.56 0 012.53 4.93c.7 2.86 2.83 9.81 3.53 12.67-.45-3.03-3.53-10.15-3.53-13.23a4.9 4.9 0 012.52-3.87c.25-.1 1.06 0 1.32.12 2.22 1 6.26 15.3 6.77 16.42-1.01-3.3-3.04-8.8-4.55-12.67-.3-.78-.5-1.12 0-1.63.9-1 2.32-1 3.54-.56 1.51.56 3.58 3.09 4.04 4.43 5.05 14.3 10.25 30.72 17.73 44.68" fill="#FFFFFF"></path><path d="M173.9 128.2c-2.47-9.65-3.08-19.9-4.65-29.83a199.4 199.4 0 01-2.17-20.74c-.15-2.36-.3-5.16.56-6.95.45-.95 3.58-1.12 4.14.84 2.88 10.93 6.82 27.3 9.6 38.23-.3-2.35-2.63-10.31-3.03-12.67-.26-1.4.3-2.91 1.21-3.92.96-1.12 2.83-1.52 3.84-.45a13.56 13.56 0 012.53 4.93c.7 2.86 2.83 9.81 3.53 12.67-.45-3.03-3.53-10.15-3.53-13.23a4.9 4.9 0 012.52-3.87c.25-.1 1.06 0 1.32.12 2.22 1 6.26 15.3 6.77 16.42-1.01-3.3-3.04-8.8-4.55-12.67-.3-.78-.5-1.12 0-1.63.9-1 2.32-1 3.54-.56 1.51.56 3.58 3.09 4.04 4.43 5.05 14.3 10.25 30.72 17.73 44.68" stroke="#000000" stroke-width="0.51px" stroke-miterlimit="10" fill="none"></path><path d="M142.17 6.1c2.83 0 3.8-2.41 3.8-5.04 0 2.63.95 5.04 3.78 5.04-2.83 0-3.79 2.41-3.79 5.04 0-2.57-.96-5.04-3.79-5.04z" fill="currentColor"></path><path d="M146.16 11.2h-.4c0-1.8-.46-4.87-3.59-4.87v-.45c3.13 0 3.59-3.03 3.59-4.88h.4c0 1.8.46 4.88 3.6 4.88v.44c-3.14 0-3.6 3.09-3.6 4.88zm-2.67-5.1c1.26.45 2.07 1.52 2.42 3.08.35-1.62 1.21-2.69 2.43-3.08-1.27-.45-2.08-1.51-2.43-3.08-.3 1.62-1.16 2.69-2.42 3.08zm7.52 6.61c1.87 0 2.53-1.62 2.53-3.36 0 1.74.66 3.36 2.53 3.36-1.87 0-2.53 1.63-2.53 3.37 0-1.74-.66-3.37-2.53-3.37z" fill="currentColor"></path><path d="M153.64 16.07h-.25c0-1.17-.3-3.19-2.38-3.19v-.28c2.07 0 2.38-2.02 2.38-3.2h.25c0 1.18.3 3.2 2.38 3.2v.28c-2.03 0-2.38 2.02-2.38 3.2zm-1.72-3.36c.81.28 1.37 1.01 1.62 2.08.25-1.07.8-1.8 1.62-2.08-.81-.28-1.37-1-1.62-2.07-.25 1.06-.8 1.8-1.62 2.07zm-19.15-4.2c1.42 0 1.92-1.23 1.92-2.52 0 1.34.46 2.52 1.92 2.52-1.41 0-1.92 1.23-1.92 2.52 0-1.29-.5-2.52-1.92-2.52z" fill="currentColor"></path><path d="M134.8 11.09h-.2c0-.9-.26-2.41-1.83-2.41V8.4c1.57 0 1.82-1.51 1.82-2.41h.2c0 .9.26 2.4 1.82 2.4v.23c-1.56 0-1.82 1.52-1.82 2.47zm-1.32-2.58c.6.23 1.06.73 1.21 1.57.2-.78.61-1.34 1.22-1.57-.61-.22-1.07-.73-1.22-1.57-.2.84-.6 1.35-1.2 1.57z" fill="currentColor"></path></g><defs><clipPath id="hashedId-1271006818-design-presentation-0"><path fill="#fff" d="M0 0h260v140H0z"></path></clipPath></defs></svg>