<svg width="135" height="91" viewBox="0 0 135 91" fill="none" xmlns="http://www.w3.org/2000/svg">
<mask id="path-1-inside-1_389_11056" fill="white">
<path d="M126.09 90.5442C129.973 91.1646 133.642 88.5202 134.077 84.612C137.124 57.2766 132.594 29.6245 120.985 4.68985C119.325 1.12493 115.004 -0.210701 111.522 1.61632L3.97379 58.0448C-2.09134 61.2271 -0.605026 70.3001 6.15845 71.3808L126.09 90.5442Z"/>
</mask>
<path d="M126.09 90.5442C129.973 91.1646 133.642 88.5202 134.077 84.612C137.124 57.2766 132.594 29.6245 120.985 4.68985C119.325 1.12493 115.004 -0.210701 111.522 1.61632L3.97379 58.0448C-2.09134 61.2271 -0.605026 70.3001 6.15845 71.3808L126.09 90.5442Z" fill="#C2E5CE" stroke="white" stroke-width="4" mask="url(#path-1-inside-1_389_11056)"/>
</svg>
