<svg width="714" height="503" viewBox="0 0 714 503" fill="none" xmlns="http://www.w3.org/2000/svg">
<path d="M708.75 146.25C708.75 340.516 551.266 498 357 498C338.182 498 319.708 496.522 301.69 493.676L299.281 497.848C318.068 500.909 337.348 502.5 357 502.5C553.751 502.5 713.25 343.001 713.25 146.25C713.25 -50.5014 553.751 -210 357 -210C160.249 -210 0.75 -50.5014 0.75 146.25C0.75 316.06 119.558 458.12 278.585 493.842L280.944 489.756C123.24 454.995 5.25 314.402 5.25 146.25C5.25 -48.0162 162.734 -205.5 357 -205.5C551.266 -205.5 708.75 -48.0162 708.75 146.25Z" fill="white"/>
</svg>
