<svg width="254" height="182" viewBox="0 0 254 182" fill="none" xmlns="http://www.w3.org/2000/svg">
<g clip-path="url(#clip0_1120_26075)">
<path d="M254 0H0V182H254V0Z" fill="white"/>
<path d="M142.06 131.353C144.532 131.353 146.537 129.325 146.537 126.824C146.537 124.322 144.532 122.294 142.06 122.294C139.587 122.294 137.582 124.322 137.582 126.824C137.582 129.325 139.587 131.353 142.06 131.353Z" fill="white"/>
<path d="M142.061 11.1177H16.6895V98.4118H142.061V11.1177Z" fill="#1A1B22"/>
<path d="M239.143 83.7942H114.992V169.853H239.143V83.7942Z" fill="white" stroke="#1A1B22" stroke-width="3"/>
<path d="M60.5944 59.047H56.1169C55.2214 63 52.3313 65.3882 47.9759 65.3882C42.847 65.3882 39.1023 61.1471 39.1023 53.7765C39.1023 46.2823 42.9691 42.2882 47.9352 42.2882C52.2499 42.2882 55.0993 44.7588 55.9948 48.6294H60.4723C59.2512 42.0823 54.448 38.3765 48.1387 38.3765C39.6722 38.3765 34.3398 44.4294 34.3398 53.7765C34.3398 62.9588 39.3059 69.3 47.8537 69.3C54.4073 69.3 59.3326 65.6765 60.5944 59.047ZM62.3688 59.1294C62.3688 65.5941 65.9101 69.3 72.0566 69.3C78.1624 69.3 81.7037 65.4706 81.7037 59.0059V38.9118H77.0633V58.9647C77.0633 63.7823 74.7839 65.4706 72.0566 65.4706C69.0037 65.4706 66.8464 63.2882 66.8464 59.1294H62.3688ZM100.648 68.7647H105.452L113.308 43.6471V68.7647H117.867V38.9118H110.418L103.05 63.2882L95.6823 38.9118H88.2332V68.7647H92.7922V43.6471L100.648 68.7647Z" fill="white"/>
<path d="M125.129 131.188C125.129 137.653 128.67 141.359 134.817 141.359C140.922 141.359 144.464 137.53 144.464 131.065V110.971H139.823V131.024C139.823 135.841 137.544 137.53 134.817 137.53C131.764 137.53 129.606 135.347 129.606 131.188H125.129ZM157.302 114.965V140.824H161.943V114.965H171.386V110.971H147.818V114.965H157.302ZM174.724 110.971V140.824H186.448C192.431 140.824 197.234 138.353 197.234 132.012C197.234 128.182 195.443 126.124 192.798 124.93C194.711 123.818 196.054 121.265 196.054 118.465C196.054 112.412 191.006 110.971 185.593 110.971H174.724ZM179.365 123.612V114.841H186.163C189.256 114.841 191.373 116.2 191.373 119.041C191.373 122.253 189.338 123.612 186.163 123.612H179.365ZM179.365 136.953V127.235H186.325C190.518 127.235 192.472 128.718 192.472 132.012C192.472 135.182 190.518 136.953 186.57 136.953H179.365ZM210.053 110.971H201.994V140.824H210.053C219.415 140.824 226.335 137.406 226.335 125.877C226.335 114.388 219.415 110.971 210.053 110.971ZM209.85 114.841C215.752 114.841 221.532 116.077 221.532 125.877C221.532 135.718 215.752 136.953 209.85 136.953H206.634V114.841H209.85Z" fill="#1A1B22"/>
</g>
<defs>
<clipPath id="clip0_1120_26075">
<rect width="254" height="182" fill="white"/>
</clipPath>
</defs>
</svg>
