<svg width="254" height="182" viewBox="0 0 254 182" fill="none" xmlns="http://www.w3.org/2000/svg">
<g clip-path="url(#clip0_1120_26067)">
<path d="M254 0H0V182H254V0Z" fill="white"/>
<path d="M96.7983 83.5647H11.3965V26.0442H96.7983V8.64697L165.262 51.8114L96.7983 102.529V83.5647Z" fill="white" stroke="#1A1B22" stroke-width="2"/>
<path d="M32.1986 65.8822H40.7059V43.3999H49.5389V36.0293H23.4062V43.3999H32.1986V65.8822ZM59.2101 66.4587C66.0485 66.4587 69.712 61.6822 70.6889 58.4293H63.0364C62.5479 59.6234 60.9197 60.4058 59.3322 60.4058C56.7678 60.4058 55.221 58.9646 54.936 56.6999H70.7296C71.2588 48.9999 66.4963 42.9058 58.8437 42.9058C52.2088 42.9058 47.0392 47.4352 47.0392 54.5175C47.0392 61.4764 51.4761 66.4587 59.2101 66.4587ZM59.3729 48.5469C61.1232 48.5469 63.3213 49.494 63.5248 52.1293H55.0582C55.5873 49.494 57.6633 48.5469 59.3729 48.5469ZM96.0279 43.7293H87.1134L83.4093 48.5881L79.8272 43.7293H70.6686L78.8096 54.6822L70.3429 65.8822H79.2981L83.2465 60.6528L87.1541 65.8822H96.2721L87.8461 54.5587L96.0279 43.7293ZM100.423 43.7293H96.0266V48.9175H100.423V59.2117C100.423 65.3058 102.499 65.8822 108.523 65.8822H114.14V60.3234H110.151C109.052 60.3234 108.564 60.0764 108.564 58.7999V48.9175H114.14V43.7293H108.564V37.6352H100.423V43.7293Z" fill="#1A1B22"/>
<path d="M156.794 98.0235H242.195V155.544H156.794V172.941L88.3301 129.777L156.794 79.0588V98.0235Z" fill="#1A1B22" stroke="#1A1B22" stroke-width="3"/>
<path d="M141.532 140.412H144.26L149.999 113.112H159.931L160.46 110.559H137.869L137.34 113.112H147.272L141.532 140.412ZM171.186 133.782C170.046 136.871 167.359 138.6 163.655 138.6C159.585 138.6 157.346 136.171 157.346 131.847V131.065C157.346 130.776 157.387 130.447 157.427 130.076H174.768C176.477 122.541 173.18 117.888 166.993 117.888C158.364 117.888 154.741 126 154.741 132.135C154.741 138.024 158.119 140.947 163.37 140.947C168.703 140.947 172.57 137.694 173.872 133.782H171.186ZM166.79 120.194C170.982 120.194 173.18 123.076 172.529 127.729H157.916C158.974 123.488 162.149 120.194 166.79 120.194ZM196.792 118.259H193.78L185.923 126.906L181.649 118.259H178.8L184.092 128.924L173.63 140.412H176.683L185.15 131.065L189.831 140.412H192.64L186.982 129.047L196.792 118.259ZM201.691 118.259H198.028L197.58 120.482H201.243L198.15 135.141C197.905 136.253 197.783 137.159 197.783 137.859C197.783 139.959 198.842 140.412 201.772 140.412H203.889L204.378 138.106H203.116C201.04 138.106 200.429 137.859 200.429 136.747C200.429 136.253 200.592 135.594 200.795 134.647L203.767 120.482H208.082L208.529 118.259H204.255L205.314 113.276H202.749L201.691 118.259Z" fill="white"/>
<path d="M214.516 17.2942L220.731 36.6417H240.841L224.571 48.599L230.786 67.9466L214.516 55.9894L198.247 67.9466L204.461 48.599L188.191 36.6417H208.302L214.516 17.2942Z" fill="#1A1B22"/>
</g>
<defs>
<clipPath id="clip0_1120_26067">
<rect width="254" height="182" fill="white"/>
</clipPath>
</defs>
</svg>
