<svg width="254" height="182" viewBox="0 0 254 182" fill="none" xmlns="http://www.w3.org/2000/svg">
<g clip-path="url(#clip0_1120_26085)">
<path d="M254 0H0V182H254V0Z" fill="white"/>
<path d="M220.214 74.1177H33.3774C28.8812 74.1177 25.2363 77.8047 25.2363 82.353V161.412C25.2363 165.96 28.8812 169.647 33.3774 169.647H220.214C224.71 169.647 228.355 165.96 228.355 161.412V82.353C228.355 77.8047 224.71 74.1177 220.214 74.1177Z" fill="#1A1B22"/>
<path d="M95.8013 105.659H89.1191V130.977C89.1191 144.556 94.2773 149.418 106.293 149.418C118.661 149.418 123.526 143.666 123.526 130.622V105.659H116.844V130.977C116.844 139.16 114.265 143.726 106.293 143.726C98.3217 143.726 95.8013 139.575 95.8013 131.452V105.659ZM142.906 126.59L127.198 148.647H134.759L146.658 131.926L158.44 148.647H166.411L150.702 126.293L165.356 105.659H157.795L146.892 120.957L136.224 105.659H128.253L142.906 126.59Z" fill="white"/>
<path d="M205.764 54.5589C205.764 64.2292 197.176 73.1875 182.815 79.7638C168.51 86.3146 148.705 90.3824 126.796 90.3824C104.887 90.3824 85.0823 86.3146 70.7773 79.7638C56.4165 73.1875 47.8281 64.2292 47.8281 54.5589C47.8281 44.8886 56.4165 35.9301 70.7773 29.3538C85.0823 22.8031 104.887 18.7354 126.796 18.7354C148.705 18.7354 168.51 22.8031 182.815 29.3538C197.176 35.9301 205.764 44.8886 205.764 54.5589Z" fill="white" stroke="#1A1B22" stroke-width="3"/>
<path d="M83.123 41.943V64.6472H92.0387C96.5895 64.6472 100.242 62.7684 100.242 57.9458C100.242 55.0334 98.8804 53.4674 96.8684 52.5591C98.3232 51.7137 99.3449 49.7723 99.3449 47.6426C99.3449 43.0391 95.506 41.943 91.3886 41.943H83.123ZM86.6522 51.5572V44.8867H91.8221C94.1749 44.8867 95.7848 45.9202 95.7848 48.0811C95.7848 50.5237 94.2368 51.5572 91.8221 51.5572H86.6522ZM86.6522 61.7035V54.3128H91.9459C95.1347 54.3128 96.6205 55.4402 96.6205 57.9458C96.6205 60.3571 95.1347 61.7035 92.1319 61.7035H86.6522ZM109.713 41.943L101.385 64.6472H104.977L106.71 59.6682H116.462L118.226 64.6472H122.065L113.614 41.943H109.713ZM107.763 56.6615L111.54 45.8263L115.379 56.6615H107.763ZM129.958 54.125L132.714 54.6887C135.128 55.1898 137.357 56.1295 137.357 58.4782C137.357 60.67 135.314 62.0795 132.404 62.0795C129.246 62.0795 127.172 60.4823 126.522 57.3821H123.055C123.581 62.1421 127.079 65.0545 132.28 65.0545C136.645 65.0545 140.917 62.7058 140.917 58.1961C140.917 53.6239 136.986 52.2461 133.395 51.4947L130.733 50.931C128.813 50.5237 127.327 49.5528 127.327 47.6739C127.327 45.2939 130.144 44.5111 131.785 44.5111C133.921 44.5111 136.367 45.3252 137.079 48.0185H140.484C139.617 43.4463 136.057 41.5361 131.94 41.5361C128.163 41.5361 123.736 43.5402 123.736 47.8304C123.736 51.6511 126.77 53.4674 129.958 54.125ZM147.993 64.6472V41.943H144.464V64.6472H147.993ZM171.936 57.2565H168.531C167.85 60.2632 165.651 62.0795 162.339 62.0795C158.439 62.0795 155.59 58.8537 155.59 53.2484C155.59 47.5487 158.531 44.5111 162.308 44.5111C165.59 44.5111 167.757 46.39 168.438 49.3337H171.843C170.914 44.3547 167.261 41.5361 162.463 41.5361C156.024 41.5361 151.968 46.1397 151.968 53.2484C151.968 60.2319 155.745 65.0545 162.246 65.0545C167.23 65.0545 170.976 62.2985 171.936 57.2565Z" fill="#1A1B22"/>
</g>
<defs>
<clipPath id="clip0_1120_26085">
<rect width="254" height="182" fill="white"/>
</clipPath>
</defs>
</svg>
